<?xml version="1.0" encoding="UTF-8"?>
<svg id="Layer_2" xmlns="http://www.w3.org/2000/svg" xmlns:xlink="http://www.w3.org/1999/xlink" viewBox="0 0 274.76 148.3">
  <defs>
    <style>
      .cls-1 {
        fill: url(#linear-gradient-7);
      }

      .cls-1, .cls-2, .cls-3, .cls-4, .cls-5, .cls-6, .cls-7, .cls-8, .cls-9, .cls-10 {
        stroke: #aaafd8;
        stroke-miterlimit: 10;
        stroke-width: 6px;
      }

      .cls-2 {
        fill: url(#linear-gradient-9);
        opacity: .75;
      }

      .cls-3 {
        fill: url(#linear-gradient-5);
      }

      .cls-4 {
        fill: url(#linear-gradient-4);
      }

      .cls-5 {
        fill: url(#linear-gradient-6);
      }

      .cls-6 {
        fill: url(#linear-gradient-10);
        opacity: .5;
      }

      .cls-7 {
        fill: url(#linear-gradient-3);
      }

      .cls-8 {
        fill: url(#linear-gradient-8);
      }

      .cls-9 {
        fill: url(#linear-gradient);
        opacity: .35;
      }

      .cls-10 {
        fill: url(#linear-gradient-2);
      }
    </style>
    <linearGradient id="linear-gradient" x1="410.52" y1="-862.23" x2="524.46" y2="-796.04" gradientTransform="translate(730.68 770.01) rotate(-72.44)" gradientUnits="userSpaceOnUse">
      <stop offset="0" stop-color="#696fad"/>
      <stop offset="1" stop-color="#6d80bf"/>
    </linearGradient>
    <linearGradient id="linear-gradient-2" x1="-150.83" y1="1708.49" x2="-103.69" y2="1708.49" gradientTransform="translate(994.09 -1321.13) rotate(30.16)" xlink:href="#linear-gradient"/>
    <linearGradient id="linear-gradient-3" x1="-123.65" y1="1682.17" x2="-59.32" y2="1682.17" gradientTransform="translate(994.09 -1321.13) rotate(30.16)" xlink:href="#linear-gradient"/>
    <linearGradient id="linear-gradient-4" x1="-69.79" y1="1660.84" x2="-22.66" y2="1660.84" gradientTransform="translate(994.09 -1321.13) rotate(30.16)" xlink:href="#linear-gradient"/>
    <linearGradient id="linear-gradient-5" x1="-43.19" y1="1639.08" x2="4.43" y2="1639.08" gradientTransform="translate(994.09 -1321.13) rotate(30.16)" xlink:href="#linear-gradient"/>
    <linearGradient id="linear-gradient-6" x1="-14.25" y1="1625.74" x2="21.8" y2="1625.74" gradientTransform="translate(994.09 -1321.13) rotate(30.16)" xlink:href="#linear-gradient"/>
    <linearGradient id="linear-gradient-7" x1="3.82" y1="1609.45" x2="57.76" y2="1609.45" gradientTransform="translate(994.09 -1321.13) rotate(30.16)" xlink:href="#linear-gradient"/>
    <linearGradient id="linear-gradient-8" x1="46.18" y1="1588.81" x2="88.1" y2="1588.81" gradientTransform="translate(994.09 -1321.13) rotate(30.16)" xlink:href="#linear-gradient"/>
    <linearGradient id="linear-gradient-9" x1="171.96" y1="41.63" x2="195.17" y2="55.12" gradientTransform="translate(-1.74 -19.65) rotate(1.1)" xlink:href="#linear-gradient"/>
    <linearGradient id="linear-gradient-10" x1="225.01" y1="344.38" x2="233.65" y2="349.4" gradientTransform="translate(-13.98 -372.81) rotate(26.91)" xlink:href="#linear-gradient"/>
  </defs>
  <g id="Layer_1-2" data-name="Layer_1">
    <polygon class="cls-9" points="54.93 9.01 90.75 51.73 146.37 47.85 103.64 83.67 107.52 139.29 71.7 96.56 16.08 100.44 58.81 64.63 54.93 9.01"/>
    <g>
      <path class="cls-10" d="M3.06,107.6l10.15-40.47c.16-.57.46-1.03.91-1.38.44-.35.95-.52,1.52-.53l15.3-.26c.61,0,1.15.18,1.62.54.47.36.77.83.89,1.4l9.97,40.49c.21.77.05,1.48-.48,2.14-.53.65-1.17.98-1.95.99l-10.73.06c-.61,0-1.15-.19-1.62-.57-.47-.38-.77-.88-.89-1.49l-.44-2.31c-.08-.24-.23-.36-.43-.36l-7.01-.02c-.28,0-.43.12-.42.37l-.41,2.5c-.08.61-.35,1.12-.82,1.53-.47.41-1.02.62-1.67.62l-11.04-.06c-.85-.08-1.51-.42-1.96-1.03-.49-.65-.66-1.36-.5-2.13ZM24.68,92.61l-1.44-7.37c-.08-.24-.23-.36-.43-.36-.24.08-.39.21-.43.37l-1.06,7.44c0,.16.04.28.12.36.08.08.18.12.31.12l2.5-.07c.16,0,.28-.04.37-.12.04-.08.06-.2.06-.37Z"/>
      <path class="cls-7" d="M44.94,107.75l.45-41.4c0-.69.24-1.28.72-1.77.49-.49,1.07-.74,1.76-.74l14.45-.26c.57,0,1.07.16,1.5.48.43.32.75.75.95,1.28l4.9,15.7c.08.2.22.3.43.3.24,0,.37-.1.36-.31l4-15.81c.16-.57.47-1.04.94-1.41.46-.37.98-.53,1.55-.5l13.54.17c.69,0,1.27.23,1.74.69.47.47.73,1.02.77,1.67l2.05,41.51c.04.69-.18,1.32-.66,1.89-.49.49-1.09.74-1.83.74l-10.55.18c-.69,0-1.27-.22-1.74-.66-.47-.44-.75-1.01-.83-1.7l-1.05-14.69c-.08-.28-.23-.43-.43-.42-.2,0-.34.1-.42.31l-2.2,10.38c-.12.57-.41,1.05-.88,1.44-.47.39-1,.58-1.61.59l-4.94-.04c-1.22,0-2.04-.58-2.45-1.76l-3.22-9.62c-.08-.2-.22-.3-.43-.3-.24.08-.36.23-.36.43l-.05,13.72c0,.69-.24,1.28-.72,1.77-.49.49-1.09.74-1.82.74l-11.4-.06c-.65,0-1.24-.26-1.77-.78-.49-.49-.74-1.07-.74-1.76Z"/>
      <path class="cls-4" d="M97.06,107.11l10.15-40.47c.16-.57.46-1.03.91-1.38.45-.35.95-.52,1.52-.53l15.3-.26c.61,0,1.15.18,1.62.54.47.36.77.83.89,1.4l9.97,40.49c.21.77.05,1.48-.48,2.14-.52.65-1.17.98-1.95.99l-10.73.06c-.61,0-1.15-.19-1.62-.57-.47-.38-.77-.88-.89-1.49l-.44-2.31c-.08-.24-.23-.36-.43-.36l-7.01-.02c-.29,0-.43.12-.43.37l-.41,2.5c-.08.61-.35,1.12-.82,1.53-.47.41-1.02.62-1.67.62l-11.03-.06c-.85-.08-1.51-.42-1.96-1.03-.49-.65-.66-1.36-.5-2.13ZM118.69,92.12l-1.44-7.37c-.08-.24-.23-.36-.43-.36-.24.08-.39.21-.43.37l-1.06,7.44c0,.16.04.28.12.36.08.08.18.12.31.12l2.5-.07c.16,0,.28-.04.37-.12.04-.08.06-.2.06-.37Z"/>
      <path class="cls-3" d="M139.45,64.03c.49-.49,1.07-.74,1.76-.74l25.18-.19c.69,0,1.28.24,1.77.72s.74,1.09.74,1.82l.06,10.91c0,.65-.16,1.16-.48,1.53l-12.47,17.56c-.08.2-.08.37,0,.49.08.16.2.22.37.18l10.12-.18c.73,0,1.34.26,1.83.78.49.49.74,1.11.74,1.89l-.44,9.15c-.08.69-.35,1.26-.81,1.71-.47.45-1.04.68-1.73.68l-23.72-.12c-.69,0-1.28-.24-1.77-.72-.49-.49-.74-1.07-.74-1.76l-.11-9.75c0-.61.16-1.14.48-1.59l13.26-17.93c.08-.16.1-.33.06-.49-.08-.16-.21-.24-.37-.24l-11.52.24c-.69,0-1.29-.23-1.8-.69-.51-.46-.77-1.04-.77-1.73l-.36-9.69c0-.65.24-1.26.72-1.83Z"/>
      <path class="cls-5" d="M172.8,64.28c.48-.49,1.07-.74,1.76-.74l12.56.06c.73,0,1.34.24,1.83.72s.72,1.09.68,1.83l-.52,41.03c-.04.69-.3,1.28-.78,1.77s-1.07.74-1.76.74l-11.89.06c-.65,0-1.24-.26-1.77-.78-.49-.48-.74-1.07-.74-1.76l-.09-41.09c0-.73.24-1.34.72-1.83Z"/>
      <path class="cls-1" d="M192.65,106.55l.4-40.61c0-.69.24-1.28.72-1.77.49-.49,1.07-.74,1.76-.74l11.4-.06c.53,0,1,.13,1.4.39.41.26.71.64.92,1.12l6.73,15.76c.12.2.29.3.49.3.24-.08.36-.22.36-.43l-.08-14.87c0-.69.24-1.29.72-1.8.49-.51,1.07-.77,1.76-.77l10.24-.05c.69,0,1.28.26,1.77.78.49.44.74,1.05.74,1.82l-1.13,41.28c-.04.69-.29,1.26-.75,1.71-.47.45-1.04.7-1.73.74l-10.97.18c-1.18.09-1.99-.44-2.45-1.57l-5.43-13.32c-.08-.24-.24-.32-.49-.24-.2,0-.3.12-.3.37l-.3,12.13c0,.69-.24,1.28-.72,1.77-.57.45-1.18.68-1.83.68l-10.79-.25c-.69-.04-1.27-.3-1.74-.78-.47-.48-.71-1.07-.71-1.76Z"/>
      <path class="cls-8" d="M268.95,76.95l-8.82,2.85c-.69.21-1.33.16-1.92-.14-.59-.3-1.01-.76-1.26-1.36-.49-1.26-1.33-1.88-2.51-1.88-.73,0-1.49.26-2.28.77-.79.51-1.5,1.28-2.12,2.3-.63,1.02-1.13,2.28-1.5,3.79-.38,1.51-.52,3.23-.43,5.18.05,1.14.19,2.25.45,3.32.25,1.08.58,2.03,1,2.86.41.83.92,1.52,1.51,2.07.6.55,1.28.86,2.06.93,1.27.12,2.27-.09,3-.63.73-.53,1.28-1.18,1.65-1.96.36-.77.57-1.57.63-2.38.06-.81.09-1.42.08-1.83,0-.12-.04-.22-.12-.3-.08-.08-.18-.12-.31-.12l-1.1.07c-.69.09-1.3-.08-1.83-.51-.53-.42-.84-.98-.92-1.67l-.13-.91c-.09-.77.11-1.42.6-1.95.48-.57,1.11-.86,1.88-.86l12.5-.31c.69-.04,1.28.16,1.77.6.49.45.76,1.01.8,1.7.04.41.07.85.1,1.34.02.49.04,1.02.04,1.58,0,1.22-.06,2.56-.19,4.03-.14,1.46-.41,2.94-.83,4.42-.42,1.49-1,2.93-1.75,4.34-.74,1.41-1.71,2.67-2.91,3.8-1.19,1.12-2.64,2.05-4.34,2.77-1.7.72-3.71,1.13-6.03,1.22-4.14.22-7.57-.29-10.28-1.53-2.71-1.25-4.87-2.93-6.49-5.06-1.62-2.13-2.79-4.53-3.51-7.21-.73-2.68-1.16-5.34-1.29-7.98-.18-4.14.3-7.83,1.46-11.04,1.16-3.22,2.73-5.93,4.72-8.13,1.99-2.21,4.27-3.88,6.84-5.04,2.57-1.15,5.15-1.73,7.75-1.75,1.63,0,3.22.22,4.79.68,1.57.46,3.03,1.15,4.4,2.08,1.37.93,2.6,2.1,3.71,3.52,1.1,1.42,2.01,3.1,2.71,5.05.25.65.21,1.32-.11,2.01-.32.61-.81,1.04-1.46,1.29Z"/>
    </g>
    <polygon class="cls-2" points="196.56 32.24 185.1 36.49 180.86 47.95 176.62 36.49 165.16 32.24 176.62 28 180.86 16.54 185.1 28 196.56 32.24"/>
    <polygon class="cls-6" points="38.77 42.86 34.24 42.42 30.96 45.57 31.4 41.05 28.24 37.77 32.77 38.2 36.05 35.05 35.61 39.58 38.77 42.86"/>
  </g>
</svg>