<?xml version="1.0" encoding="UTF-8"?>
<svg id="Layer_2" data-name="Layer 2" xmlns="http://www.w3.org/2000/svg" xmlns:xlink="http://www.w3.org/1999/xlink" viewBox="0 0 97.48 97.81">
  <defs>
    <style>
      .cls-1, .cls-2 {
        opacity: .75;
      }

      .cls-3 {
        fill: url(#radial-gradient-2);
      }

      .cls-3, .cls-4, .cls-2 {
        stroke-width: 0px;
      }

      .cls-4 {
        fill: url(#radial-gradient);
      }

      .cls-2 {
        fill: url(#radial-gradient-3);
      }
    </style>
    <radialGradient id="radial-gradient" cx="48.74" cy="48.9" fx="48.74" fy="48.9" r="38.82" gradientUnits="userSpaceOnUse">
      <stop offset="0" stop-color="#3f1c3d"/>
      <stop offset="1" stop-color="#351834"/>
    </radialGradient>
    <radialGradient id="radial-gradient-2" cx="48.74" cy="48.9" fx="48.74" fy="48.9" r="48.82" gradientUnits="userSpaceOnUse">
      <stop offset="0" stop-color="#817cb5"/>
      <stop offset=".38" stop-color="rgba(128, 123, 180, .99)" stop-opacity=".99"/>
      <stop offset=".59" stop-color="rgba(128, 121, 177, .96)" stop-opacity=".96"/>
      <stop offset=".75" stop-color="rgba(126, 117, 172, .9)" stop-opacity=".9"/>
      <stop offset=".9" stop-color="rgba(124, 112, 165, .83)" stop-opacity=".83"/>
      <stop offset="1" stop-color="#7b6c9e" stop-opacity=".75"/>
    </radialGradient>
    <radialGradient id="radial-gradient-3" cx="-4143.4" cy="878.48" fx="-4143.4" fy="878.48" r="25.7" gradientTransform="translate(-4096.59 927.38) rotate(-180)" gradientUnits="userSpaceOnUse">
      <stop offset="0" stop-color="#8179b2"/>
      <stop offset="1" stop-color="#6e83bc"/>
    </radialGradient>
  </defs>
  <g id="Layer_1-2" data-name="Layer 1">
    <g class="cls-1">
      <polygon class="cls-4" points="10.09 15.63 15.73 10 82.15 10 87.48 15.34 87.48 82.68 82.35 87.81 15.05 87.81 10.01 82.77 10.09 15.63"/>
      <path class="cls-3" d="M82.15,10l5.34,5.34v67.34l-5.13,5.13H15.05l-5.04-5.04.09-67.13,5.63-5.63h66.42M86.29,0H11.59l-2.93,2.93-5.63,5.63L.1,11.49v4.13S0,82.75,0,82.75v4.15s2.93,2.93,2.93,2.93l5.04,5.04,2.93,2.93h75.59l2.93-2.93,5.13-5.13,2.93-2.93V11.19l-2.93-2.93-5.34-5.34-2.93-2.93h0Z"/>
    </g>
    <polygon class="cls-2" points="73.7 64.95 50.88 64.95 50.88 73.35 19.93 48.81 50.42 24.45 50.42 33.03 73.7 33.03 73.7 64.95"/>
  </g>
</svg>