<?xml version="1.0" encoding="UTF-8"?>
<svg id="Layer_2" data-name="Layer 2" xmlns="http://www.w3.org/2000/svg" xmlns:xlink="http://www.w3.org/1999/xlink" viewBox="0 0 8.71 18.3">
  <defs>
    <style>
      .cls-1 {
        fill: url(#linear-gradient);
        stroke-width: 0px;
      }
    </style>
    <linearGradient id="linear-gradient" x1="-6.2" y1="16.65" x2="2.76" y2="16.65" gradientTransform="translate(-1.71 -7.06) rotate(-19.11)" gradientUnits="userSpaceOnUse">
      <stop offset="0" stop-color="#f3714e"/>
      <stop offset="1" stop-color="#f8994f"/>
    </linearGradient>
  </defs>
  <g id="Layer_1-2" data-name="Layer 1">
    <path class="cls-1" d="M8.46,13.89l-2.16.75c.01-.38-.04-.73-.16-1.02,0-.02,0-.03-.01-.05v-.02c-.62-1.72-1.26-3.51-1.86-5.25S2.06,1.83,1.56.35v-.02C1.45.03,1.13-.05.89.03c-.26.09-.46.35-.34.68v.02c.53,1.41,2.16,6.07,2.73,7.72.52,1.49,1.03,3.02,1.51,4.46-.72.17-1.52.89-2.02,1.93-.19.39-.32.79-.39,1.17l-2.37.82.25.72,2.07-.72c.04.64.28,1.15.73,1.37.86.42,2.12-.42,2.82-1.86.14-.28.24-.57.32-.84l2.54-.88-.25-.72Z"/>
  </g>
</svg>