<?xml version="1.0" encoding="UTF-8"?>
<svg id="Layer_2" data-name="Layer 2" xmlns="http://www.w3.org/2000/svg" xmlns:xlink="http://www.w3.org/1999/xlink" viewBox="0 0 29.05 44.08">
  <defs>
    <style>
      .cls-1 {
        fill: url(#linear-gradient);
        stroke-width: 0px;
      }
    </style>
    <linearGradient id="linear-gradient" x1="73.85" y1="-108.44" x2="104.32" y2="-108.44" gradientTransform="translate(82.45 -99.36) rotate(170.62)" gradientUnits="userSpaceOnUse">
      <stop offset="0" stop-color="#f3714e"/>
      <stop offset="1" stop-color="#f8994f"/>
    </linearGradient>
  </defs>
  <g id="Layer_1-2" data-name="Layer 1">
    <path class="cls-1" d="M1.05,43.66c1.62,1.16,4.51-.11,6.47-2.84,1.36-1.9,1.91-4.01,1.56-5.51,0-.03,0-.06,0-.1v-.03c-.66-3.76-1.34-7.69-1.97-11.48-.49-2.99-1.64-10.03-2.34-14.47,5.36-1.53,3.23-1.01,8.93-2.56,5.5-1.5,4.68-1.22,8.8-2.29.76,4.33,1.89,11.06,2.35,13.84.54,3.26,1.07,6.59,1.54,9.72-1.55.09-3.44,1.3-4.85,3.26-1.95,2.73-2.23,5.88-.61,7.04s4.51-.11,6.47-2.84c1.36-1.9,1.91-4.01,1.56-5.51,0-.03,0-.06,0-.1v-.03c-.66-3.76-1.34-7.69-1.97-11.48s-2.3-14.13-2.8-17.37v-.03c-.12-.67-.74-.94-1.28-.85-.05,0-.1.02-.15.04h.02s-.02,0-.03,0c-.02,0-.05.01-.07.02-4.59,1.38-4.28,1.39-9.73,2.88-6.15,1.68-9.91,2.48-9.91,2.48-.57.09-1.07.55-.95,1.29v.03c.58,3.09,2.3,13.28,2.9,16.88.54,3.26,1.07,6.59,1.54,9.72-1.55.09-3.44,1.3-4.85,3.26-1.95,2.73-2.23,5.88-.61,7.04ZM22.65.09c-.09.03-.17.08-.24.13-.1,0-.21.02-.32.06l.56-.18Z"/>
  </g>
</svg>