<svg width="80" height="77" viewBox="0 0 80 77" fill="none" xmlns="http://www.w3.org/2000/svg">
<path d="M0.109548 38.824C0.339092 36.3347 0.83525 33.8773 1.58953 31.494C4.04953 23.644 7.66953 16.664 13.5895 10.904C16.7295 7.844 21.0995 4.36399 25.2195 2.75399C30.0395 0.853995 36.9795 -0.52601 42.1695 0.19399C61.0495 2.80399 81.9096 20.194 78.8096 40.824C76.3396 57.264 64.5396 73.484 47.2396 75.944C42.5639 76.6254 37.8035 76.4526 33.1896 75.434C14.8796 70.864 -1.50045 57.704 0.109548 38.824Z" fill="white"/>
<path d="M8.71948 40.1737C8.90018 38.1352 9.306 36.123 9.92951 34.1737C11.9295 27.7337 14.9295 22.0137 19.7895 17.2837C22.3595 14.7837 25.9495 11.9237 29.3195 10.6037C33.3195 9.04374 38.9695 7.91375 43.2295 8.50375C58.7095 10.6437 75.8095 24.9037 73.2295 41.8137C71.2295 55.3037 61.5295 68.6037 47.3395 70.6237C43.5059 71.1849 39.6021 71.0426 35.8195 70.2037C20.8295 66.4837 7.38948 55.6937 8.71948 40.1737Z" fill="#FCB04E"/>
<path d="M7.55958 38.6939C7.73633 36.6753 8.13886 34.6828 8.75959 32.7539C10.7596 26.3839 13.6996 20.7539 18.5096 16.0439C21.0596 13.5739 24.6096 10.7439 27.9396 9.43388C31.8496 7.89388 37.4896 6.78388 41.6996 7.36388C57.0096 9.48388 73.9296 23.5839 71.4196 40.3639C69.4196 53.7039 59.8396 66.8639 45.8096 68.8539C42.0197 69.4136 38.1594 69.2747 34.4196 68.4439C19.5396 64.6939 6.24958 54.0139 7.55958 38.6939Z" fill="url(#paint0_linear_51_798)"/>
<path d="M48.4897 13.0238C48.4897 14.2038 45.3497 15.1638 41.4897 15.1638C37.6297 15.1638 34.4897 14.1638 34.4897 13.0238C34.4897 11.8838 37.6297 10.8838 41.4897 10.8838C45.3497 10.8838 48.4897 11.8438 48.4897 13.0238Z" fill="white"/>
<path d="M32.5997 14.0639C32.7497 14.6039 32.1197 15.2339 31.2097 15.4939C30.2997 15.7539 29.4297 15.4939 29.2797 14.9939C29.1297 14.4939 29.7497 13.8239 30.6697 13.5639C31.5897 13.3039 32.4497 13.5339 32.5997 14.0639Z" fill="white"/>
<path d="M30.9795 44.7439L31.3195 35.8839L33.0195 36.0138C39.358 36.5687 45.7411 36.3268 52.0195 35.2938L54.0195 34.9438L53.6795 44.2539L52.0195 44.1739C45.6064 43.9485 39.1856 44.0954 32.7895 44.6139L30.9795 44.7439ZM42.8195 40.8339C45.5995 40.7672 48.1728 40.7672 50.5395 40.8339L50.6195 38.8339C45.269 39.5671 39.8579 39.7547 34.4695 39.3939L34.3995 41.2038C37.3795 41.0172 40.1862 40.8905 42.8195 40.8238" fill="url(#paint1_linear_51_798)"/>
<path d="M30.9795 35.5637L31.3195 26.7037L33.0195 26.8337C39.358 27.3885 45.7411 27.1466 52.0195 26.1137L54.0195 25.7637L53.6795 35.0737L52.0195 34.9937C45.6064 34.7683 39.1856 34.9152 32.7895 35.4337L30.9795 35.5637ZM34.4695 30.2237L34.3995 32.0337C40.5295 31.6437 45.9195 31.5137 50.5395 31.6537L50.6195 29.6537C45.269 30.3854 39.8583 30.5763 34.4695 30.2237Z" fill="url(#paint2_linear_51_798)"/>
<path d="M30.7295 53.4039L31.1295 44.754L32.7595 44.8239C39.1823 45.0204 45.6109 44.8836 52.0195 44.414L53.8595 44.2939L53.4095 52.5639L51.7495 52.444C45.4118 51.9488 39.0386 52.1668 32.7495 53.0939L30.7295 53.4039ZM34.2495 48.1539L34.1695 49.5739C39.5193 48.9116 44.9189 48.7442 50.2995 49.0739L50.3695 47.804C45.8095 48.064 41.6395 48.2039 37.9495 48.2039C36.6795 48.1739 35.4395 48.174 34.2495 48.174V48.1539Z" fill="url(#paint3_linear_51_798)"/>
<path d="M27.2595 35.284C26.5816 35.2479 25.918 35.0742 25.3094 34.7733C24.7008 34.4724 24.1598 34.0508 23.7195 33.534L23.4895 33.234C23.0153 32.5529 22.7503 31.7481 22.7272 30.9184C22.7041 30.0888 22.9239 29.2705 23.3595 28.564C23.7107 27.9481 24.2065 27.4269 24.804 27.0454C25.4016 26.6639 26.083 26.4334 26.7895 26.374H27.1595C27.8235 26.3836 28.4767 26.5443 29.0693 26.8441C29.6619 27.1439 30.1783 27.5748 30.5795 28.104C31.0825 28.6547 31.4279 29.3307 31.5792 30.061C31.7306 30.7913 31.6823 31.5488 31.4395 32.254C31.2047 32.9349 30.8095 33.5492 30.2874 34.0452C29.7652 34.5412 29.1315 34.9044 28.4395 35.104C28.0574 35.2227 27.6596 35.2834 27.2595 35.284ZM26.1695 31.394C26.6695 31.874 27.0395 32.094 27.3895 31.974C27.5977 31.9315 27.7912 31.8353 27.9508 31.695C28.1104 31.5547 28.2306 31.3751 28.2995 31.174C28.3595 31.004 28.4595 30.714 28.0095 30.174C27.5595 29.634 27.2495 29.634 27.1195 29.634C26.9078 29.6497 26.704 29.7208 26.5284 29.8401C26.3529 29.9595 26.2119 30.1229 26.1195 30.314C26.0295 30.464 25.8595 30.734 26.1695 31.394Z" fill="url(#paint4_linear_51_798)"/>
<path d="M27.2595 44.494C26.5816 44.4579 25.918 44.2841 25.3094 43.9833C24.7008 43.6824 24.1598 43.2607 23.7195 42.744L23.4895 42.444C23.0153 41.7629 22.7503 40.958 22.7272 40.1284C22.7041 39.2987 22.9239 38.4804 23.3595 37.774C23.7107 37.1581 24.2065 36.6369 24.804 36.2554C25.4016 35.8738 26.083 35.6434 26.7895 35.584H27.1595C27.8235 35.5935 28.4767 35.7543 29.0693 36.054C29.6619 36.3538 30.1783 36.7847 30.5795 37.314C31.0825 37.8646 31.4279 38.5406 31.5792 39.2709C31.7306 40.0012 31.6823 40.7588 31.4395 41.464C31.2047 42.1448 30.8095 42.7591 30.2874 43.2552C29.7652 43.7512 29.1315 44.1143 28.4395 44.314C28.0574 44.4327 27.6596 44.4933 27.2595 44.494ZM26.1695 40.604C26.6695 41.084 27.0395 41.304 27.3895 41.184C27.5977 41.1414 27.7912 41.0453 27.9508 40.9049C28.1104 40.7646 28.2306 40.585 28.2995 40.384C28.3595 40.214 28.4595 39.924 28.0095 39.384C27.5595 38.844 27.2495 38.844 27.1195 38.844C26.9073 38.8576 26.7025 38.9279 26.5267 39.0475C26.3508 39.1671 26.2102 39.3316 26.1195 39.524C26.0295 39.674 25.8595 39.944 26.1695 40.604Z" fill="url(#paint5_linear_51_798)"/>
<path d="M27.2595 53.5941C26.5816 53.558 25.918 53.3842 25.3094 53.0834C24.7008 52.7825 24.1598 52.3608 23.7195 51.8441L23.4895 51.5441C23.0153 50.863 22.7503 50.0581 22.7272 49.2285C22.7041 48.3989 22.9239 47.5805 23.3595 46.8741C23.7107 46.2582 24.2065 45.737 24.804 45.3555C25.4016 44.9739 26.083 44.7435 26.7895 44.6841H27.1595C27.8235 44.6936 28.4767 44.8544 29.0693 45.1542C29.6619 45.4539 30.1783 45.8848 30.5795 46.4141C31.0826 46.9626 31.4281 47.6369 31.5795 48.3657C31.7309 49.0944 31.6825 49.8506 31.4395 50.5541C31.2053 51.2364 30.8105 51.8523 30.2884 52.3501C29.7663 52.8478 29.1322 53.2127 28.4395 53.4141C28.0574 53.5328 27.6596 53.5934 27.2595 53.5941ZM26.1695 49.7041C26.6695 50.1841 27.0395 50.4041 27.3895 50.2841C27.5977 50.2416 27.7912 50.1454 27.9508 50.005C28.1104 49.8647 28.2306 49.6851 28.2995 49.4841C28.3595 49.3141 28.4595 49.0241 28.0095 48.4841C27.5595 47.9441 27.2495 47.9441 27.1195 47.9441C26.9073 47.9577 26.7025 48.028 26.5267 48.1476C26.3508 48.2672 26.2102 48.4317 26.1195 48.6241C26.0295 48.7741 25.8595 49.0441 26.1695 49.7041Z" fill="url(#paint6_linear_51_798)"/>
<path d="M32.6897 42.1039L32.8997 36.784C39.3818 37.3487 45.9092 37.1001 52.3297 36.0439L52.1697 41.674C45.6735 41.4376 39.1691 41.5811 32.6897 42.1039Z" fill="white"/>
<path d="M32.6897 32.924L32.8997 27.604C39.3823 28.1654 45.9096 27.9135 52.3297 26.854L52.1197 32.494C45.6402 32.2545 39.1522 32.3981 32.6897 32.924Z" fill="white"/>
<path d="M52.1697 45.1738L51.9197 49.9338C45.4457 49.4149 38.9336 49.6363 32.5098 50.5938L32.7397 45.5938C39.2193 45.7928 45.7048 45.6526 52.1697 45.1738Z" fill="white"/>
<path d="M24.8996 31.5238C24.5831 31.1035 24.3988 30.5985 24.3703 30.0732C24.3419 29.5478 24.4704 29.0259 24.7396 28.5738C24.9595 28.1733 25.274 27.8327 25.6557 27.5817C26.0374 27.3307 26.4748 27.177 26.9296 27.1338C27.3912 27.1034 27.8529 27.1912 28.2711 27.3889C28.6893 27.5867 29.0502 27.8878 29.3196 28.2638C29.6385 28.6004 29.8599 29.0173 29.9602 29.4699C30.0606 29.9226 30.0362 30.394 29.8896 30.8338C29.7387 31.2715 29.4845 31.6664 29.1485 31.985C28.8125 32.3035 28.4047 32.5364 27.9596 32.6638C26.9729 33.0038 25.9529 32.6238 24.8996 31.5238Z" fill="white"/>
<path d="M24.8996 40.7338C24.5831 40.3135 24.3988 39.8085 24.3703 39.2831C24.3419 38.7578 24.4704 38.2358 24.7396 37.7838C24.9595 37.3833 25.274 37.0427 25.6557 36.7917C26.0374 36.5407 26.4748 36.3869 26.9296 36.3438C27.3912 36.3134 27.8529 36.4012 28.2711 36.5989C28.6893 36.7966 29.0502 37.0977 29.3196 37.4738C29.6385 37.8104 29.8599 38.2273 29.9602 38.6799C30.0606 39.1325 30.0362 39.6039 29.8896 40.0438C29.7387 40.4815 29.4845 40.8764 29.1485 41.1949C28.8125 41.5135 28.4047 41.7463 27.9596 41.8738C26.9729 42.2071 25.9529 41.8271 24.8996 40.7338Z" fill="white"/>
<path d="M24.8997 49.8338C24.5738 49.4082 24.3841 48.8939 24.3556 48.3586C24.327 47.8233 24.4609 47.2918 24.7397 46.8338C24.9601 46.4347 25.2749 46.0956 25.6567 45.8463C26.0385 45.597 26.4756 45.4451 26.9297 45.4038C27.3913 45.3734 27.853 45.4612 28.2712 45.659C28.6894 45.8567 29.0503 46.1578 29.3197 46.5338C29.6385 46.8705 29.8599 47.2873 29.9603 47.74C30.0607 48.1926 30.0363 48.664 29.8896 49.1038C29.7396 49.5409 29.4856 49.935 29.1493 50.2521C28.8131 50.5692 28.4048 50.7997 27.9596 50.9238C26.9696 51.3038 25.9497 50.9238 24.8997 49.8338Z" fill="white"/>
<defs>
<linearGradient id="paint0_linear_51_798" x1="-0.591815" y1="12.6786" x2="87.4962" y2="76.1545" gradientUnits="userSpaceOnUse">
<stop stop-color="#23307A"/>
<stop offset="1" stop-color="#F75B99"/>
</linearGradient>
<linearGradient id="paint1_linear_51_798" x1="-0.591815" y1="12.6786" x2="87.4962" y2="76.1545" gradientUnits="userSpaceOnUse">
<stop stop-color="#23307A"/>
<stop offset="1" stop-color="#F75B99"/>
</linearGradient>
<linearGradient id="paint2_linear_51_798" x1="-0.591815" y1="12.6786" x2="87.4962" y2="76.1545" gradientUnits="userSpaceOnUse">
<stop stop-color="#23307A"/>
<stop offset="1" stop-color="#F75B99"/>
</linearGradient>
<linearGradient id="paint3_linear_51_798" x1="-0.591815" y1="12.6786" x2="87.4962" y2="76.1545" gradientUnits="userSpaceOnUse">
<stop stop-color="#23307A"/>
<stop offset="1" stop-color="#F75B99"/>
</linearGradient>
<linearGradient id="paint4_linear_51_798" x1="-0.591815" y1="12.6786" x2="87.4962" y2="76.1545" gradientUnits="userSpaceOnUse">
<stop stop-color="#23307A"/>
<stop offset="1" stop-color="#F75B99"/>
</linearGradient>
<linearGradient id="paint5_linear_51_798" x1="-0.591815" y1="12.6786" x2="87.4962" y2="76.1545" gradientUnits="userSpaceOnUse">
<stop stop-color="#23307A"/>
<stop offset="1" stop-color="#F75B99"/>
</linearGradient>
<linearGradient id="paint6_linear_51_798" x1="-0.591815" y1="12.6786" x2="87.4962" y2="76.1545" gradientUnits="userSpaceOnUse">
<stop stop-color="#23307A"/>
<stop offset="1" stop-color="#F75B99"/>
</linearGradient>
</defs>
</svg>
