<svg xmlns="http://www.w3.org/2000/svg" fill="none" viewBox="0 0 268 66"><path fill="#fff" d="M.093 33.56a30.433 30.433 0 0 1 1.242-6.336c2.064-6.786 5.102-12.82 10.07-17.798 2.635-2.646 6.302-5.654 9.751-7.045C25.209.738 240.009-.455 244.398.168c15.843 2.256 25.791 17.288 23.19 35.12-2.073 14.212-4.418 28.233-18.936 30.36-3.923.588-216.894.439-220.766-.442C12.488 61.256-1.266 49.854.093 33.56Z"/><path fill="url(#a)" d="M4.09 33.492a24.535 24.535 0 0 1 1.205-5.568c2.003-5.963 4.95-11.265 9.77-15.64 2.556-2.325 6.114-4.969 9.46-6.192C28.456 4.649 236.843 3.6 241.101 4.147 256.473 6.13 266.124 19.34 263.6 35.011c-2.011 12.489-4.286 24.81-18.37 26.679-3.807.518-210.42.386-214.176-.387C16.114 57.83 2.77 47.81 4.09 33.493Z"/><path fill="#fff" d="M251.788 13.9c-.382 1.117-3.664 1.006-7.315-.246-3.652-1.252-6.297-3.216-5.928-4.294.37-1.079 3.665-1.006 7.316.246s6.31 3.178 5.927 4.295ZM236.42 9.73c-.033.56-.833.951-1.778.902-.946-.05-1.684-.577-1.664-1.099.02-.522.824-.954 1.779-.902.954.053 1.693.55 1.663 1.1Z"/><defs><linearGradient id="a" x1="-2.005" x2="48.512" y1="10.96" y2="153.608" gradientUnits="userSpaceOnUse"><stop stop-color="#23307A"/><stop offset="1" stop-color="#F75B99"/></linearGradient></defs></svg>