<svg width="80" height="77" viewBox="0 0 80 77" fill="none" xmlns="http://www.w3.org/2000/svg">
<path d="M0.24982 38.824C0.468037 36.3348 0.957609 33.8769 1.70982 31.494C4.16982 23.644 7.78982 16.664 13.7098 10.904C16.8498 7.84398 21.2198 4.36399 25.3298 2.75399C30.1598 0.853988 37.0998 -0.52601 42.3298 0.19399C61.2098 2.80399 82.0698 20.194 78.9698 40.824C76.4998 57.264 64.6998 73.484 47.3998 75.944C42.7242 76.6254 37.9637 76.4526 33.3498 75.434C15.0198 70.864 -1.37018 57.674 0.24982 38.824Z" fill="white"/>
<path d="M8.85973 40.2138C9.04042 38.1753 9.44623 36.163 10.0697 34.2138C12.0697 27.7738 15.0697 22.0538 19.9297 17.3238C22.4997 14.8238 26.0897 11.9638 29.4597 10.6438C33.4097 9.08379 39.1097 7.95378 43.3597 8.54378C58.8497 10.6838 75.9497 24.9438 73.3597 41.8538C71.3597 55.3438 61.6597 68.6438 47.4697 70.6638C43.6361 71.225 39.7323 71.0827 35.9497 70.2438C20.9697 66.4838 7.52973 55.6738 8.85973 40.2138Z" fill="#FCB04E"/>
<path d="M7.70975 38.6739C7.8865 36.6552 8.28901 34.6628 8.90975 32.7339C10.9097 26.3639 13.8397 20.7339 18.6597 16.0239C21.2097 13.5539 24.7597 10.7239 28.0897 9.41387C31.9997 7.87387 37.6397 6.76386 41.8497 7.34386C57.1597 9.46386 74.0797 23.5639 71.5697 40.3439C69.5697 53.6839 59.9897 66.8439 45.9597 68.8339C42.1665 69.3933 38.303 69.2543 34.5598 68.4239C19.7098 64.6739 6.38975 54.0139 7.70975 38.6739Z" fill="url(#paint0_linear_51_791)"/>
<path d="M48.6297 13.0238C48.6297 14.2038 45.4797 15.1638 41.6297 15.1638C37.7797 15.1638 34.6297 14.1638 34.6297 13.0238C34.6297 11.8838 37.7697 10.8838 41.6297 10.8838C45.4897 10.8838 48.6297 11.8438 48.6297 13.0238Z" fill="white"/>
<path d="M32.7097 14.0639C32.8597 14.6039 32.2297 15.2339 31.3197 15.4939C30.4097 15.7539 29.5397 15.4939 29.3897 14.9939C29.2397 14.4939 29.8597 13.8239 30.7797 13.5639C31.6997 13.3039 32.5897 13.5339 32.7097 14.0639Z" fill="white"/>
<path d="M33.7097 53.5941L26.2197 45.5041L27.6897 44.2441C29.7597 42.4741 31.6897 40.6641 33.5997 38.8341C31.4597 36.9741 29.3097 35.2641 27.2097 33.7341L25.3597 32.3841L33.2997 25.1441L34.5597 26.5141C36.1397 28.2341 37.9497 30.1041 39.9197 32.0541C41.6897 29.9741 43.3197 27.8841 44.7597 25.8241L46.0797 23.9341L53.9797 32.4341L52.5897 33.6741C50.8897 35.2141 49.0597 36.9741 47.1397 38.9041C48.9797 40.5941 50.8997 42.3141 52.8697 44.0441L54.4497 45.4341L46.8097 52.2841L45.5697 50.8541C44.0197 49.0741 42.3997 47.3141 40.7597 45.6041C38.9197 47.6041 37.0097 49.7641 35.0697 51.9941L33.7097 53.5941ZM31.5697 45.8041L33.5697 48.0141C35.5697 45.7741 37.4497 43.6441 39.2997 41.6641L40.6097 40.2441L41.9797 41.6141C43.7197 43.3541 45.4297 45.1641 47.0797 47.0141L48.7897 45.4741C46.8397 43.7441 44.9497 42.0241 43.1497 40.3541L41.7497 39.0541L43.0797 37.6841C45.0797 35.6841 46.8997 33.8641 48.6497 32.2241L46.4097 29.8241C44.8797 31.8741 43.1897 33.9441 41.4097 36.0041L40.1197 37.4641L38.7197 36.1041C36.6697 34.1041 34.7197 32.1841 33.0697 30.3841L31.2097 32.0841C33.3197 33.6941 35.4397 35.4641 37.5597 37.3741L38.9997 38.6741L37.6397 40.0641C35.7097 41.9941 33.7097 43.9141 31.5697 45.8041Z" fill="url(#paint1_linear_51_791)"/>
<path d="M51.3697 44.5837C48.823 42.3437 46.433 40.187 44.1997 38.1137C46.5997 35.6437 48.8997 33.4137 51.0597 31.4437L46.0597 26.0137C44.1198 28.7537 42.03 31.3844 39.7997 33.8937C37.2697 31.4337 34.9797 29.0937 32.9597 26.8937L28.0797 31.3437C30.8545 33.3844 33.5246 35.5638 36.0797 37.8737C33.7797 40.2137 31.3064 42.5137 28.6597 44.7737L33.4197 49.9237C35.8664 47.1037 38.1997 44.4803 40.4197 42.0537C42.5297 44.1637 44.6197 46.3937 46.6897 48.7837L51.3697 44.5837Z" fill="white"/>
<defs>
<linearGradient id="paint0_linear_51_791" x1="-0.452951" y1="12.6786" x2="87.6425" y2="76.1769" gradientUnits="userSpaceOnUse">
<stop stop-color="#23307A"/>
<stop offset="1" stop-color="#F75B99"/>
</linearGradient>
<linearGradient id="paint1_linear_51_791" x1="-0.452951" y1="12.6786" x2="87.6425" y2="76.1769" gradientUnits="userSpaceOnUse">
<stop stop-color="#23307A"/>
<stop offset="1" stop-color="#F75B99"/>
</linearGradient>
</defs>
</svg>
