<svg xmlns="http://www.w3.org/2000/svg" fill="none" viewBox="0 0 80 77">
  <path fill="#fff" d="M.11 38.824a34.3 34.3 0 0 1 1.48-7.33c2.46-7.85 6.08-14.83 12-20.59 3.14-3.06 7.51-6.54 11.62-8.15 4.83-1.9 11.77-3.28 17-2.56 18.88 2.61 39.74 20 36.64 40.63-2.47 16.44-14.27 32.66-31.57 35.12a39.05 39.05 0 0 1-14-.51c-18.4-4.57-34.79-17.73-33.17-36.61Z"/>
  <path fill="#FCB04E" d="M8.77 40.174c.181-2.039.587-4.051 1.21-6 2-6.44 5-12.16 9.86-16.89 2.57-2.5 6.16-5.36 9.53-6.68 4-1.56 9.65-2.69 13.91-2.1 15.48 2.14 32.58 16.4 30 33.31-2 13.49-11.7 26.79-25.89 28.81a31.881 31.881 0 0 1-11.52-.42c-15.04-3.72-28.48-14.51-27.1-30.03Z"/>
  <path fill="url(#a)" d="M7.56 38.694c.177-2.019.58-4.011 1.2-5.94 2-6.37 4.94-12 9.75-16.71 2.55-2.47 6.1-5.3 9.43-6.61 3.91-1.54 9.55-2.65 13.76-2.07 15.31 2.12 32.23 16.23 29.72 33-2 13.34-11.58 26.5-25.61 28.49a31.45 31.45 0 0 1-11.4-.41c-14.87-3.75-28.16-14.43-26.85-29.75Z"/>
  <path fill="#fff" d="M48.49 13.024c0 1.18-3.14 2.14-7 2.14s-7-1-7-2.14c0-1.14 3.14-2.14 7-2.14s7 .96 7 2.14ZM32.6 14.064c.15.54-.48 1.17-1.39 1.43-.91.26-1.78 0-1.93-.5-.15-.5.47-1.17 1.39-1.43.92-.26 1.78-.03 1.93.5Z"/>
  <defs>
    <linearGradient id="a" x1="-.592" x2="87.507" y1="12.678" y2="76.198" gradientUnits="userSpaceOnUse">
      <stop stop-color="#23307A"/>
      <stop offset="1" stop-color="#F75B99"/>
    </linearGradient>
  </defs>
</svg>