<svg width="80" height="77" viewBox="0 0 80 77" fill="none" xmlns="http://www.w3.org/2000/svg">
<path d="M0.11079 38.824C0.335511 36.334 0.831804 33.8761 1.5908 31.494C4.0508 23.644 7.6708 16.664 13.5908 10.904C16.7308 7.84398 21.1008 4.36399 25.2108 2.75399C30.0408 0.853988 36.9808 -0.52601 42.2108 0.19399C61.0908 2.80399 81.9508 20.194 78.8508 40.824C76.3808 57.264 64.5808 73.484 47.2808 75.944C42.6215 76.6193 37.8786 76.4465 33.2808 75.434C14.8808 70.864 -1.50921 57.674 0.11079 38.824Z" fill="white"/>
<path d="M8.77061 40.2138C8.9513 38.1753 9.35713 36.163 9.98063 34.2138C11.9806 27.7738 14.9806 22.0538 19.8406 17.3238C22.4106 14.8238 26.0006 11.9638 29.3706 10.6438C33.3706 9.08379 39.0206 7.95378 43.2806 8.54378C58.7606 10.6838 75.8606 24.9438 73.2806 41.8538C71.2806 55.3438 61.5806 68.6438 47.3906 70.6638C43.557 71.225 39.6532 71.0827 35.8706 70.2438C20.8306 66.4838 7.39061 55.6738 8.77061 40.2138Z" fill="#FCB04E"/>
<path d="M7.56056 38.6739C7.73731 36.6552 8.13983 34.6628 8.76057 32.7339C10.7606 26.3639 13.7006 20.7339 18.5106 16.0239C21.0606 13.5539 24.6106 10.7239 27.9406 9.41387C31.8506 7.87387 37.4906 6.76386 41.7006 7.34386C57.0106 9.46386 73.9306 23.5639 71.4206 40.3439C69.4206 53.6839 59.8406 66.8439 45.8106 68.8339C42.0173 69.3933 38.1538 69.2543 34.4106 68.4239C19.5406 64.6739 6.25056 54.0139 7.56056 38.6739Z" fill="url(#paint0_linear_51_795)"/>
<path d="M48.4907 13.0238C48.4907 14.2038 45.3507 15.1638 41.4907 15.1638C37.6307 15.1638 34.4907 14.1638 34.4907 13.0238C34.4907 11.8838 37.6307 10.8838 41.4907 10.8838C45.3507 10.8838 48.4907 11.8438 48.4907 13.0238Z" fill="white"/>
<path d="M32.6007 14.0639C32.7507 14.6039 32.1207 15.2339 31.2107 15.4939C30.3007 15.7539 29.4307 15.4939 29.2807 14.9939C29.1307 14.4939 29.7507 13.8239 30.6707 13.5639C31.5907 13.3039 32.4507 13.5339 32.6007 14.0639Z" fill="white"/>
<path d="M53.4305 53.794H26.7106V40.374L26.3206 40.674L21.8306 34.784L40.0706 20.854L44.4606 24.214V21.734H51.8705V29.864L58.3105 34.784L53.7706 40.674L53.3906 40.374L53.4305 53.794ZM37.5706 50.514H42.5706V42.774H37.5706V50.514ZM45.8406 48.214H47.8406V36.414L40.0605 30.474L32.2706 36.414V48.214H34.2706V39.494H45.8105L45.8406 48.214ZM50.1506 33.754L53.1506 36.084L53.6706 35.404L48.5406 31.484V25.014H47.7706V30.834L40.1106 24.984L26.4606 35.404L26.9806 36.084L30.0306 33.754V34.044L40.1106 26.344L50.1906 34.044L50.1506 33.754Z" fill="url(#paint1_linear_51_795)"/>
<path d="M56.0106 34.3338L50.2307 29.9138V22.6138H46.1006V26.7638L40.1006 22.1538L24.1506 34.3238L26.6606 37.6138L28.3806 36.3038V51.3838H51.7706V36.3038L53.4906 37.6138L56.0106 34.3338ZM49.4906 49.0938H44.2006V40.3638H35.9406V49.0938H30.6406V34.8438L40.0706 27.6438L49.4906 34.8438V49.0938Z" fill="white"/>
<defs>
<linearGradient id="paint0_linear_51_795" x1="-0.592123" y1="12.6778" x2="87.5069" y2="76.1985" gradientUnits="userSpaceOnUse">
<stop stop-color="#23307A"/>
<stop offset="1" stop-color="#F75B99"/>
</linearGradient>
<linearGradient id="paint1_linear_51_795" x1="-0.592123" y1="12.6778" x2="87.5069" y2="76.1985" gradientUnits="userSpaceOnUse">
<stop stop-color="#23307A"/>
<stop offset="1" stop-color="#F75B99"/>
</linearGradient>
</defs>
</svg>
