<svg width="80" height="77" viewBox="0 0 80 77" fill="none" xmlns="http://www.w3.org/2000/svg">
<path d="M0.110795 38.824C0.335516 36.334 0.831809 33.8761 1.59081 31.494C4.05081 23.644 7.67081 16.664 13.5908 10.904C16.7308 7.84401 21.1008 4.36399 25.2108 2.75399C30.0408 0.853988 36.9808 -0.52601 42.2108 0.19399C61.0908 2.80399 81.9508 20.194 78.8508 40.824C76.3808 57.264 64.5808 73.484 47.2808 75.944C42.6052 76.6254 37.8447 76.4526 33.2308 75.434C14.8808 70.864 -1.5092 57.704 0.110795 38.824Z" fill="white"/>
<path d="M8.72079 40.1738C8.90148 38.1352 9.30728 36.123 9.93078 34.1738C11.9308 27.7338 14.9308 22.0137 19.7908 17.2837C22.3608 14.7837 25.9508 11.9238 29.3208 10.6038C33.2708 9.04375 38.9708 7.91375 43.2208 8.50375C58.7108 10.6437 75.8108 24.9038 73.2208 41.8138C71.2208 55.3038 61.5208 68.6038 47.3308 70.6238C43.4972 71.185 39.5934 71.0426 35.8108 70.2038C20.8308 66.4838 7.37079 55.6938 8.72079 40.1738Z" fill="#FCB04E"/>
<path d="M7.5608 38.6939C7.73755 36.6752 8.14008 34.6828 8.76082 32.7539C10.7608 26.3839 13.6908 20.7539 18.5108 16.0439C21.0608 13.5739 24.6108 10.7439 27.9408 9.43389C31.8508 7.89389 37.4908 6.78388 41.7008 7.36388C57.0108 9.48388 73.9308 23.5939 71.4208 40.3639C69.4208 53.7039 59.8408 66.8639 45.8108 68.8539C42.0176 69.4133 38.154 69.2743 34.4108 68.4439C19.5408 64.6939 6.2508 54.0139 7.5608 38.6939Z" fill="url(#paint0_linear_51_796)"/>
<path d="M48.4907 13.0238C48.4907 14.2038 45.3407 15.1638 41.4907 15.1638C37.6407 15.1638 34.4907 14.1638 34.4907 13.0238C34.4907 11.8838 37.6307 10.8838 41.4907 10.8838C45.3507 10.8838 48.4907 11.8438 48.4907 13.0238Z" fill="white"/>
<path d="M32.6007 14.0639C32.7507 14.6039 32.1207 15.2339 31.2107 15.4939C30.3007 15.7539 29.4307 15.4939 29.2807 14.9939C29.1307 14.4939 29.7507 13.8239 30.6707 13.5639C31.5907 13.3039 32.4507 13.5339 32.6007 14.0639Z" fill="white"/>
<path d="M34.7708 54.2838L34.9108 52.7138C35.4275 46.8483 35.3605 40.946 34.7108 35.0938L34.5708 33.8038L44.9108 32.5538L44.8408 34.0938C44.5808 40.1838 44.2508 46.3138 43.8408 52.3238L43.7708 53.4438L34.7708 54.2838ZM37.4508 36.0938C37.9376 41.1764 38.0012 46.2907 37.6408 51.3838L41.3108 51.0438C41.6408 45.9138 41.9208 40.7038 42.1608 35.5238L37.4508 36.0938ZM39.6308 32.7938H39.1808C38.3381 32.7067 37.5281 32.4212 36.8172 31.9605C36.1062 31.4999 35.5146 30.8773 35.0908 30.1438C34.5782 29.2956 34.3293 28.3142 34.3756 27.3243C34.4219 26.3343 34.7613 25.3805 35.3508 24.5838L35.5208 24.3738C37.3408 22.4638 39.3008 21.8138 41.1708 22.4438C41.9894 22.6828 42.7389 23.1144 43.3565 23.7024C43.9741 24.2905 44.442 25.0179 44.7208 25.8238C45.0127 26.6546 45.0739 27.5491 44.8978 28.412C44.7217 29.2748 44.3149 30.0738 43.7208 30.7238C43.2441 31.3601 42.6271 31.8779 41.9178 32.2369C41.2084 32.5959 40.4258 32.7865 39.6308 32.7938ZM37.5008 26.0638C36.7008 27.4138 36.9708 28.1938 37.3108 28.7238C37.5104 29.1147 37.8024 29.4511 38.1613 29.7038C38.5203 29.9564 38.9354 30.1178 39.3708 30.1738C39.8115 30.1963 40.2506 30.1039 40.645 29.9059C41.0394 29.7078 41.3756 29.4108 41.6208 29.0438C41.9348 28.7461 42.1572 28.3648 42.2617 27.9449C42.3662 27.525 42.3486 27.084 42.2108 26.6738C42.0588 26.246 41.8044 25.8618 41.4697 25.555C41.135 25.2482 40.7302 25.0281 40.2908 24.9138C39.4508 24.6038 38.5608 24.9938 37.5008 26.0638Z" fill="url(#paint1_linear_51_796)"/>
<path d="M40.7507 22.794C41.3811 22.9668 41.9595 23.2914 42.4355 23.7394C42.9114 24.1874 43.2703 24.7452 43.4807 25.364C43.69 25.9854 43.7252 26.6522 43.5824 27.2921C43.4396 27.932 43.1243 28.5206 42.6707 28.9941C42.2931 29.5295 41.7834 29.9582 41.1911 30.2386C40.5989 30.5189 39.9443 30.6414 39.2907 30.5941C38.6532 30.5324 38.0397 30.3186 37.502 29.9706C36.9643 29.6225 36.518 29.1505 36.2007 28.5941C35.8175 27.9541 35.6373 27.2131 35.6837 26.4687C35.7301 25.7243 36.001 25.0114 36.4607 24.424C37.934 22.8707 39.364 22.3274 40.7507 22.794ZM43.5307 33.174C43.2707 39.294 42.9374 45.364 42.5307 51.384L36.1907 51.974C36.7211 46.0225 36.6574 40.033 36.0007 34.0941L43.5307 33.174Z" fill="white"/>
<defs>
<linearGradient id="paint0_linear_51_796" x1="-0.592123" y1="12.6786" x2="87.5104" y2="76.1981" gradientUnits="userSpaceOnUse">
<stop stop-color="#23307A"/>
<stop offset="1" stop-color="#F75B99"/>
</linearGradient>
<linearGradient id="paint1_linear_51_796" x1="-0.592123" y1="12.6786" x2="87.5104" y2="76.1981" gradientUnits="userSpaceOnUse">
<stop stop-color="#23307A"/>
<stop offset="1" stop-color="#F75B99"/>
</linearGradient>
</defs>
</svg>
