<svg width="80" height="77" viewBox="0 0 80 77" fill="none" xmlns="http://www.w3.org/2000/svg">
<path d="M0.109548 38.824C0.339092 36.3347 0.83525 33.8773 1.58953 31.494C4.04953 23.644 7.66953 16.664 13.5895 10.904C16.7295 7.84398 21.0995 4.36399 25.2195 2.75399C30.0395 0.853988 36.9795 -0.52601 42.1695 0.19399C61.0495 2.80399 81.9096 20.194 78.8096 40.824C76.3396 57.264 64.5396 73.484 47.2396 75.944C42.5639 76.6254 37.8035 76.4526 33.1896 75.434C14.8796 70.864 -1.50045 57.674 0.109548 38.824Z" fill="white"/>
<path d="M8.71948 40.2138C8.90018 38.1753 9.306 36.163 9.92951 34.2138C11.9295 27.7738 14.9295 22.0538 19.7895 17.3238C22.3595 14.8238 25.9495 11.9638 29.3195 10.6438C33.3195 9.08379 38.9695 7.95378 43.2295 8.54378C58.7095 10.6838 75.8095 24.9438 73.2295 41.8538C71.2295 55.3438 61.5295 68.6438 47.3395 70.6638C43.5059 71.225 39.6021 71.0827 35.8195 70.2438C20.8295 66.4838 7.38948 55.6738 8.71948 40.2138Z" fill="#FCB04E"/>
<path d="M7.55958 38.6739C7.73633 36.6552 8.13886 34.6628 8.75959 32.7339C10.7596 26.3639 13.6996 20.7339 18.5096 16.0239C21.0596 13.5539 24.6096 10.7239 27.9396 9.41387C31.8496 7.87387 37.4896 6.76386 41.6996 7.34386C57.0096 9.46386 73.9296 23.5639 71.4196 40.3439C69.4196 53.6839 59.8396 66.8439 45.8096 68.8339C42.0197 69.3936 38.1594 69.2546 34.4196 68.4239C19.5396 64.6739 6.24958 54.0139 7.55958 38.6739Z" fill="url(#paint0_linear_51_800)"/>
<path d="M48.4897 13.0238C48.4897 14.2038 45.3497 15.1638 41.4897 15.1638C37.6297 15.1638 34.4897 14.1638 34.4897 13.0238C34.4897 11.8838 37.6297 10.8838 41.4897 10.8838C45.3497 10.8838 48.4897 11.8438 48.4897 13.0238Z" fill="white"/>
<path d="M32.5997 14.0639C32.7497 14.6039 32.1197 15.2339 31.2097 15.4939C30.2997 15.7539 29.4297 15.4939 29.2797 14.9939C29.1297 14.4939 29.7497 13.8239 30.6697 13.5639C31.5897 13.3039 32.4497 13.5339 32.5997 14.0639Z" fill="white"/>
<path d="M50.9896 52.2737H28.3696C27.711 52.2737 27.0791 52.0127 26.6124 51.5479C26.1457 51.0831 25.8823 50.4524 25.8796 49.7937V36.0237C25.8823 35.3651 26.1457 34.7343 26.6124 34.2695C27.0791 33.8047 27.711 33.5437 28.3696 33.5437H29.3696V29.1037H29.4896C29.8651 26.6597 31.1031 24.4309 32.9796 22.8207C34.856 21.2104 37.247 20.3252 39.7196 20.3252C42.1923 20.3252 44.5832 21.2104 46.4597 22.8207C48.3362 24.4309 49.5742 26.6597 49.9496 29.1037H50.0596V33.5437H51.0596C51.7174 33.5437 52.3481 33.805 52.8132 34.2701C53.2783 34.7352 53.5396 35.366 53.5396 36.0237V49.7937C53.5397 50.1254 53.4733 50.4537 53.3444 50.7592C53.2154 51.0648 53.0265 51.3413 52.7887 51.5725C52.5509 51.8038 52.2692 51.985 51.9602 52.1054C51.6512 52.2258 51.3211 52.2831 50.9896 52.2737ZM28.8796 49.2737H50.4696V36.5437H47.0296V30.6137C46.9594 28.7126 46.1549 26.9127 44.7851 25.5926C43.4153 24.2724 41.587 23.5348 39.6846 23.5348C37.7822 23.5348 35.9539 24.2724 34.5841 25.5926C33.2143 26.9127 32.4098 28.7126 32.3396 30.6137V36.5437H28.8896L28.8796 49.2737ZM43.6296 46.8937H35.7296L37.2296 42.5237C36.9105 42.2049 36.6578 41.826 36.4861 41.4089C36.3145 40.9918 36.2273 40.5448 36.2296 40.0937C36.2251 39.5217 36.3621 38.9575 36.6284 38.4512C36.8946 37.945 37.282 37.5124 37.7558 37.192C38.2296 36.8716 38.7754 36.6733 39.3444 36.6147C39.9134 36.5562 40.488 36.6392 41.0172 36.8564C41.5463 37.0736 42.0136 37.4183 42.3774 37.8597C42.7412 38.3011 42.9901 38.8256 43.1022 39.3866C43.2143 39.9475 43.186 40.5274 43.0198 41.0747C42.8536 41.6221 42.5547 42.1198 42.1496 42.5237L43.6296 46.8937ZM39.6296 39.6337C39.5684 39.6324 39.5075 39.6433 39.4505 39.6658C39.3935 39.6883 39.3416 39.722 39.2979 39.7649C39.2541 39.8077 39.2193 39.8589 39.1956 39.9153C39.1718 39.9718 39.1596 40.0325 39.1596 40.0937C39.1633 40.1879 39.1947 40.2789 39.2499 40.3554C39.305 40.4318 39.3814 40.4904 39.4696 40.5237H39.7796C39.8678 40.4904 39.9442 40.4318 39.9993 40.3554C40.0545 40.2789 40.0859 40.1879 40.0896 40.0937C40.0809 39.9869 40.0352 39.8865 39.9603 39.8098C39.8855 39.7331 39.7862 39.685 39.6796 39.6737L39.6296 39.6337ZM46.5396 36.5437H32.7696V30.6037C32.8376 28.8179 33.5948 27.1278 34.8823 25.8884C36.1698 24.6489 37.8875 23.9565 39.6746 23.9565C41.4618 23.9565 43.1794 24.6489 44.4669 25.8884C45.7544 27.1278 46.5116 28.8179 46.5796 30.6037L46.5396 36.5437ZM35.7196 33.5437H43.5396V30.6737C43.4889 29.6722 43.0554 28.7285 42.3286 28.0376C41.6018 27.3467 40.6374 26.9614 39.6346 26.9614C38.6319 26.9614 37.6674 27.3467 36.9406 28.0376C36.2138 28.7285 35.7803 29.6722 35.7296 30.6737L35.7196 33.5437Z" fill="url(#paint1_linear_51_800)"/>
<path d="M50.9896 34.1937H48.5296V29.7537C48.4524 27.4594 47.4868 25.2848 45.8364 23.689C44.1861 22.0932 41.9803 21.2012 39.6846 21.2012C37.389 21.2012 35.1831 22.0932 33.5328 23.689C31.8824 25.2848 30.9168 27.4594 30.8396 29.7537V34.1937H28.3696C28.1044 34.1937 27.8501 34.2991 27.6625 34.4866C27.475 34.6742 27.3696 34.9285 27.3696 35.1937V48.9637C27.3696 49.229 27.475 49.4833 27.6625 49.6708C27.8501 49.8584 28.1044 49.9637 28.3696 49.9637H50.9896C51.2548 49.9637 51.5092 49.8584 51.6967 49.6708C51.8843 49.4833 51.9896 49.229 51.9896 48.9637V35.1737C51.9844 34.912 51.8767 34.6628 51.6898 34.4795C51.5028 34.2963 51.2514 34.1937 50.9896 34.1937ZM34.2696 29.7537C34.3295 28.3605 34.9252 27.0441 35.9323 26.0795C36.9394 25.1148 38.2801 24.5763 39.6746 24.5763C41.0692 24.5763 42.4099 25.1148 43.4169 26.0795C44.424 27.0441 45.0196 28.3605 45.0796 29.7537V34.1637H34.2696V29.7537ZM41.5296 44.5437H37.8296L39.0196 41.0837C38.5737 40.9278 38.1973 40.6191 37.9572 40.2123C37.7171 39.8055 37.6288 39.3268 37.7078 38.8611C37.7869 38.3953 38.0283 37.9726 38.3892 37.6678C38.7501 37.363 39.2072 37.1958 39.6796 37.1958C40.152 37.1958 40.6092 37.363 40.9701 37.6678C41.331 37.9726 41.5724 38.3953 41.6514 38.8611C41.7305 39.3268 41.6421 39.8055 41.402 40.2123C41.1619 40.6191 40.7855 40.9278 40.3396 41.0837L41.5296 44.5437Z" fill="white"/>
<defs>
<linearGradient id="paint0_linear_51_800" x1="-0.591815" y1="12.6786" x2="87.4962" y2="76.1545" gradientUnits="userSpaceOnUse">
<stop stop-color="#23307A"/>
<stop offset="1" stop-color="#F75B99"/>
</linearGradient>
<linearGradient id="paint1_linear_51_800" x1="-0.591815" y1="12.6786" x2="87.4962" y2="76.1545" gradientUnits="userSpaceOnUse">
<stop stop-color="#23307A"/>
<stop offset="1" stop-color="#F75B99"/>
</linearGradient>
</defs>
</svg>
