<svg width="80" height="77" viewBox="0 0 80 77" fill="none" xmlns="http://www.w3.org/2000/svg">
<path d="M0.110797 38.824C0.329014 36.3348 0.818586 33.8769 1.5708 31.494C4.0308 23.644 7.6508 16.664 13.5708 10.904C16.7108 7.844 21.0808 4.36399 25.1908 2.75399C30.0208 0.853995 36.9608 -0.52601 42.1908 0.19399C61.0708 2.80399 81.9308 20.194 78.8308 40.824C76.3608 57.264 64.5608 73.484 47.2608 75.944C42.5852 76.6254 37.8247 76.4526 33.2108 75.434C14.8808 70.864 -1.5092 57.704 0.110797 38.824Z" fill="white"/>
<path d="M8.72071 40.1737C8.9014 38.1352 9.3072 36.123 9.93071 34.1737C11.9307 27.7337 14.9307 22.0137 19.7907 17.2837C22.3607 14.7837 25.9507 11.9237 29.3207 10.6037C33.2707 9.04374 38.9707 7.91375 43.2207 8.50375C58.7107 10.6437 75.8107 24.9037 73.2207 41.8137C71.2207 55.3037 61.5207 68.6037 47.3307 70.6237C43.4971 71.1849 39.5933 71.0426 35.8107 70.2037C20.8307 66.4837 7.39071 55.6937 8.72071 40.1737Z" fill="#FCB04E"/>
<path d="M7.57073 38.6939C7.74747 36.6753 8.14999 34.6828 8.77072 32.7539C10.7707 26.3839 13.7007 20.7539 18.5207 16.0439C21.0707 13.5739 24.6207 10.7439 27.9507 9.43388C31.8607 7.89388 37.5007 6.78388 41.7107 7.36388C57.0207 9.48388 73.9407 23.5839 71.4307 40.3639C69.4307 53.7039 59.8507 66.8639 45.8207 68.8539C42.0275 69.4133 38.164 69.2743 34.4207 68.4439C19.5707 64.6939 6.25073 54.0139 7.57073 38.6939Z" fill="url(#paint0_linear_51_792)"/>
<path d="M41.7708 6.80391C37.9308 6.2639 32.2008 7.15391 27.7708 8.91391C23.7008 10.5139 19.6908 14.1539 18.1608 15.6439C13.6608 20.0139 10.5108 25.3939 8.26083 32.5839C7.69335 34.3812 7.30479 36.2302 7.10083 38.1039C13.4949 40.5483 20.1279 42.3147 26.8908 43.3739C30.376 43.8982 33.8965 44.1523 37.4208 44.1339C39.9308 44.1339 42.5108 44.0139 44.8908 43.7939C56.2408 42.7939 65.3108 38.9039 72.0308 33.7939C71.3517 29.337 69.5522 25.1254 66.8008 21.5539C60.6309 13.6399 51.6833 8.36712 41.7708 6.80391Z" fill="url(#paint1_linear_51_792)"/>
<path d="M48.4907 13.0238C48.4907 14.2038 45.3407 15.1638 41.4907 15.1638C37.6407 15.1638 34.4907 14.1638 34.4907 13.0238C34.4907 11.8838 37.6307 10.8838 41.4907 10.8838C45.3507 10.8838 48.4907 11.8438 48.4907 13.0238Z" fill="white"/>
<path d="M32.5706 14.0639C32.7206 14.6039 32.0906 15.2339 31.1806 15.4939C30.2706 15.7539 29.4006 15.4939 29.2506 14.9939C29.1006 14.4939 29.7206 13.8239 30.6406 13.5639C31.5606 13.3039 32.4506 13.5339 32.5706 14.0639Z" fill="white"/>
<path d="M55.9008 35.6138L35.7708 24.0738C35.0867 23.6348 34.2935 23.3958 33.4808 23.3838C31.1308 23.3838 29.5708 25.2338 29.5708 27.7038V50.7738C29.5708 53.2738 31.0808 55.0938 33.4508 55.0938C34.2887 55.0825 35.1078 54.844 35.8208 54.4038L56.0408 42.8638C56.706 42.5262 57.2679 42.0155 57.6674 41.3855C58.0668 40.7555 58.2891 40.0295 58.3108 39.2838C58.2738 38.5125 58.0306 37.7653 57.6068 37.1198C57.1829 36.4744 56.5938 35.9543 55.9008 35.6138Z" fill="url(#paint2_linear_51_792)"/>
<path d="M30.5708 27.0841C30.5708 25.1841 32.6408 24.4041 34.2908 25.3541L54.6208 36.8941C56.2708 37.8441 56.4508 39.4041 54.8008 40.3541L34.2008 51.8941C32.5508 52.8441 30.5708 52.0641 30.5708 50.1641V27.0841Z" fill="white"/>
<defs>
<linearGradient id="paint0_linear_51_792" x1="-0.591974" y1="12.6786" x2="87.5035" y2="76.1769" gradientUnits="userSpaceOnUse">
<stop stop-color="#23307A"/>
<stop offset="1" stop-color="#F75B99"/>
</linearGradient>
<linearGradient id="paint1_linear_51_792" x1="39.5147" y1="0.0141194" x2="39.5147" y2="76.3503" gradientUnits="userSpaceOnUse">
<stop stop-color="white" stop-opacity="0"/>
<stop offset="1" stop-color="white" stop-opacity="0.05"/>
</linearGradient>
<linearGradient id="paint2_linear_51_792" x1="-0.591974" y1="12.6786" x2="87.5035" y2="76.1769" gradientUnits="userSpaceOnUse">
<stop stop-color="#23307A"/>
<stop offset="1" stop-color="#F75B99"/>
</linearGradient>
</defs>
</svg>
