<svg width="80" height="77" viewBox="0 0 80 77" fill="none" xmlns="http://www.w3.org/2000/svg">
<path d="M0.11079 38.824C0.335511 36.334 0.831804 33.8761 1.5908 31.494C4.0508 23.644 7.6708 16.664 13.5908 10.904C16.7308 7.84401 21.1008 4.36399 25.2108 2.75399C30.0408 0.853988 36.9808 -0.52601 42.2108 0.19399C61.0908 2.80399 81.9508 20.194 78.8508 40.824C76.3808 57.264 64.5808 73.484 47.2808 75.944C42.6215 76.6193 37.8786 76.4466 33.2808 75.434C14.8808 70.864 -1.50921 57.704 0.11079 38.824Z" fill="white"/>
<path d="M8.77061 40.1738C8.9513 38.1352 9.35713 36.123 9.98063 34.1738C11.9806 27.7338 14.9806 22.0137 19.8406 17.2837C22.4106 14.7837 26.0006 11.9238 29.3706 10.6038C33.3706 9.04375 39.0206 7.91375 43.2806 8.50375C58.7606 10.6437 75.8606 24.9038 73.2806 41.8138C71.2806 55.3038 61.5806 68.6038 47.3906 70.6238C43.557 71.185 39.6532 71.0426 35.8706 70.2038C20.8306 66.4838 7.39061 55.6938 8.77061 40.1738Z" fill="#FCB04E"/>
<path d="M7.56056 38.6939C7.73731 36.6752 8.13983 34.6828 8.76057 32.7539C10.7606 26.3839 13.7006 20.7539 18.5106 16.0439C21.0606 13.5739 24.6106 10.7439 27.9406 9.43389C31.8506 7.89389 37.4906 6.78388 41.7006 7.36388C57.0106 9.48388 73.9306 23.5939 71.4206 40.3639C69.4206 53.7039 59.8406 66.8639 45.8106 68.8539C42.0173 69.4133 38.1538 69.2743 34.4106 68.4439C19.5406 64.6939 6.25056 54.0139 7.56056 38.6939Z" fill="url(#paint0_linear_51_797)"/>
<path d="M48.4907 13.0238C48.4907 14.2038 45.3507 15.1638 41.4907 15.1638C37.6307 15.1638 34.4907 14.1638 34.4907 13.0238C34.4907 11.8838 37.6307 10.8838 41.4907 10.8838C45.3507 10.8838 48.4907 11.8438 48.4907 13.0238Z" fill="white"/>
<path d="M32.6007 14.0639C32.7507 14.6039 32.1207 15.2339 31.2107 15.4939C30.3007 15.7539 29.4307 15.4939 29.2807 14.9939C29.1307 14.4939 29.7507 13.8239 30.6707 13.5639C31.5907 13.3039 32.4507 13.5339 32.6007 14.0639Z" fill="white"/>
<path d="M39.9507 54.6237C39.1836 54.5773 38.4338 54.3761 37.7464 54.0324C37.059 53.6887 36.4482 53.2096 35.9507 52.6237L35.7507 52.3537C35.2047 51.5908 34.8963 50.6836 34.8643 49.7459C34.8323 48.8083 35.0781 47.8821 35.5707 47.0837C36.0945 46.2251 36.8502 45.5318 37.7507 45.0837L35.7708 45.1737L35.6207 43.7737C35.1807 39.6437 36.0907 36.7037 38.3307 35.0137C39.7707 33.9437 40.4808 32.8637 40.5308 31.7237C40.5308 31.1937 40.5308 30.7737 39.2308 30.7237C37.9308 30.6737 36.2307 31.4537 34.5107 33.1737L32.8608 34.8337L28.7708 23.6937L30.4108 23.2937C33.6395 22.4258 36.9588 21.9391 40.3008 21.8438C46.9708 21.8438 49.0408 24.9137 49.6008 27.4937C50.7508 32.7637 49.8808 36.4337 47.0308 38.3937C45.2108 39.6437 44.5307 41.1037 44.8907 42.9937L45.2007 44.6937L41.4808 44.8637C42.3448 45.2186 43.1049 45.7862 43.6907 46.5137C44.2633 47.1274 44.6587 47.8849 44.8348 48.7055C45.0109 49.5262 44.9611 50.3792 44.6907 51.1737C44.4298 51.9416 43.9886 52.6357 43.4039 53.1977C42.8193 53.7598 42.1083 54.1733 41.3307 54.4037C40.8863 54.5538 40.4198 54.6282 39.9507 54.6237ZM38.2007 50.6237C38.7807 51.2037 39.5808 51.8037 40.3408 51.5437C40.6823 51.4606 40.9971 51.2922 41.2559 51.0544C41.5147 50.8166 41.7091 50.517 41.8207 50.1837C41.927 49.877 41.941 49.5459 41.861 49.2313C41.781 48.9167 41.6106 48.6324 41.3707 48.4137C40.6207 47.5137 40.0708 47.5137 39.6608 47.5437C39.3254 47.5767 39.0037 47.694 38.7258 47.8845C38.4478 48.0751 38.2225 48.3328 38.0707 48.6337C37.8869 48.9427 37.8009 49.3001 37.8241 49.6589C37.8473 50.0177 37.9786 50.361 38.2007 50.6437V50.6237ZM39.0007 27.6237H39.4307C42.0907 27.8137 43.6208 29.3637 43.5308 31.7837C43.4408 33.8537 42.3007 35.7337 40.1307 37.3537C39.0207 38.1937 38.4807 39.7437 38.5107 41.9837L41.7908 41.8337C41.8496 40.6334 42.2021 39.4658 42.8176 38.4336C43.4331 37.4014 44.2927 36.5361 45.3207 35.9137C47.0707 34.7037 47.5208 32.0837 46.6608 28.1137C46.4808 27.3037 45.9408 24.8337 40.2908 24.8337C37.7493 24.9009 35.2219 25.2361 32.7507 25.8337L34.1008 29.4837C35.4874 28.3457 37.2082 27.6925 39.0007 27.6237Z" fill="url(#paint1_linear_51_797)"/>
<path d="M43.4008 42.3739L37.1108 42.6639C36.7308 39.0839 37.4374 36.6173 39.2308 35.2639C41.0308 33.9139 41.9608 32.4439 42.0308 30.8339C42.1008 29.2239 41.1907 28.3639 39.3307 28.2339C37.4707 28.1039 35.5107 29.0639 33.4507 31.1239L30.7708 23.8539C41.3308 21.2406 47.1174 22.2573 48.1307 26.9039C49.1441 31.5506 48.4774 34.6672 46.1307 36.2539C43.8507 37.8472 42.9408 39.8873 43.4008 42.3739ZM36.9907 50.6639C36.5986 50.1342 36.3715 49.5007 36.3377 48.8426C36.3039 48.1845 36.465 47.531 36.8008 46.9639C37.0756 46.4649 37.4677 46.0402 37.9434 45.7266C38.419 45.413 38.9638 45.2199 39.5308 45.1639C40.1093 45.1253 40.6882 45.2345 41.213 45.4812C41.7378 45.7278 42.1913 46.1038 42.5308 46.5739C42.9329 46.994 43.2125 47.5161 43.3394 48.0836C43.4663 48.6511 43.4356 49.2426 43.2507 49.7939C43.064 50.3436 42.746 50.8395 42.3243 51.2386C41.9026 51.6376 41.3899 51.9278 40.8307 52.0839C39.5974 52.4973 38.3174 52.0239 36.9907 50.6639Z" fill="white"/>
<defs>
<linearGradient id="paint0_linear_51_797" x1="-0.592123" y1="12.6778" x2="87.5069" y2="76.1985" gradientUnits="userSpaceOnUse">
<stop stop-color="#23307A"/>
<stop offset="1" stop-color="#F75B99"/>
</linearGradient>
<linearGradient id="paint1_linear_51_797" x1="-0.592123" y1="12.6778" x2="87.5069" y2="76.1985" gradientUnits="userSpaceOnUse">
<stop stop-color="#23307A"/>
<stop offset="1" stop-color="#F75B99"/>
</linearGradient>
</defs>
</svg>
