<svg width="80" height="77" viewBox="0 0 80 77" fill="none" xmlns="http://www.w3.org/2000/svg">
<path d="M0.109548 38.824C0.339092 36.3347 0.83525 33.8773 1.58953 31.494C4.04953 23.644 7.66953 16.664 13.5895 10.904C16.7295 7.844 21.0995 4.36399 25.2195 2.75399C30.0395 0.853995 36.9795 -0.52601 42.1695 0.19399C61.0495 2.80399 81.9096 20.194 78.8096 40.824C76.3396 57.264 64.5396 73.484 47.2396 75.944C42.5639 76.6254 37.8035 76.4526 33.1896 75.434C14.8796 70.864 -1.50045 57.704 0.109548 38.824Z" fill="white"/>
<path d="M8.71948 40.1737C8.90018 38.1352 9.306 36.123 9.92951 34.1737C11.9295 27.7337 14.9295 22.0137 19.7895 17.2837C22.3595 14.7837 25.9495 11.9237 29.3195 10.6037C33.3195 9.04374 38.9695 7.91375 43.2295 8.50375C58.7095 10.6437 75.8095 24.9037 73.2295 41.8137C71.2295 55.3037 61.5295 68.6037 47.3395 70.6237C43.5059 71.1849 39.6021 71.0426 35.8195 70.2037C20.8295 66.4837 7.38948 55.6937 8.71948 40.1737Z" fill="#FCB04E"/>
<path d="M7.55958 38.6939C7.73633 36.6753 8.13886 34.6828 8.75959 32.7539C10.7596 26.3839 13.6996 20.7539 18.5096 16.0439C21.0596 13.5739 24.6096 10.7439 27.9396 9.43388C31.8496 7.89388 37.4896 6.78388 41.6996 7.36388C57.0096 9.48388 73.9296 23.5839 71.4196 40.3639C69.4196 53.7039 59.8396 66.8639 45.8096 68.8539C42.0197 69.4136 38.1594 69.2747 34.4196 68.4439C19.5396 64.6939 6.24958 54.0139 7.55958 38.6939Z" fill="url(#paint0_linear_51_799)"/>
<path d="M48.4897 13.0238C48.4897 14.2038 45.3497 15.1638 41.4897 15.1638C37.6297 15.1638 34.4897 14.1638 34.4897 13.0238C34.4897 11.8838 37.6297 10.8838 41.4897 10.8838C45.3497 10.8838 48.4897 11.8438 48.4897 13.0238Z" fill="white"/>
<path d="M32.5997 14.0639C32.7497 14.6039 32.1197 15.2339 31.2097 15.4939C30.2997 15.7539 29.4297 15.4939 29.2797 14.9939C29.1297 14.4939 29.7497 13.8239 30.6697 13.5639C31.5897 13.3039 32.4497 13.5339 32.5997 14.0639Z" fill="white"/>
<path d="M47.0094 58L33.3105 57.4774L33.5062 55.0734C33.7671 51.6896 33.9107 48.345 33.9498 45.1049C30.4272 45.3531 27.0351 45.732 23.8387 46.2415L21.0337 46.6857L21.6469 33.3203L23.9561 33.4117C26.8524 33.5293 30.088 33.5816 33.5454 33.5685C33.2714 30.1716 32.8539 26.9054 32.319 23.822L31.8232 21L46.1744 21.5226L46.057 23.8612C45.9135 26.7094 45.8483 29.8711 45.8613 33.268C48.9664 33.1243 52.1758 32.9545 55.4244 32.7454L58.0337 32.5756L57.3553 45.34L55.007 45.1702C52.0715 44.9612 49.1099 44.8305 46.1614 44.7913C46.3049 48.1751 46.5136 51.7419 46.7745 55.4131L47.0094 58ZM38.3334 53.0222L42.0908 53.1659C41.843 49.4686 41.6603 45.9018 41.5299 42.5311L41.4516 40.1271H43.8521C46.918 40.1271 50.0101 40.2186 53.0891 40.4015L53.2326 37.5272C49.997 37.7232 46.8267 37.8799 43.7738 37.9845L41.3993 38.0759V35.6981C41.3993 32.2359 41.3993 28.9696 41.4776 25.9908L37.4071 25.834C37.8637 28.9958 38.203 32.3665 38.4117 35.7242L38.5683 38.1543H36.1286C32.5799 38.1543 29.2139 38.1543 26.1349 38.1543L25.9914 41.2768C29.266 40.8457 32.6843 40.5321 36.2199 40.3492L38.6465 40.2316V42.6487C38.6074 45.9933 38.503 49.4816 38.3334 53.0222Z" fill="url(#paint1_linear_51_799)"/>
<path d="M31.8699 57.704L22.5114 47.57L24.3612 46.0043C26.9549 43.7901 29.4372 41.52 31.771 39.2496C29.0922 36.9152 26.4131 34.7663 23.78 32.8496L21.4715 31.1655L31.4193 22.1223L32.9944 23.833C34.9681 25.9806 37.2291 28.3237 39.6942 30.7785C41.9172 28.1738 43.9453 25.5595 45.7597 22.9912L47.416 20.6362L57.2379 31.2351L55.4901 32.8102C53.3611 34.7282 51.0646 36.9243 48.6563 39.3431C50.9641 41.4542 53.3646 43.6211 55.8209 45.7881L57.7952 47.5273L48.2289 56.0978L46.6817 54.3036C44.7453 52.0632 42.7347 49.8598 40.6682 47.7305C38.3618 50.233 35.9716 52.9117 33.5441 55.7017L31.8699 57.704ZM29.2499 47.9898L31.8166 50.7696C34.272 47.9704 36.6807 45.3103 38.987 42.8264L40.6423 41.0655L42.3474 42.7763C44.5252 44.9615 46.6564 47.2301 48.7133 49.5542L50.8609 47.6177C48.4231 45.4507 46.0597 43.3024 43.8168 41.2007L42.065 39.5733L43.7574 37.8867C46.2214 35.4309 48.546 33.1141 50.7217 31.057L47.9419 28.0447C46.016 30.6128 43.858 33.2455 41.6166 35.7759L39.9983 37.6112L38.2654 35.8724C35.7447 33.3432 33.3538 30.9442 31.1668 28.7498L28.8425 30.8623C31.4754 32.8904 34.1265 35.1042 36.7681 37.4943L38.5755 39.1404L36.8553 40.8548C34.4471 43.1993 31.8903 45.5993 29.2499 47.9898Z" fill="url(#paint2_linear_51_799)"/>
<path d="M56.0337 33.5808C51.8406 33.8538 47.8682 34.0487 44.0905 34.1917C44.0905 29.9285 44.0905 25.9643 44.2722 22.3379L35.0942 22C35.8046 26.0984 36.2813 30.234 36.5221 34.3867C32.1602 34.3867 28.097 34.3867 24.4102 34.2437L24.0337 42.4192C28.2533 41.7646 32.5041 41.3308 36.7688 41.1194C36.7688 45.1747 36.6173 49.3555 36.3144 53.6621L44.9732 54C44.6487 49.3859 44.4021 45.0317 44.2593 40.9244C47.9461 40.9244 51.7367 41.0544 55.6183 41.3404L56.0337 33.5808Z" fill="white"/>
<path d="M54.3432 45.9894C51.1499 43.186 48.1701 40.4847 45.3667 37.8855C48.4115 34.8408 51.2427 32.0095 53.9626 29.5496L47.641 22.7453C45.222 26.1804 42.6092 29.4749 39.8156 32.6129C36.6966 29.4939 33.7911 26.5884 31.2569 23.85L25.1488 29.4196C28.6336 31.9694 31.983 34.6991 35.1835 37.5977C32.2873 40.494 29.1931 43.3716 25.9008 46.2307L31.851 52.6637C34.9143 49.1362 37.8477 45.8501 40.6789 42.8147C43.3152 45.451 45.933 48.2544 48.5043 51.2341L54.3432 45.9894Z" fill="white"/>
<path d="M39.6124 44C38.7782 43.9514 37.9617 43.7174 37.2129 43.3122C36.464 42.9069 35.7984 42.3391 35.2566 41.6431L34.9736 41.2391C34.3901 40.3217 34.0641 39.2378 34.0357 38.1204C34.0073 37.003 34.2777 35.901 34.8137 34.9495C35.2458 34.12 35.8558 33.4181 36.5911 32.9042C37.3263 32.3904 38.1648 32.08 39.034 32H39.4893C40.3063 32.0128 41.11 32.2294 41.8391 32.6331C42.5683 33.0368 43.2038 33.6171 43.6973 34.33C44.3163 35.0716 44.7412 35.982 44.9275 36.9656C45.1137 37.9491 45.0543 38.9694 44.7556 39.9192C44.4666 40.8361 43.9804 41.6635 43.3379 42.3316C42.6955 42.9996 41.9157 43.4887 41.0643 43.7576C40.5941 43.9174 40.1047 43.9991 39.6124 44ZM38.2712 38.7609C38.8864 39.4074 39.3416 39.7037 39.7723 39.5421C40.0285 39.4848 40.2666 39.3552 40.463 39.1663C40.6593 38.9773 40.8073 38.7354 40.892 38.4646C40.9658 38.2357 41.0889 37.8451 40.5352 37.1178C39.9815 36.3906 39.6001 36.3906 39.4401 36.3906C39.179 36.4089 38.9271 36.5036 38.7107 36.6646C38.4943 36.8257 38.3213 37.0473 38.2097 37.3064C38.0989 37.5084 37.8897 37.872 38.2712 38.7609Z" fill="url(#paint3_linear_51_799)"/>
<path d="M36.6937 39.2213C36.3019 38.6265 36.0738 37.9118 36.0385 37.1683C36.0032 36.4247 36.1624 35.6861 36.4956 35.0463C36.7678 34.4795 37.1571 33.9975 37.6297 33.6423C38.1023 33.287 38.6437 33.0694 39.2067 33.0083C39.7782 32.9653 40.3497 33.0895 40.8674 33.3694C41.3852 33.6492 41.8319 34.0754 42.1655 34.6076C42.5602 35.084 42.8342 35.6739 42.9585 36.3145C43.0828 36.9551 43.0525 37.6223 42.871 38.2448C42.6842 38.8642 42.3695 39.4231 41.9536 39.8739C41.5377 40.3248 41.0328 40.6543 40.4818 40.8347C39.2603 41.3064 37.9976 40.7686 36.6937 39.2213Z" fill="url(#paint4_linear_51_799)"/>
<defs>
<linearGradient id="paint0_linear_51_799" x1="-0.591815" y1="12.6786" x2="87.4962" y2="76.1545" gradientUnits="userSpaceOnUse">
<stop stop-color="#23307A"/>
<stop offset="1" stop-color="#F75B99"/>
</linearGradient>
<linearGradient id="paint1_linear_51_799" x1="-0.591815" y1="12.6786" x2="87.4962" y2="76.1545" gradientUnits="userSpaceOnUse">
<stop stop-color="#23307A"/>
<stop offset="1" stop-color="#F75B99"/>
</linearGradient>
<linearGradient id="paint2_linear_51_799" x1="-0.591815" y1="12.6786" x2="87.4962" y2="76.1545" gradientUnits="userSpaceOnUse">
<stop stop-color="#23307A"/>
<stop offset="1" stop-color="#F75B99"/>
</linearGradient>
<linearGradient id="paint3_linear_51_799" x1="-0.591815" y1="12.6786" x2="87.4962" y2="76.1545" gradientUnits="userSpaceOnUse">
<stop stop-color="#23307A"/>
<stop offset="1" stop-color="#F75B99"/>
</linearGradient>
<linearGradient id="paint4_linear_51_799" x1="37.5337" y1="35" x2="45.5337" y2="43" gradientUnits="userSpaceOnUse">
<stop stop-color="#23307A"/>
<stop offset="0.786909" stop-color="#F75B99"/>
</linearGradient>
</defs>
</svg>
