<svg width="80" height="77" viewBox="0 0 80 77" fill="none" xmlns="http://www.w3.org/2000/svg">
<path d="M0.110795 38.824C0.335516 36.334 0.831809 33.8761 1.59081 31.494C4.05081 23.644 7.67081 16.664 13.5908 10.904C16.7308 7.84398 21.1008 4.36399 25.2108 2.75399C30.0408 0.853988 36.9808 -0.52601 42.2108 0.19399C61.0908 2.80399 81.9508 20.194 78.8508 40.824C76.3808 57.264 64.5808 73.484 47.2808 75.944C42.6052 76.6254 37.8447 76.4526 33.2308 75.434C14.8808 70.864 -1.5092 57.674 0.110795 38.824Z" fill="white"/>
<path d="M8.72079 40.2138C8.90148 38.1753 9.30728 36.163 9.93078 34.2138C11.9308 27.7738 14.9308 22.0538 19.7908 17.3238C22.3608 14.8238 25.9508 11.9638 29.3208 10.6438C33.2708 9.08379 38.9708 7.95378 43.2208 8.54378C58.7108 10.6838 75.8108 24.9438 73.2208 41.8538C71.2508 55.3338 61.5708 68.6738 47.3708 70.6738C43.5372 71.235 39.6334 71.0926 35.8508 70.2538C20.8308 66.4838 7.37079 55.6738 8.72079 40.2138Z" fill="#FCB04E"/>
<path d="M7.5608 38.6739C7.73755 36.6552 8.14008 34.6628 8.76082 32.7339C10.7608 26.3639 13.6908 20.7339 18.5108 16.0239C21.0608 13.5539 24.6108 10.7239 27.9408 9.41387C31.8508 7.87387 37.4908 6.76386 41.7008 7.34386C57.0108 9.46386 73.9308 23.5639 71.4208 40.3439C69.4208 53.6839 59.8408 66.8439 45.8108 68.8339C42.0176 69.3933 38.154 69.2543 34.4108 68.4239C19.5408 64.6739 6.2508 54.0139 7.5608 38.6739Z" fill="url(#paint0_linear_51_794)"/>
<path d="M48.4907 13.0238C48.4907 14.2038 45.3407 15.1638 41.4907 15.1638C37.6407 15.1638 34.4907 14.1638 34.4907 13.0238C34.4907 11.8838 37.6307 10.8838 41.4907 10.8838C45.3507 10.8838 48.4907 11.8438 48.4907 13.0238Z" fill="white"/>
<path d="M32.6007 14.0639C32.7507 14.6039 32.1207 15.2339 31.2107 15.4939C30.3007 15.7539 29.4307 15.4939 29.2807 14.9939C29.1307 14.4939 29.7507 13.8239 30.6707 13.5639C31.5907 13.3039 32.4507 13.5339 32.6007 14.0639Z" fill="white"/>
<path d="M28.3709 54.4738L24.8909 51.0038L30.1409 45.7538H22.6509V32.0738H30.8709L41.9909 23.3838V33.9038L55.9909 19.9038L59.4709 23.3838L52.4709 30.3838L52.8609 31.0238C54.2714 33.4237 55.0073 36.1601 54.9909 38.9438C55.0377 41.1142 54.5976 43.2675 53.703 45.2455C52.8083 47.2235 51.4818 48.9759 49.8209 50.3738L48.3709 51.4838L44.6809 45.4838L45.6809 44.5638C47.1214 43.0245 47.9005 40.9815 47.8509 38.8738C47.8565 37.7466 47.6425 36.6292 47.2209 35.5838L41.9909 40.8138V54.4038L34.3609 48.4038L28.3709 54.4738ZM38.2609 47.3638L38.7209 47.7238V46.9038L38.2609 47.3638ZM48.8409 45.9738L49.1509 46.4638C50.8622 44.3235 51.7744 41.6538 51.7309 38.9138C51.7367 37.4548 51.4862 36.0061 50.9909 34.6338L50.5209 35.1038C50.9242 36.3336 51.1301 37.6195 51.1309 38.9138C51.1562 41.4536 50.3522 43.9324 48.8409 45.9738ZM25.9309 42.4738H30.9309L38.6809 34.7238V30.1038L31.9609 35.3538H25.8909L25.9309 42.4738Z" fill="url(#paint1_linear_51_794)"/>
<path d="M24.2908 32.9541V43.3541H31.4408L31.5508 43.4441L40.3708 34.6741V26.0241L31.4507 33.0241L24.2908 32.9541ZM51.4708 31.0741L48.6107 33.9341C49.1936 35.2645 49.4933 36.7016 49.4908 38.1541C49.5204 39.4204 49.2978 40.6799 48.836 41.8593C48.3741 43.0388 47.6823 44.1146 46.8008 45.0241L48.8008 48.2941C50.2701 47.0514 51.443 45.4959 52.2337 43.7415C53.0244 41.987 53.4129 40.078 53.3708 38.1541C53.3873 35.666 52.7308 33.2196 51.4708 31.0741ZM40.3708 50.3241V42.1841L35.8008 46.7541L40.3708 50.3241ZM56.0308 21.4341L57.1908 22.5841L28.3708 51.3941L27.2108 50.2341L56.0308 21.4341Z" fill="white"/>
<defs>
<linearGradient id="paint0_linear_51_794" x1="-0.592123" y1="12.6786" x2="87.5104" y2="76.1981" gradientUnits="userSpaceOnUse">
<stop stop-color="#23307A"/>
<stop offset="1" stop-color="#F75B99"/>
</linearGradient>
<linearGradient id="paint1_linear_51_794" x1="-0.592123" y1="12.6786" x2="87.5104" y2="76.1981" gradientUnits="userSpaceOnUse">
<stop stop-color="#23307A"/>
<stop offset="1" stop-color="#F75B99"/>
</linearGradient>
</defs>
</svg>
