<svg width="80" height="77" viewBox="0 0 80 77" fill="none" xmlns="http://www.w3.org/2000/svg">
<path d="M0.110795 38.824C0.335516 36.334 0.831794 33.8761 1.59079 31.494C4.05079 23.644 7.67079 16.664 13.5908 10.904C16.7308 7.84398 21.1008 4.36399 25.2108 2.75399C30.0408 0.853988 36.9808 -0.52601 42.2108 0.19399C61.0908 2.80399 81.9508 20.194 78.8508 40.824C76.3808 57.264 64.5808 73.484 47.2808 75.944C42.6052 76.6254 37.8447 76.4526 33.2308 75.434C14.8808 70.864 -1.5092 57.674 0.110795 38.824Z" fill="white"/>
<path d="M8.72095 40.2138C8.90164 38.1753 9.30745 36.163 9.93095 34.2138C11.931 27.7738 14.931 22.0538 19.791 17.3238C22.361 14.8238 25.951 11.9638 29.321 10.6438C33.271 9.08379 38.9709 7.95378 43.2209 8.54378C58.7109 10.6838 75.8109 24.9438 73.2709 41.8538C71.2709 55.3438 61.571 68.6438 47.381 70.6638C43.5473 71.225 39.6435 71.0827 35.861 70.2438C20.831 66.4838 7.39095 55.6738 8.72095 40.2138Z" fill="#FCB04E"/>
<path d="M7.5608 38.6739C7.73755 36.6552 8.14006 34.6628 8.7608 32.7339C10.7608 26.3639 13.7008 20.7339 18.5108 16.0239C21.0608 13.5539 24.6108 10.7239 27.9408 9.41387C31.8508 7.87387 37.4908 6.76386 41.7008 7.34386C57.0108 9.46386 73.9308 23.5639 71.4208 40.3439C69.4208 53.6839 59.8408 66.8439 45.8108 68.8339C42.0176 69.3933 38.154 69.2543 34.4108 68.4239C19.5408 64.6739 6.2508 54.0139 7.5608 38.6739Z" fill="url(#paint0_linear_51_793)"/>
<path d="M48.491 13.0238C48.491 14.2038 45.351 15.1638 41.491 15.1638C37.631 15.1638 34.491 14.1638 34.491 13.0238C34.491 11.8838 37.631 10.8838 41.491 10.8838C45.351 10.8838 48.491 11.8438 48.491 13.0238Z" fill="white"/>
<path d="M32.6009 14.0639C32.7509 14.6039 32.1209 15.2339 31.2109 15.4939C30.3009 15.7539 29.4309 15.4939 29.2809 14.9939C29.1309 14.4939 29.7509 13.8239 30.6709 13.5639C31.5909 13.3039 32.4509 13.5339 32.6009 14.0639Z" fill="white"/>
<path d="M38.271 52.8137L28.171 44.9237H20.771V32.4437H28.171L38.271 24.5537V52.8137ZM24.051 41.6737H29.301L34.991 46.1237V31.2737L29.301 35.6737H24.051V41.6737Z" fill="url(#paint1_linear_51_793)"/>
<path d="M45.6008 55.5439L41.9708 49.7339L43.6808 48.964C46.5008 47.694 48.5608 43.374 48.5608 38.684C48.5608 33.994 46.4808 29.604 43.6108 28.364L41.8508 27.6039L45.5308 21.814L46.8508 22.4839C51.9608 25.0539 55.2708 31.414 55.2708 38.684C55.2708 45.954 51.9908 52.2639 46.9108 54.8539L45.6008 55.5439ZM46.6508 51.0039L46.7308 51.1339C49.9508 48.7239 52.0308 43.944 52.0308 38.684C52.0308 33.424 49.9308 28.584 46.6708 26.184L46.5908 26.314C49.7708 28.674 51.8708 33.454 51.8708 38.684C51.8708 43.914 49.7908 48.6739 46.6508 51.0039Z" fill="url(#paint2_linear_51_793)"/>
<path d="M42.2309 50.0839L38.7709 44.4939L39.7709 43.5739C40.9898 42.214 41.6564 40.4476 41.6397 38.6214C41.6231 36.7953 40.9244 35.0413 39.6809 33.7039L38.6809 32.7739L42.2009 27.2339L43.6209 28.3239C45.1058 29.5959 46.3001 31.1721 47.1229 32.9457C47.9458 34.7193 48.378 36.649 48.3903 38.6042C48.4026 40.5594 47.9948 42.4944 47.1944 44.2783C46.3939 46.0622 45.2196 47.6532 43.7509 48.9439L42.2309 50.0839ZM42.8909 44.9339L42.9609 45.0439C44.3227 43.1737 45.048 40.9157 45.03 38.6024C45.012 36.289 44.2517 34.0426 42.8609 32.1939L42.7909 32.2939C44.1758 34.1337 44.9109 36.3813 44.8809 38.6839C44.9013 40.9262 44.204 43.1162 42.8909 44.9339Z" fill="url(#paint3_linear_51_793)"/>
<path d="M22.4109 33.1041V42.3141H28.7409L36.6309 48.4741V26.9341L28.7409 33.1041H22.4109Z" fill="white"/>
<path d="M46.1508 22.9639L44.3008 25.8839C47.6808 27.3338 50.2408 32.1639 50.2408 37.7039C50.2408 43.2439 47.7208 47.9839 44.3908 49.4839L46.2008 52.4138C50.5608 50.1938 53.6708 44.4139 53.6708 37.7039C53.6708 30.9939 50.5408 25.1739 46.1508 22.9639Z" fill="white"/>
<path d="M42.5509 28.6738L40.731 31.5338C42.3191 33.1757 43.2177 35.3638 43.2419 37.6479C43.2661 39.9321 42.414 42.1387 40.861 43.8138L42.6509 46.7138C43.9216 45.5807 44.9366 44.1901 45.6284 42.6344C46.3203 41.0788 46.6732 39.3938 46.6638 37.6913C46.6543 35.9887 46.2827 34.3077 45.5736 32.7599C44.8645 31.212 43.8341 29.8328 42.5509 28.7138V28.6738Z" fill="white"/>
<defs>
<linearGradient id="paint0_linear_51_793" x1="-0.592123" y1="12.6786" x2="87.5104" y2="76.1981" gradientUnits="userSpaceOnUse">
<stop stop-color="#23307A"/>
<stop offset="1" stop-color="#F75B99"/>
</linearGradient>
<linearGradient id="paint1_linear_51_793" x1="-0.592123" y1="12.6786" x2="87.5104" y2="76.1981" gradientUnits="userSpaceOnUse">
<stop stop-color="#23307A"/>
<stop offset="1" stop-color="#F75B99"/>
</linearGradient>
<linearGradient id="paint2_linear_51_793" x1="-0.592123" y1="12.6786" x2="87.5104" y2="76.1981" gradientUnits="userSpaceOnUse">
<stop stop-color="#23307A"/>
<stop offset="1" stop-color="#F75B99"/>
</linearGradient>
<linearGradient id="paint3_linear_51_793" x1="-0.592123" y1="12.6786" x2="87.5104" y2="76.1981" gradientUnits="userSpaceOnUse">
<stop stop-color="#23307A"/>
<stop offset="1" stop-color="#F75B99"/>
</linearGradient>
</defs>
</svg>
