<svg width="80" height="77" viewBox="0 0 80 77" fill="none" xmlns="http://www.w3.org/2000/svg">
<path d="M0.11079 38.824C0.335512 36.334 0.831774 33.8761 1.59077 31.494C4.05077 23.644 7.67077 16.664 13.5908 10.904C16.7308 7.84401 21.1008 4.36399 25.2108 2.75399C30.0408 0.853988 36.9808 -0.52601 42.2108 0.19399C61.0908 2.80399 81.9508 20.194 78.8508 40.824C76.3808 57.264 64.5808 73.484 47.2808 75.944C42.6215 76.6193 37.8785 76.4466 33.2808 75.434C14.8808 70.864 -1.50921 57.704 0.11079 38.824Z" fill="white"/>
<path d="M8.77061 40.1738C8.9513 38.1352 9.35713 36.123 9.98063 34.1738C11.9806 27.7338 14.9806 22.0137 19.8406 17.2837C22.4106 14.7837 26.0006 11.9238 29.3706 10.6038C33.3706 9.04375 39.0206 7.91375 43.2806 8.50375C58.7606 10.6437 75.8606 24.9038 73.2806 41.8138C71.2806 55.3038 61.5806 68.6038 47.3906 70.6238C43.557 71.185 39.6532 71.0426 35.8706 70.2038C20.8306 66.4838 7.39061 55.6938 8.77061 40.1738Z" fill="#FCB04E"/>
<path d="M7.56056 38.6939C7.73731 36.6752 8.13983 34.6828 8.76057 32.7539C10.7606 26.3839 13.7006 20.7539 18.5106 16.0439C21.0606 13.5739 24.6106 10.7439 27.9406 9.43389C31.8506 7.89389 37.4906 6.78388 41.7006 7.36388C57.0106 9.48388 73.9306 23.5939 71.4206 40.3639C69.4206 53.7039 59.8406 66.8639 45.8106 68.8539C42.0173 69.4133 38.1538 69.2743 34.4106 68.4439C19.5406 64.6939 6.25056 54.0139 7.56056 38.6939Z" fill="url(#paint0_linear_51_802)"/>
<path d="M48.4907 13.0238C48.4907 14.2038 45.3507 15.1638 41.4907 15.1638C37.6307 15.1638 34.4907 14.1638 34.4907 13.0238C34.4907 11.8838 37.6307 10.8838 41.4907 10.8838C45.3507 10.8838 48.4907 11.8438 48.4907 13.0238Z" fill="white"/>
<path d="M32.6007 14.0639C32.7507 14.6039 32.1207 15.2339 31.2107 15.4939C30.3007 15.7539 29.4307 15.4939 29.2807 14.9939C29.1307 14.4939 29.7507 13.8239 30.6707 13.5639C31.5907 13.3039 32.4507 13.5339 32.6007 14.0639Z" fill="white"/>
<path d="M46.1386 32.395L55.1181 33.7199C55.8617 33.8261 56.4865 34.351 56.724 35.0697C56.9614 35.7946 56.7677 36.582 56.2303 37.1194L49.7191 43.5061L51.2563 52.6675C51.3813 53.4174 51.0751 54.1798 50.4502 54.6235C49.8316 55.0672 49.013 55.1234 48.3444 54.7672L40.321 50.4865L32.3039 54.7672C31.629 55.1234 30.8104 55.0672 30.1918 54.6235C29.5731 54.1798 29.2607 53.4174 29.3919 52.6675L30.9291 43.5061L24.4167 37.1194C23.8787 36.582 23.6874 35.7946 23.9236 35.0697C24.1592 34.351 24.7822 33.8261 25.5315 33.7199L34.5034 32.395L38.5276 24.1254C38.8588 23.437 39.5587 23 40.321 23C41.0896 23 41.7895 23.437 42.1206 24.1254L46.1386 32.395Z" fill="url(#paint1_linear_51_802)"/>
<path d="M45.3507 32.2206L53.2083 33.3799C53.859 33.4728 54.4058 33.9321 54.6136 34.561C54.8214 35.1953 54.6519 35.8842 54.1816 36.3545L48.4839 41.9429L49.829 49.9591C49.9384 50.6152 49.6705 51.2823 49.1236 51.6706C48.5823 52.0588 47.866 52.108 47.2809 51.7963L40.2599 48.0507L33.2444 51.7963C32.6539 52.108 31.9375 52.0588 31.3962 51.6706C30.8549 51.2823 30.5815 50.6152 30.6963 49.9591L32.0414 41.9429L26.3426 36.3545C25.8718 35.8842 25.7045 35.1953 25.9112 34.561C26.1173 33.9321 26.6625 33.4728 27.3181 33.3799L35.1692 32.2206L38.6906 24.9847C38.9804 24.3824 39.5928 24 40.2599 24C40.9325 24 41.5449 24.3824 41.8347 24.9847L45.3507 32.2206Z" fill="white"/>
<defs>
<linearGradient id="paint0_linear_51_802" x1="-0.592123" y1="12.6778" x2="87.5069" y2="76.1985" gradientUnits="userSpaceOnUse">
<stop stop-color="#23307A"/>
<stop offset="1" stop-color="#F75B99"/>
</linearGradient>
<linearGradient id="paint1_linear_51_802" x1="-0.592123" y1="12.6778" x2="87.5069" y2="76.1985" gradientUnits="userSpaceOnUse">
<stop stop-color="#23307A"/>
<stop offset="1" stop-color="#F75B99"/>
</linearGradient>
</defs>
</svg>
