<?xml-model href="bible-kids-logo.xsd"?>
<svg xmlns="http://www.w3.org/2000/svg" xmlns:xlink="http://www.w3.org/1999/xlink" id="Static" viewBox="0 0 701.86 194.42"><defs><linearGradient id="linear-gradient" x1="190.95" x2="191" y1="114.17" y2="119.31" gradientUnits="userSpaceOnUse"><stop offset="0" stop-color="#964091"/><stop offset="1" stop-color="#6a3a85"/></linearGradient><linearGradient xlink:href="#linear-gradient" id="linear-gradient-2" x1="116.62" x2="116.97" y1="141.4" y2="174.57"/><linearGradient xlink:href="#linear-gradient" id="linear-gradient-3" x1="113.5" x2="114.57" y1="79.32" y2="181.11"/><linearGradient xlink:href="#linear-gradient" id="linear-gradient-4" x1="407.87" x2="408.97" y1="78.93" y2="183.65"/><linearGradient xlink:href="#linear-gradient" id="linear-gradient-5" x1="660.08" x2="660.92" y1="76.82" y2="156.83"/><linearGradient xlink:href="#linear-gradient" id="linear-gradient-6" x1="574.77" x2="575.61" y1="77.72" y2="157.73"/><linearGradient xlink:href="#linear-gradient" id="linear-gradient-7" x1="264.43" x2="265.71" y1="72.48" y2="194.09"/><linearGradient xlink:href="#linear-gradient" id="linear-gradient-8" x1="493.02" x2="494" y1="83.66" y2="176.48"/><linearGradient xlink:href="#linear-gradient" id="linear-gradient-9" x1="497.76" x2="498.52" y1="78.5" y2="149.9"/><linearGradient xlink:href="#linear-gradient" id="linear-gradient-10" x1="324.87" x2="325.71" y1="80.35" y2="160.36"/><style>.cls-1{fill:#fff}</style></defs><path d="M458.81 36.38a7.37 7.37 0 0 1-2.59.54 7.75 7.75 0 0 1-2.12-.21 20.84 20.84 0 0 1-2.07-.58c-.66-.22-1.29-.46-1.87-.72l-.51-.23a1 1 0 0 0-1.33.58l-2.57 6.87a1.17 1.17 0 0 0 .5 1.42 14.5 14.5 0 0 0 3.39 1.58c.12 0 .67.17 1.4.31.54.1 1.08.18 1.63.25a20.14 20.14 0 0 0 3 .14 22.54 22.54 0 0 0 5.89-1 14.55 14.55 0 0 0 4.69-2.33 10.45 10.45 0 0 0 3-3.81 10.88 10.88 0 0 0 1-5.2 9.22 9.22 0 0 0-.81-3.59 8.9 8.9 0 0 0-1.83-2.59 10 10 0 0 0-1.1-1 13.17 13.17 0 0 0-1.34-.87c-1.77-1-7.36-2.52-8.07-2.87a1.18 1.18 0 0 1-.58-.57.49.49 0 0 1 0-.25 1.41 1.41 0 0 1 .66-1.16 4.14 4.14 0 0 1 1.47-.6 7.68 7.68 0 0 1 1.72-.19 9.2 9.2 0 0 1 1.45.09 16 16 0 0 1 3.2.72l.78.28a2.17 2.17 0 0 0 2.86-1.49l1.34-5.26a2.17 2.17 0 0 0-1.52-2.64 22.8 22.8 0 0 0-2.85-.62 26.36 26.36 0 0 0-5.18-.27 19.07 19.07 0 0 0-5.31 1 13.24 13.24 0 0 0-4.35 2.45 11.46 11.46 0 0 0-3 3.86 11 11 0 0 0-1 5.16 7 7 0 0 0 .68 3 8.88 8.88 0 0 0 1.62 2.31 11 11 0 0 0 2.15 1.7 19.33 19.33 0 0 0 2.35 1.2c.9.38 1.61.61 2.17.79.24.07 1 .34 2.62.89a2 2 0 0 1 1.25.88 2 2 0 0 1 .14.51 1.51 1.51 0 0 1-.96 1.52ZM440.28 6.11a1 1 0 0 0-1.06-1l-8 .62a1 1 0 0 0-.9 1.06l.84 11.72a1 1 0 0 1-1.35 1 5.81 5.81 0 0 0-.86-.3 10.38 10.38 0 0 0-2.79-.38 11.85 11.85 0 0 0-5.16 1.11 10.91 10.91 0 0 0-3.77 2.93 13.14 13.14 0 0 0-2.34 4.32 16.7 16.7 0 0 0-.8 5.26 15.08 15.08 0 0 0 .95 5.54 12.51 12.51 0 0 0 2.58 4.12 11.13 11.13 0 0 0 3.69 2.57 10.66 10.66 0 0 0 4.3.9 10.79 10.79 0 0 0 3.64-.64 5.88 5.88 0 0 0 2.86-2h.08v1.44a1 1 0 0 0 1.05 1l6.58-.43a1 1 0 0 0 .92-1Zm-9.64 28.11a3.34 3.34 0 0 1-1.29 1.34 4.17 4.17 0 0 1-2.93.46 3.46 3.46 0 0 1-1.85-.93 3.66 3.66 0 0 1-1.05-2.1 4.38 4.38 0 0 1 .63-3.13 4.54 4.54 0 0 1 4.69-1.8 2.73 2.73 0 0 1 1.75 1c.22.34.23.59.25 2.31.03 2.15.01 2.43-.2 2.85ZM409.64 43.93l1.27-29a1 1 0 0 0-1.14-1.05l-8.19 1a1 1 0 0 0-.9 1l-.17 26.77v1.29a1 1 0 0 0 1 1h7.1a1 1 0 0 0 1.03-1.01ZM393.14 3.6a.94.94 0 0 0-1.42 0l-10.16 10.82a.94.94 0 0 1-1.64-.64L380 1.56a.94.94 0 0 0-1.06-.94l-7.77.92a.94.94 0 0 0-.83 1l1 43a.94.94 0 0 0 1 .91l6.78-.78a.92.92 0 0 0 .83-1l-.3-9.29a.94.94 0 0 1 1.63-.67l7.8 8.41a.94.94 0 0 0 1.47-.12l4.93-7.39a.94.94 0 0 0-.24-1.28l-11.82-8.52a1 1 0 0 1-.08-1.46L398.25 11a1 1 0 0 0 .08-1.31ZM357.39 28.18l-2.63-4.87a1.22 1.22 0 0 0-1.8-.4 10.94 10.94 0 0 1-2.71 1.52c-3.47 1.34-6.65.83-6.78 0s2-1.87 6-4.33c3.23-2 5.64-3.23 7.12-4.84.15-.3.58-.84.31-1.36a13.42 13.42 0 0 0-4.45-5.17 13.05 13.05 0 0 0-7.67-2.26 14 14 0 0 0-5.15 1 12.33 12.33 0 0 0-4.22 2.77 13.05 13.05 0 0 0-2.87 4.42 15.54 15.54 0 0 0-1.06 5.92 12.54 12.54 0 0 0 1 5 12.83 12.83 0 0 0 2.83 4.13 13.57 13.57 0 0 0 4.31 2.81 14.26 14.26 0 0 0 5.5 1 18.76 18.76 0 0 0 6.5-.86 17.42 17.42 0 0 0 5.44-3 1.22 1.22 0 0 0 .33-1.48Zm-16-8.92c-.48-.31-.18-.89-.25-1.21.21-3.15 2.86-5.16 5.49-4.3.47.16 1 .28 1.09.83a1.22 1.22 0 0 1-.68 1.36c-1.45 1-2.89 2-4.36 2.91-.42.24-.83.73-1.33.41Z" class="cls-1"/><path d="M324.43 4.38 316 6a1 1 0 0 0-.81 1l.42 39.24a1 1 0 0 0 1 1l19.9-1a2 2 0 0 0 1.9-2l-.06-5.83a2.1 2.1 0 0 0-2.19-2.07l-9.56.37a1.47 1.47 0 0 1-1.55-1.71l.55-29.66a1 1 0 0 0-1.17-.96ZM284.35 44.87a1 1 0 0 0 .91 1l6.59.43a1 1 0 0 0 1-1v-1.42h.15a6 6 0 0 0 2.86 2 11 11 0 0 0 3.64.63 10.7 10.7 0 0 0 4.3-.9 11.23 11.23 0 0 0 3.69-2.57A12.49 12.49 0 0 0 310 39a15.07 15.07 0 0 0 1-5.54 16.7 16.7 0 0 0-.81-5.26 13.12 13.12 0 0 0-2.33-4.32 11 11 0 0 0-3.78-2.93 11.81 11.81 0 0 0-5.08-1.12 10.45 10.45 0 0 0-2.8.38 5.81 5.81 0 0 0-.86.3 1 1 0 0 1-1.34-1l.84-11.72a1 1 0 0 0-.9-1l-8-.63a1 1 0 0 0-1.05 1Zm9.91-12.5c0-1.72 0-2 .26-2.31a2.74 2.74 0 0 1 1.74-1 4.53 4.53 0 0 1 4.69 1.8 4.41 4.41 0 0 1 .64 3.13 3.7 3.7 0 0 1-1.06 2.1 3.48 3.48 0 0 1-1.84.93 4.16 4.16 0 0 1-2.93-.46 3.29 3.29 0 0 1-1.3-1.34c-.21-.46-.22-.74-.2-2.85ZM261.47 29.49a15.6 15.6 0 0 0-3.13-8.12 13.64 13.64 0 0 0-1.57-1.65 5.87 5.87 0 0 0-1.16-.93c-.13-.06-.46-.29-.92-.57a.92.92 0 0 1-.33-.32 1.35 1.35 0 0 1 .1-1.19c.26-.57 1.89-2.16 2.45-3.62a14.9 14.9 0 0 0 .29-6.18c-.29-1.83-.56-3.47-1.82-4.8C253.65.28 251.09.17 247.77 0a40 40 0 0 0-5.77.36q-3.4.33-8.5 1.29a1 1 0 0 0-.81 1l.27 42.84a1 1 0 0 0 .88 1q4.81.51 8.38.52a53 53 0 0 0 6.33-.26 18 18 0 0 0 3.91-.7 14 14 0 0 0 6.66-4.92c3.2-4.45 2.61-9.42 2.35-11.64Zm-19.21-19.16a1.32 1.32 0 0 1 .91-1.21 5.14 5.14 0 0 1 2.37-.36 2.23 2.23 0 0 1 1.49.76 2.74 2.74 0 0 1 .36 1.62 1.21 1.21 0 0 1-.06.38 6.52 6.52 0 0 1-.89 2 4.73 4.73 0 0 1-1.63 1.35 3.37 3.37 0 0 1-1.27.37 1.32 1.32 0 0 1-1.41-1.39Zm7.35 19.78c-.14 2.33-.22 3.5-1.13 4.41a4.28 4.28 0 0 1-1.77 1 7.61 7.61 0 0 1-2.52.26 1 1 0 0 1-.95-.95l-.45-9.57a1 1 0 0 1 .61-1 9 9 0 0 1 2.51-.75 3.63 3.63 0 0 1 1.9.2 2.11 2.11 0 0 1 1 .86 3.3 3.3 0 0 1 .35.94 20 20 0 0 1 .45 4.6ZM265.75 21.31l-.25 5.31c0 .36.22.67.51.65l1.11-.05a.56.56 0 0 1 .59.57l-.55 17.42a.9.9 0 0 0 .95 1l7.4-1a.93.93 0 0 0 .76-.91l1.31-17.15a.56.56 0 0 1 .53-.51l1.07-.06a.54.54 0 0 0 .45-.56l.3-6c0-.37-.23-.69-.52-.66l-13.23 1.4a.56.56 0 0 0-.43.55ZM279.94 10.55a7.54 7.54 0 0 1-.33 2.19 7.8 7.8 0 0 1-3.34 4.26 7.83 7.83 0 0 1-2.22.87 9 9 0 0 1-2.12.17c-2.87-.19-6.91-3.48-7-7.3a7.45 7.45 0 0 1 2.25-5.56.36.36 0 0 1 .6.34 5 5 0 0 0 .22 3.37 4.44 4.44 0 0 0 .79 1.17.36.36 0 0 0 .61-.31 10.66 10.66 0 0 1 .59-6.3c.11-.26.24-.52.38-.78A9.61 9.61 0 0 1 272.13.4a.35.35 0 0 1 .59.3 12.89 12.89 0 0 0 0 2.35 11.91 11.91 0 0 0 .32 2.1 14.24 14.24 0 0 0 .73 2.23.37.37 0 0 0 .51.17 4.74 4.74 0 0 0 1.28-1.09 4.6 4.6 0 0 0 .86-1.71.36.36 0 0 1 .56-.2 7.52 7.52 0 0 1 2.96 6Z" class="cls-1"/><g id="Logo"><path fill="url(#linear-gradient)" d="m189.48 114-.32.1c.07 1.45.18 2.91.22 4.37.06 2.15 0 2.13 2.17 2 1.39-.07 1.37 0 1.12-1.4a7 7 0 0 0-3.19-5.07Z"/><path fill="url(#linear-gradient-2)" d="m137.67 161.87-5.14 5.47-3.64 3.87c-.21.24-.44.47-.65.7a2.64 2.64 0 0 1-1.51.74c-5 .51-10 .95-15 1.44-1.91.18-3.83.37-5.73.58-.6.07-.84-.09-1-.74-1.33-6.38-2.69-12.73-4.06-19.09-.09-.39-.21-.78-.28-1.08-1.58 1.76-3.15 3.5-4.71 5.26l14.24-17.55 4.84 22.6 20.48-2 1.81-.19Z"/><path fill="url(#linear-gradient-3)" d="M225.94 119.46a27.57 27.57 0 0 1-4.84 7l-.84.88c-2.67 2.83-5.31 5.64-7.93 8.47a37.46 37.46 0 0 1-14.7 9.43c-1.9.7-3.83 1.25-5.77 1.83a1.2 1.2 0 0 0-.7.4.9.9 0 0 0-.16.7c.3 3.43.58 6.84.86 10.25.16 2 .32 4 .53 6.05a2.36 2.36 0 0 1-.16 1.18h.41l-9.69 10.24a1.74 1.74 0 0 1-1.09.51c-4.36.38-8.72.7-13.1 1.05s-8.69.74-13.31 1.13q-2.85-37.8-5.7-75.42l-.23-.07c-.56.6-1.14 1.21-1.7 1.83-3.15 3.57-6.28 7.19-9.46 10.76l-8.9 10c-.72.83-1.44 1.64-2.13 2.48a1.07 1.07 0 0 0-.12.81 2.63 2.63 0 0 0 .07.42c1.81 5.72 3.62 11.45 5.45 17.15 1.51 4.76 3 9.51 4.57 14.26a1.81 1.81 0 0 1 .07 1.09l-1.81.19-20.48 2-4.84-22.6L96 159c-.3.32-.6.67-.9 1-3.22 3.59-6.45 7.16-9.67 10.78L65 158.23c-.1 1.55-.21 2.87-.28 4.2-.12 2.29-.19 4.61-.37 6.93a4.74 4.74 0 0 1-.1.49 2.62 2.62 0 0 1-.18.51 2.21 2.21 0 0 1-.49.78q-4.35 4.8-8.81 9.49a1.59 1.59 0 0 1-1.09.46c-6.61.16-13.24.28-19.84.44q-15 .34-30 .74H.06v-6.79c.09-3.73.23-7.44.33-11.18.11-4.54.16-9.06.25-13.61q.29-13.87.6-27.75c.12-5.54.26-11.1.4-16.65.11-5 .23-9.92.39-14.9a2 2 0 0 1 .47-1.12c2.82-3 5.63-6.12 8.53-9.09a2.19 2.19 0 0 1 .6-.41 3.37 3.37 0 0 1 1.55-.4c6.29-.07 12.57 0 18.85 0h36.6c1.09 0 1.36 0 1.39.74V81.78q-.48 7.82-1.02 15.7c-.11 1.63-.18 3.25-.39 4.9a1.64 1.64 0 0 1-.05.37 3.1 3.1 0 0 1-.37 1.11 3.23 3.23 0 0 1-.44.65c-2.41 2.69-4.89 5.29-7.3 7.95a2.5 2.5 0 0 0-.51 1.35c-.19 2.06-.3 4.15-.44 6.23-.19 2.41-.37 4.83-.56 7.24-.11 1.64-.18 3.31-.39 5v.09a1.68 1.68 0 0 1-.16.46 3 3 0 0 1-.56.74c-2.59 2.83-5.21 5.61-7.81 8.42a8.83 8.83 0 0 0-.58.74 1.56 1.56 0 0 0-.14.19h16.5c-.28 5-.53 10-.81 15.23.51-.51.83-.81 1.11-1.14 2.11-2.27 4.17-4.59 6.33-6.84l2.43-2.52c4.43-4.62 8.91-9.21 13.36-13.84a7.79 7.79 0 0 0 .51-.63l.32-.33.24-.23a1.56 1.56 0 0 0 .06-1.53q-4.55-14.77-9.11-29.58a28.19 28.19 0 0 1-.83-2.81 1.46 1.46 0 0 1 .28-1.2c2.8-3.06 5.61-6.1 8.51-9.09a2.94 2.94 0 0 1 .81-.6 2.47 2.47 0 0 1 1-.28c7.4-.28 14.77-.44 22.17-.7.88 0 1.21.23 1.37.91l.35 1.8c.92 5.24 1.9 10.48 2.87 15.7a.3.3 0 0 0 .07.19 4.19 4.19 0 0 1 .23.44c.56-.79 1-1.51 1.53-2.14 2-2.48 4.08-4.93 6.17-7.35 1.55-1.78 3.22-3.43 4.8-5.19a1.84 1.84 0 0 1 .72-.53 1.64 1.64 0 0 1 1.34 0c5.47 1.87 11 3.66 16.42 5.54a4.3 4.3 0 0 0 .81.18 1.73 1.73 0 0 0 1.46-.74c2.71-3 5.52-6 8.32-9a2.57 2.57 0 0 1 .7-.51 3.47 3.47 0 0 1 .63-.28 103.66 103.66 0 0 1 20.91-5.68 73.24 73.24 0 0 1 15.9-1.14 44.51 44.51 0 0 1 13.52 2.76 31.66 31.66 0 0 1 9.25 5.57A25.21 25.21 0 0 1 228.1 104c.62 5.33.23 10.52-2.16 15.46Z"/><path fill="url(#linear-gradient-4)" d="M445.81 136.18a36.94 36.94 0 0 0 3.34-4.08c4.17-6.21 5.61-13.22 5.59-20.57A27.49 27.49 0 0 0 447.36 93c-4.91-5.56-11.22-8.9-18.24-11-6.73-2-13.68-2.51-20.61-2.9a78.27 78.27 0 0 0-20.76 1.55 4.64 4.64 0 0 0-2.24 1c-3 3.06-5.87 6.23-8.77 9.39a2.54 2.54 0 0 0-.53 1.11c-.77 4.24-1.53 8.51-2.25 12.78-.65 4-1.25 7.95-1.9 11.94-.67 4.19-1.35 8.41-2 12.61-.74 4.66-1.51 9.3-2.27 14-.7 4.26-1.37 8.53-2.07 12.8s-1.39 8.53-2.06 12.79c-.42 2.6-.84 5.17-1.25 7.86l6.42.91 10.48 1.46c3.13.44 6.26.88 9.39 1.27a1.51 1.51 0 0 0 1.09-.41c2.92-3.09 7.14-7 10-10.16.14-1.23-.51-.37-.37-1 .83-4.31 1.6-8.62 2.41-13a.75.75 0 0 0 .21 0c.53 2.55 1.07 5.08 1.6 7.63 1.37 6.42 2.74 12.84 4 19.29.14.67.4.83 1.05.76 2.08-.14 4.17-.23 6.26-.35 2.66-.16 5.35-.27 8-.44 4.34-.23 8.67-.48 13-.76a2 2 0 0 0 1.16-.51l10.18-10.23-.95.05a1.57 1.57 0 0 0-.14-1c-.6-1.3-1.07-2.67-1.6-4q-3.83-9.81-7.63-19.62a1.37 1.37 0 0 1 .07-1.18c2.96-3.22 5.87-6.31 8.77-9.46Zm-29.4-12.06c0 .56-.21.77-.79.86a23 23 0 0 1-7.58-.07c-.23 0-.6-.48-.55-.67.62-3.66 1.32-7.3 2-10.94a2.86 2.86 0 0 1 .23-.49 9.43 9.43 0 0 1 5.24 4.33 12.2 12.2 0 0 1 1.45 6.98Z"/><path fill="url(#linear-gradient-5)" d="M633.43 137.77a23.36 23.36 0 0 1-6.14-11.93c-1.59-8.73 0-16.8 5.39-24a82.92 82.92 0 0 1 5.46-6.26c2.19-2.39 4.4-4.75 6.67-7.05a35.39 35.39 0 0 1 18-9.51c6.26-1.4 12.51-1 18.77.12a61.83 61.83 0 0 1 16.11 5c3 1.47 3 1.48 2.35 4.73-1.49 7.08-3 14.15-4.5 21.22-.13.62 1.07.44 1 1-1.76 2-5.62 4.63-7.42 6.57-.2.21-.37.44-.64.77l.92.58a20.15 20.15 0 0 1 10 16.57 34.47 34.47 0 0 1-7.77 25.07c-1.41 1.71-3 3.29-4.5 4.91-2.14 2.29-4.26 4.6-6.45 6.85a32.81 32.81 0 0 1-17.23 9.21 49.53 49.53 0 0 1-14.53.8 40 40 0 0 1-13.91-4.05c-4.48-2.12-8.81-4.54-13.23-6.79a1.49 1.49 0 0 1-.86-2c1.82-7.88 3.56-15.77 5.34-23.66a2.79 2.79 0 0 1 .62-1.16c1.89-2.07 3.82-4.12 5.74-6.18.29-.19.52-.47.81-.81Z"/><path fill="url(#linear-gradient-6)" d="M572.21 158.47c0 1.5-.05 3 0 4.5a2.48 2.48 0 0 1-.73 1.91q-4.39 4.76-8.83 9.47a1.62 1.62 0 0 1-1 .47c-3.85.23-7.71.41-11.56.63s-7.89.48-12 .74c-.06-.4-.16-.8-.18-1.2q-.32-9.6-.62-19.2-.39-11.26-.79-22.52c-.19-5.45-.4-10.91-.59-16.36-.19-5.78-.36-11.55-.56-17.33a2.21 2.21 0 0 1 .7-1.73c2.41-2.54 4.81-5.08 7.15-7.69a10.79 10.79 0 0 1 4.19-2.91 77.74 77.74 0 0 1 19.2-4.9 85 85 0 0 1 14.86-.91c8.74.48 16.71 3 23 9.51a24.79 24.79 0 0 1 6.84 14.53 35.25 35.25 0 0 1-.8 13.87 25.46 25.46 0 0 1-6.29 10.47c-1.25 1.34-2.49 2.68-3.79 4a1.05 1.05 0 0 0-.15 1.58c4.44 6.9 8.84 13.82 13.28 20.71.49.75.7-.39 1.67.9-2.84 3-7.46 6.95-10.29 9.95a3.39 3.39 0 0 1-1.53.91c-7.74 2-15.48 4-23.21 6.06-.88.23-1.17 0-1.48-.79-1.91-4.57-3.87-9.12-5.81-13.67-.15-.35-.32-.68-.48-1Zm-.72-45.89v9.69c0 .53.25.78.79.71 1.17-.14 2.34-.23 3.49-.46a1.08 1.08 0 0 0 .64-.84 10.69 10.69 0 0 0-3.69-8.29 13.46 13.46 0 0 0-1.23-.81Z"/><path fill="url(#linear-gradient-7)" d="M298.37 151.76c-.27 3.08-.53 6-.81 8.9-.35 3.85-.74 7.68-1.09 11.5-.23 2.32-.39 4.64-.65 6.94a1.93 1.93 0 0 1-.18.58l.48-.05-9.29 9.71a3.78 3.78 0 0 1-2.74 1.21c-4 .3-8.07.63-12.1.95-3.73.28-7.49.53-11.22.81l-11.13.93c-2.88.23-5.73.42-8.6.65-2.09.16-4.15.35-6.24.51h-2.13a2.06 2.06 0 0 1-.07-.63c.09-5.4.23-10.82.32-16.25q.32-16.56.63-33.13c.09-5.1.25-10.18.32-15.28.12-7.1.16-14.19.26-21.29s.25-14.35.41-21.54a20.63 20.63 0 0 1 .17-2.73 2.1 2.1 0 0 1 .55-1.09q4.28-4.72 8.67-9.34a1.72 1.72 0 0 1 1.39-.42q13.74 2.16 27.46 4.36l4.52.69c-.12 1.83-.23 3.6-.35 5.34-.19 2.73-.39 5.47-.53 8.2-.33 6-.63 11.94-.95 17.9-.21 3.92-.4 7.82-.65 11.73-.23 3.32-.61 6.61-.88 9.93-.26 3.06-.47 6.12-.65 9.18-.24 3.45-.4 6.91-.58 10.36-.07 1.37 0 1.42 1.3 1.42 7.65 0 15.3 0 23-.05Z"/><path fill="url(#linear-gradient-8)" d="m526.94 159.37-10.39 10.24a1.85 1.85 0 0 1-1.11.51c-4.06.61-8.12 1.16-12.17 1.72-3.51.49-7 .95-10.46 1.44s-7.24 1-10.85 1.5l-10.55 1.44c-1.3.19-2.58.35-4 .54-.12-1.09-.28-2.14-.37-3.2-.35-4-.65-7.93-1-11.9s-.77-7.9-1.11-11.87-.68-7.93-1-11.87-.79-7.93-1.14-11.87c-.3-3.22-.53-6.45-.83-9.65s-.63-6.49-.93-9.74-.37-6.46-.88-9.62c-.37-2.15.44-3.45 1.83-4.87 2.39-2.36 4.59-4.93 6.93-7.35a3.53 3.53 0 0 1 1.55-.92l7.54 82.19 47.58-6.54Z"/><path fill="url(#linear-gradient-9)" d="M525.94 156.56a5.86 5.86 0 0 1-.39 3L478 166.09l-7.57-82.19a.86.86 0 0 1 .24-.05.84.84 0 0 1 .2 0c5.41-.65 10.83-1.2 16.23-1.83s10.83-1.27 16.23-1.9c4.87-.56 9.74-1.09 14.61-1.62l4.11-.47c.13 2.28.32 4.43.41 6.57.23 4.42.4 8.88.63 13.3a2.53 2.53 0 0 1-.42 1.56 2.5 2.5 0 0 1-.49.67c-2.31 2.48-4.66 5-7 7.44-.33.35-.61.74-1.09 1.32l1.46-.16c.56-.1.84 0 .86.69.19 5.31.44 10.62.6 15.95a2.27 2.27 0 0 1-.32 1.12 1.69 1.69 0 0 1-.32.51c-2.6 2.85-5.24 5.65-7.89 8.48-.23.26-.44.53-.67.81a.48.48 0 0 1 .05.14.23.23 0 0 1 0 .09l16.67-1.87c.1 1.13.21 2.2.26 3.27.41 6.19.62 12.43 1.15 18.64Z"/><path fill="url(#linear-gradient-10)" d="M364.5 108c-.15 10.36-2.92 18.82-8.84 26.17-1.12 1.39-2.36 2.7-3.59 4-3.27 3.43-6.43 7-9.87 10.22a30.73 30.73 0 0 1-16.89 8.18 33.4 33.4 0 0 1-27.54-7.82 32.4 32.4 0 0 1-11.19-19.58c-1.94-10.85.79-20.6 7.39-29.32a70.53 70.53 0 0 1 4.72-5.37c2.83-3 5.62-6.11 8.62-9a32.19 32.19 0 0 1 18.46-9c11.27-1.42 21.06 2.07 29.38 9.59a28.15 28.15 0 0 1 8.85 17.09c.3 1.93.4 3.89.5 4.84Zm-45.22 2.38a13.41 13.41 0 0 0 .93 7.77c1.68 3.93 4.79 5.78 9 5.92.58 0 1.18 0 1.16-.83a35.43 35.43 0 0 0-.23-4.84 9.62 9.62 0 0 0-10.86-7.99Z"/><path d="M70.05 80.27q-.37 6-.69 11.78t-.83 11.79l-26.89 1.39-.63 8h18.9l-1.4 19.64-19 .63-.64 9.25h26.87q-.37 7-.79 13.84t-.73 13.78l-54.67 1.25 2-91.35ZM96 159l14.24-17.55 4.84 22.6 20.48-2 1.81-.19h.34L127.17 129l-.18-.56 2.43-2.73 8.9-10 11.18-12.59 4.45-5-5.1-1.7-18.29-6.12-.28.4-12.8 18.2-.65-3.43-2.94-15.89-.35-1.8-.19-1-24.44.76.1.33L99.58 122l-10.29 10.63-.24.23-.32.33-14 14.4.09.07L95.06 160ZM228.54 105.48a27.62 27.62 0 0 1-.87 10.15 24.31 24.31 0 0 1-4 8 28.19 28.19 0 0 1-6.45 6.1 43.59 43.59 0 0 1-8.18 4.39 57.05 57.05 0 0 1-9.19 2.86 76.07 76.07 0 0 1-9.44 1.5l2.22 27.14-27.17 2.22q-1.09-13.33-2.12-26.56t-2-26.69q-.47-7.11-1.1-14.21t-.9-14.38A109.79 109.79 0 0 1 174 81.5a105.5 105.5 0 0 1 15.3-2.36 55.68 55.68 0 0 1 9 0 43.29 43.29 0 0 1 8.79 1.6 38.37 38.37 0 0 1 8 3.31 25.89 25.89 0 0 1 11.21 12.21 27.68 27.68 0 0 1 2.24 9.22Zm-25.72 4.09a7.69 7.69 0 0 0-2.79-5.72 8.5 8.5 0 0 0-6.15-1.64 18.32 18.32 0 0 0-2.52.41c-.86.21-1.67.44-2.44.7l.7 17.06a10.37 10.37 0 0 0 1.58 0l1.58-.13a11.93 11.93 0 0 0 4-1 10.84 10.84 0 0 0 3.3-2.29 10 10 0 0 0 2.17-3.29 8.62 8.62 0 0 0 .57-4.1ZM298.78 151.51l-2.66 28.13-53.4 4.18q.38-22.11.85-44c.32-14.57.71-52.59 1.18-67.33l33 5.21c-1 9.25-1.9 36.64-2.79 45.87s-1.52 18.53-1.9 27.9c2 .09 4 .13 5.9.13h5.9c2.36 0 4.69 0 7-.06s4.55-.03 6.92-.03ZM364 117.83a38.31 38.31 0 0 1-3.12 9 37.39 37.39 0 0 1-5 7.62 35.89 35.89 0 0 1-6.6 6 32.82 32.82 0 0 1-7.89 4.08 34.34 34.34 0 0 1-27.13-2.07 34.72 34.72 0 0 1-7.28-5.14 32.85 32.85 0 0 1-5.61-6.72 33.32 33.32 0 0 1-3.65-7.95 35.43 35.43 0 0 1-1.55-8.77 34.64 34.64 0 0 1 .78-9.24 36.93 36.93 0 0 1 14.65-22.33 34.3 34.3 0 0 1 7.83-4.18 32.7 32.7 0 0 1 8.71-1.95 31.23 31.23 0 0 1 9.28.65 40.28 40.28 0 0 1 13.38 5.39 30.09 30.09 0 0 1 13.81 21.19 38.36 38.36 0 0 1-.61 14.42Zm-23.63-3.72a15.05 15.05 0 0 0 .3-4.53 12.39 12.39 0 0 0-1.09-4.2 10.24 10.24 0 0 0-2.54-3.36 9 9 0 0 0-4.06-2 10.59 10.59 0 0 0-4.61-.07 10.24 10.24 0 0 0-3.87 1.71 10.8 10.8 0 0 0-2.92 3.16 13.17 13.17 0 0 0-1.7 4.22 16.36 16.36 0 0 0-.33 4.55 13.41 13.41 0 0 0 1 4.4 10.37 10.37 0 0 0 2.49 3.57 8.57 8.57 0 0 0 4.1 2 10 10 0 0 0 4.65 0 10.24 10.24 0 0 0 3.91-1.89 12.53 12.53 0 0 0 2.94-3.35 14.23 14.23 0 0 0 1.75-4.21ZM455.17 117.06a43.3 43.3 0 0 1-2.09 8.76 27.2 27.2 0 0 1-3.69 6.94 26.39 26.39 0 0 1-5.57 5.49 42.3 42.3 0 0 1-7.73 4.42l11.23 28.69-29 1.58-5.94-28.08-7.82-.83-4.81 25.97-27-3.77Q375 152 377.32 137.8t4.68-28.39q1.13-7.2 2.25-14.27t2.5-14.23a81.78 81.78 0 0 1 9-1.49 84.31 84.31 0 0 1 8.81-.47c2.92 0 5.87.14 8.84.4s6 .62 9.11 1.05a49 49 0 0 1 13.58 3.91 36.34 36.34 0 0 1 11 7.58 30 30 0 0 1 6.88 11 29.35 29.35 0 0 1 1.2 14.17Zm-28.42-1.91a15.37 15.37 0 0 0-.05-4.94 10.91 10.91 0 0 0-1.6-4.09 9.92 9.92 0 0 0-3.17-3 12.64 12.64 0 0 0-4.8-1.6 21.13 21.13 0 0 0-2.47-.18 17.05 17.05 0 0 0-2.39.14l-4.27 23.2 1.51.21a23.14 23.14 0 0 0 5.59.08 16.72 16.72 0 0 0 5.32-1.43 12 12 0 0 0 4.16-3.2 10 10 0 0 0 2.17-5.19ZM526.17 146.92c-.23-4.13-.46-8.31-.72-12.5l-10 1.13-7.58.86-6.54.74-.37-8.37 15.74-2.31 1.27-.19-.76-17.78-3.08.34-13.89 1.6-.23-7.23 22.67-3.8 1.32-.21c-.11-3.59-.28-7.14-.46-10.64s-.42-7.07-.6-10.67l-.88.09-4.11.47L487.1 82l-16.43 1.88h-.24l7.57 82.21 47.58-6.54 1.39-.18c-.33-4.15-.57-8.3-.8-12.45ZM612.58 107.89a38.84 38.84 0 0 1-.3 8.06 24 24 0 0 1-2 6.74 23.57 23.57 0 0 1-3.93 5.8 37.7 37.7 0 0 1-6 5.24L615.21 157 590 163.44l-10.14-23.63-7 .63.35 23.63-24.39 1.42q-.46-12.93-1-25.75t-.9-25.76q-.27-6.53-.52-12.93t-.3-13a75.59 75.59 0 0 1 7.68-2.89 74.76 74.76 0 0 1 7.66-1.95q3.86-.77 7.84-1.19t8.18-.68a43.93 43.93 0 0 1 12.62 1.06 32.47 32.47 0 0 1 11 4.73 26.92 26.92 0 0 1 8 8.46 26.37 26.37 0 0 1 3.5 12.3Zm-25.31 3.29a13.66 13.66 0 0 0-.91-4.33 9.75 9.75 0 0 0-2.12-3.31 8.76 8.76 0 0 0-3.31-2.08 11 11 0 0 0-4.5-.57 19.34 19.34 0 0 0-2.21.27 15.74 15.74 0 0 0-2.07.55l.32 21.13 1.36-.08a20.63 20.63 0 0 0 4.93-.91 14.62 14.62 0 0 0 4.42-2.19 10.83 10.83 0 0 0 3.1-3.53 9 9 0 0 0 .99-4.95ZM700.62 141.59a35.84 35.84 0 0 1-4.71 14.73 30.18 30.18 0 0 1-9.42 9.8 35.4 35.4 0 0 1-12.89 5 51.22 51.22 0 0 1-15.21.44 32.23 32.23 0 0 1-6.68-1.59c-2.4-.83-4.81-1.79-7.24-2.9s-4.75-2.26-7-3.47-4.19-2.33-5.9-3.38l5.73-25.61a44.28 44.28 0 0 0 11.32 6.22 51.87 51.87 0 0 0 12.66 3.17q1.2.13 2.91.24a13.94 13.94 0 0 0 3.31-.2 7 7 0 0 0 2.77-1.12 3.46 3.46 0 0 0 1.39-2.58 3 3 0 0 0-.53-2.14 5.7 5.7 0 0 0-1.79-1.6 11.88 11.88 0 0 0-2.62-1.13q-1.49-.45-2.91-.75c-1-.19-1.86-.33-2.7-.43l-2-.23a25 25 0 0 1-9.64-3 22.47 22.47 0 0 1-7-6.12 24.06 24.06 0 0 1-4-8.56 28 28 0 0 1-.62-10.24 29.13 29.13 0 0 1 4.51-13 31.33 31.33 0 0 1 9.14-9.1 36.53 36.53 0 0 1 12.22-5 41.53 41.53 0 0 1 13.67-.68c2.06.23 4.18.55 6.34.95a62.06 62.06 0 0 1 6.44 1.52 64 64 0 0 1 6.08 2.17 37.43 37.43 0 0 1 5.61 2.87l-5.31 25.28a77.22 77.22 0 0 0-8.7-3.44 44.92 44.92 0 0 0-9.06-2l-2.11-.21c-.86-.07-1.77-.12-2.73-.12a29 29 0 0 0-2.92.15 12.2 12.2 0 0 0-2.68.55 5.05 5.05 0 0 0-2 1.21 3.26 3.26 0 0 0-.08 4.36 6.73 6.73 0 0 0 2.37 1.61 18.1 18.1 0 0 0 3.33 1c1.22.26 2.44.48 3.66.63s2.34.3 3.4.39a18.91 18.91 0 0 1 2.57.39 25.87 25.87 0 0 1 8.83 3.17 21.38 21.38 0 0 1 6.29 5.63 20.74 20.74 0 0 1 3.46 7.69 27.7 27.7 0 0 1 .44 9.43Z" class="cls-1"/></g></svg>