<svg xmlns="http://www.w3.org/2000/svg" id="a" viewBox="0 0 302.86 84.8"><defs><style>.b{fill:#fff}</style></defs><path d="M30.36 35.27c-.11 1.71-.21 3.41-.3 5.08-.09 1.68-.21 3.37-.36 5.08l-11.6.6-.27 3.44h8.15l-.6 8.47-8.21.27-.27 3.99h11.6c-.11 2-.22 3.99-.34 5.97-.12 1.98-.22 3.96-.31 5.94l-23.58.55.88-39.4h25.21ZM66.55 42.95 54.92 56.03l4.6 14.43-9.76.95-2.1-9.75-6.51 8.02-8.77-5.37 10.7-11.04-4.6-14.88 10.54-.33 1.77 9.55 5.64-8.02 10.1 3.37ZM98.72 46.14c.13 1.62 0 3.08-.38 4.38-.38 1.3-.96 2.45-1.73 3.45a12.22 12.22 0 0 1-2.78 2.63c-1.09.75-2.26 1.38-3.53 1.89-1.27.52-2.59.93-3.96 1.23-1.38.31-2.73.52-4.07.65l.96 11.7-11.72.96c-.31-3.83-.62-7.65-.91-11.46-.29-3.8-.58-7.64-.87-11.51-.13-2.05-.29-4.09-.48-6.13-.18-2.04-.31-4.1-.38-6.19 2.09-.81 4.2-1.46 6.32-1.96 2.12-.49 4.32-.83 6.6-1.02 1.29-.11 2.59-.11 3.9 0 1.31.1 2.57.33 3.79.69 1.22.36 2.36.83 3.43 1.43 1.07.59 2.01 1.33 2.83 2.21.81.88 1.48 1.9 2.01 3.06.53 1.16.85 2.49.97 3.98Zm-11.09 1.77c-.09-1.09-.49-1.91-1.2-2.47-.71-.56-1.6-.79-2.65-.71-.35.03-.71.09-1.09.18-.37.09-.72.19-1.05.3l.3 7.36c.24.01.46.01.68 0l.68-.06c.6-.05 1.18-.2 1.72-.44.54-.25 1.02-.58 1.42-.99.4-.41.72-.88.93-1.42.22-.53.3-1.12.25-1.75ZM129.01 65.99l-1.15 12.13-23.03 1.8c.11-6.36.23-12.68.37-18.96.14-6.28.31-22.68.51-29.04l14.22 2.25c-.42 3.99-.82 15.81-1.2 19.79-.38 3.98-.66 7.99-.82 12.03.86.04 1.7.05 2.54.05h2.54c1.02 0 2.02 0 3.01-.03s1.99-.03 3.01-.03ZM157.15 51.47a16.513 16.513 0 0 1-3.5 7.16c-.84.99-1.79 1.85-2.85 2.59-1.06.74-2.19 1.33-3.4 1.76-1.21.43-2.48.7-3.82.79-1.34.1-2.71 0-4.11-.32s-2.62-.75-3.77-1.37c-1.16-.62-2.2-1.35-3.14-2.22-.94-.86-1.74-1.83-2.42-2.9-.68-1.07-1.2-2.21-1.58-3.43-.38-1.21-.6-2.47-.67-3.79-.07-1.31.04-2.64.34-3.98s.73-2.57 1.32-3.76 1.31-2.28 2.15-3.27c.84-.99 1.79-1.86 2.84-2.61a14.78 14.78 0 0 1 3.37-1.8c1.2-.45 2.45-.73 3.76-.84s2.64-.02 4 .28c2.19.48 4.12 1.25 5.77 2.33 1.66 1.07 2.99 2.38 3.99 3.92s1.66 3.28 1.97 5.22c.31 1.94.23 4.02-.25 6.22Zm-10.19-1.61c.14-.65.19-1.3.13-1.95-.06-.65-.21-1.26-.47-1.81s-.62-1.04-1.1-1.45c-.47-.41-1.06-.69-1.75-.84s-1.37-.16-1.99-.03c-.62.13-1.17.38-1.67.74s-.92.81-1.26 1.36c-.34.55-.59 1.16-.73 1.82s-.19 1.29-.14 1.96.19 1.31.44 1.9c.25.59.61 1.11 1.08 1.54s1.06.73 1.77.88 1.38.15 2.01 0a4.51 4.51 0 0 0 1.69-.82c.5-.39.92-.87 1.27-1.44s.59-1.19.74-1.86ZM196.46 51.14c-.2 1.41-.5 2.67-.9 3.78-.4 1.11-.93 2.11-1.59 2.99-.66.88-1.46 1.67-2.4 2.37-.94.7-2.05 1.33-3.33 1.91l4.84 12.37-12.52.68L178 63.13l-3.37-.36-2.06 11.19-11.65-1.62c.66-4.1 1.32-8.18 1.97-12.25.65-4.06 1.32-8.15 2-12.25.33-2.07.65-4.12.97-6.15.32-2.03.68-4.08 1.08-6.14 1.33-.29 2.63-.51 3.9-.64s2.54-.2 3.8-.2c1.26 0 2.53.06 3.81.17 1.28.11 2.59.26 3.93.45 2.06.29 4.01.85 5.85 1.69 1.84.84 3.43 1.93 4.75 3.27a12.92 12.92 0 0 1 2.97 4.75c.66 1.82.83 3.86.51 6.11Zm-12.26-.83c.11-.76.1-1.47-.02-2.13-.12-.66-.35-1.25-.69-1.77-.34-.52-.8-.95-1.37-1.29-.57-.34-1.26-.58-2.07-.69a7.822 7.822 0 0 0-2.1-.02l-1.84 10.01.65.09c.78.11 1.58.12 2.41.03s1.6-.29 2.3-.62 1.3-.79 1.79-1.38c.5-.59.81-1.34.94-2.24ZM225.69 34.24c.08 1.55.16 3.08.25 4.59.09 1.51.16 3.05.2 4.6l-10.35 1.72.11 3.12 7.32-.83.33 7.67-7.34 1.08.16 3.61 6.09-.69 4.32-.49c.11 1.81.21 3.61.3 5.39.1 1.79.2 3.58.33 5.37l-21.11 2.9-3.25-35.46 22.64-2.58ZM264.35 47.18c.07 1.27.03 2.43-.13 3.48-.16 1.05-.45 2.02-.87 2.91-.42.89-.99 1.72-1.7 2.5s-1.57 1.53-2.59 2.26l6.43 10.02-10.88 2.79-4.37-10.19-3.03.27.15 10.19-10.52.61c-.14-3.72-.27-7.42-.41-11.11-.14-3.69-.27-7.39-.39-11.11-.08-1.87-.15-3.73-.23-5.58-.07-1.84-.12-3.7-.13-5.58 1.12-.49 2.22-.91 3.31-1.25 1.09-.34 2.19-.62 3.3-.84 1.11-.22 2.24-.39 3.38-.51 1.15-.12 2.32-.22 3.53-.29 1.86-.11 3.67.04 5.44.46 1.77.41 3.35 1.09 4.75 2.04s2.54 2.17 3.44 3.65c.9 1.48 1.4 3.24 1.52 5.28Zm-10.91 1.42c-.04-.68-.17-1.31-.39-1.86-.22-.56-.53-1.04-.92-1.43-.39-.39-.87-.69-1.43-.9-.56-.2-1.21-.29-1.94-.24-.33.02-.64.06-.95.12-.31.06-.61.14-.89.24l.14 9.11.59-.03c.7-.04 1.41-.17 2.12-.39s1.35-.54 1.91-.94 1-.92 1.33-1.52c.33-.61.48-1.32.43-2.13ZM302.32 61.71c-.28 2.48-.96 4.6-2.03 6.35-1.07 1.76-2.43 3.17-4.06 4.23-1.64 1.06-3.49 1.79-5.56 2.17-2.07.39-4.26.45-6.56.19-.89-.1-1.85-.33-2.88-.68-1.03-.36-2.07-.77-3.12-1.25-1.05-.48-2.05-.98-3.01-1.5s-1.81-1.01-2.55-1.46l2.47-11.05c1.43 1.1 3.06 1.99 4.88 2.69 1.82.69 3.64 1.14 5.45 1.35.34.04.76.07 1.25.1s.97 0 1.43-.08c.46-.09.86-.25 1.2-.48.34-.24.54-.61.6-1.12.04-.34-.04-.65-.23-.92s-.45-.5-.77-.69c-.33-.19-.7-.35-1.13-.49a14.659 14.659 0 0 0-2.42-.51l-.87-.1c-1.56-.18-2.95-.61-4.16-1.3-1.21-.69-2.23-1.57-3.03-2.64-.81-1.07-1.39-2.3-1.74-3.69-.36-1.39-.44-2.86-.27-4.42.24-2.13.89-4 1.94-5.59 1.05-1.59 2.37-2.9 3.94-3.92 1.58-1.02 3.33-1.74 5.27-2.16 1.94-.42 3.9-.52 5.9-.29.89.1 1.8.24 2.73.41.93.17 1.86.39 2.77.66.91.27 1.8.58 2.66.94.86.35 1.67.77 2.42 1.24l-2.29 10.9c-1.18-.56-2.44-1.05-3.75-1.49s-2.62-.72-3.91-.87c-.23-.03-.54-.06-.91-.09s-.77-.05-1.18-.05c-.41 0-.83.02-1.26.06-.43.04-.81.12-1.16.24-.34.12-.63.29-.86.52-.23.23-.35.52-.37.86-.03.4.09.74.34 1.01.25.28.59.51 1.02.69.43.19.91.34 1.43.45.53.12 1.05.21 1.58.28.52.07 1.01.13 1.47.17.45.04.82.1 1.11.17 1.44.26 2.71.71 3.81 1.37 1.1.66 2 1.47 2.71 2.43.71.96 1.2 2.07 1.49 3.32.29 1.25.35 2.6.19 4.05Z" class="b"/><g><path d="M197.01 15.38c-.3.13-.66.2-1.1.23-.29.01-.59-.02-.89-.09-.3-.07-.6-.15-.88-.25-.28-.09-.54-.2-.79-.31-.08-.03-.15-.07-.22-.1-.22-.1-.48.02-.56.25-.36.97-.72 1.94-1.09 2.91-.08.22 0 .48.21.6.37.23.95.54 1.43.67.05.01.29.07.59.13.23.04.46.08.69.11.43.05.85.07 1.26.06a9.4 9.4 0 0 0 2.49-.41c.77-.24 1.43-.58 1.99-1.02.56-.44.98-.98 1.29-1.61.3-.64.44-1.37.4-2.2a3.91 3.91 0 0 0-.34-1.52 3.81 3.81 0 0 0-1.24-1.5c-.2-.15-.37-.26-.57-.37-.75-.43-3.11-1.07-3.41-1.22a.5.5 0 0 1-.25-.24s-.03-.05-.02-.1c.01-.21.11-.37.28-.49.18-.12.38-.2.62-.25.24-.05.48-.08.73-.08s.46.01.61.03a6.724 6.724 0 0 1 1.68.43c.51.19 1.07-.1 1.21-.63l.57-2.22c.12-.47-.15-.97-.62-1.1-.39-.11-.79-.2-1.21-.27-.72-.11-1.46-.15-2.19-.11-.8.04-1.54.17-2.24.41-.7.24-1.32.58-1.84 1.03-.53.45-.94.99-1.24 1.63-.3.64-.44 1.37-.42 2.18.01.48.11.9.29 1.27s.41.69.68.97c.27.28.58.52.91.72.33.2.66.37.99.51.38.16.68.26.92.33.1.03.44.15 1.11.38.16.06.42.15.53.37.05.1.06.2.06.21.01.3-.13.52-.43.65ZM189.17 2.59c0-.24-.21-.43-.45-.41l-3.39.27c-.23.02-.4.22-.38.44l.35 4.96c.02.31-.29.54-.57.42-.12-.05-.24-.09-.36-.13-.38-.11-.77-.16-1.18-.16-.81 0-1.53.15-2.17.45-.63.3-1.16.71-1.6 1.24-.43.52-.76 1.13-.99 1.83-.23.7-.34 1.44-.34 2.22 0 .87.14 1.65.41 2.34.27.69.63 1.27 1.09 1.74.45.47.98.84 1.56 1.09.58.25 1.19.38 1.82.38.52 0 1.03-.09 1.54-.27.51-.18.91-.46 1.21-.86h.04v.61c0 .24.2.43.44.41l2.78-.18c.22-.01.39-.2.39-.42l-.2-15.98Zm-4.07 11.89c-.16.33-.43.5-.55.57-.49.3-1.01.23-1.24.19-.16-.03-.49-.11-.78-.39a1.59 1.59 0 0 1-.45-.89c-.02-.12-.12-.74.27-1.32.46-.69 1.33-.92 1.98-.76.16.04.53.13.74.44.09.14.1.25.11.98.01.89 0 1.01-.08 1.19ZM176.22 18.58l.54-12.28c0-.26-.22-.47-.48-.44l-3.47.41c-.21.03-.38.21-.38.42l-.07 11.32v.55c0 .24.19.43.43.43h3c.23 0 .42-.18.43-.41ZM169.24 1.52a.394.394 0 0 0-.6 0l-4.3 4.58c-.24.27-.7.1-.69-.27l.03-5.17c0-.24-.21-.43-.44-.4l-3.29.39c-.2.02-.36.2-.35.4l.41 18.17c0 .23.21.41.44.39l2.87-.33c.21-.02.36-.2.35-.41l-.13-3.93c-.01-.37.44-.55.69-.28l3.3 3.56c.17.19.48.16.62-.05l2.08-3.12c.12-.18.08-.42-.1-.54l-5-3.6a.396.396 0 0 1-.03-.62l6.3-5.62c.16-.14.18-.39.04-.55l-2.2-2.59ZM154.12 11.92c-.37-.69-.74-1.37-1.11-2.06a.51.51 0 0 0-.76-.17c-.3.23-.68.46-1.14.64-1.47.57-2.81.35-2.87.01-.05-.3.85-.79 2.54-1.83 1.36-.83 2.38-1.37 3.01-2.05.06-.13.24-.36.13-.58a5.768 5.768 0 0 0-1.88-2.19c-.92-.64-2-.95-3.24-.95-.77 0-1.5.14-2.18.4a5.2 5.2 0 0 0-1.78 1.17c-.51.51-.92 1.13-1.22 1.87-.3.74-.45 1.57-.45 2.51 0 .75.14 1.45.43 2.12.29.67.69 1.25 1.2 1.75s1.12.89 1.82 1.19c.71.29 1.48.44 2.33.44.5 0 1.52.05 2.75-.36 1.01-.34 1.78-.84 2.3-1.26.19-.16.25-.43.13-.65Zm-6.78-3.77c-.2-.13-.08-.38-.11-.51.09-1.33 1.21-2.18 2.32-1.82.2.06.4.12.46.35.07.27-.09.44-.29.57-.61.41-1.22.83-1.85 1.23-.16.1-.33.31-.54.17Z" class="b"/><path d="m140.18 1.85-3.58.66a.42.42 0 0 0-.34.42l.18 16.59c0 .24.2.43.44.41l8.42-.44c.45-.02.81-.4.8-.85l-.03-2.47c0-.5-.42-.9-.92-.88l-4.05.16a.628.628 0 0 1-.65-.64l.23-12.54c0-.26-.23-.47-.49-.42ZM123.23 18.98c0 .22.17.4.39.42l2.78.18c.24.02.44-.17.44-.41v-.61h.04c.3.39.7.68 1.21.86.51.18 1.02.27 1.54.27.63 0 1.23-.13 1.82-.38a4.64 4.64 0 0 0 1.56-1.09c.45-.47.82-1.05 1.09-1.74.27-.69.41-1.47.41-2.34 0-.79-.11-1.53-.34-2.22-.23-.7-.56-1.3-.99-1.83a4.69 4.69 0 0 0-1.6-1.24c-.63-.3-1.36-.45-2.17-.45-.41 0-.8.05-1.18.16-.13.03-.25.08-.36.13-.28.12-.59-.11-.57-.42l.35-4.96a.4.4 0 0 0-.38-.44l-3.39-.27a.421.421 0 0 0-.45.41l-.2 15.98Zm4.19-5.29c0-.73.01-.84.11-.98.2-.31.58-.4.74-.44.65-.15 1.52.07 1.98.76.39.58.29 1.2.27 1.32-.03.17-.11.56-.45.89-.29.28-.62.37-.78.39-.23.04-.75.11-1.24-.19-.12-.07-.38-.24-.55-.57-.09-.18-.09-.3-.08-1.19ZM113.56 12.47c-.08-.67-.27-2.11-1.32-3.43-.25-.31-.49-.54-.66-.7-.24-.22-.37-.33-.49-.39-.05-.03-.19-.12-.39-.24a.316.316 0 0 1-.14-.14c-.11-.18 0-.42.04-.51.11-.24.8-.91 1.04-1.53.14-.55.31-1.49.12-2.61-.13-.77-.24-1.47-.77-2.03-.73-.77-1.81-.82-3.22-.88-.61-.03-1.18.02-2.45.14-.96.09-2.16.28-3.6.55-.2.04-.34.21-.34.41l.11 18.12c0 .21.16.39.38.41 1.36.14 2.54.22 3.54.22 1.1 0 1.99-.03 2.68-.11.79-.09 1.19-.14 1.65-.3 1.63-.53 2.6-1.78 2.82-2.08 1.36-1.86 1.11-3.96 1-4.9Zm-8.12-8.1c0-.23.16-.44.38-.51.43-.14.76-.19 1-.15.3.05.52.16.63.32.11.15.16.38.15.69 0 .05 0 .11-.02.16-.1.34-.23.62-.38.83-.16.22-.39.41-.69.57-.15.08-.33.14-.54.15-.33.03-.61-.26-.6-.59l.06-1.47Zm3.11 8.36c-.06.99-.1 1.48-.48 1.86-.25.24-.53.34-.75.42-.27.09-.63.13-1.07.11-.22 0-.39-.18-.4-.4l-.19-4.05c0-.17.1-.34.26-.41.42-.18.77-.29 1.06-.32.34-.03.61 0 .81.08.19.09.33.21.42.36.1.17.14.32.15.4.24 1.26.19 1.94.19 1.94ZM115.37 9.01l-.11 2.24c0 .15.09.28.21.28l.47-.02c.14 0 .25.11.25.24l-.23 7.36c0 .24.19.43.4.4l3.13-.4c.18-.02.31-.18.32-.38l.56-7.25c0-.12.11-.21.22-.22l.45-.02c.1 0 .18-.11.19-.24l.13-2.55c0-.16-.1-.29-.22-.28l-5.59.59c-.1.01-.18.11-.18.24ZM121.37 4.46c0 .32-.05.63-.14.93-.05.16-.38 1.19-1.41 1.8-.14.08-.47.27-.94.37 0 0-.45.1-.9.07-1.21-.08-2.92-1.47-2.96-3.09-.02-.92.34-1.76.95-2.35.11-.11.3 0 .26.14-.13.49-.1.99.1 1.42.09.2.21.36.33.49.1.11.29.02.26-.13-.12-.6-.21-1.62.25-2.66a3.844 3.844 0 0 1 .9-1.29c.1-.1.27-.01.25.13-.03.29-.04.62-.02.99.02.28.06.58.14.89.08.36.19.67.31.94.04.08.14.12.22.07.17-.1.37-.24.54-.46.19-.23.3-.48.36-.72.03-.1.15-.15.23-.08.77.58 1.26 1.5 1.26 2.54Z" class="b"/></g></svg>