<svg xmlns="http://www.w3.org/2000/svg" id="a" viewBox="0 0 1202 903.14"  preserveAspectRatio="xMaxYMax"><defs><linearGradient id="c" x1="109.85" x2="1088.19" y1="952.84" y2="-25.51" gradientUnits="userSpaceOnUse"><stop offset="0" stop-color="#131a43"/><stop offset=".99" stop-color="#412251"/></linearGradient><style>.d{fill:#0396e3}</style></defs><g id="b"><path fill="url(#c)" stroke="#0396e3" stroke-miterlimit="10" stroke-width="5" d="M45.24 10.65 10.99 44.22A28.325 28.325 0 0 0 2.5 64.44v766.74c0 6.84 2.48 13.45 6.97 18.61l17.56 20.15a28.318 28.318 0 0 0 21.35 9.71h94.1c7.06 0 13.86 2.63 19.07 7.39l6.84 6.23a28.345 28.345 0 0 0 19.07 7.39h970.32c8.38 0 16.32-3.71 21.7-10.13l13.4-15.98c4.27-5.1 6.62-11.54 6.62-18.19v-95.11c0-8.1-3.47-15.81-9.52-21.18a28.322 28.322 0 0 1-9.52-21.08l-.91-641.51a28.37 28.37 0 0 0-8.59-20.22l-17.21-16.7c-5.28-5.13-12.36-8-19.72-8H991.78c-7.83 0-15.31-3.24-20.66-8.95l-11.34-12.1a28.311 28.311 0 0 0-20.66-8.95H65.07c-7.41 0-14.53 2.91-19.82 8.1Z"/><path d="m39.02 4.87-34.3 31.8C2.92 38.34 0 37.06 0 34.61v-6.25c0-2.75 1.12-5.38 3.11-7.29L22.09 2.85A10.08 10.08 0 0 1 29.04.03L37.1 0c2.56-.01 3.8 3.13 1.92 4.87ZM2.5 151.55v158.18l14.38-9.4C23.74 295.84 28 287.24 28 277.89V183.3c0-9.39-4.3-18.03-11.21-22.5L2.5 151.55ZM144 877.14l33 23h116.18l-8.63-14.38c-4.12-6.86-10.97-8.62-19.55-8.62M329.24 901.13l-23.95-1.52-5.85-9.66c-3.66-6.04.99-13.7 8.03-13.25l2.7.17a8.72 8.72 0 0 1 6.92 4.2l12.15 20.06ZM364.12 900.22l-23.95-1.52-5.85-9.66c-3.66-6.04.99-13.7 8.03-13.25l2.7.17a8.72 8.72 0 0 1 6.92 4.2l12.15 20.06ZM399.12 900.22l-23.95-1.52-5.85-9.66c-3.66-6.04.99-13.7 8.03-13.25l2.7.17a8.72 8.72 0 0 1 6.92 4.2l12.15 20.06Z" class="d"/></g></svg>