<svg xmlns="http://www.w3.org/2000/svg" viewBox="0 0 516.5 563.53"><defs><style>.c{fill:#9f4096}.f{fill:#0396e3}.h{fill:#fcb04e}.j{fill:#f75b99}.k{fill:#23307a}</style></defs><g id="a"><path d="M10 558.53c-1.27 0-2.53-.48-3.49-1.42a4.981 4.981 0 0 1-.94-5.9c1.35-2.58 135.06-258.33 150.96-324.07a5.015 5.015 0 0 1 4.86-3.83c1.33 0 2.63.53 3.59 1.52 1.21 1.25 122 125.63 175.8 178.25 1.29 1.26 1.8 3.12 1.34 4.86s-1.83 3.1-3.57 3.55C219.74 442.41 14.5 556.75 12.44 557.9c-.76.43-1.6.64-2.44.64Z" class="h"/><path d="M161.39 228.32s121.42 125.07 175.89 178.34C216.47 438.1 10 553.53 10 553.53s135.16-258.12 151.39-325.21m0-10c-.88 0-1.76.12-2.63.35-3.51.96-6.23 3.75-7.09 7.29C135.91 291.11 2.49 546.33 1.14 548.9a9.997 9.997 0 0 0 1.89 11.81 10.012 10.012 0 0 0 11.86 1.56c2.05-1.15 206.75-115.18 324.92-145.92 3.49-.91 6.22-3.62 7.15-7.11a9.99 9.99 0 0 0-2.67-9.72c-53.75-52.57-174.49-176.91-175.71-178.16a9.988 9.988 0 0 0-7.18-3.03Z" class="h"/><path d="M265.93 444.26c-8.18-10.25-52.77-87.71-64.09-135.35-17.31-23.41-33.63-48.76-33.63-48.76-8.92 27.11 11.68 134.99 66.05 201.84 19.96-9.08 31.67-17.74 31.67-17.74ZM74.86 285.71c-8.92 27.11 30.32 140.86 84.7 207.72 19.96-9.08 31.67-17.74 31.67-17.74-8.18-10.25-71.81-106.69-73.83-165.42" class="k"/><path fill="none" d="M10.44 553.58s206.47-115.44 327.28-146.87c-54.47-53.27-175.89-178.34-175.89-178.34C145.6 295.46 10.44 553.58 10.44 553.58"/><g><path fill="#fc8d57" d="M328.39 414.7c-22.1 0-64.83-28.26-106.31-70.32-45.45-46.08-82.09-101.97-64.2-119.61 3.01-2.97 7.18-4.47 12.4-4.47 22.1 0 64.82 28.26 106.31 70.32 45.45 46.08 82.09 101.96 64.2 119.61-3.01 2.97-7.18 4.47-12.4 4.47Z"/><path d="M170.29 225.29c20.06 0 61.9 27.42 102.75 68.83 48.57 49.25 77.33 99.63 64.25 112.54-2.08 2.05-5.1 3.03-8.89 3.03-20.06 0-61.9-27.42-102.75-68.83-48.57-49.25-77.33-99.63-64.25-112.54 2.08-2.05 5.1-3.03 8.89-3.03m0-10c-8.2 0-13.18 3.22-15.91 5.91-10.15 10.01-7.68 28.42 7.34 54.72 12.55 21.99 32.73 47.54 56.81 71.96 20.31 20.59 41.31 38.31 60.75 51.25 20.5 13.64 37.02 20.56 49.12 20.56 8.2 0 13.18-3.22 15.91-5.91 10.15-10.01 7.68-28.42-7.34-54.72-12.55-21.99-32.73-47.54-56.81-71.96-20.31-20.59-41.31-38.31-60.74-51.25-20.5-13.64-37.02-20.56-49.12-20.56Z" class="h"/></g></g><g id="b"><path d="M183.23 244.76c8 6 12 10 12 10 79-56 75-171 58-199-17 8-35 16-41 22 9 26 23 87-29 167Z" class="j"/><path d="M305.4 396.51c-4.88-8.73-8.31-13.23-8.31-13.23 56.14-47.53 138.35-43.42 163.83-22.84-10.19 15.78-12.4 24.43-19.15 29.58-24.57-12.38-50.16-34.39-136.38 6.48Z" class="c"/><path fill="#006ded" d="M433.12 66.93c3.53-15.25-23.35-26.03-33.27-32.3l-3.82 15.95c9.94 6.28 36.91 17.09 33.25 32.4s-37.66 8.95-65.46 6.79c-14.54-1.24-33.84 9.87-13.41 27.81 24.58 19.38 54.78 28.42 61.85 36.41.59.67 1.11 1.41 1.54 2.19 1.48 2.69 1.97 5.92 1.24 8.93-1.58 6.54-8.89 12.03-24.14 8.59-24.31-5.48-47.15-9.61-56.04-8.14-4.6.76-10.27 4.82-11 10.02-.69 4.86 2.93 10.71 15.76 15.78 12.37 7.15 17.97 13.82 17.97 13.82l3.82-15.95s-5.6-6.67-17.97-13.82c-13.44-5.31-16.78-11.48-15.63-16.46 1.11-4.87 6.49-8.61 10.88-9.33 8.89-1.46 31.73 2.66 56.04 8.14 15.19 3.43 22.5-2.01 24.12-8.52.97-3.91-.11-8.2-2.76-11.19-7.08-7.99-37.28-17.03-61.85-36.41-7.68-6.74-9.75-12.52-8.56-17.04 1.97-7.5 12.89-11.53 21.97-10.76 27.8 2.17 61.8 8.52 65.46-6.79l.02-.1"/><path d="M327.97 158.77c1.11-4.87 6.49-8.61 10.88-9.33 8.89-1.46 31.73 2.66 56.04 8.14 15.19 3.43 22.5-2.01 24.12-8.52l-3.81 15.88c-1.58 6.54-8.89 12.03-24.14 8.59-24.31-5.48-47.15-9.61-56.04-8.14-4.6.76-10.27 4.82-11 10.02l3.95-16.64ZM433.36 66.45c-3.76 15.68-37.76 9.37-65.59 7.31-9.08-.74-20.04 3.45-22.06 11.14l-3.97 16.55c1.87-7.82 12.95-12.09 22.11-11.34 27.83 2.06 61.83 8.37 65.59-7.31l3.92-16.35.02-.1" class="f"/><path d="m484.38 281.89 13.29-13.71 18.83 3.19-8.92-16.88 8.85-16.92-18.82 3.27-13.36-13.65-2.7 18.91-17.1 8.49 17.14 8.41 2.79 18.89z" class="h"/><path d="m355.89 250.09 13.36-1.06 8.45 10.4 3.12-13.03 12.5-4.82-11.43-6.99-.71-13.38-10.19 8.71-12.95-3.46 5.14 12.38-7.29 11.25z" class="j"/><path d="m284.23 65.42 20.63-11.79 21.4 10.32-4.84-23.27 16.43-17.17-23.62-2.59L302.97 0l-9.76 21.66-23.38 4.24 17.59 15.98-3.19 23.54z" class="c"/><circle cx="469.73" cy="172.26" r="13.5" class="j"/><circle cx="262.23" cy="212.76" r="8" class="h"/><circle cx="424.73" cy="300.26" r="18.5" class="f"/><path d="M239.3 292.2c-3.9 7.67-28.81 16.13-37.01 6.87-1.5-9.37-2.26-13.72-2.26-13.72 8.93 11.38 31.8-1.72 31.8-1.72 2.5 5.52 7.47 8.57 7.47 8.57Z" class="f"/><g><path fill="#7f4096" d="M280.24 321.82h.04c6.58-.85 4.94-19.5 4.87-34.53-.05-4.91 1.99-10.46 5.22-10.96 1.95-.31 4.33 1.22 6.95 5.82 7.44 14.56 10.34 31.38 13.51 35.75 1.19 1.64 2.97 2.53 4.65 2.3 2.8-.39 5.32-3.9 4.34-12.28-1.58-13.41-2.62-25.92-1.73-30.57.44-2.3 2.19-4.9 4.28-5.14s4.65 1.99 6.48 9.57c2.65 7.14 5.29 10.62 5.29 10.62l6.86-.88s-2.65-3.48-5.29-10.62c-1.75-7.23-4.11-9.6-6.19-9.58-2.22.02-4.11 2.75-4.57 5.15-.89 4.65.16 17.17 1.73 30.57.99 8.41-1.55 11.92-4.37 12.28-1.3.17-2.65-.33-3.74-1.31-.32-.29-.61-.62-.88-.98-3.16-4.37-6.06-21.19-13.51-35.75-6.96-12.24-12.25-2.73-12.17 5.14.07 15.03 1.72 33.68-4.87 34.52-6.58.84-10.33-14.38-12.68-20.15l-6.86.88c2.35 5.76 6.08 20.93 12.64 20.16"/><path d="M329.45 271.38c-2.22.02-4.11 2.75-4.57 5.15-.89 4.65.16 17.17 1.73 30.57.99 8.41-1.55 11.92-4.37 12.28l-6.83.88c2.8-.39 5.32-3.9 4.34-12.28-1.58-13.41-2.62-25.92-1.73-30.57.44-2.3 2.19-4.9 4.28-5.14l7.16-.9ZM279.99 321.92h.04l7.03-.91c6.75-.86 5.12-19.52 5.09-34.55-.04-4.95 2.11-10.57 5.47-11l-7.12.91c-3.31.52-5.42 6.07-5.38 10.98.02 15.04 1.65 33.69-5.09 34.55" class="c"/></g></g></svg>