<svg xmlns="http://www.w3.org/2000/svg" viewBox="0 0 956.04 80.14" preserveAspectRatio="none"><path fill="#0396e3" d="m39.02 4.87-34.3 31.8C2.92 38.34 0 37.06 0 34.61v-6.26c0-2.75 1.12-5.38 3.11-7.28L22.09 2.85A10.08 10.08 0 0 1 29.04.03L37.1 0c2.56-.01 3.8 3.13 1.92 4.87Z"/><path fill="#131a43" stroke="#0396e3" stroke-miterlimit="10" stroke-width="5" d="M953.54 77.47v.17H2.5v-13.2c0-7.61 3.06-14.89 8.49-20.22l34.25-33.58c5.3-5.18 12.41-8.09 19.83-8.09h648.04c7.83 0 15.3 3.24 20.66 8.95l11.34 12.1a28.311 28.311 0 0 0 20.66 8.95h142.25c7.36 0 14.44 2.87 19.72 8l17.21 16.7a28.271 28.271 0 0 1 8.59 20.22Z"/></svg>