<svg xmlns="http://www.w3.org/2000/svg" viewBox="0 0 976 186.91" preserveAspectRatio="none"><path fill="#131a43" stroke="#0396e3" stroke-miterlimit="10" stroke-width="5" d="M973.5 45v95.11c0 6.65-2.34 13.09-6.62 18.19l-13.39 15.98a28.321 28.321 0 0 1-21.7 10.13H187.47c-7.06 0-13.86-2.64-19.08-7.39l-6.83-6.23a28.335 28.335 0 0 0-19.07-7.38H48.38c-8.18 0-15.97-3.54-21.34-9.71L9.47 133.55a28.358 28.358 0 0 1-6.97-18.61V2.5h951.95v.24c.02 4.03.89 7.96 2.52 11.56 1.62 3.59 4 6.84 7.01 9.52A28.324 28.324 0 0 1 973.5 45Z"/><path fill="#0396e3" d="m144 160.91 33 23h116.18l-8.63-14.38c-4.12-6.86-10.97-8.62-19.55-8.62H144ZM329.24 184.9l-23.95-1.52-5.85-9.66c-3.66-6.04.99-13.7 8.03-13.25l2.7.17a8.72 8.72 0 0 1 6.92 4.2l12.15 20.06ZM364.12 183.99l-23.95-1.52-5.85-9.66c-3.66-6.04.99-13.7 8.03-13.25l2.7.17a8.72 8.72 0 0 1 6.92 4.2l12.15 20.06ZM399.12 183.99l-23.95-1.52-5.85-9.66c-3.66-6.04.99-13.7 8.03-13.25l2.7.17a8.72 8.72 0 0 1 6.92 4.2l12.15 20.06Z"/></svg>