<svg xmlns="http://www.w3.org/2000/svg" viewBox="0 0 970 168" preserveAspectRatio="none"><path d="m963.54 44.19-15.42-14.67c-4.16-3.96-9.69-6.13-15.59-6.13H719.37c-4.56 0-8.83-1.69-12.04-4.75L693.7 5.69C689.54 1.73 684.46 0 678.58 0H0v168h937.56c5.89 0 11.46-1.73 15.62-5.69l10.36-9.85c4.17-3.95 6.46-9.22 6.46-14.82V59.01c0-5.6-2.29-10.86-6.46-14.82Zm1.76 93.66c0 4.35-1.77 8.43-4.99 11.51l-10.36 9.88c-3.22 3.07-7.5 4.76-12.05 4.76H5.28L4.3 4h673.95c4.55 0 8.83 1.69 12.04 4.76l13.63 13c4.17 3.98 9.71 6.17 15.61 6.17h213.31c4.55 0 8.82 1.69 12.05 4.77l15.42 14.71c3.22 3.07 4.99 7.16 4.99 11.5v78.94Z" style="fill:#0396e3"/></svg>