<svg id="a" xmlns="http://www.w3.org/2000/svg" viewBox="0 0 875.76 176.95" preserveAspectRatio="none"><defs><linearGradient id="b" x1="2.51" y1="88.47" x2="849.23" y2="88.47" gradientUnits="userSpaceOnUse"><stop offset="0" stop-color="#131a43"/><stop offset=".99" stop-color="#412251"/></linearGradient><style>.c{fill:#0396e3}</style></defs><path d="M2.51 2.5h558.44a19.5 19.5 0 0 1 13.77 5.7l13.57 13.57c3.65 3.65 8.6 5.7 13.77 5.7h212.35a19.5 19.5 0 0 1 13.77 5.7l15.36 15.36c3.65 3.65 5.7 8.6 5.7 13.77v82.37a19.5 19.5 0 0 1-5.7 13.77l-10.32 10.32c-3.65 3.65-8.6 5.7-13.77 5.7H3.51L2.51 2.5Z" style="fill:url(#b);stroke:#0396e3;stroke-miterlimit:10;stroke-width:5px"/><path class="c" d="m858.98 150.09-.23-85.55c-.01-3.18 3.77-4.84 6.11-2.69l5.96 5.48c2.62 2.41 4.15 5.79 4.22 9.35l.72 59.05c.07 3.36-1.15 6.61-3.41 9.09l-7.03 7.7c-2.24 2.45-6.32.88-6.33-2.44ZM598.46.5l212.55.22c3.18 0 4.82 3.79 2.66 6.12l-5.51 5.93a13.094 13.094 0 0 1-9.37 4.17l-186.06.41a13.09 13.09 0 0 1-9.07-3.46l-7.67-7.07c-2.44-2.25-.84-6.32 2.47-6.32ZM160.01 176.44h-22l-11.9-20.19c-3.66-6.04.99-13.7 8.03-13.25l2.7.17a8.72 8.72 0 0 1 6.92 4.2L160 176.44ZM200.01 176.44h-22l-11.9-20.19c-3.66-6.04.99-13.7 8.03-13.25l2.7.17a8.72 8.72 0 0 1 6.92 4.2L200 176.44ZM240.01 176.44h-22l-11.9-20.19c-3.66-6.04.99-13.7 8.03-13.25l2.7.17a8.72 8.72 0 0 1 6.92 4.2L240 176.44ZM3.01 145.44h77.67c8.58 0 15.44 1.77 19.55 8.62l12.63 20.38H3.01v-29"/></svg>