<svg xmlns="http://www.w3.org/2000/svg" viewBox="0 0 373.24 163.93" preserveAspectRatio="none"><defs><linearGradient id="a" x1="1572.21" y1="-238.24" x2="1781.1" y2="-447.12" gradientTransform="scale(1 -1) rotate(89.88 806.098 -958.461)" gradientUnits="userSpaceOnUse"><stop offset="0" stop-color="#131a43"/><stop offset=".99" stop-color="#412251"/></linearGradient></defs><path d="M369.91 147.15c-.03 16-24.08 14.23-31.69 14.22l-266.64-.82c-6.84-.01-13.44-2.5-18.59-7.01l-20.11-17.61a28.337 28.337 0 0 1-9.67-21.37l.2-4.1c.01-7.06-2.61-13.86-7.35-19.09l-6.21-6.85A28.356 28.356 0 0 1 2.5 65.43l.29-21.32a28.32 28.32 0 0 1 10.17-21.68L28.97 9.08a28.355 28.355 0 0 1 18.2-6.58l30.11.2c8.1.02 15.8 3.5 21.16 9.57 5.34 6.04 13 9.52 21.06 9.57l206.41 1.47c7.62.04 14.9 3.16 20.2 8.64l16.67 17.24a28.318 28.318 0 0 1 7.96 19.74l-.21 8.25c-.02 7.83-.59 53.98-.62 69.98Z" style="fill:url(#a);stroke:#0396e3;stroke-miterlimit:10;stroke-width:5px"/></svg>