<svg id="a" xmlns="http://www.w3.org/2000/svg" viewBox="0 0 373.24 318" preserveAspectRatio="none"><defs><linearGradient id="b" x1="1027.04" y1="291.02" x2="1312.34" y2="5.72" gradientTransform="matrix(-1 0 0 1 1367.06 0)" gradientUnits="userSpaceOnUse"><stop offset="0" stop-color="#131a43"/><stop offset=".99" stop-color="#412251"/></linearGradient><style>.c{fill:#0396e3}</style></defs><path d="M356.41 2.74c16 0 14.28 24.05 14.28 31.66v211.63c0 6.84-2.48 13.45-6.97 18.61l-17.56 20.15a28.318 28.318 0 0 1-21.35 9.71h-94.1a28.26 28.26 0 0 0-19.07 7.39l-6.84 6.23a28.345 28.345 0 0 1-19.07 7.39H66.4c-8.38 0-16.32-3.71-21.7-10.13L31.3 289.4a28.347 28.347 0 0 1-6.62-18.19l-.04-223.78a28.37 28.37 0 0 1 8.59-20.22L50.45 10.5c5.28-5.13 12.36-8 19.72-8h99.25c7.83 0 170.99.24 186.99.24Z" style="fill:url(#b);stroke:#0396e3;stroke-miterlimit:10;stroke-width:5px"/><path class="c" d="m337.05 317.69-115.77-.02c-2.45 0-3.73-2.93-2.06-4.73l4.25-4.58c1.87-2.02 4.48-3.18 7.23-3.23l95.31-.45c2.59-.04 5.1.91 7.01 2.67l5.93 5.45c1.89 1.74.66 4.88-1.91 4.88ZM0 261.97.91 65.24c0-3 2-5 4-8l3-4c2-3 5.6-2.75 5.65 0l-.55 202.7c.04 2.59-.91 5.1-2.67 7.01l-5.45 5.93c-1.74 1.88-4.89.65-4.89-6.91Z"/></svg>