<svg xmlns="http://www.w3.org/2000/svg" viewBox="0 0 468.1 447"><defs><linearGradient id="a" x1="1036.59" x2="1444.89" y1="417.02" y2="8.72" gradientTransform="matrix(-1 0 0 1 1474.46 0)" gradientUnits="userSpaceOnUse"><stop offset="0" stop-color="#131a43"/><stop offset=".99" stop-color="#412251"/></linearGradient></defs><path fill="url(#a)" stroke="#0396e3" stroke-miterlimit="10" stroke-width="5" d="M451.26 2.74c16 0 14.28 24.05 14.28 31.66v340.63c0 6.84-2.48 13.45-6.97 18.61l-17.56 20.15a28.318 28.318 0 0 1-21.35 9.71h-211.1a28.26 28.26 0 0 0-19.07 7.39l-6.84 6.23a28.345 28.345 0 0 1-19.07 7.39H44.26c-8.38 0-16.32-3.71-21.7-10.13L9.16 418.4a28.347 28.347 0 0 1-6.62-18.19L2.5 47.43a28.37 28.37 0 0 1 8.59-20.22L28.3 10.5c5.28-5.13 12.36-8 19.72-8h99.25c7.83 0 287.99.24 303.99.24Z"/></svg>