<svg width="702" height="195" viewBox="0 0 702 195" fill="none" xmlns="http://www.w3.org/2000/svg">
<g clip-path="url(#clip0_514_792)">
<path d="M458.81 36.38C457.986 36.7148 457.109 36.8977 456.22 36.92C455.507 36.9479 454.794 36.8773 454.1 36.71C453.401 36.5524 452.71 36.3588 452.03 36.13C451.37 35.91 450.74 35.67 450.16 35.41L449.65 35.18C449.525 35.1271 449.391 35.1001 449.255 35.1009C449.119 35.1016 448.985 35.13 448.86 35.1842C448.736 35.2385 448.624 35.3175 448.531 35.4165C448.438 35.5155 448.366 35.6324 448.32 35.76L445.75 42.63C445.653 42.8877 445.65 43.1714 445.741 43.4311C445.833 43.6908 446.013 43.91 446.25 44.05C447.307 44.7208 448.447 45.2519 449.64 45.63C449.76 45.63 450.31 45.8 451.04 45.94C451.58 46.04 452.12 46.12 452.67 46.19C453.665 46.3113 454.668 46.3581 455.67 46.33C457.669 46.2595 459.65 45.9232 461.56 45.33C463.251 44.8434 464.84 44.0539 466.25 43C467.535 41.9828 468.563 40.6777 469.25 39.19C470.007 37.5655 470.35 35.7792 470.25 33.99C470.224 32.7511 469.949 31.5301 469.44 30.4C468.99 29.4341 468.37 28.5568 467.61 27.81C467.269 27.4498 466.901 27.1156 466.51 26.81C466.081 26.4931 465.634 26.2026 465.17 25.94C463.4 24.94 457.81 23.42 457.1 23.07C456.845 22.9547 456.64 22.7527 456.52 22.5C456.498 22.4181 456.498 22.3319 456.52 22.25C456.526 22.0172 456.589 21.7894 456.704 21.587C456.819 21.3845 456.983 21.2138 457.18 21.09C457.627 20.797 458.126 20.5933 458.65 20.49C459.214 20.3621 459.791 20.2983 460.37 20.3C460.855 20.2917 461.34 20.3218 461.82 20.39C462.909 20.5197 463.981 20.761 465.02 21.11L465.8 21.39C466.085 21.4963 466.389 21.5417 466.692 21.523C466.996 21.5043 467.292 21.422 467.562 21.2816C467.831 21.1411 468.068 20.9455 468.258 20.7075C468.447 20.4695 468.584 20.1944 468.66 19.9L470 14.64C470.144 14.0885 470.066 13.5024 469.781 13.0084C469.497 12.5145 469.029 12.1522 468.48 12C467.544 11.7327 466.592 11.5256 465.63 11.38C463.916 11.1199 462.181 11.0295 460.45 11.11C458.642 11.1896 456.854 11.5263 455.14 12.11C453.548 12.6434 452.072 13.4749 450.79 14.56C449.524 15.6159 448.501 16.9325 447.79 18.42C447.045 20.0339 446.702 21.8045 446.79 23.58C446.791 24.618 447.024 25.6428 447.47 26.58C447.883 27.4314 448.43 28.2113 449.09 28.89C449.733 29.5441 450.455 30.1152 451.24 30.59C451.995 31.0431 452.78 31.444 453.59 31.79C454.49 32.17 455.2 32.4 455.76 32.58C456 32.65 456.76 32.92 458.38 33.47C458.897 33.5862 459.346 33.9027 459.63 34.35C459.699 34.5131 459.746 34.6846 459.77 34.86C459.794 35.1828 459.714 35.5048 459.541 35.7784C459.368 36.0521 459.112 36.263 458.81 36.38V36.38ZM440.28 6.11C440.28 5.97347 440.253 5.83834 440.199 5.71293C440.145 5.58752 440.066 5.47449 439.966 5.3808C439.867 5.28712 439.75 5.21476 439.621 5.16818C439.493 5.12161 439.356 5.10181 439.22 5.11L431.22 5.73C430.962 5.7554 430.724 5.88017 430.556 6.07797C430.388 6.27576 430.303 6.53108 430.32 6.79L431.16 18.51C431.171 18.6767 431.139 18.8435 431.069 18.9951C430.999 19.1466 430.892 19.2781 430.757 19.3776C430.623 19.477 430.466 19.5413 430.301 19.5644C430.135 19.5875 429.966 19.5688 429.81 19.51C429.532 19.3876 429.244 19.2873 428.95 19.21C428.042 18.9572 427.103 18.8294 426.16 18.83C424.378 18.8074 422.615 19.1868 421 19.94C419.542 20.6263 418.255 21.627 417.23 22.87C416.185 24.1501 415.392 25.6157 414.89 27.19C414.344 28.8893 414.074 30.6652 414.09 32.45C414.057 34.3399 414.379 36.2192 415.04 37.99C415.622 39.5188 416.499 40.9186 417.62 42.11C418.662 43.2088 419.918 44.0833 421.31 44.68C422.665 45.2753 424.13 45.5818 425.61 45.58C426.851 45.5776 428.083 45.3611 429.25 44.94C430.384 44.5781 431.381 43.8807 432.11 42.94H432.19V44.38C432.19 44.5156 432.217 44.6499 432.271 44.7746C432.324 44.8993 432.402 45.0118 432.5 45.1054C432.599 45.1989 432.715 45.2715 432.842 45.3187C432.969 45.3659 433.105 45.3868 433.24 45.38L439.82 44.95C440.071 44.9298 440.305 44.8157 440.476 44.6303C440.647 44.4449 440.741 44.2019 440.74 43.95L440.28 6.11ZM430.64 34.22C430.346 34.7798 429.898 35.2445 429.35 35.56C428.463 36.0672 427.42 36.2309 426.42 36.02C425.723 35.9061 425.077 35.5816 424.57 35.09C423.999 34.5243 423.63 33.7863 423.52 32.99C423.329 31.9046 423.554 30.7869 424.15 29.86C424.668 29.1317 425.389 28.5724 426.223 28.2522C427.058 27.932 427.968 27.8652 428.84 28.06C429.53 28.1579 430.156 28.5156 430.59 29.06C430.81 29.4 430.82 29.65 430.84 31.37C430.87 33.52 430.85 33.8 430.64 34.22V34.22ZM409.64 43.93L410.91 14.93C410.919 14.7819 410.895 14.6337 410.839 14.496C410.784 14.3584 410.698 14.2349 410.589 14.1343C410.48 14.0338 410.35 13.9589 410.208 13.9149C410.067 13.8709 409.917 13.859 409.77 13.88L401.58 14.88C401.333 14.9049 401.103 15.0211 400.937 15.206C400.77 15.3909 400.679 15.6312 400.68 15.88L400.51 42.65V43.94C400.51 44.2052 400.615 44.4596 400.803 44.6471C400.99 44.8346 401.245 44.94 401.51 44.94H408.61C408.745 44.944 408.879 44.9208 409.004 44.8718C409.13 44.8227 409.244 44.7488 409.34 44.6545C409.436 44.5601 409.513 44.4473 409.564 44.3228C409.616 44.1983 409.641 44.0647 409.64 43.93V43.93ZM393.14 3.6C393.052 3.4983 392.943 3.41675 392.82 3.36085C392.698 3.30496 392.565 3.27604 392.43 3.27604C392.295 3.27604 392.162 3.30496 392.04 3.36085C391.917 3.41675 391.808 3.4983 391.72 3.6L381.56 14.42C381.432 14.5625 381.264 14.6627 381.078 14.7071C380.892 14.7515 380.697 14.738 380.518 14.6684C380.34 14.5988 380.187 14.4765 380.08 14.3177C379.973 14.159 379.917 13.9714 379.92 13.78L380 1.56C380.001 1.42578 379.973 1.29288 379.919 1.17024C379.864 1.0476 379.784 0.938066 379.684 0.849008C379.583 0.759951 379.465 0.693434 379.337 0.653932C379.208 0.61443 379.073 0.60286 378.94 0.62L371.17 1.54C370.93 1.56773 370.709 1.68718 370.554 1.87346C370.4 2.05975 370.323 2.29851 370.34 2.54L371.34 45.54C371.344 45.6661 371.373 45.7902 371.426 45.9048C371.478 46.0194 371.554 46.1223 371.647 46.2072C371.74 46.2921 371.85 46.3574 371.969 46.3991C372.088 46.4408 372.214 46.4581 372.34 46.45L379.12 45.67C379.363 45.6472 379.586 45.5291 379.742 45.3416C379.897 45.1541 379.972 44.9126 379.95 44.67L379.65 35.38C379.643 35.1883 379.696 34.9991 379.8 34.8379C379.904 34.6768 380.055 34.5513 380.232 34.4783C380.41 34.4054 380.605 34.3885 380.792 34.4299C380.98 34.4713 381.15 34.5691 381.28 34.71L389.08 43.12C389.177 43.2238 389.296 43.3043 389.428 43.3556C389.56 43.4068 389.703 43.4275 389.844 43.4159C389.986 43.4044 390.123 43.361 390.245 43.2889C390.367 43.2169 390.471 43.1181 390.55 43L395.48 35.61C395.613 35.4069 395.662 35.1603 395.618 34.9217C395.573 34.6831 395.438 34.4711 395.24 34.33L383.42 25.81C383.315 25.7221 383.229 25.6134 383.167 25.4908C383.106 25.3682 383.07 25.2343 383.063 25.0974C383.055 24.9605 383.076 24.8234 383.124 24.6949C383.171 24.5663 383.245 24.4489 383.34 24.35L398.25 11C398.419 10.828 398.52 10.6007 398.535 10.36C398.55 10.1192 398.477 9.8813 398.33 9.69L393.14 3.6ZM357.39 28.18L354.76 23.31C354.677 23.1562 354.562 23.022 354.422 22.9166C354.283 22.8111 354.122 22.737 353.951 22.699C353.781 22.6611 353.604 22.6603 353.433 22.6967C353.262 22.7331 353.101 22.8058 352.96 22.91C352.134 23.543 351.221 24.0548 350.25 24.43C346.78 25.77 343.6 25.26 343.47 24.43C343.34 23.6 345.47 22.56 349.47 20.1C352.7 18.1 355.11 16.87 356.59 15.26C356.74 14.96 357.17 14.42 356.9 13.9C355.887 11.8221 354.354 10.0413 352.45 8.73C350.193 7.19267 347.51 6.40222 344.78 6.47C343.016 6.47584 341.268 6.81513 339.63 7.47C338.047 8.09243 336.611 9.03552 335.41 10.24C334.163 11.5028 333.186 13.0068 332.54 14.66C331.805 16.5455 331.445 18.5565 331.48 20.58C331.467 22.2976 331.808 23.9994 332.48 25.58C333.143 27.1292 334.105 28.5325 335.31 29.71C336.554 30.9129 338.017 31.8668 339.62 32.52C341.369 33.2129 343.239 33.5528 345.12 33.52C347.32 33.6171 349.521 33.326 351.62 32.66C353.598 31.994 355.441 30.9779 357.06 29.66C357.274 29.4867 357.423 29.2462 357.483 28.9775C357.543 28.7088 357.51 28.4277 357.39 28.18V28.18ZM341.39 19.26C340.91 18.95 341.21 18.37 341.14 18.05C341.35 14.9 344 12.89 346.63 13.75C347.1 13.91 347.63 14.03 347.72 14.58C347.777 14.8502 347.741 15.1318 347.618 15.3789C347.494 15.6259 347.291 15.8238 347.04 15.94C345.59 16.94 344.15 17.94 342.68 18.85C342.26 19.09 341.85 19.58 341.35 19.26H341.39Z" fill="#FCB04E"/>
<path d="M324.43 4.38005L316 6.00005C315.769 6.04474 315.561 6.16953 315.413 6.35245C315.265 6.53537 315.186 6.76469 315.19 7.00005L315.61 46.2401C315.61 46.5053 315.715 46.7596 315.903 46.9472C316.09 47.1347 316.345 47.2401 316.61 47.2401L336.51 46.2401C337.023 46.2144 337.506 45.9924 337.86 45.6201C338.214 45.2477 338.411 44.7536 338.41 44.2401L338.35 38.4101C338.346 38.1291 338.286 37.8517 338.173 37.5944C338.06 37.337 337.897 37.105 337.693 36.912C337.488 36.7189 337.248 36.5689 336.984 36.4706C336.721 36.3724 336.441 36.328 336.16 36.3401L326.6 36.7101C326.378 36.7252 326.156 36.6899 325.95 36.6069C325.744 36.5239 325.56 36.3953 325.411 36.2307C325.261 36.0662 325.151 35.8699 325.089 35.6568C325.027 35.4436 325.013 35.2191 325.05 35.0001L325.6 5.34005C325.596 5.1965 325.562 5.05542 325.499 4.9264C325.436 4.79738 325.346 4.68346 325.235 4.59237C325.124 4.50128 324.994 4.43517 324.855 4.39854C324.717 4.3619 324.571 4.3556 324.43 4.38005V4.38005ZM284.35 44.8701C284.349 45.1204 284.442 45.362 284.61 45.5472C284.779 45.7323 285.011 45.8475 285.26 45.8701L291.85 46.3001C292.115 46.3001 292.37 46.1947 292.557 46.0072C292.745 45.8196 292.85 45.5653 292.85 45.3001V43.8801H293C293.734 44.8154 294.73 45.5115 295.86 45.8801C297.029 46.2937 298.26 46.5067 299.5 46.5101C300.98 46.5107 302.444 46.2042 303.8 45.6101C305.191 45.0109 306.446 44.1367 307.49 43.0401C308.578 41.8666 309.43 40.4951 310 39.0001C310.678 37.2326 311.018 35.3531 311 33.4601C311.013 31.6747 310.739 29.8988 310.19 28.2001C309.692 26.6263 308.901 25.1607 307.86 23.8801C306.83 22.638 305.54 21.6377 304.08 20.9501C302.491 20.2038 300.756 19.8212 299 19.8301C298.054 19.8294 297.112 19.9572 296.2 20.2101C295.906 20.2874 295.618 20.3877 295.34 20.5101C295.184 20.5667 295.017 20.5838 294.853 20.5596C294.688 20.5355 294.533 20.4709 294.4 20.3717C294.267 20.2725 294.161 20.1418 294.091 19.9914C294.021 19.841 293.99 19.6756 294 19.5101L294.84 7.79005C294.841 7.54129 294.75 7.30099 294.583 7.11608C294.417 6.93117 294.188 6.81493 293.94 6.79005L285.94 6.16005C285.805 6.15327 285.669 6.17412 285.542 6.22133C285.415 6.26854 285.299 6.34112 285.2 6.43467C285.102 6.52821 285.024 6.64075 284.971 6.76546C284.917 6.89016 284.89 7.02442 284.89 7.16005L284.35 44.8701ZM294.26 32.3701C294.26 30.6501 294.26 30.3701 294.52 30.0601C294.953 29.5187 295.574 29.1613 296.26 29.0601C297.132 28.8639 298.043 28.9301 298.877 29.2504C299.712 29.5707 300.433 30.1308 300.95 30.8601C301.547 31.7867 301.775 32.9034 301.59 33.9901C301.475 34.7867 301.102 35.524 300.53 36.0901C300.025 36.5788 299.383 36.903 298.69 37.0201C297.69 37.2319 296.647 37.0682 295.76 36.5601C295.206 36.2483 294.755 35.7829 294.46 35.2201C294.25 34.7601 294.24 34.4801 294.26 32.3701ZM261.47 29.4901C261.218 26.5413 260.132 23.725 258.34 21.3701C257.864 20.7772 257.338 20.2253 256.77 19.7201C256.424 19.3621 256.035 19.0496 255.61 18.7901C255.48 18.7301 255.15 18.5001 254.69 18.2201C254.555 18.143 254.441 18.0329 254.36 17.9001C254.284 17.7073 254.254 17.4997 254.271 17.2934C254.289 17.087 254.353 16.8875 254.46 16.7101C254.72 16.1401 256.35 14.5501 256.91 13.0901C257.438 11.073 257.537 8.96765 257.2 6.91005C256.91 5.08005 256.64 3.44005 255.38 2.11005C253.65 0.280054 251.09 0.170054 247.77 5.38183e-05C245.84 -0.0192754 243.912 0.101039 242 0.360054C239.733 0.580054 236.9 1.01005 233.5 1.65005C233.269 1.69474 233.061 1.81953 232.913 2.00245C232.765 2.18537 232.686 2.41469 232.69 2.65005L232.96 45.4901C232.958 45.7357 233.047 45.9735 233.209 46.1579C233.372 46.3423 233.596 46.4606 233.84 46.4901C237.047 46.8301 239.84 47.0034 242.22 47.0101C244.333 47.0497 246.447 46.9629 248.55 46.7501C249.875 46.6617 251.186 46.4269 252.46 46.0501C255.125 45.1191 257.447 43.4041 259.12 41.1301C262.32 36.6801 261.73 31.7101 261.47 29.4901V29.4901ZM242.26 10.3301C242.269 10.0594 242.361 9.79808 242.524 9.58162C242.687 9.36516 242.912 9.20402 243.17 9.12005C243.921 8.81494 244.733 8.69158 245.54 8.76005C246.116 8.81047 246.651 9.083 247.03 9.52005C247.315 10.0099 247.44 10.5758 247.39 11.1401C247.39 11.2691 247.37 11.3974 247.33 11.5201C247.148 12.2321 246.847 12.9083 246.44 13.5201C246.006 14.0874 245.448 14.5489 244.81 14.8701C244.415 15.0761 243.984 15.2018 243.54 15.2401C243.353 15.2531 243.166 15.2263 242.99 15.1613C242.814 15.0963 242.655 14.9948 242.521 14.8633C242.388 14.7318 242.284 14.5735 242.217 14.3988C242.149 14.2241 242.12 14.037 242.13 13.8501L242.26 10.3301ZM249.61 30.1101C249.47 32.4401 249.39 33.6101 248.48 34.5201C247.979 34.9907 247.372 35.3337 246.71 35.5201C245.89 35.7469 245.039 35.8348 244.19 35.7801C243.942 35.7679 243.707 35.664 243.532 35.4884C243.356 35.3128 243.252 35.0781 243.24 34.8301L242.79 25.2601C242.774 25.0504 242.824 24.8409 242.933 24.6614C243.043 24.4819 243.206 24.3414 243.4 24.2601C244.196 23.889 245.041 23.6363 245.91 23.5101C246.55 23.4059 247.206 23.4749 247.81 23.7101C248.227 23.8825 248.577 24.1839 248.81 24.5701C248.974 24.8637 249.092 25.1807 249.16 25.5101C249.487 27.0208 249.638 28.5645 249.61 30.1101V30.1101ZM265.75 21.3101L265.5 26.6201C265.5 26.9801 265.72 27.2901 266.01 27.2701L267.12 27.2201C267.197 27.2159 267.274 27.2277 267.346 27.2546C267.418 27.2815 267.484 27.323 267.539 27.3765C267.595 27.43 267.638 27.4943 267.668 27.5655C267.697 27.6366 267.711 27.7131 267.71 27.7901L267.16 45.2101C267.145 45.3407 267.159 45.473 267.201 45.5977C267.243 45.7223 267.311 45.8363 267.402 45.9317C267.492 46.027 267.603 46.1013 267.725 46.1494C267.847 46.1975 267.979 46.2182 268.11 46.2101L275.51 45.2101C275.723 45.1705 275.915 45.058 276.054 44.8919C276.193 44.7258 276.269 44.5165 276.27 44.3001L277.58 27.1501C277.592 27.0154 277.652 26.8896 277.75 26.7958C277.847 26.7021 277.975 26.6468 278.11 26.6401L279.18 26.5801C279.311 26.5581 279.429 26.489 279.512 26.3857C279.595 26.2825 279.637 26.1523 279.63 26.0201L279.93 20.0201C279.93 19.6501 279.7 19.3301 279.41 19.3601L266.18 20.7601C266.057 20.7895 265.947 20.8599 265.869 20.9598C265.791 21.0598 265.749 21.1832 265.75 21.3101V21.3101ZM279.94 10.5501C279.938 11.2923 279.827 12.0303 279.61 12.7401C279.041 14.5132 277.856 16.0243 276.27 17.0001C275.579 17.4017 274.83 17.6951 274.05 17.8701C273.353 18.0103 272.641 18.0674 271.93 18.0401C269.06 17.8501 265.02 14.5601 264.93 10.7401C264.899 9.70797 265.083 8.68076 265.471 7.72362C265.858 6.76648 266.44 5.9003 267.18 5.18005C267.236 5.1265 267.308 5.09241 267.384 5.08282C267.461 5.07323 267.539 5.08867 267.606 5.12684C267.674 5.16501 267.727 5.22388 267.758 5.29471C267.79 5.36555 267.797 5.44457 267.78 5.52005C267.46 6.6349 267.538 7.82623 268 8.89005C268.199 9.31969 268.466 9.71468 268.79 10.0601C268.844 10.1136 268.913 10.1489 268.988 10.1608C269.063 10.1726 269.14 10.1605 269.207 10.1261C269.275 10.0917 269.33 10.0369 269.365 9.96932C269.399 9.90179 269.412 9.82504 269.4 9.75005C268.954 7.63874 269.16 5.44194 269.99 3.45005C270.1 3.19005 270.23 2.93005 270.37 2.67005C270.84 1.82949 271.433 1.06428 272.13 0.400054C272.182 0.349379 272.249 0.316317 272.321 0.305481C272.393 0.294644 272.467 0.306574 272.532 0.339605C272.597 0.372636 272.65 0.425121 272.684 0.489738C272.717 0.554354 272.73 0.627879 272.72 0.700054C272.648 1.48175 272.648 2.26835 272.72 3.05005C272.764 3.75819 272.871 4.46098 273.04 5.15005C273.222 5.9122 273.466 6.65807 273.77 7.38005C273.791 7.42567 273.822 7.46647 273.859 7.49996C273.897 7.53346 273.941 7.55894 273.988 7.57485C274.036 7.59076 274.087 7.59677 274.137 7.59251C274.187 7.58824 274.236 7.5738 274.28 7.55005C274.768 7.26589 275.202 6.89676 275.56 6.46005C275.963 5.95666 276.256 5.37405 276.42 4.75005C276.435 4.69337 276.463 4.64116 276.503 4.59796C276.542 4.55477 276.592 4.52189 276.647 4.50218C276.702 4.48247 276.762 4.47653 276.819 4.48487C276.877 4.49322 276.933 4.51559 276.98 4.55005C277.903 5.25388 278.65 6.16181 279.164 7.20274C279.678 8.24367 279.943 9.38935 279.94 10.5501Z" fill="#FCB04E"/>
<path d="M189.48 114L189.16 114.1C189.23 115.55 189.34 117.01 189.38 118.47C189.44 120.62 189.38 120.6 191.55 120.47C192.94 120.4 192.92 120.47 192.67 119.07C192.547 118.042 192.196 117.053 191.645 116.177C191.093 115.3 190.354 114.556 189.48 114Z" fill="url(#paint0_linear_514_792)"/>
<path d="M137.67 161.87L132.53 167.34L128.89 171.21C128.68 171.45 128.45 171.68 128.24 171.91C127.831 172.315 127.301 172.575 126.73 172.65C121.73 173.16 116.73 173.6 111.73 174.09C109.82 174.27 107.9 174.46 106 174.67C105.4 174.74 105.16 174.58 105 173.93C103.67 167.55 102.31 161.2 100.94 154.84C100.85 154.45 100.73 154.06 100.66 153.76C99.0801 155.52 97.5101 157.26 95.9501 159.02L110.19 141.47L115.03 164.07L135.51 162.07L137.32 161.88L137.67 161.87Z" fill="url(#paint1_linear_514_792)"/>
<path d="M225.94 119.46C224.699 122.03 223.066 124.392 221.1 126.46L220.26 127.34C217.59 130.17 214.95 132.98 212.33 135.81C208.241 140.068 203.205 143.299 197.63 145.24C195.73 145.94 193.8 146.49 191.86 147.07C191.588 147.119 191.34 147.26 191.16 147.47C191.087 147.57 191.035 147.683 191.007 147.804C190.98 147.924 190.977 148.049 191 148.17C191.3 151.6 191.58 155.01 191.86 158.42C192.02 160.42 192.18 162.42 192.39 164.47C192.438 164.871 192.383 165.277 192.23 165.65H192.64L182.95 175.89C182.659 176.185 182.272 176.365 181.86 176.4C177.5 176.78 173.14 177.1 168.76 177.45C164.38 177.8 160.07 178.19 155.45 178.58C153.55 153.38 151.65 128.24 149.75 103.16L149.52 103.09C148.96 103.69 148.38 104.3 147.82 104.92C144.67 108.49 141.54 112.11 138.36 115.68L129.46 125.68C128.74 126.51 128.02 127.32 127.33 128.16C127.184 128.404 127.141 128.695 127.21 128.97C127.222 129.112 127.245 129.253 127.28 129.39C129.09 135.11 130.9 140.84 132.73 146.54C134.24 151.3 135.73 156.05 137.3 160.8C137.435 161.148 137.46 161.529 137.37 161.89L135.56 162.08L115.08 164.08L110.24 141.48L96.0001 159C95.7001 159.32 95.4001 159.67 95.1001 160C91.8801 163.59 88.6501 167.16 85.4301 170.78L65.0001 158.23C64.9001 159.78 64.7901 161.1 64.7201 162.43C64.6001 164.72 64.5301 167.04 64.3501 169.36C64.3254 169.525 64.292 169.689 64.2501 169.85C64.2078 170.026 64.1475 170.197 64.0701 170.36C63.9633 170.652 63.7964 170.918 63.5801 171.14C60.6801 174.34 57.7434 177.504 54.7701 180.63C54.4794 180.918 54.089 181.083 53.6801 181.09C47.0701 181.25 40.4401 181.37 33.8401 181.53C23.8401 181.757 13.8401 182.004 3.84006 182.27H0.0600586V175.48C0.150059 171.75 0.290059 168.04 0.390059 164.3C0.500059 159.76 0.550059 155.24 0.640059 150.69C0.833392 141.444 1.03339 132.194 1.24006 122.94C1.36006 117.4 1.50006 111.84 1.64006 106.29C1.75006 101.29 1.87006 96.3704 2.03006 91.3904C2.06683 90.9774 2.23107 90.586 2.50006 90.2704C5.32006 87.2704 8.13006 84.1504 11.0301 81.1804C11.2058 81.0113 11.4086 80.8727 11.6301 80.7704C12.1071 80.5145 12.6388 80.3773 13.1801 80.3704C19.4701 80.3004 25.7501 80.3704 32.0301 80.3704H68.6301C69.7201 80.3704 69.9901 80.3704 70.0201 81.1104V81.7804C69.7001 86.9937 69.3601 92.2271 69.0001 97.4804C68.8901 99.1104 68.8201 100.73 68.6101 102.38C68.6075 102.505 68.5908 102.629 68.5601 102.75C68.5083 103.141 68.3827 103.517 68.1901 103.86C68.0704 104.094 67.9226 104.312 67.7501 104.51C65.3401 107.2 62.8601 109.8 60.4501 112.46C60.1511 112.85 59.9737 113.32 59.9401 113.81C59.7501 115.87 59.6401 117.96 59.5001 120.04C59.3101 122.45 59.1301 124.87 58.9401 127.28C58.8301 128.92 58.7601 130.59 58.5501 132.28V132.37C58.5193 132.531 58.4655 132.686 58.3901 132.83C58.2429 133.105 58.054 133.354 57.8301 133.57C55.2401 136.4 52.6201 139.18 50.0201 141.99C49.8137 142.227 49.6201 142.474 49.4401 142.73C49.3887 142.79 49.3419 142.854 49.3001 142.92H65.8001C65.5201 147.92 65.2701 152.92 64.9901 158.15C65.5001 157.64 65.8201 157.34 66.1001 157.01C68.2101 154.74 70.2701 152.42 72.4301 150.17L74.8601 147.65C79.2901 143.03 83.7701 138.44 88.2201 133.81C88.4009 133.609 88.5711 133.399 88.7301 133.18L89.0501 132.85L89.2901 132.62C89.4307 132.392 89.5102 132.131 89.5207 131.863C89.5312 131.595 89.4724 131.329 89.3501 131.09C86.3167 121.244 83.2801 111.384 80.2401 101.51C79.9149 100.589 79.6378 99.6508 79.4101 98.7004C79.3664 98.4921 79.3689 98.2767 79.4173 98.0694C79.4656 97.8621 79.5587 97.6679 79.6901 97.5004C82.4901 94.4404 85.3001 91.4004 88.2001 88.4104C88.4335 88.1653 88.7075 87.9623 89.0101 87.8104C89.3198 87.6473 89.6607 87.5518 90.0101 87.5304C97.4101 87.2504 104.78 87.0904 112.18 86.8304C113.06 86.8304 113.39 87.0604 113.55 87.7404L113.9 89.5404C114.82 94.7804 115.8 100.02 116.77 105.24C116.771 105.31 116.795 105.377 116.84 105.43C116.925 105.572 117.002 105.719 117.07 105.87C117.63 105.08 118.07 104.36 118.6 103.73C120.6 101.25 122.68 98.8004 124.77 96.3804C126.32 94.6004 127.99 92.9504 129.57 91.1904C129.763 90.9572 130.01 90.7752 130.29 90.6604C130.501 90.5661 130.729 90.5173 130.96 90.5173C131.191 90.5173 131.419 90.5661 131.63 90.6604C137.1 92.5304 142.63 94.3204 148.05 96.2004C148.314 96.2864 148.585 96.3467 148.86 96.3804C149.146 96.3872 149.428 96.3231 149.683 96.194C149.938 96.0649 150.157 95.8747 150.32 95.6404C153.03 92.6404 155.84 89.6404 158.64 86.6404C158.843 86.432 159.08 86.2596 159.34 86.1304C159.54 86.0164 159.751 85.9226 159.97 85.8504C166.723 83.2318 173.731 81.3281 180.88 80.1704C186.123 79.213 191.454 78.8308 196.78 79.0304C201.403 79.242 205.964 80.1732 210.3 81.7904C213.68 83.1037 216.808 84.9878 219.55 87.3604C224.429 91.6052 227.49 97.5624 228.1 104C228.72 109.33 228.33 114.52 225.94 119.46Z" fill="url(#paint2_linear_514_792)"/>
<path d="M445.81 136.18C447.019 134.902 448.135 133.538 449.15 132.1C453.32 125.89 454.76 118.88 454.74 111.53C454.687 104.648 452.053 98.0353 447.36 93.0004C442.45 87.4404 436.14 84.1004 429.12 82.0004C422.39 80.0004 415.44 79.4904 408.51 79.1004C401.552 78.6904 394.57 79.2116 387.75 80.6504C386.927 80.7767 386.153 81.1221 385.51 81.6504C382.51 84.7104 379.64 87.8804 376.74 91.0404C376.475 91.3614 376.293 91.7425 376.21 92.1504C375.44 96.3904 374.68 100.66 373.96 104.93C373.31 108.93 372.71 112.88 372.06 116.87C371.39 121.06 370.71 125.28 370.06 129.48C369.32 134.14 368.55 138.78 367.79 143.48C367.09 147.74 366.42 152.01 365.72 156.28C365.02 160.55 364.33 164.81 363.66 169.07C363.24 171.67 362.82 174.24 362.41 176.93L368.83 177.84L379.31 179.3C382.44 179.74 385.57 180.18 388.7 180.57C388.9 180.578 389.099 180.545 389.286 180.475C389.473 180.404 389.645 180.297 389.79 180.16C392.71 177.07 396.93 173.16 399.79 170C399.93 168.77 399.28 169.63 399.42 169C400.25 164.69 401.02 160.38 401.83 156C401.9 156.01 401.97 156.01 402.04 156C402.57 158.55 403.11 161.08 403.64 163.63C405.01 170.05 406.38 176.47 407.64 182.92C407.78 183.59 408.04 183.75 408.69 183.68C410.77 183.54 412.86 183.45 414.95 183.33C417.61 183.17 420.3 183.06 422.95 182.89C427.29 182.66 431.62 182.41 435.95 182.13C436.382 182.091 436.789 181.912 437.11 181.62L447.29 171.39L446.34 171.44C446.405 171.101 446.356 170.749 446.2 170.44C445.6 169.14 445.13 167.77 444.6 166.44C442.047 159.9 439.503 153.36 436.97 146.82C436.893 146.631 436.859 146.427 436.871 146.222C436.883 146.018 436.941 145.819 437.04 145.64C440 142.42 442.91 139.33 445.81 136.18ZM416.41 124.12C416.41 124.68 416.2 124.89 415.62 124.98C413.107 125.376 410.545 125.353 408.04 124.91C407.81 124.91 407.44 124.43 407.49 124.24C408.11 120.58 408.81 116.94 409.49 113.3C409.551 113.13 409.628 112.966 409.72 112.81C411.944 113.552 413.812 115.096 414.96 117.14C416.128 119.271 416.632 121.701 416.41 124.12Z" fill="url(#paint3_linear_514_792)"/>
<path d="M633.43 137.77C630.261 134.48 628.126 130.332 627.29 125.84C625.7 117.11 627.29 109.04 632.68 101.84C634.394 99.6638 636.217 97.5745 638.14 95.5804C640.33 93.1904 642.54 90.8304 644.81 88.5304C649.749 83.6659 656.008 80.359 662.81 79.0204C669.07 77.6204 675.32 78.0204 681.58 79.1404C687.153 80.0633 692.574 81.7456 697.69 84.1404C700.69 85.6104 700.69 85.6204 700.04 88.8704C698.55 95.9504 697.04 103.02 695.54 110.09C695.41 110.71 696.61 110.53 696.54 111.09C694.78 113.09 690.92 115.72 689.12 117.66C688.92 117.87 688.75 118.1 688.48 118.43L689.4 119.01C692.324 120.711 694.772 123.12 696.52 126.016C698.267 128.912 699.258 132.201 699.4 135.58C700.217 144.635 697.425 153.645 691.63 160.65C690.22 162.36 688.63 163.94 687.13 165.56C684.99 167.85 682.87 170.16 680.68 172.41C676.005 177.159 669.995 180.371 663.45 181.62C658.672 182.601 653.776 182.871 648.92 182.42C644.075 181.928 639.362 180.556 635.01 178.37C630.53 176.25 626.2 173.83 621.78 171.58C621.588 171.511 621.412 171.403 621.263 171.263C621.115 171.124 620.997 170.955 620.916 170.767C620.835 170.58 620.794 170.377 620.795 170.173C620.795 169.969 620.838 169.767 620.92 169.58C622.74 161.7 624.48 153.81 626.26 145.92C626.371 145.49 626.584 145.092 626.88 144.76C628.77 142.69 630.7 140.64 632.62 138.58C632.91 138.39 633.14 138.11 633.43 137.77Z" fill="url(#paint4_linear_514_792)"/>
<path d="M572.21 158.47C572.21 159.97 572.16 161.47 572.21 162.97C572.231 163.322 572.177 163.674 572.051 164.004C571.925 164.333 571.731 164.632 571.48 164.88C568.553 168.053 565.61 171.21 562.65 174.35C562.382 174.619 562.028 174.785 561.65 174.82C557.8 175.05 553.94 175.23 550.09 175.45C546.24 175.67 542.2 175.93 538.09 176.19C538.03 175.79 537.93 175.39 537.91 174.99C537.697 168.59 537.49 162.19 537.29 155.79C537.03 148.283 536.767 140.777 536.5 133.27C536.31 127.82 536.1 122.36 535.91 116.91C535.72 111.13 535.55 105.36 535.35 99.5801C535.334 99.2581 535.388 98.9364 535.509 98.6375C535.629 98.3387 535.814 98.0699 536.05 97.8501C538.46 95.3101 540.86 92.7701 543.2 90.1601C544.344 88.8691 545.781 87.8712 547.39 87.2501C553.555 84.8044 560.007 83.1577 566.59 82.3501C571.507 81.6127 576.48 81.3082 581.45 81.4401C590.19 81.9201 598.16 84.4401 604.45 90.9501C608.279 94.9002 610.686 100.012 611.29 105.48C611.946 110.111 611.674 114.826 610.49 119.35C609.274 123.299 607.115 126.892 604.2 129.82C602.95 131.16 601.71 132.5 600.41 133.82C600.288 133.907 600.185 134.02 600.11 134.151C600.035 134.281 599.989 134.426 599.974 134.576C599.96 134.726 599.978 134.877 600.028 135.019C600.077 135.161 600.156 135.291 600.26 135.4C604.7 142.3 609.1 149.22 613.54 156.11C614.03 156.86 614.24 155.72 615.21 157.01C612.37 160.01 607.75 163.96 604.92 166.96C604.5 167.394 603.972 167.708 603.39 167.87C595.65 169.87 587.91 171.87 580.18 173.93C579.3 174.16 579.01 173.93 578.7 173.14C576.79 168.57 574.83 164.02 572.89 159.47C572.74 159.12 572.57 158.79 572.41 158.47H572.21ZM571.49 112.58V122.27C571.49 122.8 571.74 123.05 572.28 122.98C573.45 122.84 574.62 122.75 575.77 122.52C575.94 122.447 576.088 122.331 576.2 122.184C576.312 122.037 576.384 121.863 576.41 121.68C576.441 120.112 576.126 118.557 575.488 117.124C574.851 115.691 573.906 114.417 572.72 113.39C572.325 113.098 571.915 112.827 571.49 112.58Z" fill="url(#paint5_linear_514_792)"/>
<path d="M298.37 151.76C298.1 154.84 297.84 157.76 297.56 160.66C297.21 164.51 296.82 168.34 296.47 172.16C296.24 174.48 296.08 176.8 295.82 179.1C295.791 179.302 295.73 179.497 295.64 179.68L296.12 179.63L286.83 189.34C286.48 189.718 286.056 190.02 285.585 190.228C285.114 190.436 284.605 190.546 284.09 190.55C280.09 190.85 276.02 191.18 271.99 191.5C268.26 191.78 264.5 192.03 260.77 192.31L249.64 193.24C246.76 193.47 243.91 193.66 241.04 193.89C238.95 194.05 236.89 194.24 234.8 194.4H232.67C232.614 194.195 232.591 193.982 232.6 193.77C232.69 188.37 232.83 182.95 232.92 177.52C233.133 166.48 233.343 155.437 233.55 144.39C233.64 139.29 233.8 134.21 233.87 129.11C233.99 122.01 234.03 114.92 234.13 107.82C234.23 100.72 234.38 93.47 234.54 86.28C234.536 85.3673 234.593 84.4553 234.71 83.55C234.781 83.1402 234.973 82.7609 235.26 82.46C238.113 79.3133 241.003 76.2 243.93 73.12C244.117 72.9529 244.339 72.8287 244.579 72.7561C244.819 72.6836 245.072 72.6644 245.32 72.7C254.48 74.14 263.633 75.5933 272.78 77.06L277.3 77.75C277.18 79.58 277.07 81.35 276.95 83.09C276.76 85.82 276.56 88.56 276.42 91.29C276.09 97.29 275.79 103.23 275.47 109.19C275.26 113.11 275.07 117.01 274.82 120.92C274.59 124.24 274.21 127.53 273.94 130.85C273.68 133.91 273.47 136.97 273.29 140.03C273.05 143.48 272.89 146.94 272.71 150.39C272.64 151.76 272.71 151.81 274.01 151.81C281.66 151.81 289.31 151.81 297.01 151.76H298.37Z" fill="url(#paint6_linear_514_792)"/>
<path d="M526.94 159.37L516.55 169.61C516.248 169.901 515.857 170.081 515.44 170.12C511.38 170.73 507.32 171.28 503.27 171.84C499.76 172.33 496.27 172.79 492.81 173.28C489.35 173.77 485.57 174.28 481.96 174.78L471.41 176.22C470.11 176.41 468.83 176.57 467.41 176.76C467.29 175.67 467.13 174.62 467.04 173.56C466.69 169.56 466.39 165.63 466.04 161.66C465.69 157.69 465.27 153.76 464.93 149.79C464.59 145.82 464.25 141.86 463.93 137.92C463.61 133.98 463.14 129.99 462.79 126.05C462.49 122.83 462.26 119.6 461.96 116.4C461.66 113.2 461.33 109.91 461.03 106.66C460.73 103.41 460.66 100.2 460.15 97.0404C459.78 94.8904 460.59 93.5904 461.98 92.1704C464.37 89.8104 466.57 87.2404 468.91 84.8204C469.338 84.3848 469.872 84.0678 470.46 83.9004L478 166.09L525.58 159.55L526.94 159.37Z" fill="url(#paint7_linear_514_792)"/>
<path d="M525.94 156.56C526.075 157.577 525.94 158.612 525.55 159.56L478 166.09L470.43 83.9003C470.507 83.8722 470.588 83.8554 470.67 83.8503C470.737 83.8423 470.804 83.8423 470.87 83.8503C476.28 83.2003 481.7 82.6503 487.1 82.0203C492.5 81.3903 497.93 80.7503 503.33 80.1203C508.2 79.5603 513.07 79.0303 517.94 78.5003L522.05 78.0303C522.18 80.3103 522.37 82.4603 522.46 84.6003C522.69 89.0203 522.86 93.4803 523.09 97.9003C523.124 98.4522 522.977 99.0001 522.67 99.4603C522.545 99.7094 522.38 99.9358 522.18 100.13C519.87 102.61 517.52 105.13 515.18 107.57C514.85 107.92 514.57 108.31 514.09 108.89L515.55 108.73C516.11 108.63 516.39 108.73 516.41 109.42C516.6 114.73 516.85 120.04 517.01 125.37C517.003 125.765 516.892 126.151 516.69 126.49C516.615 126.678 516.506 126.851 516.37 127C513.77 129.85 511.13 132.65 508.48 135.48C508.25 135.74 508.04 136.01 507.81 136.29C507.834 136.334 507.851 136.381 507.86 136.43C507.866 136.46 507.866 136.491 507.86 136.52L524.53 134.65C524.63 135.78 524.74 136.85 524.79 137.92C525.2 144.11 525.41 150.35 525.94 156.56Z" fill="url(#paint8_linear_514_792)"/>
<path d="M364.5 108C364.35 118.36 361.58 126.82 355.66 134.17C354.54 135.56 353.3 136.87 352.07 138.17C348.8 141.6 345.64 145.17 342.2 148.39C337.561 152.811 331.655 155.671 325.31 156.57C320.427 157.39 315.423 157.113 310.66 155.76C305.897 154.408 301.494 152.013 297.77 148.75C291.816 143.774 287.845 136.826 286.58 129.17C284.64 118.32 287.37 108.57 293.97 99.8501C295.452 97.9815 297.027 96.1892 298.69 94.4802C301.52 91.4802 304.31 88.3702 307.31 85.4802C312.316 80.5451 318.799 77.3841 325.77 76.4802C337.04 75.0602 346.83 78.5501 355.15 86.0701C360.016 90.5502 363.15 96.6007 364 103.16C364.3 105.09 364.4 107.05 364.5 108ZM319.28 110.38C318.811 113.005 319.134 115.71 320.21 118.15C321.89 122.08 325 123.93 329.21 124.07C329.79 124.07 330.39 124.07 330.37 123.24C330.404 121.623 330.327 120.006 330.14 118.4C329.738 115.911 328.375 113.679 326.344 112.184C324.313 110.69 321.776 110.053 319.28 110.41V110.38Z" fill="url(#paint9_linear_514_792)"/>
<path d="M70.0501 80.2702C69.8034 84.2702 69.5734 88.1969 69.3601 92.0502C69.1467 95.9036 68.87 99.8336 68.53 103.84L41.64 105.23L41.01 113.23H59.91L58.51 132.87L39.51 133.5L38.87 142.75H65.74C65.4934 147.417 65.23 152.03 64.95 156.59C64.67 161.15 64.4267 165.744 64.2201 170.37L9.55005 171.62L11.55 80.2702H70.0501ZM96 159L110.24 141.45L115.08 164.05L135.56 162.05L137.37 161.86H137.71L127.17 129L126.99 128.44L129.42 125.71L138.32 115.71L149.5 103.12L153.95 98.1202L148.85 96.4202L130.56 90.3002L130.28 90.7002L117.48 108.9L116.83 105.47L113.89 89.5802L113.54 87.7802L113.35 86.7802L88.91 87.5402L89.01 87.8702L99.58 122L89.29 132.63L89.05 132.86L88.73 133.19L74.73 147.59L74.82 147.66L95.06 160L96 159ZM228.54 105.48C228.882 108.888 228.587 112.33 227.67 115.63C226.843 118.521 225.487 121.234 223.67 123.63C221.856 125.991 219.679 128.05 217.22 129.73C214.657 131.481 211.915 132.952 209.04 134.12C206.063 135.331 202.988 136.287 199.85 136.98C196.738 137.678 193.585 138.179 190.41 138.48L192.63 165.62L165.46 167.84C164.733 158.954 164.027 150.1 163.34 141.28C162.653 132.46 161.987 123.564 161.34 114.59C161.027 109.85 160.66 105.114 160.24 100.38C159.82 95.6469 159.52 90.8536 159.34 86.0002C164.116 84.1604 169.014 82.6567 174 81.5002C179.035 80.3399 184.149 79.5512 189.3 79.1402C192.295 78.8974 195.305 78.8974 198.3 79.1402C201.277 79.369 204.223 79.9052 207.09 80.7402C209.873 81.5382 212.557 82.6486 215.09 84.0502C220.064 86.7818 224.002 91.0717 226.3 96.2602C227.572 99.1817 228.33 102.301 228.54 105.48V105.48ZM202.82 109.57C202.79 108.473 202.526 107.395 202.045 106.408C201.563 105.421 200.876 104.549 200.03 103.85C198.27 102.528 196.065 101.94 193.88 102.21C193.032 102.288 192.189 102.425 191.36 102.62C190.5 102.83 189.69 103.06 188.92 103.32L189.62 120.38C190.146 120.42 190.674 120.42 191.2 120.38L192.78 120.25C194.161 120.152 195.515 119.813 196.78 119.25C198.013 118.699 199.132 117.922 200.08 116.96C201.014 116.018 201.752 114.9 202.25 113.67C202.77 112.37 202.966 110.963 202.82 109.57V109.57ZM298.78 151.51L296.12 179.64L242.72 183.82C242.973 169.08 243.257 154.414 243.57 139.82C243.89 125.25 244.28 87.2302 244.75 72.4902L277.75 77.7002C276.75 86.9502 275.85 114.34 274.96 123.57C274.07 132.8 273.44 142.1 273.06 151.47C275.06 151.56 277.06 151.6 278.96 151.6H284.86C287.22 151.6 289.55 151.6 291.86 151.54C294.17 151.48 296.41 151.51 298.78 151.51V151.51ZM364 117.83C363.339 120.948 362.29 123.972 360.88 126.83C359.53 129.565 357.851 132.124 355.88 134.45C353.938 136.717 351.721 138.732 349.28 140.45C346.847 142.161 344.193 143.534 341.39 144.53C336.965 146.052 332.277 146.653 327.611 146.297C322.946 145.941 318.403 144.635 314.26 142.46C311.623 141.067 309.176 139.339 306.98 137.32C304.819 135.341 302.932 133.08 301.37 130.6C299.809 128.122 298.582 125.449 297.72 122.65C296.837 119.804 296.316 116.857 296.17 113.88C296.015 110.779 296.277 107.671 296.95 104.64C298.877 95.63 304.102 87.6654 311.6 82.3102C314.018 80.5837 316.65 79.1786 319.43 78.1302C322.231 77.0852 325.161 76.4291 328.14 76.1802C331.249 75.9324 334.377 76.1515 337.42 76.8302C342.168 77.8072 346.701 79.6331 350.8 82.2202C354.502 84.5383 357.655 87.6345 360.04 91.2937C362.424 94.953 363.984 99.0876 364.61 103.41C365.321 108.212 365.114 113.105 364 117.83V117.83ZM340.37 114.11C340.699 112.624 340.8 111.097 340.67 109.58C340.557 108.127 340.188 106.705 339.58 105.38C338.975 104.096 338.11 102.952 337.04 102.02C335.879 101.019 334.482 100.33 332.98 100.02C331.467 99.6586 329.893 99.6347 328.37 99.9502C326.975 100.245 325.657 100.827 324.5 101.66C323.325 102.507 322.332 103.582 321.58 104.82C320.773 106.118 320.198 107.546 319.88 109.04C319.558 110.534 319.447 112.066 319.55 113.59C319.632 115.103 319.971 116.591 320.55 117.99C321.118 119.343 321.967 120.56 323.04 121.56C324.201 122.585 325.618 123.276 327.14 123.56C328.669 123.926 330.262 123.926 331.79 123.56C333.214 123.217 334.547 122.573 335.7 121.67C336.872 120.738 337.868 119.604 338.64 118.32C339.446 117.02 340.037 115.599 340.39 114.11H340.37ZM455.17 117.06C454.78 120.045 454.079 122.981 453.08 125.82C452.193 128.3 450.95 130.638 449.39 132.76C447.816 134.857 445.939 136.707 443.82 138.25C441.406 139.991 438.815 141.473 436.09 142.67L447.32 171.36L418.32 172.94L412.38 144.86L404.56 144.03L399.75 170L372.75 166.23C374.25 156.744 375.773 147.267 377.32 137.8C378.867 128.334 380.427 118.87 382 109.41C382.753 104.61 383.503 99.8536 384.25 95.1402C384.997 90.4269 385.83 85.6836 386.75 80.9102C389.72 80.2465 392.725 79.7491 395.75 79.4202C398.677 79.1099 401.617 78.953 404.56 78.9502C407.48 78.9502 410.43 79.0902 413.4 79.3502C416.37 79.6102 419.4 79.9702 422.51 80.4002C427.202 81.0405 431.776 82.3576 436.09 84.3102C440.194 86.1355 443.923 88.7055 447.09 91.8902C450.158 95.0112 452.507 98.7656 453.97 102.89C455.526 107.444 455.938 112.31 455.17 117.06V117.06ZM426.75 115.15C427 113.512 426.983 111.843 426.7 110.21C426.449 108.753 425.905 107.361 425.1 106.12C424.279 104.897 423.196 103.873 421.93 103.12C420.454 102.269 418.822 101.725 417.13 101.52C416.311 101.412 415.486 101.352 414.66 101.34C413.861 101.331 413.062 101.378 412.27 101.48L408 124.68L409.51 124.89C411.363 125.143 413.24 125.17 415.1 124.97C416.94 124.791 418.738 124.308 420.42 123.54C422.026 122.794 423.446 121.701 424.58 120.34C425.785 118.854 426.538 117.052 426.75 115.15V115.15ZM526.17 146.92C525.94 142.79 525.71 138.61 525.45 134.42L515.45 135.55L507.87 136.41L501.33 137.15L500.96 128.78L516.7 126.47L517.97 126.28L517.21 108.5L514.13 108.84L500.24 110.44L500.01 103.21L522.68 99.4102L524 99.2002C523.89 95.6102 523.72 92.0602 523.54 88.5602C523.36 85.0602 523.12 81.4902 522.94 77.8902L522.06 77.9802L517.95 78.4502L487.1 82.0002L470.67 83.8802H470.43L478 166.09L525.58 159.55L526.97 159.37C526.64 155.22 526.4 151.07 526.17 146.92V146.92ZM612.58 107.89C612.76 110.58 612.66 113.281 612.28 115.95C611.948 118.283 611.274 120.554 610.28 122.69C609.266 124.809 607.942 126.763 606.35 128.49C604.541 130.444 602.529 132.2 600.35 133.73L615.21 157L590 163.44L579.86 139.81L572.86 140.44L573.21 164.07L548.82 165.49C548.513 156.87 548.18 148.287 547.82 139.74C547.46 131.194 547.16 122.607 546.92 113.98C546.74 109.627 546.567 105.317 546.4 101.05C546.233 96.7836 546.133 92.4502 546.1 88.0502C548.606 86.9486 551.17 85.9838 553.78 85.1602C556.297 84.3756 558.854 83.7247 561.44 83.2102C564.013 82.6969 566.627 82.3002 569.28 82.0202C571.933 81.7402 574.66 81.5136 577.46 81.3402C581.696 81.0822 585.947 81.4392 590.08 82.4002C594.008 83.2814 597.738 84.8853 601.08 87.1302C604.332 89.3329 607.063 92.2204 609.08 95.5902C611.238 99.341 612.44 103.565 612.58 107.89ZM587.27 111.18C587.204 109.697 586.897 108.235 586.36 106.85C585.885 105.614 585.164 104.488 584.24 103.54C583.307 102.606 582.176 101.895 580.93 101.46C579.486 100.96 577.953 100.766 576.43 100.89C575.689 100.938 574.951 101.028 574.22 101.16C573.518 101.296 572.827 101.48 572.15 101.71L572.47 122.84L573.83 122.76C575.504 122.658 577.16 122.353 578.76 121.85C580.347 121.376 581.841 120.635 583.18 119.66C584.459 118.725 585.517 117.52 586.28 116.13C587.076 114.608 587.419 112.891 587.27 111.18ZM700.62 141.59C700.141 146.784 698.533 151.812 695.91 156.32C693.556 160.261 690.334 163.612 686.49 166.12C682.564 168.618 678.184 170.317 673.6 171.12C668.58 172.023 663.454 172.172 658.39 171.56C656.113 171.27 653.874 170.737 651.71 169.97C649.31 169.14 646.9 168.18 644.47 167.07C642.04 165.96 639.72 164.81 637.47 163.6C635.22 162.39 633.28 161.27 631.57 160.22L637.3 134.61C640.749 137.226 644.563 139.321 648.62 140.83C652.69 142.416 656.943 143.481 661.28 144C662.08 144.087 663.05 144.167 664.19 144.24C665.297 144.306 666.409 144.238 667.5 144.04C668.493 143.871 669.438 143.489 670.27 142.92C670.676 142.618 671.012 142.23 671.252 141.785C671.492 141.339 671.631 140.846 671.66 140.34C671.761 139.585 671.572 138.82 671.13 138.2C670.654 137.546 670.044 137 669.34 136.6C668.515 136.12 667.636 135.74 666.72 135.47C665.727 135.17 664.757 134.92 663.81 134.72C662.81 134.53 661.95 134.39 661.11 134.29L659.11 134.06C655.726 133.726 652.446 132.705 649.47 131.06C646.736 129.531 644.351 127.446 642.47 124.94C640.584 122.379 639.224 119.47 638.47 116.38C637.634 113.034 637.424 109.563 637.85 106.14C638.294 101.509 639.84 97.0512 642.36 93.1402C644.743 89.5058 647.855 86.4068 651.5 84.0402C655.236 81.6452 659.377 79.9508 663.72 79.0402C668.208 78.0591 672.827 77.8293 677.39 78.3602C679.45 78.5902 681.57 78.9102 683.73 79.3102C685.902 79.702 688.052 80.2094 690.17 80.8302C692.232 81.4508 694.261 82.1751 696.25 83.0002C698.197 83.7975 700.074 84.7576 701.86 85.8702L696.55 111.15C693.722 109.829 690.817 108.68 687.85 107.71C684.907 106.733 681.871 106.062 678.79 105.71L676.68 105.5C675.82 105.43 674.91 105.38 673.95 105.38C672.975 105.381 672 105.431 671.03 105.53C670.119 105.613 669.22 105.797 668.35 106.08C667.598 106.322 666.913 106.736 666.35 107.29C665.801 107.879 665.489 108.65 665.474 109.455C665.459 110.26 665.743 111.042 666.27 111.65C666.935 112.351 667.744 112.9 668.64 113.26C669.715 113.7 670.831 114.035 671.97 114.26C673.19 114.52 674.41 114.74 675.63 114.89C676.85 115.04 677.97 115.19 679.03 115.28C679.895 115.351 680.753 115.481 681.6 115.67C684.712 116.18 687.705 117.254 690.43 118.84C692.88 120.28 695.018 122.194 696.72 124.47C698.388 126.77 699.565 129.387 700.18 132.16C700.865 135.255 701.014 138.445 700.62 141.59V141.59Z" fill="#FCB04E"/>
</g>
<defs>
<linearGradient id="paint0_linear_514_792" x1="190.95" y1="114.17" x2="191" y2="119.31" gradientUnits="userSpaceOnUse">
<stop stop-color="#964091"/>
<stop offset="1" stop-color="#6A3A85"/>
</linearGradient>
<linearGradient id="paint1_linear_514_792" x1="116.62" y1="141.4" x2="116.97" y2="174.57" gradientUnits="userSpaceOnUse">
<stop stop-color="#964091"/>
<stop offset="1" stop-color="#6A3A85"/>
</linearGradient>
<linearGradient id="paint2_linear_514_792" x1="113.5" y1="79.3204" x2="114.57" y2="181.11" gradientUnits="userSpaceOnUse">
<stop stop-color="#964091"/>
<stop offset="1" stop-color="#6A3A85"/>
</linearGradient>
<linearGradient id="paint3_linear_514_792" x1="407.87" y1="78.9304" x2="408.97" y2="183.65" gradientUnits="userSpaceOnUse">
<stop stop-color="#964091"/>
<stop offset="1" stop-color="#6A3A85"/>
</linearGradient>
<linearGradient id="paint4_linear_514_792" x1="660.08" y1="76.8204" x2="660.92" y2="156.83" gradientUnits="userSpaceOnUse">
<stop stop-color="#964091"/>
<stop offset="1" stop-color="#6A3A85"/>
</linearGradient>
<linearGradient id="paint5_linear_514_792" x1="574.77" y1="77.7201" x2="575.61" y2="157.73" gradientUnits="userSpaceOnUse">
<stop stop-color="#964091"/>
<stop offset="1" stop-color="#6A3A85"/>
</linearGradient>
<linearGradient id="paint6_linear_514_792" x1="264.43" y1="72.48" x2="265.71" y2="194.09" gradientUnits="userSpaceOnUse">
<stop stop-color="#964091"/>
<stop offset="1" stop-color="#6A3A85"/>
</linearGradient>
<linearGradient id="paint7_linear_514_792" x1="493.02" y1="83.6604" x2="494" y2="176.48" gradientUnits="userSpaceOnUse">
<stop stop-color="#964091"/>
<stop offset="1" stop-color="#6A3A85"/>
</linearGradient>
<linearGradient id="paint8_linear_514_792" x1="497.76" y1="78.5003" x2="498.52" y2="149.9" gradientUnits="userSpaceOnUse">
<stop stop-color="#964091"/>
<stop offset="1" stop-color="#6A3A85"/>
</linearGradient>
<linearGradient id="paint9_linear_514_792" x1="324.87" y1="80.3502" x2="325.71" y2="160.36" gradientUnits="userSpaceOnUse">
<stop stop-color="#964091"/>
<stop offset="1" stop-color="#6A3A85"/>
</linearGradient>
<clipPath id="clip0_514_792">
<rect width="701.86" height="194.42" fill="white"/>
</clipPath>
</defs>
</svg>
