<?xml version="1.0" encoding="utf-8"?>
<!-- Generator: Adobe Illustrator 27.2.0, SVG Export Plug-In . SVG Version: 6.00 Build 0)  -->
<svg version="1.1" id="Layer_1" xmlns="http://www.w3.org/2000/svg" xmlns:xlink="http://www.w3.org/1999/xlink" x="0px" y="0px"
	 viewBox="0 0 516.5 563.5" style="enable-background:new 0 0 516.5 563.5;" xml:space="preserve">
<style type="text/css">
	.st0{fill:#23307A;}
	.st1{fill:#FCB04E;}
	.st2{fill:none;}
	.st3{fill:#FC8D57;}
	.st4{fill:#F75B99;}
	.st5{fill:#9F4096;}
	.st6{fill:#006DED;}
	.st7{fill:#0396E3;}
	.st8{fill:#7F4096;}
</style>
<g id="a">
	<path class="st0" d="M215.1,328.7c-18.8-19.7-34.9-39.9-46.3-58.2c2,41.8,22.4,118.5,63.3,172.5c11.6-5,23.2-9.8,34.5-14.2
		C257.8,415.9,231.4,369.7,215.1,328.7z"/>
	<path class="st1" d="M93.8,355.9C52,443.1,4.4,534.3,3.6,535.8c-2,3.9-1.3,8.7,1.9,11.8c3.2,3.1,8,3.7,11.9,1.6
		c1.1-0.6,64.8-36.1,141.5-72.8c-24.2-30.8-45.1-70.6-59.9-107.1C97.1,364.7,95.4,360.3,93.8,355.9z"/>
	<path class="st1" d="M339.4,345.9c-12.5-22-32.7-47.5-56.8-72c-20.3-20.6-41.3-38.3-60.7-51.2c-20.5-13.6-37-20.6-49.1-20.6h0
		c-7.8,0-12.7,2.9-15.5,5.5c-0.1,0.1-0.3,0.2-0.4,0.4c-0.1,0.1-0.3,0.3-0.4,0.4c-3.9,4.1-5.8,9.4-5.7,16.1
		c-6,18.5-17.2,45.1-30.7,75.1c0.4,6,1.4,12.3,2.8,18.9v0c12.3,55.3,58.6,127.2,69.5,142c13.2-6,26.5-12,39.8-17.7
		c-40.9-53.9-61.3-130.7-63.3-172.5c11.5,18.3,27.5,38.5,46.3,58.2c16.3,41,42.7,87.2,51.5,100c22.4-8.8,43.9-16.5,63.6-22.2
		c0.2,0,0.4,0,0.6,0c7.7,0,12.5-2.8,15.4-5.4c0.2-0.2,0.4-0.3,0.5-0.5c0.2-0.2,0.3-0.3,0.5-0.5c0,0,0,0,0.1-0.1
		C356.8,390,354.2,371.8,339.4,345.9z M339.9,393.4c-0.1,0.1-0.1,0.1-0.2,0.2c-2.1,2.1-5.1,3-8.9,3c-20.1,0-61.9-27.4-102.8-68.8
		c-7.7-7.8-14.9-15.6-21.5-23.3c-16.4-19.1-29.2-37.4-37.1-52.7c-5-9.7-8-18.1-8.7-24.6v0c-0.6-5.3,0.4-9.3,3-11.9
		c2.1-2,5.1-3,8.9-3c0.7,0,1.5,0,2.2,0.1c20.8,1.9,61.1,28.8,100.5,68.7c39.5,40,65.9,80.8,67.3,101.6
		C343.2,387.3,342.2,390.9,339.9,393.4z"/>
	<path class="st0" d="M192.2,460.7c-11.3,5.2-22.5,10.4-33.4,15.7c-24.2-30.8-45.1-70.6-59.9-107.1c-1.8-4.5-3.5-9-5.2-13.3
		c9.2-19.2,18.1-38.3,26.2-56.2c0.4,6,1.4,12.3,2.8,18.9v0C135.1,373.9,181.4,445.8,192.2,460.7z"/>
	<path class="st2" d="M340.2,393.6c-0.1-0.1-0.2-0.2-0.2-0.2"/>
	<path class="st2" d="M12.9,540.5"/>
	<g>
		<path class="st3" d="M339.9,393.4c-0.1,0.1-0.1,0.1-0.2,0.2c-2.1,2.1-5.1,3-8.9,3c-20.1,0-61.9-27.4-102.8-68.8
			c-7.7-7.8-14.9-15.6-21.5-23.3c-16.4-19.1-29.2-37.4-37.1-52.7c-5-9.7-8-18.1-8.7-24.6v0c-0.6-5.3,0.4-9.3,3-11.9
			c2.1-2,5.1-3,8.9-3c0.7,0,1.5,0,2.2,0.1c20.8,1.9,61.1,28.8,100.5,68.7c39.5,40,65.9,80.8,67.3,101.6
			C343.2,387.3,342.2,390.9,339.9,393.4z"/>
	</g>
</g>
<g id="b">
	<path class="st4" d="M183.2,244.8c8,6,12,10,12,10c79-56,75-171,58-199c-17,8-35,16-41,22C221.2,103.8,235.2,164.8,183.2,244.8z"/>
	<path class="st5" d="M305.4,396.5c-4.9-8.7-8.3-13.2-8.3-13.2c56.1-47.5,138.4-43.4,163.8-22.8c-10.2,15.8-12.4,24.4-19.1,29.6
		C417.2,377.6,391.6,355.6,305.4,396.5L305.4,396.5z"/>
	<path class="st6" d="M433.1,66.9c3.5-15.2-23.4-26-33.3-32.3l-3.8,16c9.9,6.3,36.9,17.1,33.2,32.4s-37.7,8.9-65.5,6.8
		c-14.5-1.2-33.8,9.9-13.4,27.8C375,137,405.2,146,412.3,154c0.6,0.7,1.1,1.4,1.5,2.2c1.5,2.7,2,5.9,1.2,8.9
		c-1.6,6.5-8.9,12-24.1,8.6c-24.3-5.5-47.1-9.6-56-8.1c-4.6,0.8-10.3,4.8-11,10c-0.7,4.9,2.9,10.7,15.8,15.8
		c12.4,7.1,18,13.8,18,13.8l3.8-15.9c0,0-5.6-6.7-18-13.8c-13.4-5.3-16.8-11.5-15.6-16.5c1.1-4.9,6.5-8.6,10.9-9.3
		c8.9-1.5,31.7,2.7,56,8.1c15.2,3.4,22.5-2,24.1-8.5c1-3.9-0.1-8.2-2.8-11.2c-7.1-8-37.3-17-61.9-36.4c-7.7-6.7-9.8-12.5-8.6-17
		c2-7.5,12.9-11.5,22-10.8c27.8,2.2,61.8,8.5,65.5-6.8L433.1,66.9"/>
	<path class="st7" d="M328,158.8c1.1-4.9,6.5-8.6,10.9-9.3c8.9-1.5,31.7,2.7,56,8.1c15.2,3.4,22.5-2,24.1-8.5l-3.8,15.9
		c-1.6,6.5-8.9,12-24.1,8.6c-24.3-5.5-47.1-9.6-56-8.1c-4.6,0.8-10.3,4.8-11,10L328,158.8z M433.4,66.4c-3.8,15.7-37.8,9.4-65.6,7.3
		c-9.1-0.7-20,3.4-22.1,11.1l-4,16.6c1.9-7.8,13-12.1,22.1-11.3c27.8,2.1,61.8,8.4,65.6-7.3L433.4,66.4L433.4,66.4"/>
	<path class="st1" d="M484.4,281.9l13.3-13.7l18.8,3.2l-8.9-16.9l8.9-16.9l-18.8,3.3l-13.4-13.6l-2.7,18.9l-17.1,8.5l17.1,8.4
		L484.4,281.9L484.4,281.9z"/>
	<path class="st4" d="M355.9,250.1l13.4-1.1l8.5,10.4l3.1-13l12.5-4.8l-11.4-7l-0.7-13.4l-10.2,8.7l-13-3.5l5.1,12.4L355.9,250.1
		L355.9,250.1z"/>
	<path class="st5" d="M284.2,65.4l20.6-11.8l21.4,10.3l-4.8-23.3l16.4-17.2l-23.6-2.6L303,0l-9.8,21.7l-23.4,4.2l17.6,16L284.2,65.4
		L284.2,65.4z"/>
	<circle class="st4" cx="469.7" cy="172.3" r="13.5"/>
	<circle class="st1" cx="262.2" cy="212.8" r="8"/>
	<circle class="st7" cx="424.7" cy="300.3" r="18.5"/>
	<path class="st7" d="M239.3,292.2c-3.9,7.7-28.8,16.1-37,6.9c-1.5-9.4-2.3-13.7-2.3-13.7c8.9,11.4,31.8-1.7,31.8-1.7
		C234.3,289.1,239.3,292.2,239.3,292.2L239.3,292.2z"/>
	<g>
		<path class="st8" d="M280.2,321.8L280.2,321.8c6.6-0.9,5-19.5,4.9-34.5c0-4.9,2-10.5,5.2-11c2-0.3,4.3,1.2,7,5.8
			c7.4,14.6,10.3,31.4,13.5,35.8c1.2,1.6,3,2.5,4.6,2.3c2.8-0.4,5.3-3.9,4.3-12.3c-1.6-13.4-2.6-25.9-1.7-30.6
			c0.4-2.3,2.2-4.9,4.3-5.1s4.6,2,6.5,9.6c2.6,7.1,5.3,10.6,5.3,10.6l6.9-0.9c0,0-2.6-3.5-5.3-10.6c-1.8-7.2-4.1-9.6-6.2-9.6
			c-2.2,0-4.1,2.8-4.6,5.1c-0.9,4.6,0.2,17.2,1.7,30.6c1,8.4-1.5,11.9-4.4,12.3c-1.3,0.2-2.6-0.3-3.7-1.3c-0.3-0.3-0.6-0.6-0.9-1
			c-3.2-4.4-6.1-21.2-13.5-35.8c-7-12.2-12.2-2.7-12.2,5.1c0.1,15,1.7,33.7-4.9,34.5c-6.6,0.8-10.3-14.4-12.7-20.1l-6.9,0.9
			C270,307.4,273.7,322.6,280.2,321.8"/>
		<path class="st5" d="M329.5,271.4c-2.2,0-4.1,2.8-4.6,5.1c-0.9,4.6,0.2,17.2,1.7,30.6c1,8.4-1.5,11.9-4.4,12.3l-6.8,0.9
			c2.8-0.4,5.3-3.9,4.3-12.3c-1.6-13.4-2.6-25.9-1.7-30.6c0.4-2.3,2.2-4.9,4.3-5.1L329.5,271.4L329.5,271.4z M280,321.9L280,321.9
			l7.1-0.9c6.8-0.9,5.1-19.5,5.1-34.5c0-5,2.1-10.6,5.5-11l-7.1,0.9c-3.3,0.5-5.4,6.1-5.4,11C285.1,302.4,286.8,321,280,321.9"/>
	</g>
</g>
</svg>
