<svg xmlns="http://www.w3.org/2000/svg" id="a" viewBox="0 0 49.5 539"><defs><style>.b{fill:#fbaf4e}</style></defs><path d="M49.5 100.54 0 115.55v29.15l49.5-13.44v-30.72zM49.5 159.56l-49.5 15v28.17l49.5-13.44v-29.73zM49.5 217.59l-49.5 15v27.77l49.5-13.44v-29.33zM49.5 0H0v26.85l49.5-13.44V0zM49.5 41.7 0 56.71v28.97l49.5-13.43V41.7zM0 539h49.5v-30.27l-49.5 15V539zM0 436.24l49.5-13.44v-29.73L0 408.08v28.16zM0 493.87l49.5-13.44V451.1L0 466.11v27.76zM49.5 275.21 0 290.22v28.97l49.5-13.43v-30.55zM0 349.06v29.15l49.5-13.44v-30.71l-49.5 15z"/><path d="M49.5 13.41 0 26.85v29.86L49.5 41.7V13.41zM49.5 72.25 0 85.68v29.87l49.5-15.01V72.25zM49.5 131.26 0 144.7v29.86l49.5-15v-28.3zM49.5 189.29 0 202.73v29.86l49.5-15v-28.3zM49.5 246.92 0 260.36v29.86l49.5-15.01v-28.29zM49.5 305.76 0 319.19v29.87l49.5-15v-28.3zM0 408.08l49.5-15.01v-28.3L0 378.21v29.87zM0 466.11l49.5-15.01v-28.3L0 436.24v29.87zM0 523.73l49.5-15v-28.3L0 493.87v29.86z" class="b"/></svg>