<svg xmlns="http://www.w3.org/2000/svg" id="a" viewBox="0 0 126.6 86.22"><defs><style>.b{fill:#fff}</style></defs><path d="M96.56 47.72v27.84h-5.29v5.29h-5.38v5.38H36.72v-5.38h-5.38v-5.29h-5.46V47.72h70.68ZM32.3 74.6h5.29v5.38h47.35V74.6h5.38V54.13H32.3V74.6ZM0 16.04h3.39v-5.29h3.33V5.38h6.61V0h23.82v5.38h6.67v5.38h3.28v5.29h3.33v6.42h-3.92v-5.46h-3.28v-5.38h-6.67V6.24H13.93v5.38H7.26V17H3.98v5.46H0v-6.42ZM76.17 16.04h3.39v-5.29h3.33V5.38h6.61V0h23.82v5.38h6.67v5.38h3.28v5.29h3.33v6.42h-3.92v-5.46h-3.28v-5.38h-6.67V6.24H90.09v5.38h-6.67V17h-3.28v5.46h-3.98v-6.42Z" class="b"/></svg>