<svg xmlns="http://www.w3.org/2000/svg" id="Initial" viewBox="0 0 120.78 111.55" width="100" height="80"><defs><style>.cls-1{fill:none;stroke:#fff;stroke-linecap:round;stroke-linejoin:round;stroke-width:6px}</style></defs><g id="thumbs_down" data-name="thumbs down"><path d="M117.78 69.25V7.75h-16.84c-4.66 0-5.16 2-5.16 5v52.57c0 2.45.83 3.93 4.16 3.93ZM39.83 68.75H12.28c-5 0-9.28-4-9.28-8C3 58.35 4 3 19.44 3c0 0 37.84.77 64.34 9.75v51C71.28 63.77 60 74.29 55 82.53c-5 10.35-7.43 19.92-11.72 24.22-3.54 3.54-8.1 1-9 0-3.51-3.51-5.8-5.87-5.8-13.67 0-10.31 3.76-19.35 5.8-22.33" class="cls-1"/></g></svg>