<svg xmlns="http://www.w3.org/2000/svg" id="a" viewBox="0 0 123.56 109.75"><defs><style>.b{fill:none;stroke:#fff;stroke-miterlimit:10;stroke-width:6px}</style></defs><path d="M101.06 69.25h19.5V9.75M118.56 7.75h-17.5M98.56 9.75v57M72.56 63.75h14v-51h-14M72.97 7.75h-16.5M57.47 3H16.56M14.56 4.75v13h19M8.56 20.75v13.89l20 .11M3 36.75v13M28.56 51.86h-20v16.89h36M36.56 75.86v-7.61M31.22 74.75v30.22M33.56 106.75h15M50.56 93.08v11.67M55.56 93.75V80.53M70.56 71.75v-6M65.56 76.75v-6M60.56 81.75v-6" class="b"/></svg>