<svg xmlns="http://www.w3.org/2000/svg" id="Initial" viewBox="0 0 120.78 111.55"><defs><style>.cls-1{fill:none;stroke:#fff;stroke-linecap:round;stroke-linejoin:round;stroke-width:6px}</style></defs><g id="thumbs_up" data-name="thumbs up"><path d="M3 42.3v61.5h16.84c4.66 0 5.16-2 5.16-5V46.23c0-2.45-.83-3.93-4.16-3.93ZM81 42.8h27.5c5 0 9.28 4 9.28 8 0 2.42-1 57.77-16.44 57.77 0 0-37.84-.77-64.34-9.75v-51c12.5 0 23.78-10.53 28.78-18.77C70.78 18.68 73.2 9.1 77.5 4.8c3.54-3.53 8.1-.94 9 0 3.51 3.51 5.79 5.88 5.79 13.67 0 10.31-3.75 19.35-5.79 22.33" class="cls-1"/></g></svg>