<svg xmlns="http://www.w3.org/2000/svg" viewBox="0 0 104.99 197.27"><path d="M96.88 20.72 27.3 103.58l-8.06-16.67c14.29.75 72.63 3.8 85.75 4.49l-12.47 14.21-47.14 53.74-3.84 4.38c-2.92-2.46-12.7-10.66-15.78-13.25l10.93-4.14 4.2 26.59-16.04-13.95 28.36.15-2.24 11.66-13.76-9.59 7.43-10.66c5.32 3.71 17.32 12.07 22.55 15.72-17.58 8.84-44.2 22.16-61.84 31.03 4.61-13.02 13.79-39.13 18.38-52.12l4.03-11.44 6.9 7.3 10.14 10.73-8.32.61 41.23-58.39 7.05 15.23c-13.63-.28-72.39-1.46-84.79-1.72l10.41-16.3L68.68 0l28.2 20.72Z"/></svg>