<?xml version="1.0" encoding="UTF-8"?><svg id="Layer_2" xmlns="http://www.w3.org/2000/svg" viewBox="0 0 692.31 183.84"><defs><style>.cls-1{fill:#fff;}</style></defs><g id="Static"><g><path class="cls-1" d="m347.84,28.2c-.87-.82-2.37-6.54-4.28-5.36-6.17,4.21-15.6,3-3.64-2.72,3.45-2.57,7.07-3.07,7.43-6.2-2.17-4.56-7.06-7.61-12.12-7.43-11.7-.54-17.81,15.41-9.47,23.24,5.21,5.43,18.97,5.48,22.08-1.53Zm-10.76-14.43c1.24.11,1.52,1.66.41,2.19-1.86.97-3.64,3.15-5.65,3.31-1.24-3.13,2.38-6.67,5.24-5.5Z"/><path class="cls-1" d="m422.56,42.96h.08c.03.8-.27,2.47,1,2.44.04.03,6.58-.45,6.63-.43.52-.04.92-.48.92-1l-.46-37.84c.32-2.13-8.2-.06-9.06-.38-2-.47.27,12.09-.06,12.78,0,1.33-1.37,1.1-2.21.7-22.92-4.5-16.68,37.29,3.16,23.73Zm-7.96-13.08c1.36-2,4.74-2.72,6.44-.8.22.34.23.59.25,2.31.03,2.15.01,2.43-.2,2.85-2.73,4.6-9.57,0-6.49-4.36Z"/><path class="cls-1" d="m455.62,25.96c-1.77-1-7.36-2.52-8.07-2.87-2.06-1.69,1.84-2.98,3.27-2.77,2.71-.6,6.88,3.19,8.29-.4,0,0,1.34-5.26,1.34-5.26-.06-5.27-11.39-3.55-14.86-2.53-10.94,3.41-11.17,18.21.62,20.47.78.16,6.36,1.75,3.05,3.8-3.67,2.25-9.1-2.47-10.47-.67-1.53,5.5-5.9,8.61,2.7,10.23,12.53,3.72,27.67-10.48,14.13-20Z"/><path class="cls-1" d="m390.96,43.96c-.28,1.93,7.24.65,8.1,1,.57.02,1.04-.44,1.03-1.01l1.27-29c.42-2.33-8.44.24-9.33-.05-2.09-.28-.54,28.6-1.07,29.06Z"/><path class="cls-1" d="m369.57,45.69c1.74.3.22-9.58.53-10.29.96-4.73,9.28,10.57,10.9,7.62.16-.87,6.37-7.89,4.69-8.67,0,0-11.82-8.52-11.82-8.52-2.68-.82,14.88-14.17,14.83-14.81,1.52-1.01-4.86-6.57-5.11-7.4-.86-2.23-10.89,10.74-11.58,10.82-.54.65-1.68.2-1.64-.64l.08-12.22c0-.56-.5-1.02-1.06-.94-.73.43-9.05.18-8.6,1.92,0,0,1,43,1,43-.2,1.99,6.96-.13,7.78.13Z"/><path class="cls-1" d="m326.96,46.26c3.15.01,1.49-6.11,1.84-7.83-.01-1.18-1.01-2.12-2.19-2.07-1.31-.4-11.38,1.69-11.13-1-.61-.99,2.12-31.96-.6-30.96-.73.46-9.66,1.01-9.24,2.62,0,0,.42,39.24.42,39.24-.83,2.34,20.33-.5,20.9,0Z"/><path class="cls-1" d="m282.3,46.32c1.25.02.98-1.62,1-2.42h.15c19.79,13.51,26.02-28.08,3.2-23.67-.83.4-2.2.61-2.2-.7.18-14.16,4.73-12.43-8.06-13.35-.57-.03-1.05.43-1.05,1l-.54,37.71c-.27,1.82,6.68,1.04,7.5,1.43Zm2.41-13.93h0c-.06-2.65.21-2.71,2-3.31,5.03-1.46,7.81,6.78,2.43,7.96-2.98.24-4.85-.81-4.43-4.65Z"/><path class="cls-1" d="m258.56,46.23c.71-.4,8.49-.36,8.16-1.91,0,0,1.31-17.15,1.31-17.15.02-.28.25-.5.53-.51.42-.06,1.6.12,1.52-.62,0,0,.3-6,.3-6,0-.37-.23-.69-.52-.66-.26.31-14.19.89-13.66,1.95h0c.23.54-.87,6.04.26,5.96.5.03,1.72-.33,1.7.52.44.46-1.71,19.52.4,18.42Z"/><path class="cls-1" d="m251.92,29.51c-.19-8.48-7.7-10.32-7.01-12.78,3.5-3.26,4.04-10.67.92-14.6-2.74-3.39-19.54-2.39-22.69.54,0,0,.27,42.84.27,42.84,0,.51.38.94.88,1,13.56,2.25,30.45-.32,27.63-17Zm-19.34-15.47c-.02-.18.13-3.5.13-3.69.6-2.65,6.11-1.93,5.07,1.19-.14,2.12-4.15,5.62-5.2,2.5Zm4.58,21.5c-1.07.19-3.23.87-3.47-.69,0,0-.45-9.57-.45-9.57.06-1.4,2.07-1.46,3.12-1.75,3.81-.7,3.65,4.02,3.7,6.6h0c-.15,3.22-.39,4.57-2.9,5.41Z"/><path class="cls-1" d="m270.39,10.57c.03-1.95-1.43-6.21-3.52-5.8-.28.99-1.51,3.26-2.65,2.63-1.81-2.3.25-10.86-3.4-4.71-1.76,1.55-.45,7.99-1.58,7.39-1.87-1.06-.45-5.54-1.61-4.88-9.2,10.61,11.83,19.44,12.76,5.37Z"/><path class="cls-1" d="m672.05,115.69c-5.01-1.1-11.24-.35-15.33-4.02-4.4-12.37,25.45-3.58,30.28-.5l5.31-25.28c-14.99-8.34-35.27-11.45-50.36-1.83-13.37,8.19-18.51,27.96-9.03,40.9,5.52,8.26,15.46,8.68,24.25,10.53,5.46.93,7.12,7.57.78,8.57-10.72.79-21.6-3.19-30.2-9.43l-5.73,25.61c23.47,17.63,65.36,17.19,69.05-18.63,2.14-12.31-6.54-24.41-19.02-25.92Z"/><path class="cls-1" d="m287.4,104.66c-8.64,45.7,57.14,58.55,67.05,13.19,10.26-45.99-57.32-58.09-67.05-13.19Zm43.44,9.47c-3.84,15.72-24.42,10.83-20.51-5.07,3.15-15.25,24.54-9.96,20.49,5.07h.02Z"/><path class="cls-1" d="m377.2,80.93c-4.98,28.4-9.36,56.85-14,85.32l27,3.77,4.81-25.97,7.82.83,5.94,28.08,29-1.58-11.23-28.69c10.79-4.14,18.11-14.12,19.08-25.61h0c4.45-36.11-42.06-42.3-68.42-36.15Zm40,34.24c-1.01,8.75-11.42,11.08-18.75,9.53l4.27-23.2c8.33-1.67,16.43,4.94,14.48,13.67h0Z"/><path class="cls-1" d="m516.62,146.94c-.23-4.13-.46-8.31-.72-12.5-7.1.8-17.06,1.93-24.12,2.73l-.37-8.37c1.23-.18,16-2.34,17.01-2.5l-.76-17.78c-1.9.2-14.77,1.69-16.97,1.94l-.23-7.23,22.67-3.8,1.32-.21c-.22-7.22-.67-14.09-1.06-21.31-13.33,1.47-39.33,4.58-52.51,5.99l7.57,82.21,47.58-6.54,1.39-.18c-.33-4.15-.57-8.3-.8-12.45h0Z"/><path class="cls-1" d="m0,171.64l54.67-1.25c.4-9.31,1.04-18.3,1.52-27.62h-26.87l.64-9.25,19-.63,1.4-19.64h-18.9l.63-8,26.89-1.39c.7-8.04,1.01-15.52,1.52-23.57H2L0,171.64Z"/><path class="cls-1" d="m603.03,107.91h0c-2.29-32.58-44.39-29.84-66.48-19.84.53,25.89,1.82,51.57,2.72,77.44l24.39-1.42-.35-23.63,7-.63,10.14,23.63,25.21-6.44-14.86-23.27c8.75-5.54,13.39-15.59,12.23-25.84Zm-40.11,14.95l-.32-21.13c7.02-2.95,15.31,1.46,15.12,9.47h0c.66,7.87-8.09,11.74-14.8,11.66Z"/><path class="cls-1" d="m121.01,90.32c-.25.37-12.8,18.21-13.08,18.6-.84-4.33-3.28-17.76-4.13-22.12l-24.44.76c.11.38,10.55,34.08,10.67,34.46-6.11,6.33-18.64,19.2-24.85,25.59.03.06,20.26,12.35,20.33,12.41l.94-1,14.24-17.55,4.84,22.6c1.17-.09,22.12-2.2,22.63-2.19-.24-.76-10.48-32.67-10.72-33.42,7.97-8.94,18.99-21.37,26.96-30.32-3.36-1.11-19.7-6.59-23.39-7.82Z"/><path class="cls-1" d="m263.51,151.49c1.39-22.31,3.29-51.27,4.69-73.77l-33-5.21c-.77,34.62-1.29,77.02-2.03,111.33l53.4-4.18,2.66-28.13c-8.52-.04-17.17.29-25.72-.04Z"/><path class="cls-1" d="m218.99,105.5c-3.53-33.33-46.31-29.05-69.2-19.48,1.65,27.4,4,54.52,6.12,81.84l27.17-2.22-2.22-27.14c17.99-1.09,40.79-11.76,38.13-33h0Zm-33.8,14.43v-5.91h-5.38l-.44-10.68c5.47-2.5,13.78-.96,13.9,6.25.55,5.26-3.4,9.01-8.08,10.34Z"/></g></g></svg>