<svg width="24" height="24" viewBox="0 0 24 24" fill="none" xmlns="http://www.w3.org/2000/svg">
<path d="M21.75 0.75C20.9062 0.75 20.25 1.45312 20.25 2.25V5.76562C18.375 3.14062 15.3281 1.5 12 1.5C7.54688 1.5 3.65625 4.35938 2.29688 8.57812C2.0625 9.375 2.48438 10.2188 3.28125 10.4531C4.07812 10.6875 4.92188 10.2656 5.15625 9.46875C6.09375 6.51562 8.85938 4.5 12 4.5C14.3438 4.5 16.5 5.67188 17.8125 7.5H15.75C14.9062 7.5 14.25 8.20312 14.25 9C14.25 9.84375 14.9062 10.5 15.75 10.5H21.75C22.5469 10.5 23.25 9.84375 23.25 9V2.25C23.25 1.45312 22.5469 0.75 21.75 0.75ZM20.6719 13.5938C19.875 13.3594 19.0312 13.7812 18.7969 14.5781C17.8594 17.5312 15.0938 19.5 12 19.5C9.60938 19.5 7.45312 18.375 6.14062 16.5H8.25C9.04688 16.5 9.75 15.8438 9.75 15C9.75 14.2031 9.04688 13.5 8.25 13.5H2.25C1.40625 13.5 0.75 14.2031 0.75 15V21.75C0.75 22.5938 1.40625 23.25 2.25 23.25C3.04688 23.25 3.75 22.5938 3.75 21.75V18.2812C5.57812 20.9062 8.625 22.5 11.9531 22.5C16.3594 22.5 20.25 19.6875 21.6094 15.4688C21.8906 14.6719 21.4688 13.8281 20.6719 13.5938Z" fill="white"/>
</svg>
