<svg width="21" height="24" viewBox="0 0 21 24" fill="none" xmlns="http://www.w3.org/2000/svg">
<path d="M21 15.75V2.25C21 1.03125 19.9688 0 18.75 0H4.5C1.96875 0 0 2.01562 0 4.5V19.5C0 22.0312 1.96875 24 4.5 24H19.5C20.2969 24 21 23.3438 21 22.5469C21 22.0312 20.6719 21.5625 20.25 21.2812V17.4844C20.6719 17.0156 21 16.4531 21 15.75ZM6.70312 6H15.7031C16.125 6 16.5 6.375 16.5 6.75C16.5 7.17188 16.125 7.5 15.75 7.5H6.70312C6.32812 7.5 6 7.17188 6 6.75C6 6.375 6.32812 6 6.70312 6ZM6.70312 9H15.7031C16.125 9 16.5 9.375 16.5 9.75C16.5 10.1719 16.125 10.5 15.75 10.5H6.70312C6.32812 10.5 6 10.1719 6 9.75C6 9.375 6.32812 9 6.70312 9ZM18 21H4.5C3.65625 21 3 20.3438 3 19.5C3 18.7031 3.65625 18 4.5 18H18V21Z" fill="white"/>
</svg>
