<svg width="28" height="22" viewBox="0 0 28 22" fill="none" xmlns="http://www.w3.org/2000/svg">
<path d="M14.0781 6.54688C14.2188 6.54688 14.3594 6.5 14.5 6.5C16.9844 6.5 19 8.51562 19 11C19 13.4844 16.9844 15.5 14.5 15.5C11.9688 15.5 10 13.4844 10 11C10 10.9062 10 10.7656 10 10.625C10.4219 10.8594 10.9375 11 11.5 11C13.1406 11 14.5 9.6875 14.5 8C14.5 7.48438 14.3125 6.96875 14.0781 6.54688ZM23.5 4.29688C25.7031 6.3125 27.1562 8.75 27.8594 10.4375C28 10.8125 28 11.2344 27.8594 11.6094C27.1562 13.25 25.7031 15.6875 23.5 17.75C21.2969 19.8125 18.25 21.5 14.5 21.5C10.7031 21.5 7.65625 19.8125 5.45312 17.75C3.25 15.6875 1.79688 13.25 1.09375 11.6094C0.953125 11.2344 0.953125 10.8125 1.09375 10.4375C1.79688 8.75 3.25 6.3125 5.45312 4.29688C7.65625 2.23438 10.7031 0.5 14.5 0.5C18.25 0.5 21.2969 2.23438 23.5 4.29688ZM14.5 4.25C10.75 4.25 7.75 7.29688 7.75 11C7.75 14.75 10.75 17.75 14.5 17.75C18.2031 17.75 21.25 14.75 21.25 11C21.25 7.29688 18.2031 4.25 14.5 4.25Z" fill="white"/>
</svg>
