<svg width="24" height="22" viewBox="0 0 24 22" fill="none" xmlns="http://www.w3.org/2000/svg">
<path d="M21.7031 0.5H2.20312C0.984375 0.5 0 1.53125 0 2.75V19.25C0 20.5156 0.984375 21.5 2.20312 21.5H21.7031C22.9219 21.5 23.9531 20.5156 23.9531 19.25V2.75C23.9531 1.53125 22.9688 0.5 21.7031 0.5ZM5.20312 18.125C5.20312 18.3594 5.01562 18.5 4.82812 18.5H2.57812C2.34375 18.5 2.20312 18.3594 2.20312 18.125V15.875C2.20312 15.6875 2.34375 15.5 2.57812 15.5H4.78125C4.96875 15.5 5.15625 15.6875 5.15625 15.875L5.20312 18.125ZM5.20312 12.125C5.20312 12.3594 5.01562 12.5 4.82812 12.5H2.57812C2.34375 12.5 2.20312 12.3594 2.20312 12.125V9.875C2.20312 9.6875 2.34375 9.5 2.57812 9.5H4.78125C4.96875 9.5 5.15625 9.6875 5.15625 9.875V12.125H5.20312ZM5.20312 6.125C5.20312 6.35938 5.01562 6.5 4.82812 6.5H2.57812C2.34375 6.5 2.20312 6.35938 2.20312 6.125V3.875C2.20312 3.6875 2.34375 3.5 2.57812 3.5H4.78125C4.96875 3.5 5.15625 3.6875 5.15625 3.875L5.20312 6.125ZM16.4531 17.75C16.4531 18.1719 16.0781 18.5 15.7031 18.5H8.20312C7.78125 18.5 7.45312 18.1719 7.45312 17.75V13.25C7.45312 12.875 7.78125 12.5 8.20312 12.5H15.7031C16.0781 12.5 16.4531 12.875 16.4531 13.25V17.75ZM16.4531 8.75C16.4531 9.17188 16.0781 9.5 15.7031 9.5H8.20312C7.78125 9.5 7.45312 9.17188 7.45312 8.75V4.25C7.45312 3.875 7.78125 3.5 8.20312 3.5H15.7031C16.0781 3.5 16.4531 3.875 16.4531 4.25V8.75ZM21.7031 18.125C21.7031 18.3594 21.5156 18.5 21.3281 18.5H19.125C18.8906 18.5 18.75 18.3594 18.75 18.125V15.875C18.75 15.6875 18.9375 15.5 19.125 15.5H21.375C21.5625 15.5 21.75 15.6875 21.75 15.875V18.125H21.7031ZM21.7031 12.125C21.7031 12.3594 21.5156 12.5 21.3281 12.5H19.125C18.8906 12.5 18.75 12.3594 18.75 12.125V9.875C18.75 9.6875 18.8906 9.5 19.125 9.5H21.3281C21.5156 9.5 21.7031 9.6875 21.7031 9.875V12.125ZM21.7031 6.125C21.7031 6.35938 21.5156 6.5 21.3281 6.5H19.125C18.8906 6.5 18.75 6.35938 18.75 6.125V3.875C18.75 3.6875 18.8906 3.5 19.0781 3.5H21.2812C21.4688 3.5 21.6562 3.6875 21.6562 3.875V6.125H21.7031Z" fill="white"/>
</svg>
