<svg width="24" height="24" viewBox="0 0 24 24" fill="none" xmlns="http://www.w3.org/2000/svg">
<path d="M23.2031 7.82812C23.3906 8.25 23.25 8.67188 22.9219 9L20.9062 10.8281C20.9531 11.2031 21 11.625 21 12C21 12.4219 20.9531 12.8438 20.9062 13.2188L22.9219 15.0469C23.25 15.375 23.3906 15.7969 23.2031 16.2188C23.0156 16.7812 22.7812 17.2969 22.5 17.8125L22.2656 18.1875C21.9375 18.7031 21.6094 19.2188 21.2344 19.6875C20.9531 20.0156 20.4844 20.1094 20.0625 19.9688L17.4844 19.1719C16.8281 19.6406 16.125 20.0156 15.4219 20.3438L14.8125 23.0156C14.7188 23.4375 14.3906 23.7656 13.9688 23.8594C13.3125 23.9531 12.6562 24 11.9531 24C11.2969 24 10.6406 23.9531 9.98438 23.8594C9.5625 23.7656 9.23438 23.4375 9.14062 23.0156L8.53125 20.3438C7.82812 20.0156 7.125 19.6406 6.46875 19.1719L3.89062 19.9688C3.46875 20.1094 3 20.0156 2.71875 19.6875C2.34375 19.2188 2.01562 18.7031 1.6875 18.1875L1.45312 17.8125C1.17188 17.2969 0.9375 16.7812 0.75 16.2188C0.5625 15.7969 0.703125 15.375 1.03125 15.0469L3.04688 13.2188C3 12.8438 3 12.4219 3 12C3 11.625 3 11.2031 3.04688 10.8281L1.03125 9C0.703125 8.67188 0.5625 8.25 0.75 7.82812C0.9375 7.26562 1.17188 6.75 1.45312 6.23438L1.6875 5.85938C2.01562 5.34375 2.34375 4.82812 2.71875 4.35938C3 4.03125 3.46875 3.9375 3.89062 4.07812L6.46875 4.875C7.125 4.40625 7.82812 3.98438 8.53125 3.70312L9.14062 1.03125C9.23438 0.609375 9.5625 0.28125 9.98438 0.1875C10.6406 0.09375 11.2969 0 12 0C12.6562 0 13.3125 0.09375 13.9688 0.1875C14.3906 0.28125 14.7188 0.609375 14.8125 1.03125L15.4219 3.70312C16.125 3.98438 16.8281 4.40625 17.4844 4.875L20.0625 4.07812C20.4844 3.9375 20.9531 4.03125 21.2344 4.35938C21.6094 4.82812 21.9375 5.34375 22.2656 5.85938L22.5 6.23438C22.7812 6.75 23.0156 7.26562 23.2031 7.82812ZM12 15.75C14.0625 15.75 15.75 14.1094 15.75 12C15.75 9.9375 14.0625 8.25 12 8.25C9.89062 8.25 8.25 9.9375 8.25 12C8.25 14.1094 9.89062 15.75 12 15.75Z" fill="white"/>
</svg>
