<svg width="24" height="24" viewBox="0 0 24 24" fill="none" xmlns="http://www.w3.org/2000/svg">
<path d="M22.9688 1.92188C24 2.95312 24 4.59375 22.9688 5.625L21.5625 7.03125L16.9688 2.4375L18.375 1.03125C19.4062 0 21.0469 0 22.0781 1.03125L22.9688 1.92188ZM8.0625 11.3438L15.8906 3.51562L20.4844 8.10938L12.6562 15.9375C12.375 16.2188 12 16.4531 11.625 16.5938L7.45312 17.9531C7.03125 18.0938 6.60938 18 6.32812 17.6719C6 17.3906 5.90625 16.9219 6.04688 16.5469L7.40625 12.375C7.54688 12 7.78125 11.625 8.0625 11.3438ZM9 3C9.79688 3 10.5 3.70312 10.5 4.5C10.5 5.34375 9.79688 6 9 6H4.5C3.65625 6 3 6.70312 3 7.5V19.5C3 20.3438 3.65625 21 4.5 21H16.5C17.2969 21 18 20.3438 18 19.5V15C18 14.2031 18.6562 13.5 19.5 13.5C20.2969 13.5 21 14.2031 21 15V19.5C21 21.9844 18.9844 24 16.5 24H4.5C1.96875 24 0 21.9844 0 19.5V7.5C0 5.01562 1.96875 3 4.5 3H9Z" fill="white"/>
</svg>
