<svg width="15" height="22" viewBox="0 0 15 22" fill="none" xmlns="http://www.w3.org/2000/svg">
<path d="M9.5625 0.546875H4.5C2.01562 0.546875 0 2.5625 0 5.04688C0 5.84375 0.65625 6.5 1.5 6.5C2.29688 6.5 3 5.79688 3 5.04688C3 4.20312 3.65625 3.54688 4.5 3.54688H9.5625C10.875 3.54688 12 4.625 12 5.9375C12 6.875 11.4844 7.71875 10.5469 8.1875L5.95312 10.8594C5.48438 11.1406 5.25 11.6094 5.25 12.125V14C5.25 14.8438 5.90625 15.5 6.75 15.5C7.54688 15.5 8.25 14.8438 8.25 14V13.0156L12 10.8125C13.8281 9.875 15 8 15 5.9375C15 2.9375 12.5625 0.546875 9.5625 0.546875ZM6.75 17.75C5.67188 17.75 4.875 18.5938 4.875 19.625C4.875 20.7031 5.67188 21.5 6.75 21.5C7.78125 21.5 8.625 20.6562 8.625 19.625C8.625 18.6406 7.78125 17.75 6.75 17.75Z" fill="white"/>
</svg>
