<svg width="26" height="25" viewBox="0 0 26 25" fill="none" xmlns="http://www.w3.org/2000/svg">
<path d="M17.8594 7.07812L24.5625 8.0625C25.125 8.15625 25.5938 8.53125 25.7812 9.09375C25.9688 9.60938 25.8281 10.2188 25.4062 10.5938L20.5312 15.4219L21.7031 22.2656C21.7969 22.8281 21.5625 23.3906 21.0938 23.7188C20.625 24.0938 20.0156 24.0938 19.5 23.8594L13.5 20.625L7.45312 23.8594C6.98438 24.0938 6.32812 24.0938 5.90625 23.7188C5.4375 23.3906 5.20312 22.8281 5.29688 22.2656L6.42188 15.4219L1.54688 10.5938C1.125 10.2188 0.984375 9.60938 1.17188 9.09375C1.35938 8.53125 1.82812 8.15625 2.39062 8.0625L9.14062 7.07812L12.1406 0.84375C12.375 0.328125 12.8906 0 13.5 0C14.0625 0 14.5781 0.328125 14.8125 0.84375L17.8594 7.07812Z" fill="white"/>
</svg>
