<svg width="32" height="25" viewBox="0 0 32 25" fill="none" xmlns="http://www.w3.org/2000/svg">
<path d="M30.5312 22.0312L26.4062 18.75C28.3281 17.0156 29.5 14.5781 29.5 12C29.5 9.32812 28.2812 6.79688 26.1719 5.10938C25.6562 4.73438 24.9531 4.78125 24.5781 5.29688C24.1562 5.76562 24.25 6.46875 24.7188 6.89062C26.3125 8.10938 27.25 10.0312 27.25 12C27.25 14.0156 26.3125 15.9375 24.7188 17.2031C24.6719 17.25 24.6719 17.2969 24.625 17.3438L22.5156 15.75C22.5625 15.75 22.5625 15.75 22.6094 15.75C22.8438 15.75 23.125 15.6562 23.3125 15.5156C24.3906 14.625 25 13.3594 25 12C25 10.6875 24.3906 9.42188 23.3125 8.53125C22.8438 8.15625 22.1406 8.25 21.7188 8.71875C21.3438 9.1875 21.3906 9.89062 21.9062 10.3125C22.4219 10.7344 22.75 11.3438 22.75 12C22.75 12.7031 22.4219 13.3125 21.9062 13.7344C21.5312 14.0625 21.3906 14.5312 21.5312 14.9531L19 12.9375V3C19 2.4375 18.625 1.875 18.1094 1.64062C17.5469 1.40625 16.9375 1.5 16.4688 1.92188L11.0312 6.75L2.78125 0.28125C2.59375 0.09375 2.35938 0 2.125 0C1.75 0 1.42188 0.1875 1.23438 0.46875C0.8125 0.9375 0.90625 1.64062 1.42188 2.01562L29.125 23.7188C29.5938 24.1406 30.2969 24.0469 30.6719 23.5312C31.1406 23.1094 31.0469 22.4062 30.5312 22.0312ZM4 9.75V14.25C4 15.5156 4.98438 16.5 6.25 16.5H10.1406L16.4688 22.0781C16.75 22.4062 17.125 22.5 17.5 22.5C17.6875 22.5 17.875 22.5 18.1094 22.4062C18.625 22.125 19 21.6094 19 21V18.6562L5.125 7.82812C4.46875 8.20312 4 8.90625 4 9.75Z" fill="white"/>
</svg>
