<svg width="26" height="22" viewBox="0 0 26 22" fill="none" xmlns="http://www.w3.org/2000/svg">
<path d="M19.8125 7.53125C19.3438 7.15625 18.6406 7.25 18.2188 7.71875C17.8438 8.1875 17.8906 8.89062 18.4062 9.3125C18.9219 9.73438 19.25 10.3438 19.25 11C19.25 11.7031 18.9219 12.3125 18.4062 12.7344C17.8906 13.1562 17.8438 13.8594 18.2188 14.3281C18.4531 14.6094 18.7812 14.75 19.1094 14.75C19.3438 14.75 19.625 14.6562 19.8125 14.5156C20.8906 13.625 21.5 12.3594 21.5 11C21.5 9.6875 20.8906 8.42188 19.8125 7.53125ZM22.6719 4.0625C22.1562 3.6875 21.4531 3.78125 21.0781 4.25C20.6562 4.71875 20.75 5.42188 21.2188 5.84375C22.8125 7.10938 23.75 9.03125 23.75 11C23.75 13.0156 22.8125 14.9375 21.2188 16.2031C20.75 16.625 20.6562 17.3281 21.0781 17.7969C21.3125 18.0781 21.5938 18.2188 21.9219 18.2188C22.2031 18.2188 22.4375 18.125 22.6719 17.9844C24.7812 16.25 26 13.7188 26 11C26 8.32812 24.7812 5.79688 22.6719 4.0625ZM14.6094 0.640625C14.0469 0.40625 13.4375 0.5 12.9688 0.921875L6.64062 6.5H2.75C1.48438 6.5 0.5 7.53125 0.5 8.75V13.2031C0.5 14.4219 1.48438 15.4062 2.75 15.4062H6.64062L12.9688 21.0312C13.25 21.4062 13.625 21.5 14 21.5C14.1875 21.5 14.375 21.5 14.6094 21.4062C15.125 21.125 15.5 20.6094 15.5 20V2C15.5 1.4375 15.125 0.875 14.6094 0.640625Z" fill="white"/>
</svg>
