<?xml version="1.0" encoding="UTF-8"?>
<svg id="Layer_2" xmlns="http://www.w3.org/2000/svg" xmlns:xlink="http://www.w3.org/1999/xlink" viewBox="0 0 97.48 97.81">
  <defs>
    <style>
      .cls-1 {
        opacity: .75;
      }

      .cls-2 {
        fill: url(#radial-gradient);
      }

      .cls-3 {
        fill: url(#linear-gradient);
      }
    </style>
    <radialGradient id="radial-gradient" cx="48.75" cy="51.11" fx="59.55" fy="67.1" r="38.82" gradientTransform="translate(0 100.02) scale(1 -1)" gradientUnits="userSpaceOnUse">
      <stop offset="0" stop-color="#4c2249"/>
      <stop offset="0" stop-color="#4b2248"/>
      <stop offset="1" stop-color="#351833"/>
    </radialGradient>
    <linearGradient id="linear-gradient" x1="0" y1="51.11" x2="97.48" y2="51.11" gradientTransform="translate(0 100.02) scale(1 -1)" gradientUnits="userSpaceOnUse">
      <stop offset="0" stop-color="#ffc54b"/>
      <stop offset="1" stop-color="#ff634a"/>
    </linearGradient>
  </defs>
  <g id="Layer_2-2" data-name="Layer_2">
    <g id="Layer_1-2">
      <g class="cls-1">
        <polygon class="cls-2" points="10.09 15.64 15.73 10.01 82.15 10.01 87.48 15.35 87.48 82.69 82.35 87.82 15.05 87.82 10.01 82.78 10.09 15.64"/>
        <path class="cls-3" d="M82.15,10.01l5.34,5.34v67.34l-5.13,5.13H15.05l-5.04-5.04.09-67.13,5.63-5.63h66.42M86.29.01H11.59l-2.93,2.93-5.63,5.63L.1,11.5v4.13l-.1,67.13v4.15l2.93,2.93,5.04,5.04,2.93,2.93h75.59l2.93-2.93,5.13-5.13,2.93-2.93V11.2l-2.93-2.93-5.34-5.34-2.93-2.93h.01Z"/>
      </g>
    </g>
  </g>
</svg>