<svg width="650" height="180" viewBox="0 0 650 180" fill="none" xmlns="http://www.w3.org/2000/svg">
<g clip-path="url(#clip0_514_793)">
<path d="M424.78 33.6817C424.018 33.9916 423.205 34.161 422.383 34.1817C421.722 34.2075 421.062 34.1421 420.42 33.9872C419.772 33.8413 419.132 33.6621 418.503 33.4503C417.892 33.2466 417.309 33.0244 416.772 32.7837L416.3 32.5707C416.184 32.5217 416.06 32.4968 415.934 32.4975C415.808 32.4981 415.684 32.5244 415.569 32.5746C415.454 32.6249 415.35 32.6981 415.264 32.7897C415.178 32.8813 415.111 32.9895 415.068 33.1077L412.689 39.4682C412.599 39.7067 412.596 39.9694 412.681 40.2098C412.766 40.4503 412.932 40.6532 413.152 40.7828C414.131 41.4039 415.186 41.8956 416.291 42.2457C416.402 42.2457 416.911 42.403 417.587 42.5327C418.087 42.6252 418.587 42.6993 419.096 42.7641C420.017 42.8764 420.946 42.9197 421.873 42.8937C423.724 42.8285 425.558 42.5171 427.326 41.9679C428.892 41.5174 430.364 40.7865 431.669 39.8107C432.858 38.869 433.81 37.6606 434.446 36.2833C435.146 34.7793 435.464 33.1255 435.372 31.469C435.348 30.3219 435.093 29.1915 434.622 28.1453C434.205 27.251 433.631 26.4388 432.928 25.7474C432.612 25.4139 432.271 25.1044 431.909 24.8215C431.512 24.5282 431.098 24.2592 430.669 24.0161C429.03 23.0902 423.855 21.683 423.197 21.3589C422.961 21.2522 422.771 21.0652 422.66 20.8312C422.64 20.7553 422.64 20.6756 422.66 20.5997C422.665 20.3842 422.724 20.1733 422.831 19.9859C422.937 19.7985 423.089 19.6404 423.271 19.5258C423.685 19.2545 424.147 19.0659 424.632 18.9703C425.155 18.8518 425.689 18.7928 426.225 18.7944C426.674 18.7867 427.123 18.8146 427.567 18.8777C428.575 18.9978 429.568 19.2212 430.53 19.5443L431.252 19.8035C431.516 19.902 431.797 19.9439 432.078 19.9266C432.359 19.9093 432.633 19.8332 432.883 19.7031C433.133 19.5731 433.352 19.392 433.527 19.1716C433.702 18.9513 433.829 18.6966 433.9 18.424L435.14 13.5542C435.274 13.0436 435.201 12.501 434.938 12.0436C434.674 11.5863 434.242 11.2509 433.733 11.11C432.867 10.8625 431.985 10.6708 431.095 10.536C429.508 10.2952 427.902 10.2114 426.299 10.286C424.624 10.3597 422.969 10.6714 421.383 11.2118C419.908 11.7057 418.542 12.4755 417.355 13.4801C416.183 14.4577 415.236 15.6767 414.578 17.0538C413.888 18.548 413.57 20.1872 413.652 21.8311C413.653 22.7921 413.868 23.7409 414.281 24.6086C414.664 25.3968 415.171 26.1188 415.781 26.7473C416.377 27.3528 417.045 27.8816 417.772 28.3212C418.471 28.7406 419.198 29.1118 419.948 29.4322C420.781 29.784 421.438 29.9969 421.957 30.1636C422.179 30.2284 422.882 30.4783 424.382 30.9876C424.861 31.0952 425.277 31.3882 425.54 31.8023C425.604 31.9532 425.647 32.112 425.669 32.2745C425.691 32.5733 425.617 32.8714 425.457 33.1248C425.297 33.3782 425.06 33.5734 424.78 33.6817ZM407.625 5.65683C407.625 5.53043 407.599 5.40532 407.549 5.28921C407.499 5.1731 407.426 5.06846 407.334 4.98172C407.242 4.89498 407.134 4.82799 407.015 4.78487C406.896 4.74175 406.77 4.72341 406.643 4.731L399.237 5.30501C398.998 5.32853 398.777 5.44405 398.622 5.62717C398.466 5.81029 398.388 6.04668 398.403 6.28639L399.181 17.1371C399.191 17.2915 399.162 17.4459 399.097 17.5862C399.032 17.7265 398.933 17.8483 398.808 17.9404C398.684 18.0324 398.539 18.0919 398.385 18.1133C398.232 18.1347 398.076 18.1174 397.931 18.063C397.674 17.9497 397.407 17.8568 397.135 17.7852C396.294 17.5512 395.425 17.4328 394.552 17.4334C392.903 17.4124 391.27 17.7637 389.775 18.4611C388.425 19.0965 387.233 20.0229 386.284 21.1738C385.317 22.3589 384.582 23.7158 384.118 25.1733C383.612 26.7466 383.362 28.3908 383.377 30.0432C383.346 31.7929 383.645 33.5328 384.257 35.1723C384.796 36.5877 385.607 37.8837 386.645 38.9867C387.61 40.004 388.773 40.8137 390.062 41.3661C391.317 41.9173 392.672 42.201 394.043 42.1994C395.192 42.1971 396.332 41.9967 397.413 41.6068C398.463 41.2718 399.386 40.6261 400.061 39.7552H400.135V41.0884C400.135 41.2139 400.16 41.3382 400.209 41.4537C400.259 41.5691 400.331 41.6734 400.422 41.76C400.513 41.8466 400.621 41.9138 400.738 41.9575C400.856 42.0012 400.981 42.0205 401.107 42.0142L407.199 41.6161C407.431 41.5974 407.648 41.4917 407.806 41.3201C407.964 41.1484 408.051 40.9235 408.051 40.6903L407.625 5.65683ZM398.7 31.6819C398.427 32.2002 398.013 32.6304 397.505 32.9225C396.684 33.3921 395.719 33.5437 394.793 33.3484C394.147 33.243 393.55 32.9425 393.08 32.4874C392.551 31.9637 392.21 31.2804 392.108 30.5432C391.931 29.5382 392.139 28.5035 392.691 27.6453C393.171 26.971 393.838 26.4532 394.611 26.1568C395.383 25.8603 396.226 25.7984 397.033 25.9788C397.672 26.0695 398.251 26.4007 398.653 26.9046C398.857 27.2194 398.866 27.4509 398.885 29.0433C398.913 31.0338 398.894 31.2931 398.7 31.6819ZM379.257 40.6717L380.433 13.8227C380.441 13.6855 380.419 13.5483 380.368 13.4209C380.316 13.2935 380.237 13.1791 380.136 13.086C380.035 12.993 379.915 12.9235 379.783 12.8828C379.652 12.8421 379.514 12.8311 379.378 12.8505L371.795 13.7764C371.566 13.7994 371.354 13.907 371.2 14.0782C371.045 14.2494 370.961 14.4719 370.962 14.7022L370.804 39.4867V40.681C370.804 40.9265 370.902 41.162 371.076 41.3357C371.249 41.5093 371.485 41.6068 371.73 41.6068H378.304C378.428 41.6106 378.553 41.5891 378.669 41.5437C378.785 41.4982 378.891 41.4298 378.98 41.3425C379.069 41.2551 379.139 41.1507 379.187 41.0354C379.235 40.9202 379.259 40.7965 379.257 40.6717ZM363.981 3.33299C363.899 3.23884 363.798 3.16333 363.685 3.11158C363.572 3.05984 363.448 3.03306 363.324 3.03306C363.199 3.03306 363.076 3.05984 362.963 3.11158C362.849 3.16333 362.748 3.23884 362.666 3.33299L353.26 13.3505C353.142 13.4825 352.986 13.5752 352.814 13.6163C352.641 13.6574 352.461 13.6449 352.295 13.5805C352.13 13.516 351.989 13.4028 351.89 13.2558C351.791 13.1088 351.739 12.9351 351.742 12.758L351.816 1.4443C351.817 1.32003 351.791 1.19699 351.741 1.08345C351.69 0.969903 351.616 0.868494 351.523 0.786042C351.43 0.70359 351.32 0.642006 351.202 0.605434C351.083 0.568862 350.958 0.55815 350.834 0.574019L343.641 1.42578C343.418 1.45146 343.214 1.56205 343.071 1.73451C342.927 1.90698 342.856 2.12803 342.872 2.35161L343.798 42.1623C343.801 42.2791 343.828 42.394 343.877 42.5001C343.926 42.6062 343.996 42.7014 344.082 42.78C344.169 42.8586 344.27 42.9191 344.38 42.9577C344.49 42.9963 344.607 43.0123 344.724 43.0048L351.001 42.2827C351.226 42.2616 351.433 42.1522 351.577 41.9787C351.721 41.8051 351.79 41.5815 351.769 41.3569L351.492 32.7559C351.486 32.5784 351.534 32.4033 351.63 32.254C351.727 32.1048 351.866 31.9886 352.031 31.9211C352.195 31.8536 352.376 31.8379 352.549 31.8763C352.723 31.9146 352.88 32.0051 353.001 32.1356L360.222 39.9218C360.312 40.0179 360.422 40.0925 360.545 40.1399C360.667 40.1874 360.799 40.2065 360.93 40.1958C361.061 40.1851 361.187 40.1449 361.301 40.0782C361.414 40.0115 361.51 39.9201 361.583 39.8107L366.148 32.9688C366.271 32.7808 366.316 32.5525 366.275 32.3316C366.234 32.1107 366.108 31.9144 365.925 31.7838L354.982 23.8957C354.885 23.8143 354.805 23.7137 354.748 23.6002C354.691 23.4867 354.658 23.3627 354.651 23.2359C354.644 23.1092 354.664 22.9823 354.708 22.8633C354.752 22.7442 354.82 22.6356 354.908 22.544L368.712 10.1841C368.869 10.0249 368.962 9.81445 368.976 9.59157C368.99 9.3687 368.922 9.14841 368.786 8.9713L363.981 3.33299ZM330.883 26.0899L328.448 21.5811C328.371 21.4387 328.264 21.3145 328.135 21.2169C328.006 21.1193 327.857 21.0506 327.699 21.0155C327.541 20.9803 327.377 20.9796 327.219 21.0133C327.061 21.047 326.911 21.1144 326.781 21.2108C326.016 21.7969 325.171 22.2707 324.272 22.618C321.06 23.8587 318.115 23.3865 317.995 22.618C317.875 21.8496 319.847 20.8867 323.55 18.6092C326.541 16.7575 328.772 15.6188 330.142 14.1282C330.281 13.8504 330.679 13.3505 330.429 12.8691C329.491 10.9453 328.072 9.29653 326.309 8.08251C324.219 6.65919 321.736 5.92737 319.208 5.99013C317.574 5.99554 315.957 6.30966 314.44 6.91596C312.975 7.49222 311.644 8.36537 310.533 9.48051C309.378 10.6497 308.474 12.0421 307.876 13.5727C307.195 15.3183 306.862 17.1802 306.894 19.0536C306.883 20.6438 307.198 22.2194 307.82 23.6828C308.434 25.117 309.324 26.4163 310.44 27.5064C311.592 28.6202 312.947 29.5032 314.431 30.108C316.05 30.7496 317.781 31.0642 319.523 31.0338C321.56 31.1238 323.597 30.8542 325.541 30.2376C327.372 29.6211 329.078 28.6803 330.577 27.4601C330.775 27.2997 330.913 27.077 330.969 26.8283C331.024 26.5795 330.994 26.3193 330.883 26.0899ZM316.069 17.8315C315.625 17.5445 315.903 17.0075 315.838 16.7112C316.032 13.7949 318.486 11.934 320.921 12.7302C321.356 12.8783 321.847 12.9894 321.93 13.4986C321.983 13.7488 321.95 14.0095 321.835 14.2383C321.721 14.467 321.532 14.6501 321.3 14.7577C319.958 15.6836 318.625 16.6094 317.264 17.4519C316.875 17.6741 316.495 18.1278 316.032 17.8315H316.069Z" fill="white"/>
<path d="M300.367 4.05504L292.562 5.55489C292.349 5.59626 292.156 5.71179 292.019 5.88115C291.882 6.0505 291.809 6.26282 291.813 6.48072L292.201 42.8103C292.201 43.0559 292.299 43.2914 292.473 43.465C292.646 43.6386 292.882 43.7361 293.127 43.7361L311.551 42.8103C312.026 42.7865 312.474 42.581 312.801 42.2363C313.129 41.8916 313.311 41.4341 313.31 40.9587L313.255 35.5611C313.251 35.3009 313.196 35.0441 313.091 34.8059C312.987 34.5676 312.835 34.3528 312.646 34.1741C312.457 33.9954 312.234 33.8564 311.99 33.7655C311.747 33.6745 311.487 33.6334 311.227 33.6446L302.376 33.9871C302.171 34.0012 301.965 33.9685 301.775 33.8917C301.584 33.8148 301.413 33.6957 301.275 33.5434C301.137 33.391 301.035 33.2093 300.977 33.012C300.92 32.8147 300.907 32.6068 300.941 32.404L301.45 4.94384C301.447 4.81094 301.415 4.68032 301.357 4.56087C301.298 4.44142 301.215 4.33594 301.112 4.25161C301.009 4.16728 300.89 4.10607 300.761 4.07215C300.633 4.03824 300.498 4.0324 300.367 4.05504ZM263.26 41.5419C263.259 41.7737 263.345 41.9974 263.501 42.1688C263.657 42.3402 263.872 42.4469 264.102 42.4678L270.204 42.8659C270.449 42.8659 270.685 42.7683 270.858 42.5947C271.032 42.4211 271.13 42.1856 271.13 41.94V40.6254H271.268C271.948 41.4913 272.87 42.1358 273.916 42.477C274.999 42.86 276.138 43.0572 277.286 43.0603C278.657 43.0609 280.012 42.7772 281.267 42.227C282.555 41.6724 283.717 40.863 284.684 39.8477C285.691 38.7612 286.48 37.4914 287.008 36.1073C287.636 34.4709 287.95 32.7309 287.933 30.9782C287.945 29.3253 287.692 27.6811 287.183 26.1083C286.722 24.6513 285.99 23.2944 285.026 22.1087C284.073 20.9588 282.878 20.0327 281.527 19.3961C280.055 18.7051 278.449 18.3509 276.823 18.3591C275.947 18.3585 275.075 18.4768 274.231 18.7109C273.959 18.7825 273.693 18.8754 273.435 18.9887C273.291 19.0412 273.135 19.0569 272.984 19.0346C272.832 19.0122 272.688 18.9524 272.565 18.8606C272.442 18.7688 272.343 18.6478 272.279 18.5085C272.214 18.3693 272.185 18.2161 272.194 18.0629L272.972 7.21213C272.973 6.98181 272.888 6.75933 272.734 6.58814C272.58 6.41694 272.368 6.30932 272.139 6.2863L264.732 5.70302C264.607 5.69674 264.481 5.71604 264.363 5.75975C264.246 5.80346 264.138 5.87066 264.047 5.95727C263.956 6.04387 263.884 6.14807 263.835 6.26352C263.785 6.37898 263.76 6.50328 263.76 6.62885L263.26 41.5419ZM272.435 29.969C272.435 28.3766 272.435 28.1174 272.676 27.8304C273.076 27.3291 273.652 26.9983 274.287 26.9045C275.094 26.7229 275.937 26.7842 276.71 27.0808C277.483 27.3773 278.15 27.8958 278.629 28.571C279.182 29.429 279.393 30.4628 279.221 31.4689C279.114 32.2065 278.77 32.8891 278.24 33.4131C277.772 33.8656 277.178 34.1658 276.536 34.2742C275.611 34.4703 274.645 34.3187 273.824 33.8483C273.311 33.5596 272.893 33.1287 272.62 32.6077C272.426 32.1818 272.416 31.9225 272.435 29.969ZM242.077 27.3027C241.844 24.5726 240.839 21.9652 239.179 19.7849C238.738 19.2361 238.252 18.7251 237.726 18.2573C237.405 17.9259 237.045 17.6366 236.652 17.3963C236.531 17.3407 236.226 17.1278 235.8 16.8685C235.675 16.7972 235.569 16.6953 235.494 16.5723C235.424 16.3938 235.396 16.2017 235.412 16.0106C235.428 15.8196 235.488 15.6348 235.587 15.4705C235.828 14.9428 237.337 13.4707 237.855 12.119C238.344 10.2516 238.435 8.30239 238.124 6.3974C237.855 4.70312 237.605 3.18476 236.439 1.95341C234.837 0.259137 232.467 0.157296 229.393 -9.50352e-05C227.607 -0.0179906 225.821 0.0934 224.051 0.333204C221.952 0.536887 219.329 0.934994 216.181 1.52753C215.967 1.5689 215.775 1.68443 215.638 1.85378C215.501 2.02314 215.428 2.23545 215.432 2.45336L215.682 42.1159C215.68 42.3434 215.762 42.5635 215.912 42.7343C216.063 42.905 216.27 43.0145 216.496 43.0418C219.465 43.3566 222.051 43.517 224.255 43.5232C226.211 43.5599 228.168 43.4795 230.115 43.2825C231.342 43.2007 232.556 42.9833 233.735 42.6344C236.203 41.7725 238.352 40.1847 239.901 38.0793C242.864 33.9594 242.318 29.358 242.077 27.3027ZM224.292 9.56374C224.3 9.31313 224.386 9.07122 224.536 8.87081C224.687 8.67041 224.896 8.52122 225.134 8.44348C225.829 8.16099 226.581 8.04679 227.328 8.11018C227.862 8.15686 228.357 8.40917 228.708 8.81381C228.971 9.26729 229.088 9.79128 229.041 10.3137C229.042 10.4331 229.023 10.5519 228.986 10.6655C228.817 11.3247 228.539 11.9508 228.162 12.5171C227.76 13.0424 227.244 13.4697 226.653 13.767C226.287 13.9577 225.888 14.0742 225.477 14.1096C225.304 14.1217 225.13 14.0968 224.968 14.0367C224.805 13.9765 224.657 13.8825 224.534 13.7607C224.41 13.639 224.314 13.4924 224.252 13.3307C224.189 13.169 224.162 12.9958 224.171 12.8227L224.292 9.56374ZM231.097 27.8767C230.967 30.0339 230.893 31.1171 230.05 31.9596C229.586 32.3953 229.024 32.7129 228.412 32.8854C227.653 33.0954 226.864 33.1768 226.079 33.1261C225.849 33.1149 225.632 33.0186 225.469 32.8561C225.307 32.6935 225.21 32.4762 225.199 32.2466L224.782 23.3864C224.767 23.1923 224.814 22.9983 224.915 22.8321C225.016 22.6659 225.168 22.5359 225.347 22.4606C226.084 22.117 226.867 21.8831 227.671 21.7662C228.263 21.6697 228.871 21.7337 229.43 21.9513C229.816 22.111 230.14 22.39 230.356 22.7476C230.508 23.0195 230.617 23.3129 230.68 23.6178C230.983 25.0166 231.123 26.4457 231.097 27.8767ZM246.04 19.7294L245.808 24.6455C245.808 24.9788 246.012 25.2658 246.28 25.2473L247.308 25.201C247.379 25.1972 247.45 25.2081 247.517 25.233C247.584 25.2579 247.645 25.2963 247.696 25.3459C247.747 25.3954 247.788 25.4549 247.815 25.5208C247.842 25.5867 247.856 25.6575 247.854 25.7287L247.345 41.8567C247.331 41.9777 247.344 42.1002 247.383 42.2156C247.421 42.331 247.485 42.4365 247.569 42.5248C247.653 42.613 247.755 42.6819 247.868 42.7264C247.981 42.7709 248.103 42.7901 248.224 42.7825L255.076 41.8567C255.273 41.8201 255.451 41.7159 255.579 41.5621C255.708 41.4083 255.778 41.2146 255.779 41.0142L256.992 25.1362C257.003 25.0115 257.059 24.8951 257.149 24.8083C257.239 24.7215 257.358 24.6703 257.483 24.664L258.473 24.6085C258.594 24.5882 258.704 24.5242 258.78 24.4286C258.857 24.333 258.896 24.2125 258.89 24.09L259.168 18.535C259.168 18.1925 258.955 17.8962 258.686 17.924L246.438 19.2201C246.323 19.2474 246.222 19.3126 246.149 19.4051C246.077 19.4976 246.038 19.6119 246.04 19.7294ZM259.177 9.76742C259.176 10.4546 259.073 11.1379 258.872 11.795C258.345 13.4367 257.248 14.8356 255.779 15.739C255.139 16.1109 254.446 16.3825 253.724 16.5445C253.078 16.6744 252.419 16.7272 251.761 16.7019C249.104 16.526 245.364 13.48 245.28 9.94333C245.252 8.98779 245.422 8.03677 245.781 7.15062C246.14 6.26447 246.678 5.46253 247.363 4.79571C247.415 4.74613 247.482 4.71456 247.553 4.70569C247.624 4.69681 247.696 4.7111 247.758 4.74644C247.821 4.78178 247.87 4.83628 247.899 4.90186C247.928 4.96744 247.935 5.0406 247.919 5.11049C247.623 6.14265 247.695 7.24562 248.123 8.23054C248.307 8.62831 248.554 8.99401 248.854 9.31376C248.904 9.36338 248.968 9.39601 249.037 9.407C249.107 9.41798 249.178 9.40676 249.24 9.37493C249.303 9.3431 249.354 9.29229 249.386 9.22976C249.418 9.16723 249.43 9.09618 249.419 9.02675C249.006 7.07204 249.197 5.03817 249.965 3.19402C250.067 2.95331 250.187 2.71259 250.317 2.47187C250.752 1.69365 251.301 0.985196 251.946 0.370237C251.995 0.323321 252.057 0.292711 252.123 0.282678C252.19 0.272646 252.258 0.28369 252.319 0.314272C252.379 0.344853 252.428 0.393445 252.459 0.453269C252.49 0.513093 252.502 0.581165 252.493 0.647986C252.426 1.37171 252.426 2.09997 252.493 2.82369C252.533 3.4793 252.632 4.12997 252.789 4.76793C252.957 5.47356 253.183 6.1641 253.465 6.83254C253.484 6.87477 253.512 6.91254 253.547 6.94355C253.582 6.97456 253.623 6.99815 253.667 7.01289C253.711 7.02762 253.758 7.03318 253.804 7.02923C253.851 7.02528 253.896 7.01191 253.937 6.98993C254.389 6.72684 254.79 6.38508 255.122 5.98077C255.495 5.51471 255.767 4.97532 255.918 4.3976C255.932 4.34512 255.958 4.29678 255.995 4.25679C256.031 4.2168 256.077 4.18636 256.128 4.16811C256.18 4.14987 256.234 4.14437 256.288 4.15209C256.342 4.15981 256.393 4.18053 256.437 4.21243C257.291 4.86406 257.983 5.70465 258.459 6.66838C258.934 7.6321 259.18 8.6928 259.177 9.76742Z" fill="white"/>
<path d="M175.426 105.544L175.13 105.637C175.195 106.979 175.297 108.331 175.334 109.683C175.389 111.673 175.334 111.655 177.343 111.535C178.63 111.47 178.611 111.535 178.38 110.238C178.265 109.286 177.941 108.371 177.431 107.56C176.92 106.748 176.235 106.06 175.426 105.544Z" fill="url(#paint0_linear_514_793)"/>
<path d="M127.459 149.864L122.7 154.928L119.33 158.511C119.136 158.733 118.923 158.946 118.729 159.159C118.35 159.534 117.859 159.775 117.331 159.844C112.701 160.317 108.072 160.724 103.443 161.178C101.675 161.344 99.8971 161.52 98.1381 161.715C97.5826 161.779 97.3604 161.631 97.2122 161.03C95.9809 155.123 94.7217 149.244 93.4534 143.355C93.37 142.994 93.2589 142.633 93.1941 142.356C91.7313 143.985 90.2778 145.596 88.8335 147.225L102.017 130.977L106.498 151.901L125.459 150.049L127.135 149.873L127.459 149.864Z" fill="url(#paint1_linear_514_793)"/>
<path d="M209.182 110.6C208.033 112.979 206.521 115.165 204.701 117.08L203.923 117.895C201.451 120.515 199.007 123.117 196.582 125.737C192.796 129.679 188.133 132.67 182.972 134.467C181.213 135.116 179.426 135.625 177.63 136.162C177.378 136.207 177.149 136.338 176.982 136.532C176.914 136.624 176.866 136.729 176.84 136.841C176.815 136.952 176.813 137.068 176.834 137.18C177.111 140.356 177.371 143.513 177.63 146.67C177.778 148.522 177.926 150.373 178.121 152.271C178.165 152.642 178.114 153.018 177.972 153.364H178.352L169.381 162.844C169.111 163.117 168.753 163.284 168.372 163.316C164.335 163.668 160.298 163.964 156.243 164.288C152.188 164.612 148.198 164.974 143.92 165.335C142.161 142.004 140.402 118.728 138.643 95.5085L138.43 95.4437C137.912 95.9992 137.375 96.5639 136.856 97.1379C133.94 100.443 131.042 103.795 128.098 107.1L119.858 116.358C119.191 117.127 118.525 117.877 117.886 118.654C117.751 118.88 117.711 119.149 117.775 119.404C117.786 119.535 117.808 119.665 117.84 119.793C119.515 125.089 121.191 130.394 122.886 135.671C124.284 140.078 125.663 144.476 127.117 148.873C127.242 149.195 127.264 149.547 127.181 149.883L125.506 150.058L106.545 151.91L102.064 130.986L88.8797 147.207C88.602 147.503 88.3242 147.827 88.0465 148.133C85.0653 151.456 82.0749 154.762 79.0937 158.113L60.179 146.494C60.0864 147.929 59.9846 149.151 59.9198 150.382C59.8087 152.503 59.7439 154.651 59.5772 156.798C59.5543 156.951 59.5234 157.103 59.4846 157.252C59.4455 157.415 59.3897 157.573 59.318 157.724C59.2192 157.994 59.0646 158.24 58.8643 158.446C56.1794 161.409 53.4605 164.338 50.7077 167.233C50.4387 167.499 50.0772 167.652 49.6986 167.658C43.5788 167.807 37.4406 167.918 31.3301 168.066C22.0718 168.276 12.8135 168.504 3.55519 168.751H0.0555496V162.465C0.138874 159.011 0.268491 155.576 0.361074 152.114C0.462915 147.911 0.509207 143.726 0.592531 139.513C0.771525 130.952 0.956692 122.388 1.14803 113.821C1.25913 108.692 1.38875 103.545 1.51836 98.4063C1.6202 93.7772 1.7313 89.2221 1.87944 84.6115C1.91348 84.2291 2.06554 83.8667 2.31458 83.5745C4.92542 80.797 7.527 77.9084 10.2119 75.1587C10.3746 75.0021 10.5624 74.8738 10.7674 74.7791C11.2091 74.5422 11.7013 74.4152 12.2024 74.4088C18.0259 74.344 23.8401 74.4088 29.6544 74.4088H63.5398C64.5489 74.4088 64.7989 74.4088 64.8267 75.0939V75.7142C64.5304 80.5409 64.2156 85.3861 63.8823 90.2498C63.7805 91.7589 63.7157 93.2587 63.5212 94.7863C63.5189 94.9019 63.5034 95.0168 63.4749 95.1289C63.427 95.4901 63.3108 95.8389 63.1324 96.1566C63.0216 96.373 62.8848 96.5751 62.725 96.7584C60.4938 99.2488 58.1977 101.656 55.9665 104.119C55.6896 104.48 55.5254 104.915 55.4943 105.369C55.3184 107.276 55.2165 109.211 55.0869 111.137C54.911 113.368 54.7444 115.608 54.5685 117.84C54.4666 119.358 54.4018 120.904 54.2074 122.469V122.552C54.179 122.7 54.1291 122.844 54.0592 122.978C53.923 123.232 53.7481 123.463 53.5408 123.663C51.1429 126.283 48.7172 128.857 46.31 131.458C46.119 131.677 45.9398 131.906 45.7731 132.144C45.7255 132.199 45.6822 132.258 45.6434 132.32H60.9197C60.6604 136.949 60.429 141.578 60.1697 146.42C60.6419 145.948 60.9382 145.67 61.1974 145.364C63.1509 143.263 65.0581 141.115 67.0579 139.032L69.3077 136.699C73.4091 132.421 77.5568 128.172 81.6768 123.885C81.8442 123.699 82.0018 123.504 82.149 123.302L82.4452 122.996L82.6674 122.783C82.7977 122.572 82.8712 122.331 82.8809 122.082C82.8907 121.834 82.8363 121.588 82.723 121.367C79.9146 112.251 77.1032 103.122 74.2887 93.9809C73.9876 93.1276 73.7311 92.2592 73.5202 91.3793C73.4798 91.1864 73.4821 90.987 73.5269 90.7951C73.5717 90.6032 73.6579 90.4234 73.7794 90.2683C76.3718 87.4352 78.9734 84.6207 81.6583 81.8525C81.8744 81.6255 82.1281 81.4376 82.4082 81.297C82.6949 81.1459 83.0105 81.0576 83.334 81.0378C90.1852 80.7785 97.0085 80.6304 103.86 80.3897C104.674 80.3897 104.98 80.6026 105.128 81.2322L105.452 82.8987C106.304 87.75 107.211 92.6014 108.109 97.4342C108.11 97.4986 108.133 97.5608 108.174 97.6101C108.253 97.7416 108.324 97.8776 108.387 98.0175C108.905 97.2861 109.313 96.6195 109.804 96.0362C111.655 93.7402 113.581 91.4719 115.516 89.2314C116.951 87.5834 118.497 86.0558 119.96 84.4263C120.138 84.2104 120.367 84.0419 120.626 83.9356C120.822 83.8483 121.033 83.8031 121.247 83.8031C121.461 83.8031 121.672 83.8483 121.867 83.9356C126.931 85.6669 132.051 87.3241 137.069 89.0647C137.313 89.1443 137.564 89.2001 137.819 89.2314C138.084 89.2376 138.345 89.1783 138.581 89.0588C138.817 88.9392 139.02 88.7631 139.171 88.5462C141.68 85.7687 144.281 82.9913 146.874 80.2138C147.062 80.0208 147.281 79.8612 147.522 79.7416C147.707 79.636 147.903 79.5492 148.105 79.4824C154.357 77.058 160.845 75.2954 167.464 74.2236C172.318 73.3373 177.254 72.9834 182.185 73.1682C186.465 73.3641 190.688 74.2262 194.702 75.7235C197.831 76.9394 200.728 78.6837 203.266 80.8804C207.783 84.8103 210.617 90.3257 211.182 96.2862C211.756 101.221 211.395 106.026 209.182 110.6Z" fill="url(#paint2_linear_514_793)"/>
<path d="M412.745 126.079C413.864 124.895 414.897 123.633 415.837 122.302C419.698 116.553 421.031 110.062 421.012 103.258C420.963 96.8853 418.525 90.7635 414.18 86.102C409.634 80.9543 403.792 77.8621 397.292 75.9178C391.062 74.0662 384.627 73.594 378.211 73.2329C371.769 72.8533 365.305 73.3359 358.991 74.6679C358.229 74.7849 357.513 75.1047 356.917 75.5938C354.14 78.4268 351.482 81.3617 348.797 84.2873C348.552 84.5845 348.384 84.9374 348.307 85.315C347.594 89.2405 346.89 93.1938 346.224 97.1471C345.622 100.85 345.066 104.507 344.465 108.202C343.844 112.081 343.215 115.988 342.613 119.876C341.928 124.191 341.215 128.486 340.511 132.838C339.863 136.782 339.243 140.735 338.595 144.689C337.947 148.642 337.308 152.586 336.688 156.53C336.299 158.937 335.91 161.316 335.53 163.807L341.474 164.649L351.177 166.001C354.075 166.409 356.973 166.816 359.87 167.177C360.055 167.184 360.24 167.154 360.413 167.088C360.586 167.023 360.745 166.924 360.88 166.797C363.583 163.937 367.49 160.317 370.138 157.391C370.267 156.252 369.666 157.048 369.795 156.465C370.564 152.475 371.277 148.484 372.027 144.429C372.091 144.438 372.156 144.438 372.221 144.429C372.712 146.79 373.212 149.133 373.702 151.493C374.971 157.437 376.239 163.381 377.406 169.353C377.535 169.973 377.776 170.121 378.378 170.056C380.303 169.927 382.238 169.843 384.173 169.732C386.636 169.584 389.127 169.482 391.58 169.325C395.598 169.112 399.607 168.88 403.616 168.621C404.016 168.584 404.393 168.419 404.69 168.149L414.115 158.678L413.235 158.724C413.295 158.41 413.25 158.084 413.106 157.798C412.55 156.595 412.115 155.326 411.624 154.095C409.26 148.04 406.906 141.985 404.56 135.93C404.489 135.755 404.458 135.566 404.469 135.377C404.48 135.188 404.533 135.003 404.625 134.838C407.366 131.857 410.06 128.996 412.745 126.079ZM385.525 114.914C385.525 115.432 385.331 115.627 384.794 115.71C382.467 116.077 380.096 116.055 377.776 115.645C377.563 115.645 377.22 115.201 377.267 115.025C377.841 111.636 378.489 108.266 379.118 104.896C379.175 104.739 379.246 104.587 379.331 104.443C381.391 105.129 383.12 106.559 384.183 108.451C385.264 110.424 385.731 112.674 385.525 114.914Z" fill="url(#paint3_linear_514_793)"/>
<path d="M586.449 127.552C583.515 124.505 581.538 120.665 580.764 116.507C579.292 108.424 580.764 100.953 585.755 94.2866C587.342 92.2714 589.029 90.3371 590.81 88.4909C592.837 86.2781 594.883 84.0932 596.985 81.9638C601.558 77.46 607.352 74.3984 613.65 73.1591C619.446 71.8629 625.232 72.2333 631.028 73.2702C636.188 74.1247 641.206 75.6822 645.943 77.8994C648.72 79.2603 648.72 79.2696 648.119 82.2785C646.739 88.8334 645.341 95.379 643.952 101.925C643.832 102.499 644.943 102.332 644.878 102.85C643.249 104.702 639.675 107.137 638.008 108.933C637.823 109.128 637.666 109.341 637.416 109.646L638.268 110.183C640.974 111.758 643.241 113.988 644.859 116.669C646.477 119.35 647.394 122.395 647.526 125.524C648.283 133.907 645.697 142.249 640.332 148.735C639.027 150.318 637.555 151.781 636.166 153.28C634.185 155.401 632.222 157.539 630.194 159.622C625.866 164.019 620.302 166.993 614.242 168.149C609.819 169.057 605.286 169.307 600.79 168.89C596.305 168.434 591.941 167.164 587.912 165.14C583.764 163.178 579.755 160.937 575.663 158.854C575.485 158.79 575.322 158.69 575.185 158.561C575.047 158.431 574.938 158.275 574.863 158.101C574.788 157.927 574.75 157.74 574.751 157.551C574.751 157.362 574.791 157.175 574.867 157.002C576.552 149.707 578.163 142.402 579.811 135.097C579.914 134.699 580.111 134.33 580.385 134.023C582.135 132.107 583.921 130.209 585.699 128.302C585.968 128.126 586.18 127.866 586.449 127.552Z" fill="url(#paint4_linear_514_793)"/>
<path d="M529.77 146.716C529.77 148.105 529.723 149.493 529.77 150.882C529.789 151.208 529.739 151.534 529.622 151.839C529.506 152.144 529.326 152.421 529.094 152.651C526.384 155.589 523.659 158.511 520.919 161.418C520.671 161.667 520.343 161.821 519.993 161.853C516.428 162.066 512.855 162.233 509.29 162.437C505.726 162.64 501.985 162.881 498.18 163.122C498.125 162.751 498.032 162.381 498.014 162.011C497.816 156.085 497.625 150.16 497.44 144.235C497.199 137.285 496.955 130.335 496.708 123.385C496.532 118.339 496.338 113.284 496.162 108.238C495.986 102.887 495.829 97.5451 495.643 92.1938C495.628 91.8958 495.678 91.5979 495.79 91.3212C495.902 91.0445 496.073 90.7957 496.292 90.5921C498.523 88.2405 500.745 85.8889 502.911 83.4725C503.97 82.2773 505.301 81.3534 506.79 80.7783C512.498 78.5141 518.472 76.9895 524.566 76.2418C529.119 75.5591 533.723 75.2772 538.324 75.3993C546.416 75.8437 553.795 78.1768 559.618 84.2039C563.163 87.8611 565.391 92.5937 565.951 97.6562C566.558 101.943 566.307 106.309 565.21 110.498C564.085 114.153 562.086 117.48 559.387 120.191C558.23 121.432 557.082 122.672 555.878 123.894C555.765 123.975 555.67 124.08 555.6 124.2C555.531 124.321 555.488 124.455 555.475 124.594C555.461 124.733 555.478 124.873 555.524 125.004C555.569 125.136 555.643 125.256 555.739 125.357C559.85 131.745 563.923 138.152 568.034 144.531C568.488 145.225 568.682 144.17 569.58 145.364C566.951 148.142 562.674 151.799 560.053 154.576C559.665 154.978 559.176 155.269 558.637 155.419C551.471 157.27 544.305 159.122 537.148 161.029C536.334 161.242 536.065 161.029 535.778 160.298C534.01 156.067 532.195 151.854 530.399 147.642C530.26 147.318 530.103 147.012 529.955 146.716H529.77ZM529.103 104.23V113.201C529.103 113.692 529.334 113.923 529.834 113.858C530.918 113.729 532.001 113.645 533.066 113.432C533.223 113.364 533.36 113.257 533.463 113.121C533.567 112.985 533.634 112.824 533.658 112.655C533.686 111.203 533.395 109.763 532.805 108.437C532.214 107.11 531.339 105.93 530.242 104.98C529.876 104.709 529.496 104.459 529.103 104.23Z" fill="url(#paint5_linear_514_793)"/>
<path d="M276.24 140.504C275.99 143.355 275.749 146.059 275.49 148.744C275.166 152.308 274.805 155.854 274.481 159.391C274.268 161.539 274.12 163.687 273.879 165.816C273.852 166.003 273.796 166.184 273.713 166.353L274.157 166.307L265.556 175.296C265.232 175.646 264.84 175.926 264.403 176.119C263.967 176.311 263.496 176.413 263.019 176.417C259.316 176.695 255.548 177 251.817 177.296C248.363 177.556 244.882 177.787 241.429 178.046L231.124 178.907C228.458 179.12 225.819 179.296 223.162 179.509C221.227 179.657 219.32 179.833 217.385 179.981H215.413C215.361 179.791 215.34 179.595 215.348 179.398C215.432 174.398 215.561 169.38 215.644 164.353C215.842 154.132 216.036 143.908 216.228 133.68C216.311 128.959 216.459 124.255 216.524 119.534C216.635 112.96 216.672 106.396 216.765 99.8228C216.857 93.2494 216.996 86.5371 217.144 79.8804C217.141 79.0353 217.193 78.191 217.302 77.3529C217.368 76.9735 217.545 76.6222 217.811 76.3437C220.453 73.4304 223.128 70.548 225.838 67.6965C226.011 67.5417 226.216 67.4267 226.438 67.3596C226.661 67.2924 226.895 67.2747 227.125 67.3076C235.605 68.6408 244.08 69.9863 252.548 71.3442L256.733 71.9831C256.622 73.6773 256.52 75.316 256.409 76.927C256.233 79.4545 256.048 81.9913 255.918 84.5188C255.613 90.0738 255.335 95.5732 255.039 101.091C254.844 104.72 254.668 108.331 254.437 111.951C254.224 115.025 253.872 118.071 253.622 121.145C253.381 123.978 253.187 126.811 253.02 129.644C252.798 132.838 252.65 136.041 252.483 139.235C252.418 140.504 252.483 140.55 253.687 140.55C260.769 140.55 267.852 140.55 274.981 140.504H276.24Z" fill="url(#paint6_linear_514_793)"/>
<path d="M487.857 147.55L478.238 157.03C477.959 157.299 477.596 157.466 477.21 157.502C473.451 158.067 469.692 158.576 465.943 159.095C462.693 159.548 459.462 159.974 456.259 160.428C453.055 160.882 449.556 161.354 446.213 161.817L436.446 163.15C435.242 163.326 434.057 163.474 432.743 163.65C432.631 162.641 432.483 161.669 432.4 160.687C432.076 156.984 431.798 153.345 431.474 149.67C431.15 145.994 430.761 142.356 430.446 138.68C430.132 135.005 429.817 131.338 429.521 127.691C429.224 124.043 428.789 120.349 428.465 116.701C428.187 113.72 427.975 110.729 427.697 107.767C427.419 104.804 427.113 101.758 426.836 98.7492C426.558 95.7402 426.493 92.7683 426.021 89.8427C425.678 87.8521 426.428 86.6485 427.715 85.3339C429.928 83.1489 431.965 80.7695 434.131 78.529C434.528 78.1257 435.022 77.8322 435.566 77.6772L442.547 153.771L486.598 147.716L487.857 147.55Z" fill="url(#paint7_linear_514_793)"/>
<path d="M486.931 144.948C487.056 145.889 486.932 146.847 486.57 147.725L442.547 153.771L435.539 77.6768C435.61 77.6509 435.685 77.6353 435.761 77.6305C435.822 77.6231 435.884 77.6231 435.946 77.6305C440.955 77.0287 445.973 76.5195 450.972 75.9362C455.972 75.353 460.999 74.7605 465.998 74.1772C470.507 73.6587 475.016 73.168 479.525 72.6773L483.33 72.2422C483.45 74.3531 483.626 76.3436 483.71 78.3249C483.922 82.4171 484.08 86.5463 484.293 90.6384C484.325 91.1494 484.188 91.6567 483.904 92.0827C483.788 92.3133 483.635 92.523 483.45 92.703C481.312 94.9991 479.136 97.3322 476.969 99.5912C476.664 99.9153 476.405 100.276 475.96 100.813L477.312 100.665C477.83 100.573 478.09 100.665 478.108 101.304C478.284 106.22 478.516 111.136 478.664 116.071C478.657 116.437 478.555 116.794 478.367 117.108C478.298 117.282 478.197 117.442 478.071 117.58C475.664 120.219 473.22 122.811 470.766 125.431C470.553 125.672 470.359 125.922 470.146 126.181C470.168 126.222 470.184 126.265 470.192 126.311C470.198 126.338 470.198 126.367 470.192 126.394L485.626 124.663C485.719 125.709 485.82 126.7 485.867 127.69C486.246 133.421 486.441 139.198 486.931 144.948Z" fill="url(#paint8_linear_514_793)"/>
<path d="M337.465 99.9894C337.326 109.581 334.762 117.414 329.281 124.218C328.244 125.505 327.096 126.718 325.957 127.922C322.93 131.097 320.004 134.403 316.819 137.384C312.524 141.477 307.057 144.125 301.182 144.957C296.661 145.716 292.028 145.46 287.618 144.207C283.208 142.955 279.132 140.738 275.685 137.717C270.172 133.11 266.496 126.677 265.325 119.589C263.528 109.544 266.056 100.517 272.166 92.4439C273.538 90.7138 274.997 89.0545 276.536 87.4722C279.156 84.6947 281.74 81.8153 284.517 79.1397C289.151 74.5706 295.154 71.6441 301.608 70.8072C312.042 69.4925 321.106 72.7237 328.809 79.6859C333.314 83.8336 336.215 89.4354 337.002 95.5084C337.28 97.2952 337.373 99.1098 337.465 99.9894ZM295.599 102.193C295.165 104.623 295.464 107.128 296.46 109.387C298.016 113.025 300.895 114.738 304.793 114.867C305.33 114.867 305.885 114.867 305.867 114.099C305.898 112.602 305.827 111.105 305.654 109.618C305.282 107.313 304.02 105.247 302.139 103.863C300.259 102.48 297.91 101.89 295.599 102.221V102.193Z" fill="url(#paint9_linear_514_793)"/>
<path d="M64.8544 74.3162C64.6261 78.0196 64.4131 81.655 64.2156 85.2225C64.0181 88.7901 63.762 92.4286 63.4472 96.1381L38.5516 97.425L37.9683 104.832H55.4665L54.1704 123.015L36.5796 123.598L35.987 132.162H60.8641C60.6357 136.483 60.3919 140.754 60.1327 144.976C59.8735 149.197 59.6482 153.45 59.4568 157.734L8.84168 158.891L10.6933 74.3162H64.8544ZM88.8797 147.207L102.064 130.959L106.545 151.882L125.506 150.031L127.181 149.855H127.496L117.738 119.432L117.571 118.914L119.821 116.386L128.061 107.128L138.412 95.4715L142.532 90.8423L137.81 89.2684L120.876 83.6023L120.617 83.9727L108.767 100.823L108.165 97.6472L105.443 82.9357L105.119 81.2692L104.943 80.3434L82.3156 81.047L82.4082 81.3526L92.1942 112.951L82.6674 122.793L82.4452 123.006L82.149 123.311L69.1873 136.643L69.2706 136.708L88.0095 148.133L88.8797 147.207ZM211.589 97.6564C211.906 100.812 211.633 103.998 210.784 107.054C210.018 109.73 208.762 112.242 207.081 114.46C205.401 116.646 203.385 118.553 201.109 120.108C198.736 121.728 196.198 123.091 193.536 124.172C190.779 125.293 187.933 126.179 185.027 126.82C182.146 127.466 179.227 127.93 176.287 128.209L178.343 153.336L153.188 155.391C152.515 147.164 151.861 138.967 151.225 130.801C150.589 122.635 149.972 114.399 149.374 106.091C149.083 101.702 148.744 97.317 148.355 92.9347C147.966 88.5524 147.689 84.1146 147.522 79.6213C151.943 77.9179 156.479 76.5257 161.095 75.455C165.756 74.3808 170.491 73.6505 175.26 73.2701C178.033 73.0452 180.819 73.0452 183.592 73.2701C186.349 73.4818 189.076 73.9783 191.73 74.7514C194.307 75.4902 196.792 76.5182 199.137 77.8159C203.742 80.3448 207.388 84.3166 209.515 89.1203C210.693 91.8251 211.395 94.7129 211.589 97.6564ZM187.777 101.443C187.749 100.427 187.505 99.4289 187.059 98.5155C186.613 97.602 185.978 96.7945 185.194 96.1473C183.564 94.9229 181.523 94.3786 179.5 94.629C178.714 94.7011 177.935 94.8279 177.167 95.0086C176.371 95.203 175.621 95.4159 174.908 95.6566L175.556 111.451C176.043 111.489 176.532 111.489 177.019 111.451L178.482 111.331C179.76 111.24 181.014 110.926 182.185 110.405C183.327 109.895 184.363 109.176 185.24 108.285C186.105 107.413 186.788 106.378 187.249 105.239C187.731 104.035 187.912 102.732 187.777 101.443ZM276.62 140.272L274.157 166.316L224.718 170.186C224.952 156.539 225.215 142.96 225.505 129.449C225.801 115.96 226.162 80.76 226.597 67.1133L257.149 71.9369C256.224 80.5008 255.39 105.859 254.566 114.405C253.742 122.95 253.159 131.56 252.807 140.235C254.659 140.319 256.511 140.356 258.27 140.356H263.732C265.917 140.356 268.074 140.356 270.213 140.3C272.352 140.245 274.425 140.272 276.62 140.272ZM337.002 109.09C336.39 111.977 335.42 114.776 334.114 117.423C332.864 119.955 331.31 122.324 329.485 124.478C327.687 126.576 325.634 128.442 323.374 130.033C321.122 131.617 318.664 132.888 316.069 133.81C311.973 135.219 307.632 135.775 303.313 135.446C298.993 135.116 294.787 133.907 290.952 131.894C288.51 130.604 286.244 129.004 284.212 127.135C282.21 125.302 280.464 123.21 279.018 120.913C277.573 118.619 276.436 116.144 275.638 113.553C274.82 110.918 274.338 108.19 274.203 105.433C274.06 102.562 274.302 99.685 274.925 96.8787C276.709 88.5367 281.547 81.1629 288.489 76.2049C290.727 74.6064 293.164 73.3055 295.738 72.335C298.331 71.3674 301.044 70.76 303.802 70.5296C306.68 70.3001 309.576 70.503 312.394 71.1314C316.79 72.0359 320.986 73.7264 324.781 76.1216C328.209 78.2677 331.128 81.1343 333.336 84.5221C335.544 87.91 336.988 91.7379 337.567 95.74C338.225 100.186 338.034 104.716 337.002 109.09ZM315.125 105.646C315.429 104.27 315.523 102.856 315.403 101.452C315.298 100.107 314.956 98.7906 314.394 97.5639C313.834 96.3752 313.033 95.3158 312.042 94.4531C310.967 93.5257 309.673 92.8884 308.283 92.6014C306.882 92.2666 305.425 92.2445 304.015 92.5366C302.724 92.8091 301.503 93.3484 300.432 94.1198C299.344 94.9038 298.424 95.8987 297.729 97.0454C296.981 98.2466 296.449 99.5686 296.155 100.952C295.857 102.335 295.754 103.753 295.849 105.165C295.926 106.565 296.239 107.943 296.775 109.239C297.301 110.491 298.087 111.618 299.08 112.544C300.155 113.493 301.467 114.133 302.876 114.395C304.291 114.734 305.766 114.734 307.181 114.395C308.499 114.078 309.734 113.481 310.801 112.646C311.887 111.783 312.809 110.732 313.523 109.544C314.269 108.34 314.816 107.024 315.144 105.646H315.125ZM421.41 108.378C421.049 111.141 420.401 113.859 419.475 116.488C418.654 118.784 417.503 120.948 416.059 122.913C414.602 124.854 412.864 126.567 410.902 127.996C408.667 129.608 406.268 130.98 403.746 132.088L414.143 158.65L387.294 160.113L381.794 134.116L374.554 133.347L370.101 157.391L345.103 153.901C346.492 145.118 347.903 136.344 349.334 127.579C350.766 118.815 352.211 110.053 353.667 101.295C354.365 96.851 355.059 92.4471 355.75 88.0833C356.442 83.7196 357.213 79.3281 358.065 74.9088C360.815 74.2943 363.597 73.8337 366.398 73.5293C369.107 73.242 371.83 73.0967 374.554 73.0941C377.258 73.0941 379.989 73.2238 382.738 73.4645C385.488 73.7052 388.293 74.0385 391.173 74.4366C395.517 75.0294 399.752 76.2488 403.746 78.0566C407.545 79.7464 410.998 82.1259 413.93 85.0744C416.77 87.9638 418.944 91.4398 420.299 95.2585C421.74 99.4743 422.121 103.98 421.41 108.378ZM395.098 106.609C395.33 105.092 395.314 103.548 395.052 102.036C394.82 100.686 394.316 99.3977 393.571 98.249C392.811 97.1167 391.808 96.1679 390.636 95.4715C389.269 94.6832 387.758 94.1794 386.192 93.9901C385.433 93.8899 384.67 93.8343 383.905 93.8235C383.165 93.8148 382.426 93.8581 381.692 93.9531L377.739 115.432L379.137 115.627C380.853 115.861 382.591 115.885 384.312 115.701C386.016 115.535 387.68 115.088 389.238 114.377C390.724 113.686 392.04 112.674 393.089 111.414C394.205 110.038 394.902 108.37 395.098 106.609ZM487.144 136.023C486.931 132.199 486.718 128.329 486.478 124.45L477.219 125.496L470.202 126.292L464.147 126.977L463.804 119.228L478.377 117.09L479.553 116.914L478.849 100.452L475.997 100.767L463.138 102.249L462.925 95.5548L483.913 92.0366L485.135 91.8422C485.033 88.5185 484.876 85.2318 484.709 81.9914C484.543 78.751 484.321 75.4458 484.154 72.1128L483.339 72.1961L479.534 72.6312L450.972 75.9179L435.761 77.6585H435.539L442.547 153.771L486.598 147.716L487.885 147.549C487.579 143.707 487.357 139.865 487.144 136.023ZM567.145 99.8877C567.312 102.378 567.219 104.879 566.868 107.35C566.56 109.51 565.936 111.612 565.016 113.59C564.077 115.551 562.851 117.361 561.377 118.96C559.702 120.769 557.84 122.395 555.822 123.811L569.58 145.355L546.24 151.318L536.852 129.44L530.371 130.023L530.695 151.901L508.114 153.216C507.831 145.235 507.522 137.288 507.189 129.375C506.855 121.463 506.578 113.513 506.355 105.526C506.189 101.496 506.028 97.5052 505.874 93.555C505.72 89.6048 505.627 85.5929 505.596 81.5192C507.916 80.4992 510.29 79.606 512.707 78.8436C515.037 78.1171 517.404 77.5145 519.798 77.0382C522.181 76.5629 524.6 76.1957 527.057 75.9364C529.513 75.6772 532.038 75.4674 534.63 75.3069C538.552 75.068 542.487 75.3985 546.314 76.2883C549.951 77.104 553.404 78.589 556.498 80.6674C559.509 82.7067 562.037 85.3801 563.905 88.5C565.903 91.9725 567.016 95.8834 567.145 99.8877ZM543.713 102.934C543.651 101.56 543.367 100.206 542.87 98.9248C542.431 97.7807 541.763 96.738 540.907 95.8603C540.044 94.9958 538.996 94.3375 537.843 93.9346C536.506 93.4712 535.087 93.2914 533.677 93.4069C532.99 93.4508 532.307 93.5343 531.631 93.6569C530.981 93.7829 530.341 93.953 529.714 94.1661L530.01 113.729L531.269 113.655C532.82 113.561 534.352 113.278 535.834 112.812C537.303 112.373 538.687 111.687 539.926 110.785C541.11 109.918 542.09 108.803 542.796 107.517C543.533 106.108 543.851 104.517 543.713 102.934ZM648.656 131.088C648.212 135.897 646.724 140.551 644.295 144.726C642.116 148.374 639.133 151.477 635.574 153.799C631.938 156.111 627.883 157.684 623.64 158.428C618.992 159.264 614.246 159.401 609.558 158.835C607.45 158.566 605.376 158.073 603.373 157.363C601.151 156.595 598.92 155.706 596.67 154.678C594.42 153.651 592.272 152.586 590.189 151.466C588.106 150.345 586.31 149.309 584.727 148.336L590.032 124.626C593.225 127.047 596.756 128.988 600.512 130.385C604.28 131.852 608.218 132.839 612.233 133.319C612.974 133.4 613.872 133.474 614.927 133.542C615.953 133.602 616.982 133.54 617.992 133.356C618.912 133.199 619.786 132.846 620.557 132.32C620.933 132.04 621.243 131.681 621.465 131.268C621.688 130.855 621.817 130.399 621.843 129.931C621.937 129.232 621.762 128.524 621.353 127.95C620.912 127.344 620.347 126.839 619.696 126.468C618.932 126.023 618.118 125.672 617.27 125.422C616.35 125.144 615.452 124.913 614.576 124.728C613.65 124.552 612.854 124.422 612.076 124.33L610.224 124.117C607.091 123.807 604.054 122.862 601.299 121.339C598.768 119.923 596.56 117.993 594.818 115.673C593.072 113.302 591.814 110.608 591.115 107.748C590.342 104.65 590.147 101.436 590.541 98.2675C590.952 93.9797 592.384 89.8526 594.717 86.2317C596.922 82.8668 599.804 79.9977 603.179 77.8066C606.637 75.5892 610.471 74.0205 614.492 73.1775C618.647 72.2691 622.924 72.0564 627.149 72.5479C629.056 72.7609 631.018 73.0571 633.018 73.4274C635.029 73.7902 637.02 74.2599 638.981 74.8347C640.89 75.4093 642.768 76.0798 644.61 76.8438C646.413 77.5819 648.15 78.4708 649.804 79.5009L644.887 102.906C642.269 101.682 639.579 100.619 636.833 99.721C634.108 98.8159 631.297 98.1954 628.445 97.8694L626.491 97.675C625.695 97.6101 624.852 97.5639 623.964 97.5639C623.061 97.5647 622.158 97.611 621.26 97.7027C620.417 97.7789 619.584 97.9497 618.779 98.2119C618.083 98.4354 617.448 98.8191 616.927 99.3322C616.419 99.8771 616.13 100.591 616.116 101.336C616.102 102.082 616.365 102.806 616.853 103.369C617.469 104.017 618.218 104.526 619.047 104.859C620.043 105.266 621.075 105.576 622.13 105.785C623.26 106.026 624.39 106.23 625.519 106.369C626.649 106.507 627.685 106.646 628.667 106.73C629.467 106.795 630.262 106.916 631.046 107.091C633.927 107.563 636.698 108.557 639.221 110.026C641.49 111.359 643.469 113.131 645.045 115.238C646.589 117.367 647.679 119.79 648.248 122.358C648.883 125.223 649.02 128.176 648.656 131.088Z" fill="white"/>
</g>
<defs>
<linearGradient id="paint0_linear_514_793" x1="176.787" y1="105.702" x2="176.834" y2="110.461" gradientUnits="userSpaceOnUse">
<stop stop-color="#964091"/>
<stop offset="1" stop-color="#6A3A85"/>
</linearGradient>
<linearGradient id="paint1_linear_514_793" x1="107.97" y1="130.912" x2="108.294" y2="161.622" gradientUnits="userSpaceOnUse">
<stop stop-color="#964091"/>
<stop offset="1" stop-color="#6A3A85"/>
</linearGradient>
<linearGradient id="paint2_linear_514_793" x1="105.082" y1="73.4367" x2="106.072" y2="167.677" gradientUnits="userSpaceOnUse">
<stop stop-color="#964091"/>
<stop offset="1" stop-color="#6A3A85"/>
</linearGradient>
<linearGradient id="paint3_linear_514_793" x1="377.619" y1="73.0755" x2="378.637" y2="170.028" gradientUnits="userSpaceOnUse">
<stop stop-color="#964091"/>
<stop offset="1" stop-color="#6A3A85"/>
</linearGradient>
<linearGradient id="paint4_linear_514_793" x1="611.122" y1="71.1223" x2="611.9" y2="145.198" gradientUnits="userSpaceOnUse">
<stop stop-color="#964091"/>
<stop offset="1" stop-color="#6A3A85"/>
</linearGradient>
<linearGradient id="paint5_linear_514_793" x1="532.14" y1="71.9552" x2="532.917" y2="146.031" gradientUnits="userSpaceOnUse">
<stop stop-color="#964091"/>
<stop offset="1" stop-color="#6A3A85"/>
</linearGradient>
<linearGradient id="paint6_linear_514_793" x1="244.817" y1="67.1039" x2="246.002" y2="179.694" gradientUnits="userSpaceOnUse">
<stop stop-color="#964091"/>
<stop offset="1" stop-color="#6A3A85"/>
</linearGradient>
<linearGradient id="paint7_linear_514_793" x1="456.453" y1="77.455" x2="457.36" y2="163.391" gradientUnits="userSpaceOnUse">
<stop stop-color="#964091"/>
<stop offset="1" stop-color="#6A3A85"/>
</linearGradient>
<linearGradient id="paint8_linear_514_793" x1="460.841" y1="72.6773" x2="461.545" y2="138.782" gradientUnits="userSpaceOnUse">
<stop stop-color="#964091"/>
<stop offset="1" stop-color="#6A3A85"/>
</linearGradient>
<linearGradient id="paint9_linear_514_793" x1="300.775" y1="74.3902" x2="301.552" y2="148.466" gradientUnits="userSpaceOnUse">
<stop stop-color="#964091"/>
<stop offset="1" stop-color="#6A3A85"/>
</linearGradient>
<clipPath id="clip0_514_793">
<rect width="649.804" height="180" fill="white"/>
</clipPath>
</defs>
</svg>
