<?xml version="1.0" encoding="UTF-8"?>
<svg id="Layer_2" data-name="Layer 2" xmlns="http://www.w3.org/2000/svg" viewBox="0 0 170.56 160.28">
  <defs>
    <style>
      .cls-1 {
        fill: #c4d713;
      }

      .cls-1, .cls-2, .cls-3, .cls-4, .cls-5, .cls-6, .cls-7 {
        fill-rule: evenodd;
      }

      .cls-2 {
        fill: #d48b18;
      }

      .cls-3 {
        fill: #7e4003;
      }

      .cls-8 {
        fill: #5e680a;
      }

      .cls-4 {
        fill: #22360d;
      }

      .cls-5 {
        fill: #f9ca56;
      }

      .cls-6, .cls-9 {
        fill: #3d1b11;
      }

      .cls-7 {
        fill: #2f4a12;
      }
    </style>
  </defs>
  <g id="Layer_1-2" data-name="Layer 1">
    <g>
      <path class="cls-3" d="m14.7,2.76l4.2,7.4,14.63-.92-1.52-2.44c-1.24-2.01-3.21-3.2-5.59-3.33l-11.72-.7Z"/>
      <path class="cls-2" d="m17.22,4.34l2.48,4.37,11.37-.72-.27-.44c-1-1.62-2.56-2.56-4.47-2.68l-9.11-.54Z"/>
      <path class="cls-9" d="m15.7,3.38l3.52,6.19,13.32-.84-1-1.64c-.59-.94-1.32-1.67-2.19-2.19-.87-.5-1.87-.82-2.96-.87l-10.68-.65Zm2.71,7.06L13.69,2.13l12.76.77c1.27.08,2.44.44,3.48,1.04,1.02.62,1.89,1.47,2.56,2.56l2.03,3.25-15.94,1.02-.17-.32Z"/>
      <path class="cls-3" d="m155.81,2.76l-4.2,7.4-14.63-.92,1.52-2.44c1.24-2.01,3.21-3.2,5.59-3.33l11.72-.7Z"/>
      <path class="cls-2" d="m153.28,4.34l-9.11.54c-1.91.12-3.46,1.05-4.47,2.68l-.27.44,11.37.72,2.48-4.37Z"/>
      <path class="cls-9" d="m156.29,3.03l-4.37,7.73-15.94-1.02,2.03-3.25c.67-1.09,1.54-1.94,2.56-2.54,1.04-.62,2.21-.97,3.48-1.05l12.76-.77-.52.9Zm-5,6.55l3.52-6.19-10.68.65c-1.09.05-2.09.37-2.96.87-.87.52-1.61,1.26-2.19,2.19l-1,1.64,13.32.84Z"/>
      <path class="cls-3" d="m17.31,13.58h19.3c3.95,0,7.48-2.01,9.49-5.41l.77-1.29h76.77l.77,1.29c2.01,3.4,5.54,5.41,9.49,5.41h19.3l.25,2.19h5.5l-.78-6.17c-.89-1.47-2.36-2.33-4.07-2.33h-20.2c-1.72,0-3.2-.84-4.07-2.31l-1.22-2.06c-.89-1.49-2.36-2.33-4.07-2.33H45.97c-1.71,0-3.18.84-4.07,2.33l-1.22,2.06c-.87,1.47-2.34,2.31-4.07,2.31h-20.2c-1.71,0-3.18.85-4.07,2.33l-.78,6.17h5.5l.25-2.19Z"/>
      <path class="cls-2" d="m16.5,12.17h20.1c3.45,0,6.51-1.76,8.27-4.72l1.19-1.99h78.37l1.19,1.99c1.76,2.96,4.82,4.72,8.27,4.72h20.1l.45,3.59h3.18l-.69-5.45c-.15-1.21-1.64-1.62-2.85-1.62h-20.2c-2.23,0-4.15-1.1-5.29-3.01l-1.22-2.06c-.62-1.05-1.64-1.62-2.85-1.62H45.97c-1.21,0-2.23.57-2.85,1.62l-1.22,2.06c-1.14,1.91-3.06,3.01-5.29,3.01h-20.2c-1.21,0-2.7.42-2.85,1.62l-.69,5.45h3.18l.45-3.59Z"/>
      <path class="cls-5" d="m15.7,10.75h20.91c2.95,0,5.56-1.49,7.06-4.02l1.59-2.68h79.98l1.59,2.68c1.51,2.53,4.12,4.02,7.06,4.02h20.91l.68,5.02h.84l-.6-4.73c-.08-.7-.92-.92-1.62-.92h-20.2c-2.73,0-5.12-1.37-6.51-3.72l-1.22-2.06c-.37-.62-.92-.94-1.62-.94H45.97c-.7,0-1.26.32-1.62.94l-1.22,2.06c-1.39,2.34-3.78,3.72-6.51,3.72h-20.2c-.7,0-1.54.22-1.62.92l-.6,4.73h.84l.68-5.02Z"/>
      <path class="cls-9" d="m12.82,9.88c.4-.65.9-1.15,1.52-1.51.6-.35,1.31-.54,2.06-.54h20.2c.95,0,1.86-.23,2.63-.67.79-.45,1.44-1.09,1.92-1.92l1.24-2.06c.39-.65.9-1.17,1.51-1.51.6-.35,1.31-.54,2.06-.54h78.57c.75,0,1.46.18,2.06.54.6.33,1.12.85,1.51,1.51l1.24,2.06c.49.84,1.14,1.47,1.92,1.92.77.44,1.67.67,2.63.67h20.2c.75,0,1.46.18,2.06.54.62.35,1.12.85,1.52,1.51l.74,5.89h1.04l-.81-6.46c-.49-.84-1.16-1.47-1.93-1.93-.79-.44-1.67-.67-2.63-.67h-20.2c-.77,0-1.47-.18-2.08-.54s-1.12-.85-1.51-1.51l-1.22-2.08c-.5-.82-1.15-1.47-1.93-1.91-.79-.45-1.67-.69-2.63-.69H45.97c-.95,0-1.84.23-2.63.69-.77.44-1.42,1.09-1.93,1.91l-1.22,2.08c-.39.65-.9,1.15-1.51,1.51s-1.31.54-2.08.54h-20.2c-.95,0-1.84.23-2.63.67-.77.45-1.44,1.09-1.92,1.93l-.81,6.46h1.04l.74-5.89Z"/>
      <path class="cls-9" d="m17.63,14.14h18.98c2.08,0,4.03-.54,5.76-1.51,1.71-.97,3.16-2.39,4.22-4.18l.6-1h76.13l.6,1c1.05,1.79,2.51,3.21,4.22,4.18,1.72.97,3.68,1.51,5.76,1.51h18.98l.18,1.62h.78l-.32-2.76h-19.62c-1.87,0-3.65-.47-5.19-1.36-1.56-.87-2.86-2.16-3.82-3.77l-.94-1.57H46.55l-.94,1.57c-.95,1.61-2.26,2.9-3.82,3.77-1.54.89-3.31,1.36-5.19,1.36h-19.62l-.33,2.76h.79l.18-1.62Z"/>
    </g>
    <g>
      <path class="cls-3" d="m34.43,160.28h-7.42c-1.24,0-2.29-.84-2.93-2.31l-4.74-11.11h5.27l3.03,7.11h6.78v6.31Z"/>
      <path class="cls-5" d="m32.31,158.15v-2.06h-6.06l-3.03-7.11h-.65l3.48,8.15c.15.33.5,1.02.97,1.02h5.29Z"/>
      <path class="cls-6" d="m34.43,160.28h-7.42c-1.24,0-2.29-.84-2.93-2.31l-4.74-11.11h5.27l3.03,7.11h6.78v6.31Zm-7.42-1.14h6.29v-4.03h-6.39l-3.05-7.11h-2.8l4.05,9.52c.23.57.55.99.9,1.27.28.23.62.35.99.35h0Z"/>
      <path class="cls-3" d="m136.07,160.28h7.42c1.24,0,2.29-.84,2.93-2.31l4.74-11.11h-5.27l-3.03,7.11h-6.78v6.31Z"/>
      <path class="cls-5" d="m138.2,158.15h5.29c.47,0,.82-.69.97-1.02l3.48-8.15h-.65l-3.03,7.11h-6.06v2.06Z"/>
      <path class="cls-6" d="m137.2,159.14h6.29c.37,0,.7-.12.99-.35.35-.28.67-.7.9-1.27l4.05-9.52h-2.8l-3.05,7.11h-6.39v4.03Zm-1.12,1.14h7.42c1.24,0,2.29-.84,2.93-2.31l4.74-11.11h-5.27l-3.03,7.11h-6.78v6.31Z"/>
      <path class="cls-3" d="m153.72,139.42l-.53,4.57-22.25,1.67c-4.29.32-6.76,2.31-9.09,6.33H48.64c-2.33-4.02-4.8-6.01-9.09-6.33l-22.25-1.67-.53-4.57h-5.7l1.25,10.15c.22,1.71,2.36,2.31,4.07,2.31h19.87c1.71,0,3.18.85,4.07,2.33l1.56,2.64c.89,1.47,2.36,2.31,4.07,2.31h78.57c1.71,0,3.18-.84,4.07-2.31l1.56-2.64c.89-1.47,2.36-2.33,4.07-2.33h19.87c1.71,0,3.85-.6,4.07-2.31l1.25-10.15h-5.7Z"/>
      <path class="cls-2" d="m154.73,139.42l-.75,5.94-22.93,1.71c-3.98.3-6.01,2.24-7.97,5.62l-.4.7H47.82l-.4-.7c-1.96-3.38-3.98-5.32-7.98-5.62l-22.92-1.71-.75-5.94h-3.38l1.16,9.43c.15,1.21,1.64,1.62,2.85,1.62h19.87c2.21,0,4.15,1.1,5.27,3.01l1.57,2.64c.62,1.04,1.64,1.62,2.85,1.62h78.57c1.21,0,2.23-.59,2.85-1.62l1.57-2.64c1.12-1.91,3.06-3.01,5.27-3.01h19.87c1.21,0,2.69-.42,2.85-1.62l1.16-9.43h-3.38Z"/>
      <path class="cls-5" d="m155.77,139.42l-1,7.3-23.6,1.77c-3.52.25-5.14,1.94-6.85,4.9l-.82,1.42H47l-.82-1.42c-1.71-2.96-3.33-4.65-6.85-4.9l-23.6-1.77-1-7.3h-1.03l1.07,8.71c.08.7.92.92,1.62.92h19.87c2.71,0,5.11,1.37,6.49,3.7l1.57,2.66c.37.6.92.92,1.62.92h78.57c.7,0,1.26-.32,1.62-.92l1.57-2.66c1.39-2.33,3.78-3.7,6.49-3.7h19.87c.7,0,1.54-.22,1.62-.92l1.07-8.71h-1.03Z"/>
      <path class="cls-9" d="m153.33,139.42l-.45,4.04-21.96,1.64c-2.26.17-4.03.79-5.57,1.89-1.46,1.04-2.66,2.49-3.8,4.44H48.96c-1.14-1.94-2.34-3.4-3.8-4.44-1.54-1.1-3.31-1.72-5.57-1.89l-21.96-1.64-.45-4.04h-.8l.61,5.12,22.51,1.69c2.04.15,3.65.69,5.01,1.66,1.37.99,2.53,2.44,3.65,4.39l.17.28h73.85l.17-.28c1.12-1.94,2.28-3.4,3.65-4.39,1.36-.97,2.96-1.51,5.01-1.66l22.51-1.69.6-5.12h-.79Z"/>
      <path class="cls-9" d="m158.9,139.42l-1.22,9.86c-.4.65-.9,1.16-1.52,1.51-.6.35-1.31.54-2.06.54h-19.87c-.95,0-1.84.23-2.63.67-.77.45-1.44,1.09-1.92,1.92l-1.57,2.64c-.39.65-.9,1.15-1.51,1.51-.6.35-1.31.52-2.06.52H45.97c-.75,0-1.46-.17-2.06-.52-.6-.35-1.12-.85-1.51-1.51l-1.57-2.64c-.49-.84-1.16-1.47-1.92-1.92-.79-.44-1.67-.67-2.63-.67h-19.87c-.75,0-1.46-.18-2.06-.54-.62-.35-1.12-.85-1.52-1.51l-1.22-9.86h-1.04l1.29,10.43c.49.82,1.16,1.47,1.92,1.92.79.44,1.67.67,2.63.67h19.87c.75,0,1.46.18,2.06.54.62.35,1.12.85,1.52,1.51l1.56,2.64c.5.82,1.16,1.47,1.93,1.93.79.44,1.67.67,2.63.67h78.57c.95,0,1.84-.23,2.63-.67.77-.45,1.42-1.1,1.93-1.93l1.56-2.64c.4-.65.9-1.15,1.52-1.51.6-.35,1.31-.54,2.06-.54h19.87c.95,0,1.84-.23,2.63-.67.77-.45,1.44-1.1,1.93-1.92l1.28-10.43h-1.04Z"/>
      <path class="cls-3" d="m86.44,144.28h33.76c3.16,0,5.42,2.03,6.43,4.39.62,1.47,3.21,5.31,4.44,5.31h7.1v6.31h-7.1c-4.32,0-7.62-6.8-9.16-10.16-.22-.45-.65-.74-1.17-.74H49.77c-.52,0-.95.28-1.17.74-1.54,3.36-4.84,10.16-9.16,10.16h-7.1v-6.31h7.1c1.22,0,3.82-3.83,4.44-5.31,1-2.36,3.26-4.39,6.41-4.39h36.16Z"/>
      <path class="cls-5" d="m30.67,156.09v2.06h8.77c3.03,0,6.16-6.61,7.23-8.92.57-1.21,1.76-1.98,3.1-1.98h70.97c1.34,0,2.53.77,3.1,1.98,1.07,2.31,4.2,8.92,7.23,8.92h8.5v-2.06h-8.5c-1.87,0-3.48-2.01-4.49-3.4-.69-.94-1.46-2.13-1.91-3.2-.79-1.84-2.43-3.1-4.47-3.1H50.28c-2.03,0-3.67,1.26-4.45,3.1-.45,1.07-1.22,2.26-1.91,3.2-1,1.39-2.61,3.4-4.49,3.4h-8.77Z"/>
      <path class="cls-6" d="m86.44,144.28h33.76c3.16,0,5.42,2.03,6.43,4.39.62,1.47,3.21,5.31,4.44,5.31h8.96v1.14h-8.96c-.9,0-1.94-.85-2.9-1.99-1.09-1.31-2.19-3.08-2.58-4.02-.45-1.05-1.21-2.04-2.21-2.73-.87-.59-1.94-.95-3.18-.95H50.28c-1.22,0-2.29.37-3.16.95-1,.69-1.76,1.67-2.21,2.73-.38.94-1.49,2.71-2.58,4.02-.95,1.14-1.99,1.99-2.9,1.99h-7.78v-1.14h7.78c1.22,0,3.82-3.83,4.44-5.31,1-2.36,3.26-4.39,6.41-4.39h36.16Zm53.58,14.86v1.14h-8.96c-4.32,0-7.62-6.8-9.16-10.16-.22-.45-.65-.74-1.17-.74H49.77c-.52,0-.95.28-1.17.74-1.54,3.36-4.84,10.16-9.16,10.16h-7.78v-1.14h7.78c1.72,0,3.35-1.49,4.7-3.35,1.49-2.03,2.68-4.5,3.43-6.14.2-.42.5-.77.89-1.02.38-.23.84-.37,1.31-.37h70.97c.47,0,.92.13,1.31.37.38.25.69.6.89,1.02.75,1.64,1.94,4.12,3.43,6.14,1.36,1.86,2.98,3.35,4.7,3.35h8.96Z"/>
    </g>
    <g>
      <path class="cls-3" d="m9.83,78.91l7.23-63.15h-5.5l-7.64,60.72c-.22,1.77-.22,3.06,0,4.84l7.17,58.1h5.7l-6.96-60.51Z"/>
      <path class="cls-2" d="m8.15,78.96l7.9-63.2h-3.18l-7.73,61.46c-.15,1.24-.15,2.13,0,3.36l7.26,58.84h3.38l-7.62-60.46Z"/>
      <path class="cls-5" d="m6.48,79.01L15.02,15.76h-.84l-7.82,62.18c-.08.74-.08,1.19,0,1.92l7.35,59.56h1.03l-8.26-60.41Z"/>
      <polygon class="cls-9" points="10.5 78.88 17.45 15.76 16.66 15.76 9.16 78.93 16.38 139.42 17.18 139.42 10.5 78.88"/>
      <polygon class="cls-9" points="4.47 81.6 4.47 76.2 4.49 76.2 12.08 15.76 11.04 15.76 3.43 76.2 3.43 81.6 10.56 139.42 11.61 139.42 4.47 81.6"/>
      <polygon class="cls-2" points="5.99 65.33 12.42 68.95 12.42 81.94 5.99 85.59 .55 81.94 .55 68.95 5.99 65.33"/>
      <polygon class="cls-3" points=".55 68.95 2.09 69.85 2.09 81.12 6.04 83.6 10.86 81.1 12.42 81.94 5.99 85.59 .55 81.94 .55 68.95"/>
      <polygon class="cls-5" points="6.01 65.99 6.04 67.31 10.56 69.74 10.86 81.1 12.42 81.94 12.42 68.95 6.21 65.45 6.01 65.99"/>
      <path class="cls-9" d="m6.28,64.83l6.71,3.78v13.64l-7.01,3.98-5.98-4v-13.59l5.98-3.98.3.17Zm5.57,4.45l-5.84-3.3-4.89,3.26v12.39l4.89,3.28,5.84-3.31v-12.32Z"/>
      <polygon class="cls-7" points="6.11 68.65 3.4 70.47 3.4 80.42 6.11 82.26 8.84 80.42 8.84 70.47 6.11 68.65"/>
      <polygon class="cls-1" points="6.11 68.65 6.04 70.84 7.16 71.58 7.21 79.34 8.84 80.42 8.84 70.47 6.21 68.71 6.11 68.65"/>
      <polygon class="cls-4" points="3.4 70.47 5.02 71.71 5.04 79.39 6.04 80.1 7.21 79.34 8.84 80.42 6.11 82.26 3.4 80.42 3.4 70.47"/>
      <path class="cls-6" d="m3.11,70.32l-.37,10.4,3.36,2.28,3.28-2.31-.27-10.36-3.01-2.01-3,2.01Zm3-1.32l2.44,1.62v9.64l-2.44,1.64-2.43-1.64v-9.64l2.43-1.62Z"/>
      <polygon class="cls-8" points="7.11 79.73 6.23 80.57 4.79 79.65 4.85 71.59 5.02 71.71 5.36 79.34 6.18 79.86 7.06 79.44 7.11 79.73"/>
    </g>
    <g>
      <path class="cls-3" d="m166.59,81.32c.22-1.77.22-3.06,0-4.84l-7.64-60.72h-5.5l7.23,63.15-6.96,60.51h5.7l7.17-58.1Z"/>
      <path class="cls-2" d="m165.37,80.58c.15-1.24.15-2.13,0-3.36l-7.73-61.46h-3.18l7.9,63.2-7.62,60.46h3.38l7.26-58.84Z"/>
      <path class="cls-5" d="m164.15,79.86c.08-.74.08-1.19,0-1.92l-7.82-62.18h-.84l8.55,63.25-8.26,60.41h1.03l7.35-59.56Z"/>
      <polygon class="cls-9" points="161.17 78.93 153.84 15.76 153.06 15.76 160.01 78.88 153.33 139.42 154.11 139.42 161.17 78.93"/>
      <polygon class="cls-9" points="167.04 81.77 167.04 76.03 159.47 15.76 158.42 15.76 165.99 76.03 165.99 81.77 166 81.77 158.9 139.42 159.94 139.42 167.04 81.77"/>
      <polygon class="cls-2" points="164.55 65.33 158.12 68.95 158.12 81.94 164.55 85.59 169.99 81.94 169.99 68.95 164.55 65.33"/>
      <polygon class="cls-5" points="164.53 65.99 164.6 67.26 168.43 69.77 168.53 80.77 169.79 81.79 169.99 68.95 164.55 65.33 164.53 65.99"/>
      <polygon class="cls-3" points="158.12 68.95 159.79 69.94 160.03 80.77 164.28 83.6 168.53 80.77 169.99 81.94 164.68 85.49 158.12 81.94 158.12 68.95"/>
      <path class="cls-9" d="m164.28,64.83l-6.71,3.78v13.64l7.01,3.98,5.98-4v-13.59l-5.98-3.98-.3.17Zm-5.59,4.45l5.84-3.3,4.89,3.26v12.39l-4.89,3.28-5.84-3.31v-12.32Z"/>
      <polygon class="cls-7" points="164.53 68.65 161.8 70.47 161.8 80.42 164.53 82.26 167.24 80.42 167.24 70.47 164.53 68.65"/>
      <polygon class="cls-1" points="164.53 68.65 164.45 70.84 165.59 71.58 165.64 79.34 167.24 80.42 167.24 70.47 164.63 68.71 164.53 68.65"/>
      <polygon class="cls-4" points="161.8 70.47 163.43 71.71 163.44 79.39 164.45 80.1 165.64 79.34 167.24 80.42 164.53 82.26 161.8 80.42 161.8 70.47"/>
      <path class="cls-6" d="m161.52,70.32l-.37,10.4,3.36,2.28,3.28-2.31-.27-10.36-3-2.01-3.01,2.01Zm3.01-1.32l2.44,1.62v9.64l-2.44,1.64-2.44-1.64v-9.64l2.44-1.62Z"/>
      <polygon class="cls-8" points="165.52 79.73 164.63 80.57 163.19 79.65 163.26 71.59 163.43 71.71 163.76 79.34 164.58 79.86 165.48 79.44 165.52 79.73"/>
    </g>
  </g>
</svg>