<?xml version="1.0" encoding="UTF-8"?>
<svg id="Layer_2" data-name="Layer 2" xmlns="http://www.w3.org/2000/svg" viewBox="0 0 17.45 123.66">
  <defs>
    <style>
      .cls-1 {
        fill: #c4d713;
      }

      .cls-1, .cls-2, .cls-3, .cls-4, .cls-5, .cls-6, .cls-7 {
        fill-rule: evenodd;
      }

      .cls-2 {
        fill: #d48b18;
      }

      .cls-3 {
        fill: #7e4003;
      }

      .cls-8 {
        fill: #5e680a;
      }

      .cls-4 {
        fill: #22360d;
      }

      .cls-5 {
        fill: #f9ca56;
      }

      .cls-6, .cls-9 {
        fill: #3d1b11;
      }

      .cls-7 {
        fill: #2f4a12;
      }
    </style>
  </defs>
  <g id="Layer_1-2" data-name="Layer 1">
    <g>
      <path class="cls-3" d="m9.83,63.15L17.06,0h-5.5L3.92,60.72c-.22,1.77-.22,3.06,0,4.84l7.17,58.1h5.7l-6.96-60.51Z"/>
      <path class="cls-2" d="m8.15,63.2L16.06,0h-3.18l-7.73,61.46c-.15,1.24-.15,2.13,0,3.36l7.26,58.84h3.38l-7.62-60.46Z"/>
      <path class="cls-5" d="m6.48,63.25L15.02,0h-.84l-7.82,62.18c-.08.74-.08,1.19,0,1.92l7.35,59.56h1.03L6.48,63.25Z"/>
      <polygon class="cls-9" points="10.5 63.11 17.45 0 16.66 0 9.16 63.16 16.38 123.66 17.18 123.66 10.5 63.11"/>
      <polygon class="cls-9" points="4.47 65.84 4.47 60.44 4.49 60.44 12.08 0 11.04 0 3.43 60.44 3.43 65.84 10.56 123.66 11.61 123.66 4.47 65.84"/>
      <polygon class="cls-2" points="5.99 49.57 12.42 53.19 12.42 66.18 5.99 69.83 .55 66.18 .55 53.19 5.99 49.57"/>
      <polygon class="cls-3" points=".55 53.19 2.09 54.09 2.09 65.36 6.04 67.83 10.86 65.34 12.42 66.18 5.99 69.83 .55 66.18 .55 53.19"/>
      <polygon class="cls-5" points="6.01 50.22 6.04 51.55 10.56 53.97 10.86 65.34 12.42 66.18 12.42 53.19 6.21 49.69 6.01 50.22"/>
      <path class="cls-9" d="m6.28,49.07l6.71,3.78v13.64l-7.01,3.98-5.98-4v-13.59l5.98-3.98.3.17Zm5.57,4.45l-5.84-3.3-4.89,3.26v12.39l4.89,3.28,5.84-3.31v-12.32Z"/>
      <polygon class="cls-7" points="6.11 52.89 3.4 54.71 3.4 64.65 6.11 66.49 8.84 64.65 8.84 54.71 6.11 52.89"/>
      <polygon class="cls-1" points="6.11 52.89 6.04 55.08 7.16 55.82 7.21 63.58 8.84 64.65 8.84 54.71 6.21 52.95 6.11 52.89"/>
      <polygon class="cls-4" points="3.4 54.71 5.02 55.95 5.04 63.63 6.04 64.34 7.21 63.58 8.84 64.65 6.11 66.49 3.4 64.65 3.4 54.71"/>
      <path class="cls-6" d="m3.11,54.56l-.37,10.4,3.36,2.28,3.28-2.31-.27-10.36-3.01-2.01-3,2.01Zm3-1.32l2.44,1.62v9.64l-2.44,1.64-2.43-1.64v-9.64l2.43-1.62Z"/>
      <polygon class="cls-8" points="7.11 63.97 6.23 64.8 4.79 63.88 4.85 55.83 5.02 55.95 5.36 63.58 6.18 64.1 7.06 63.68 7.11 63.97"/>
    </g>
  </g>
</svg>