<?xml version="1.0" encoding="UTF-8"?>
<svg id="Layer_2" data-name="Layer 2" xmlns="http://www.w3.org/2000/svg" viewBox="0 0 17.5 123.66">
  <defs>
    <style>
      .cls-1 {
        fill: #c4d713;
      }

      .cls-1, .cls-2, .cls-3, .cls-4, .cls-5, .cls-6, .cls-7 {
        fill-rule: evenodd;
      }

      .cls-2 {
        fill: #d48b18;
      }

      .cls-3 {
        fill: #7e4003;
      }

      .cls-8 {
        fill: #5e680a;
      }

      .cls-4 {
        fill: #22360d;
      }

      .cls-5 {
        fill: #f9ca56;
      }

      .cls-6, .cls-9 {
        fill: #3d1b11;
      }

      .cls-7 {
        fill: #2f4a12;
      }
    </style>
  </defs>
  <g id="Layer_1-2" data-name="Layer 1">
    <g>
      <path class="cls-3" d="m13.53,65.56c.22-1.77.22-3.06,0-4.84L5.89,0H.39l7.23,63.15L.67,123.66h5.7l7.17-58.1Z"/>
      <path class="cls-2" d="m12.31,64.82c.15-1.24.15-2.13,0-3.36L4.58,0H1.39l7.9,63.2L1.68,123.66h3.38l7.26-58.84Z"/>
      <path class="cls-5" d="m11.09,64.1c.08-.74.08-1.19,0-1.92L3.26,0h-.84l8.55,63.25L2.71,123.66h1.03l7.35-59.56Z"/>
      <polygon class="cls-9" points="8.11 63.16 .78 0 0 0 6.95 63.11 .27 123.66 1.06 123.66 8.11 63.16"/>
      <polygon class="cls-9" points="13.98 66.01 13.98 60.27 6.41 0 5.36 0 12.93 60.27 12.93 66.01 12.95 66.01 5.84 123.66 6.88 123.66 13.98 66.01"/>
      <polygon class="cls-2" points="11.49 49.57 5.06 53.19 5.06 66.18 11.49 69.83 16.93 66.18 16.93 53.19 11.49 49.57"/>
      <polygon class="cls-5" points="11.47 50.22 11.54 51.5 15.37 54.01 15.47 65 16.73 66.03 16.93 53.19 11.49 49.57 11.47 50.22"/>
      <polygon class="cls-3" points="5.06 53.19 6.74 54.17 6.97 65 11.22 67.83 15.47 65 16.93 66.18 11.62 69.73 5.06 66.18 5.06 53.19"/>
      <path class="cls-9" d="m11.22,49.07l-6.71,3.78v13.64l7.01,3.98,5.98-4v-13.59l-5.98-3.98-.3.17Zm-5.59,4.45l5.84-3.3,4.89,3.26v12.39l-4.89,3.28-5.84-3.31v-12.32Z"/>
      <polygon class="cls-7" points="11.47 52.89 8.74 54.71 8.74 64.65 11.47 66.49 14.18 64.65 14.18 54.71 11.47 52.89"/>
      <polygon class="cls-1" points="11.47 52.89 11.39 55.08 12.53 55.82 12.58 63.58 14.18 64.65 14.18 54.71 11.57 52.95 11.47 52.89"/>
      <polygon class="cls-4" points="8.74 54.71 10.37 55.95 10.38 63.63 11.39 64.34 12.58 63.58 14.18 64.65 11.47 66.49 8.74 64.65 8.74 54.71"/>
      <path class="cls-6" d="m8.46,54.56l-.37,10.4,3.36,2.28,3.28-2.31-.27-10.36-3-2.01-3.01,2.01Zm3.01-1.32l2.44,1.62v9.64l-2.44,1.64-2.44-1.64v-9.64l2.44-1.62Z"/>
      <polygon class="cls-8" points="12.46 63.97 11.57 64.8 10.13 63.88 10.2 55.83 10.37 55.95 10.7 63.58 11.52 64.1 12.43 63.68 12.46 63.97"/>
    </g>
  </g>
</svg>