<?xml version="1.0" encoding="UTF-8"?>
<svg id="Layer_2" data-name="Layer 2" xmlns="http://www.w3.org/2000/svg" viewBox="0 0 149.38 20.86">
  <defs>
    <style>
      .cls-1 {
        fill: #d48b18;
      }

      .cls-1, .cls-2, .cls-3, .cls-4 {
        fill-rule: evenodd;
      }

      .cls-2 {
        fill: #7e4003;
      }

      .cls-3 {
        fill: #f9ca56;
      }

      .cls-4, .cls-5 {
        fill: #3d1b11;
      }
    </style>
  </defs>
  <g id="Layer_1-2" data-name="Layer 1">
    <g>
      <path class="cls-2" d="m23.87,20.86h-7.42c-1.24,0-2.29-.84-2.93-2.31l-4.74-11.11h5.27l3.03,7.11h6.78v6.31Z"/>
      <path class="cls-3" d="m21.74,18.73v-2.06h-6.06l-3.03-7.11h-.65l3.48,8.15c.15.33.5,1.02.97,1.02h5.29Z"/>
      <path class="cls-4" d="m23.87,20.86h-7.42c-1.24,0-2.29-.84-2.93-2.31l-4.74-11.11h5.27l3.03,7.11h6.78v6.31Zm-7.42-1.14h6.29v-4.03h-6.39l-3.05-7.11h-2.8l4.05,9.52c.23.57.55.99.9,1.27.28.23.62.35.99.35h0Z"/>
      <path class="cls-2" d="m125.51,20.86h7.42c1.24,0,2.29-.84,2.93-2.31l4.74-11.11h-5.27l-3.03,7.11h-6.78v6.31Z"/>
      <path class="cls-3" d="m127.64,18.73h5.29c.47,0,.82-.69.97-1.02l3.48-8.15h-.65l-3.03,7.11h-6.06v2.06Z"/>
      <path class="cls-4" d="m126.63,19.72h6.29c.37,0,.7-.12.99-.35.35-.28.67-.7.9-1.27l4.05-9.52h-2.8l-3.05,7.11h-6.39v4.03Zm-1.12,1.14h7.42c1.24,0,2.29-.84,2.93-2.31l4.74-11.11h-5.27l-3.03,7.11h-6.78v6.31Z"/>
      <path class="cls-2" d="m143.16,0l-.53,4.57-22.25,1.67c-4.29.32-6.76,2.31-9.09,6.33H38.08c-2.33-4.02-4.8-6.01-9.09-6.33l-22.25-1.67-.53-4.57H.52l1.25,10.15c.22,1.71,2.36,2.31,4.07,2.31h19.87c1.71,0,3.18.85,4.07,2.33l1.56,2.64c.89,1.47,2.36,2.31,4.07,2.31h78.57c1.71,0,3.18-.84,4.07-2.31l1.56-2.64c.89-1.47,2.36-2.33,4.07-2.33h19.87c1.71,0,3.85-.6,4.07-2.31l1.25-10.15h-5.7Z"/>
      <path class="cls-1" d="m144.17,0l-.75,5.94-22.93,1.71c-3.98.3-6.01,2.24-7.97,5.62l-.4.7H37.26l-.4-.7c-1.96-3.38-3.98-5.32-7.98-5.62l-22.92-1.71-.75-5.94H1.83l1.16,9.43c.15,1.21,1.64,1.62,2.85,1.62h19.87c2.21,0,4.15,1.1,5.27,3.01l1.57,2.64c.62,1.04,1.64,1.62,2.85,1.62h78.57c1.21,0,2.23-.59,2.85-1.62l1.57-2.64c1.12-1.91,3.06-3.01,5.27-3.01h19.87c1.21,0,2.69-.42,2.85-1.62l1.16-9.43h-3.38Z"/>
      <path class="cls-3" d="m145.21,0l-1,7.3-23.6,1.77c-3.52.25-5.14,1.94-6.85,4.9l-.82,1.42H36.44l-.82-1.42c-1.71-2.96-3.33-4.65-6.85-4.9l-23.6-1.77-1-7.3h-1.03l1.07,8.71c.08.7.92.92,1.62.92h19.87c2.71,0,5.11,1.37,6.49,3.7l1.57,2.66c.37.6.92.92,1.62.92h78.57c.7,0,1.26-.32,1.62-.92l1.57-2.66c1.39-2.33,3.78-3.7,6.49-3.7h19.87c.7,0,1.54-.22,1.62-.92l1.07-8.71h-1.03Z"/>
      <path class="cls-5" d="m142.76,0l-.45,4.04-21.96,1.64c-2.26.17-4.03.79-5.57,1.89-1.46,1.04-2.66,2.49-3.8,4.44H38.4c-1.14-1.94-2.34-3.4-3.8-4.44-1.54-1.1-3.31-1.72-5.57-1.89l-21.96-1.64-.45-4.04h-.8l.61,5.12,22.51,1.69c2.04.15,3.65.69,5.01,1.66,1.37.99,2.53,2.44,3.65,4.39l.17.28h73.85l.17-.28c1.12-1.94,2.28-3.4,3.65-4.39,1.36-.97,2.96-1.51,5.01-1.66l22.51-1.69.6-5.12h-.79Z"/>
      <path class="cls-5" d="m148.34,0l-1.22,9.86c-.4.65-.9,1.16-1.52,1.51-.6.35-1.31.54-2.06.54h-19.87c-.95,0-1.84.23-2.63.67-.77.45-1.44,1.09-1.92,1.92l-1.57,2.64c-.39.65-.9,1.15-1.51,1.51-.6.35-1.31.52-2.06.52H35.4c-.75,0-1.46-.17-2.06-.52-.6-.35-1.12-.85-1.51-1.51l-1.57-2.64c-.49-.84-1.16-1.47-1.92-1.92-.79-.44-1.67-.67-2.63-.67H5.84c-.75,0-1.46-.18-2.06-.54-.62-.35-1.12-.85-1.52-1.51L1.04,0H0l1.29,10.43c.49.82,1.16,1.47,1.92,1.92.79.44,1.67.67,2.63.67h19.87c.75,0,1.46.18,2.06.54.62.35,1.12.85,1.52,1.51l1.56,2.64c.5.82,1.16,1.47,1.93,1.93.79.44,1.67.67,2.63.67h78.57c.95,0,1.84-.23,2.63-.67.77-.45,1.42-1.1,1.93-1.93l1.56-2.64c.4-.65.9-1.15,1.52-1.51.6-.35,1.31-.54,2.06-.54h19.87c.95,0,1.84-.23,2.63-.67.77-.45,1.44-1.1,1.93-1.92l1.28-10.43h-1.04Z"/>
      <path class="cls-2" d="m75.88,4.86h33.76c3.16,0,5.42,2.03,6.43,4.39.62,1.47,3.21,5.31,4.44,5.31h7.1v6.31h-7.1c-4.32,0-7.62-6.8-9.16-10.16-.22-.45-.65-.74-1.17-.74H39.2c-.52,0-.95.28-1.17.74-1.54,3.36-4.84,10.16-9.16,10.16h-7.1v-6.31h7.1c1.22,0,3.82-3.83,4.44-5.31,1-2.36,3.26-4.39,6.41-4.39h36.16Z"/>
      <path class="cls-3" d="m20.1,16.67v2.06h8.77c3.03,0,6.16-6.61,7.23-8.92.57-1.21,1.76-1.98,3.1-1.98h70.97c1.34,0,2.53.77,3.1,1.98,1.07,2.31,4.2,8.92,7.23,8.92h8.5v-2.06h-8.5c-1.87,0-3.48-2.01-4.49-3.4-.69-.94-1.46-2.13-1.91-3.2-.79-1.84-2.43-3.1-4.47-3.1H39.72c-2.03,0-3.67,1.26-4.45,3.1-.45,1.07-1.22,2.26-1.91,3.2-1,1.39-2.61,3.4-4.49,3.4h-8.77Z"/>
      <path class="cls-4" d="m75.88,4.86h33.76c3.16,0,5.42,2.03,6.43,4.39.62,1.47,3.21,5.31,4.44,5.31h8.96v1.14h-8.96c-.9,0-1.94-.85-2.9-1.99-1.09-1.31-2.19-3.08-2.58-4.02-.45-1.05-1.21-2.04-2.21-2.73-.87-.59-1.94-.95-3.18-.95H39.72c-1.22,0-2.29.37-3.16.95-1,.69-1.76,1.67-2.21,2.73-.38.94-1.49,2.71-2.58,4.02-.95,1.14-1.99,1.99-2.9,1.99h-7.78v-1.14h7.78c1.22,0,3.82-3.83,4.44-5.31,1-2.36,3.26-4.39,6.41-4.39h36.16Zm53.58,14.86v1.14h-8.96c-4.32,0-7.62-6.8-9.16-10.16-.22-.45-.65-.74-1.17-.74H39.2c-.52,0-.95.28-1.17.74-1.54,3.36-4.84,10.16-9.16,10.16h-7.78v-1.14h7.78c1.72,0,3.35-1.49,4.7-3.35,1.49-2.03,2.68-4.5,3.43-6.14.2-.42.5-.77.89-1.02.38-.23.84-.37,1.31-.37h70.97c.47,0,.92.13,1.31.37.38.25.69.6.89,1.02.75,1.64,1.94,4.12,3.43,6.14,1.36,1.86,2.98,3.35,4.7,3.35h8.96Z"/>
    </g>
  </g>
</svg>