<svg width="252" height="154" viewBox="0 0 252 154" fill="none" xmlns="http://www.w3.org/2000/svg">
<g filter="url(#filter0_d_5_3)">
<path d="M9.36 125.37V29.15C17.11 21.4 21.45 17.06 29.2 9.31H223.48C231.23 17.06 235.57 21.4 243.32 29.15V125.36C235.57 133.11 231.23 137.45 223.48 145.2H29.21C21.46 137.45 17.12 133.11 9.37 125.36L9.36 125.37Z" stroke="url(#paint0_linear_5_3)" stroke-width="0.75" stroke-linecap="round" stroke-linejoin="round"/>
</g>
<g filter="url(#filter1_d_5_3)">
<path d="M232.26 140.3H20.43C18.02 137.89 16.67 136.54 14.27 134.14V20.38C16.68 17.97 18.03 16.62 20.43 14.22H232.26L238.42 20.38V134.14L232.26 140.3Z" stroke="url(#paint1_linear_5_3)" stroke-width="2" stroke-linecap="round" stroke-linejoin="round"/>
</g>
<defs>
<filter id="filter0_d_5_3" x="0.985001" y="0.934998" width="250.71" height="152.64" filterUnits="userSpaceOnUse" color-interpolation-filters="sRGB">
<feFlood flood-opacity="0" result="BackgroundImageFix"/>
<feColorMatrix in="SourceAlpha" type="matrix" values="0 0 0 0 0 0 0 0 0 0 0 0 0 0 0 0 0 0 127 0" result="hardAlpha"/>
<feOffset/>
<feGaussianBlur stdDeviation="4"/>
<feColorMatrix type="matrix" values="0 0 0 0 0 0 0 0 0 0.694118 0 0 0 0 1 0 0 0 0.8 0"/>
<feBlend mode="normal" in2="BackgroundImageFix" result="effect1_dropShadow_5_3"/>
<feBlend mode="normal" in="SourceGraphic" in2="effect1_dropShadow_5_3" result="shape"/>
</filter>
<filter id="filter1_d_5_3" x="5.27" y="5.22" width="242.15" height="144.08" filterUnits="userSpaceOnUse" color-interpolation-filters="sRGB">
<feFlood flood-opacity="0" result="BackgroundImageFix"/>
<feColorMatrix in="SourceAlpha" type="matrix" values="0 0 0 0 0 0 0 0 0 0 0 0 0 0 0 0 0 0 127 0" result="hardAlpha"/>
<feOffset/>
<feGaussianBlur stdDeviation="4"/>
<feColorMatrix type="matrix" values="0 0 0 0 0 0 0 0 0 0.694118 0 0 0 0 1 0 0 0 0.8 0"/>
<feBlend mode="normal" in2="BackgroundImageFix" result="effect1_dropShadow_5_3"/>
<feBlend mode="normal" in="SourceGraphic" in2="effect1_dropShadow_5_3" result="shape"/>
</filter>
<linearGradient id="paint0_linear_5_3" x1="8.99" y1="77.26" x2="243.71" y2="77.26" gradientUnits="userSpaceOnUse">
<stop stop-color="#07C9FF"/>
<stop offset="1" stop-color="#0459F7"/>
</linearGradient>
<linearGradient id="paint1_linear_5_3" x1="13.27" y1="77.26" x2="239.42" y2="77.26" gradientUnits="userSpaceOnUse">
<stop stop-color="#07C9FF"/>
<stop offset="1" stop-color="#0459F7"/>
</linearGradient>
</defs>
</svg>
