<?xml version="1.0" encoding="UTF-8"?>
<svg id="Layer_2" data-name="Layer 2" xmlns="http://www.w3.org/2000/svg" viewBox="0 0 148.43 15.76">
  <defs>
    <style>
      .cls-1 {
        fill: #d48b18;
      }

      .cls-1, .cls-2, .cls-3 {
        fill-rule: evenodd;
      }

      .cls-2 {
        fill: #7e4003;
      }

      .cls-3 {
        fill: #f9ca56;
      }

      .cls-4 {
        fill: #3d1b11;
      }
    </style>
  </defs>
  <g id="Layer_1-2" data-name="Layer 1">
    <g>
      <path class="cls-2" d="m3.66,2.76l4.2,7.4,14.63-.92-1.52-2.44c-1.24-2.01-3.21-3.2-5.59-3.33l-11.72-.7Z"/>
      <path class="cls-1" d="m6.19,4.34l2.48,4.37,11.37-.72-.27-.44c-1-1.62-2.56-2.56-4.47-2.68l-9.11-.54Z"/>
      <path class="cls-4" d="m4.66,3.38l3.52,6.19,13.32-.84-1-1.64c-.59-.94-1.32-1.67-2.19-2.19-.87-.5-1.87-.82-2.96-.87l-10.68-.65Zm2.71,7.06L2.65,2.13l12.76.77c1.27.08,2.44.44,3.48,1.04,1.02.62,1.89,1.47,2.56,2.56l2.03,3.25-15.94,1.02-.17-.32Z"/>
      <path class="cls-2" d="m144.77,2.76l-4.2,7.4-14.63-.92,1.52-2.44c1.24-2.01,3.21-3.2,5.59-3.33l11.72-.7Z"/>
      <path class="cls-1" d="m142.24,4.34l-9.11.54c-1.91.12-3.46,1.05-4.47,2.68l-.27.44,11.37.72,2.48-4.37Z"/>
      <path class="cls-4" d="m145.26,3.03l-4.37,7.73-15.94-1.02,2.03-3.25c.67-1.09,1.54-1.94,2.56-2.54,1.04-.62,2.21-.97,3.48-1.05l12.76-.77-.52.9Zm-5,6.55l3.52-6.19-10.68.65c-1.09.05-2.09.37-2.96.87-.87.52-1.61,1.26-2.19,2.19l-1,1.64,13.32.84Z"/>
      <path class="cls-2" d="m6.27,13.58h19.3c3.95,0,7.48-2.01,9.49-5.41l.77-1.29h76.77l.77,1.29c2.01,3.4,5.54,5.41,9.49,5.41h19.3l.25,2.19h5.5l-.78-6.17c-.89-1.47-2.36-2.33-4.07-2.33h-20.2c-1.72,0-3.2-.84-4.07-2.31l-1.22-2.06c-.89-1.49-2.36-2.33-4.07-2.33H34.93c-1.71,0-3.18.84-4.07,2.33l-1.22,2.06c-.87,1.47-2.34,2.31-4.07,2.31H5.37c-1.71,0-3.18.85-4.07,2.33l-.78,6.17h5.5l.25-2.19Z"/>
      <path class="cls-1" d="m5.47,12.17h20.1c3.45,0,6.51-1.76,8.27-4.72l1.19-1.99h78.37l1.19,1.99c1.76,2.96,4.82,4.72,8.27,4.72h20.1l.45,3.59h3.18l-.69-5.45c-.15-1.21-1.64-1.62-2.85-1.62h-20.2c-2.23,0-4.15-1.1-5.29-3.01l-1.22-2.06c-.62-1.05-1.64-1.62-2.85-1.62H34.93c-1.21,0-2.23.57-2.85,1.62l-1.22,2.06c-1.14,1.91-3.06,3.01-5.29,3.01H5.37c-1.21,0-2.7.42-2.85,1.62l-.69,5.45h3.18l.45-3.59Z"/>
      <path class="cls-3" d="m4.66,10.75h20.91c2.95,0,5.56-1.49,7.06-4.02l1.59-2.68h79.98l1.59,2.68c1.51,2.53,4.12,4.02,7.06,4.02h20.91l.68,5.02h.84l-.6-4.73c-.08-.7-.92-.92-1.62-.92h-20.2c-2.73,0-5.12-1.37-6.51-3.72l-1.22-2.06c-.37-.62-.92-.94-1.62-.94H34.93c-.7,0-1.26.32-1.62.94l-1.22,2.06c-1.39,2.34-3.78,3.72-6.51,3.72H5.37c-.7,0-1.54.22-1.62.92l-.6,4.73h.84l.68-5.02Z"/>
      <path class="cls-4" d="m1.78,9.88c.4-.65.9-1.15,1.52-1.51.6-.35,1.31-.54,2.06-.54h20.2c.95,0,1.86-.23,2.63-.67.79-.45,1.44-1.09,1.92-1.92l1.24-2.06c.39-.65.9-1.17,1.51-1.51.6-.35,1.31-.54,2.06-.54h78.57c.75,0,1.46.18,2.06.54.6.33,1.12.85,1.51,1.51l1.24,2.06c.49.84,1.14,1.47,1.92,1.92.77.44,1.67.67,2.63.67h20.2c.75,0,1.46.18,2.06.54.62.35,1.12.85,1.52,1.51l.74,5.89h1.04l-.81-6.46c-.49-.84-1.16-1.47-1.93-1.93-.79-.44-1.67-.67-2.63-.67h-20.2c-.77,0-1.47-.18-2.08-.54s-1.12-.85-1.51-1.51l-1.22-2.08c-.5-.82-1.15-1.47-1.93-1.91-.79-.45-1.67-.69-2.63-.69H34.93c-.95,0-1.84.23-2.63.69-.77.44-1.42,1.09-1.93,1.91l-1.22,2.08c-.39.65-.9,1.15-1.51,1.51s-1.31.54-2.08.54H5.37c-.95,0-1.84.23-2.63.67-.77.45-1.44,1.09-1.92,1.93l-.81,6.46h1.04l.74-5.89Z"/>
      <path class="cls-4" d="m6.59,14.14h18.98c2.08,0,4.03-.54,5.76-1.51,1.71-.97,3.16-2.39,4.22-4.18l.6-1h76.13l.6,1c1.05,1.79,2.51,3.21,4.22,4.18,1.72.97,3.68,1.51,5.76,1.51h18.98l.18,1.62h.78l-.32-2.76h-19.62c-1.87,0-3.65-.47-5.19-1.36-1.56-.87-2.86-2.16-3.82-3.77l-.94-1.57H35.51l-.94,1.57c-.95,1.61-2.26,2.9-3.82,3.77-1.54.89-3.31,1.36-5.19,1.36H5.95l-.33,2.76h.79l.18-1.62Z"/>
    </g>
  </g>
</svg>