<?xml version="1.0" encoding="UTF-8"?>
<svg id="Layer_2" data-name="Layer 2" xmlns="http://www.w3.org/2000/svg" viewBox="0 0 170.56 160.28">
  <defs>
    <style>
      .cls-1 {
        fill: #c4d713;
      }

      .cls-1, .cls-2, .cls-3, .cls-4, .cls-5, .cls-6, .cls-7 {
        fill-rule: evenodd;
      }

      .cls-2 {
        fill: #d48b18;
      }

      .cls-3 {
        fill: #7e4003;
      }

      .cls-8 {
        fill: #5e680a;
      }

      .cls-9 {
        fill: #241b1c;
      }

      .cls-4 {
        fill: #22360d;
      }

      .cls-5 {
        fill: #f9ca56;
      }

      .cls-6, .cls-10 {
        fill: #3d1b11;
      }

      .cls-7 {
        fill: #2f4a12;
      }
    </style>
  </defs>
  <g id="Layer_1-2" data-name="Layer 1">
    <g>
      <path class="cls-3" d="m14.7,2.76l4.2,7.4,14.63-.92-1.52-2.44c-1.24-2.01-3.21-3.2-5.59-3.33l-11.72-.7Z"/>
      <path class="cls-2" d="m17.22,4.34l2.48,4.37,11.37-.72-.27-.44c-1-1.62-2.56-2.56-4.47-2.68l-9.11-.54Z"/>
      <path class="cls-10" d="m15.7,3.38l3.52,6.19,13.32-.84-1-1.64c-.59-.94-1.32-1.67-2.19-2.19-.87-.5-1.87-.82-2.96-.87l-10.68-.65Zm2.71,7.06L13.69,2.13l12.76.77c1.27.08,2.44.44,3.48,1.04,1.02.62,1.89,1.47,2.56,2.56l2.03,3.25-15.94,1.02-.17-.32Z"/>
      <path class="cls-3" d="m155.81,2.76l-4.2,7.4-14.63-.92,1.52-2.44c1.24-2.01,3.21-3.2,5.59-3.33l11.72-.7Z"/>
      <path class="cls-2" d="m153.28,4.34l-9.11.54c-1.91.12-3.46,1.05-4.47,2.68l-.27.44,11.37.72,2.48-4.37Z"/>
      <path class="cls-10" d="m156.29,3.03l-4.37,7.73-15.94-1.02,2.03-3.25c.67-1.09,1.54-1.94,2.56-2.54,1.04-.62,2.21-.97,3.48-1.05l12.76-.77-.52.9Zm-5,6.55l3.52-6.19-10.68.65c-1.09.05-2.09.37-2.96.87-.87.52-1.61,1.26-2.19,2.19l-1,1.64,13.32.84Z"/>
      <path class="cls-3" d="m34.43,160.28h-7.42c-1.24,0-2.29-.84-2.93-2.31l-4.74-11.11h5.27l3.03,7.11h6.78v6.31Z"/>
      <path class="cls-5" d="m32.31,158.16v-2.06h-6.06l-3.03-7.11h-.65l3.48,8.15c.15.33.5,1.02.97,1.02h5.29Z"/>
      <path class="cls-6" d="m34.43,160.28h-7.42c-1.24,0-2.29-.84-2.93-2.31l-4.74-11.11h5.27l3.03,7.11h6.78v6.31Zm-7.42-1.14h6.29v-4.03h-6.39l-3.05-7.11h-2.8l4.05,9.52c.23.57.55.99.9,1.27.28.23.62.35.99.35h0Z"/>
      <path class="cls-3" d="m136.07,160.28h7.42c1.24,0,2.29-.84,2.93-2.31l4.74-11.11h-5.27l-3.03,7.11h-6.78v6.31Z"/>
      <path class="cls-5" d="m138.2,158.16h5.29c.47,0,.82-.69.97-1.02l3.48-8.15h-.65l-3.03,7.11h-6.06v2.06Z"/>
      <path class="cls-6" d="m137.19,159.14h6.29c.37,0,.7-.12.99-.35.35-.28.67-.7.9-1.27l4.05-9.52h-2.8l-3.05,7.11h-6.39v4.03Zm-1.12,1.14h7.42c1.24,0,2.29-.84,2.93-2.31l4.74-11.11h-5.27l-3.03,7.11h-6.78v6.31Z"/>
      <path class="cls-3" d="m166.59,76.48l-.84-6.66-.05-.38-.04-.37-.16-1.22-.16-1.32-.09-.73-.1-.75-6.98-55.46c-.89-1.47-2.36-2.32-4.07-2.32h-20.2c-1.73,0-3.2-.84-4.07-2.31l-1.22-2.06c-.89-1.49-2.36-2.33-4.07-2.33H45.96c-1.7,0-3.18.84-4.06,2.33l-1.23,2.06c-.87,1.47-2.34,2.31-4.06,2.31h-20.21c-1.7,0-3.18.85-4.06,2.32l-6.98,55.49-.1.74-.09.73-.33,2.62-.05.36-.04.38-.19,1.45-.64,5.12c-.18,1.44-.21,2.56-.1,3.88.01.12.02.24.04.37.01.19.04.39.06.59l.03.22.1.81.17,1.37.09.74.09.73,7.94,64.38c.21,1.71,2.36,2.31,4.06,2.31h19.87c1.53,0,2.86.68,3.76,1.87.11.14.21.29.31.45l.29.49.51.88.76,1.28s.01.02.02.03c.17.29.37.55.6.78.25.29.54.54.86.74.74.5,1.63.76,2.58.76h78.58c.96,0,1.84-.26,2.59-.76.32-.2.61-.45.86-.74.23-.23.43-.49.6-.78.01-.01.01-.02.02-.03l.75-1.28.51-.88.29-.49c.1-.16.2-.31.31-.45.9-1.19,2.23-1.87,3.76-1.87h19.87c1.71,0,3.85-.6,4.07-2.31l7.94-64.35.09-.74h0s.09-.74.09-.74l.2-1.61.07-.57.03-.24c.02-.17.04-.33.05-.49.02-.12.03-.24.04-.36.01-.14.02-.27.03-.4.09-1.2.04-2.26-.12-3.59Zm-6.32,6.02l-.07.57v.05l-.07.59-6.93,60.28-22.25,1.68c-2.03.15-3.67.68-5.06,1.63-.31.2-.61.43-.9.7-.25.21-.5.45-.74.7-.15.16-.3.32-.43.49-.25.27-.47.56-.7.87-.25.33-.49.69-.74,1.07-.17.28-.35.56-.52.86H48.64c-.17-.3-.35-.58-.52-.86-.24-.38-.49-.74-.74-1.08-.22-.31-.45-.59-.69-.86-.14-.17-.29-.34-.44-.49-.24-.26-.48-.49-.74-.7-.28-.27-.58-.5-.9-.7-1.39-.95-3.03-1.48-5.06-1.63l-22.24-1.68-6.93-60.25-.07-.6-.07-.62-.12-1.03-.3-2.58.8-6.96.36-3.15.14-1.24,6.19-53.98h19.3c3.95,0,7.48-2.01,9.49-5.41l.77-1.29h76.76l.77,1.29c2.01,3.4,5.55,5.41,9.5,5.41h19.3l6.18,54.02.07.6.07.62.12,1.03.18,1.57.86,7.49-.24,2.13-.17,1.46Z"/>
      <path class="cls-2" d="m165.37,77.22l-.79-6.3-.1-.8-.13-1-.04-.32-.04-.31-.28-2.2-.07-.6-.08-.61-6.89-54.77c-.15-1.2-1.64-1.62-2.85-1.62h-20.2c-2.23,0-4.16-1.11-5.29-3.01l-1.23-2.06c-.61-1.06-1.64-1.63-2.84-1.63H45.96c-1.2,0-2.22.57-2.84,1.63l-1.22,2.06c-1.14,1.9-3.07,3.01-5.29,3.01h-20.21c-1.2,0-2.69.42-2.84,1.62l-6.89,54.74-.08.62h0s-.07.61-.07.61l-.15,1.2-.12.93-.04.31-.04.32-.1.77-.84,6.71-.09.7c-.05.47-.09.88-.1,1.29v.08c-.01.23-.01.47,0,.71v.1c.01.14.02.28.03.43.01.24.04.49.07.76l.09.73.05.37.1.81.09.74.17,1.43.1.75.08.72,7.74,62.71c.15,1.2,1.64,1.62,2.84,1.62h19.87c1.93,0,3.66.85,4.82,2.34.17.21.32.43.46.67l.18.3.53.9.65,1.1.21.35c.11.18.23.35.37.5.24.29.53.53.86.72.48.26,1.02.4,1.61.4h78.58c.59,0,1.13-.14,1.61-.4.33-.18.62-.43.87-.72.14-.15.25-.32.36-.5l.21-.36.66-1.09.53-.9.18-.3c.14-.24.29-.46.46-.67,1.15-1.49,2.88-2.34,4.81-2.34h19.87c1.21,0,2.7-.42,2.85-1.62l7.73-62.68.09-.73h0s.09-.74.09-.74l.2-1.62.07-.51.09-.78.05-.38.1-.82c.04-.28.06-.54.07-.79.02-.12.02-.23.02-.34.04-.73.01-1.41-.09-2.24Zm-3.65,6.76l-.08.59-7.66,60.8-22.93,1.7c-1.85.14-3.28.63-4.47,1.47-.32.22-.63.46-.91.73-.26.24-.51.5-.75.78-.15.17-.3.35-.44.54-.23.28-.44.59-.66.91-.23.35-.46.73-.69,1.12-.02.03-.03.05-.05.08l-.4.7H47.82l-.4-.7s-.03-.05-.05-.08c-.22-.39-.45-.76-.68-1.11-.22-.33-.44-.63-.67-.92-.14-.19-.29-.37-.44-.54-.24-.28-.49-.54-.75-.78-.28-.27-.59-.51-.91-.73-1.18-.84-2.62-1.33-4.48-1.47l-22.92-1.7-7.66-60.77-.07-.6-.08-.61-.14-1.1-.12-.94-.08-.62-.04-.31-.04-.36-.14-1.1.4-3.2.29-2.32.3-2.39.24-1.94.14-1.13.08-.61h0s.08-.62.08-.62l6.82-54.58h20.11c3.45,0,6.51-1.76,8.27-4.72l1.18-1.99h78.38l1.19,1.99c1.75,2.96,4.82,4.72,8.27,4.72h20.1l6.83,54.61.07.61.08.61.48,3.88.34,2.68.29,2.32.26,2.08-.17,1.37-.04.32-.09.68-.09.73-.17,1.31-.06.52v.09Z"/>
      <path class="cls-5" d="m131.17,148.5c-1.67.12-2.91.56-3.93,1.31-.32.22-.6.48-.88.75.41.68.92,1.42,1.44,2.1.21-.35.44-.67.7-.97,1.42-1.68,3.46-2.64,5.73-2.64h10.72l.7-1.64-14.48,1.09Zm-87.9,1.32c-1.02-.76-2.27-1.2-3.93-1.32l-14.49-1.09.7,1.64h10.72c2.27,0,4.32.96,5.74,2.65.26.29.49.61.7.95.02.03.04.07.06.1l.49.82c.24-.3.46-.6.66-.87.3-.41.62-.87.91-1.34-.22-.29-.45-.55-.69-.8-.27-.27-.56-.52-.87-.74Zm120.87-71.88l-.68-5.44-.04-.27-.07-.57-.22-1.73-.04-.32-.04-.31-.29-2.31-.07-.6-.08-.62-6.89-54.74c-.08-.7-.92-.92-1.62-.92h-20.2c-2.73,0-5.13-1.37-6.52-3.71l-1.22-2.06c-.37-.62-.92-.94-1.62-.94H45.96c-.7,0-1.25.32-1.62.94l-1.22,2.06c-1.39,2.34-3.78,3.71-6.51,3.71h-20.21c-.7,0-1.54.22-1.62.92l-6.89,54.71-.07.62h0s-.08.61-.08.61l-.15,1.17-.13,1.08-.04.3-.04.33-.22,1.73-.8,6.36c-.08.71-.08,1.16-.01,1.85,0,.03.01.05.01.08v.02l.06.5.15,1.21.04.32.09.67.07.63.15,1.18.08.62.07.6,7.71,62.51c.08.7.92.92,1.62.92h19.87c2.27,0,4.32.96,5.74,2.65.26.29.49.61.7.95.02.03.04.07.06.1l.49.82.56.95.52.89s.02.03.03.04c.22.36.52.61.87.75.22.09.46.13.72.13h78.58c.26,0,.5-.04.72-.13.35-.14.65-.39.87-.75.01-.01.02-.03.03-.04l.53-.89.56-.95.49-.82s.04-.06.06-.09c.21-.35.44-.67.7-.97,1.42-1.68,3.46-2.64,5.73-2.64h19.87c.7,0,1.54-.22,1.62-.92l7.71-62.54.08-.59v-.14s.07-.48.07-.48l.15-1.15.08-.7.09-.7.04-.32.16-1.28.04-.35h0c0-.1.02-.18.03-.27.06-.59.05-1.02-.03-1.67Zm-.21,1.8l-.05.35-.17,1.27-.04.32-.1.68-.09.7-.16,1.17-.07.49-.02.12-.08.59-8.38,61.29-3.68.28-5.44.41-14.48,1.09c-1.67.12-2.91.56-3.93,1.31-.32.22-.6.48-.88.75-.24.25-.47.51-.69.8-.16.2-.32.41-.47.63-.21.3-.41.63-.62.97-.09.14-.17.29-.26.44l-.4.69-.42.73H47l-.42-.73-.4-.69c-.09-.15-.17-.3-.26-.44-.2-.34-.41-.66-.61-.96-.16-.23-.32-.44-.48-.64-.22-.29-.45-.55-.69-.8-.27-.27-.56-.52-.87-.74-1.02-.76-2.27-1.2-3.93-1.32l-14.49-1.09-5.44-.41-3.68-.28-8.37-61.27-.08-.59-.08-.61-.16-1.17-.1-.67-.08-.65-.05-.32-.17-1.26-.06-.43v-.07s-.1-.67-.1-.67l.69-5.14.52-3.81.04-.33.04-.3.15-1.11.16-1.16.08-.6h0s.09-.62.09-.62L15.7,10.75h20.91c2.94,0,5.55-1.49,7.06-4.02l1.59-2.68h79.98l1.59,2.68c1.51,2.53,4.12,4.02,7.07,4.02h20.9l7.47,55.22.08.61.08.6.31,2.33.05.3.04.33.17,1.25.25,1.82.18,1.34.17,1.32.43,3.14-.06.47-.04.26Z"/>
      <path class="cls-10" d="m159.96,68.57l-.07-.61-.07-.61-6.31-54.34h-19.61c-1.88,0-3.65-.47-5.19-1.36-1.56-.87-2.87-2.16-3.82-3.76l-.94-1.58H46.55l-.94,1.58c-.95,1.6-2.26,2.89-3.81,3.76-1.54.89-3.32,1.36-5.19,1.36h-19.62l-6.45,54.23-.07.61-.08.62-.13,1.11-.95,8.01-.16,1.34.21,1.78.13,1.1.13,1.06.07.62.08.6,7.22,60.46,22.51,1.69c1.96.14,3.5.63,4.82,1.52.07.04.13.09.19.13.24.18.48.37.71.58.26.22.51.47.75.73.16.17.31.35.46.53.23.28.46.59.68.91.25.34.48.7.72,1.08.11.18.22.37.33.56l.16.28h73.86l.17-.28c.11-.19.22-.37.32-.55.24-.39.48-.75.72-1.09.22-.32.45-.62.68-.9.15-.19.31-.37.46-.54.25-.26.49-.5.75-.73.23-.21.47-.4.72-.58.06-.04.12-.09.19-.12,1.31-.9,2.86-1.39,4.81-1.53l22.51-1.69,7.06-60.59.07-.59v-.06s.07-.55.07-.55l.17-1.42.28-2.41-1.2-10.36Zm-.38,14.16v.04l-.07.59-6.63,60.1-21.96,1.64c-2.16.16-3.89.74-5.38,1.75-.07.05-.13.09-.2.14-.24.17-.47.36-.7.55-.25.21-.49.44-.72.68-.14.14-.28.29-.42.45-.23.26-.45.53-.67.81-.25.33-.49.68-.73,1.05-.19.29-.38.59-.56.9H48.96c-.18-.31-.37-.61-.56-.9-.24-.37-.48-.72-.73-1.05-.21-.28-.43-.55-.66-.8-.14-.16-.28-.32-.43-.46-.23-.25-.47-.47-.72-.68-.23-.2-.46-.38-.7-.55-.07-.05-.13-.09-.2-.14-1.49-1.01-3.21-1.59-5.37-1.75l-21.97-1.64-6.63-60.07-.07-.6-.07-.62-.11-1.01-.25-2.28.25-2.28.82-7.47.14-1.24,5.92-53.74h18.99c2.07,0,4.03-.54,5.76-1.51,1.7-.97,3.16-2.39,4.21-4.18l.61-1.01h76.13l.6,1.01c1.05,1.79,2.51,3.21,4.22,4.18,1.72.97,3.68,1.51,5.76,1.51h18.98l5.92,53.77.07.61.07.62.03.3,1.01,9.18.03.25-.02.17-.34,3.1-.07.58Zm7.39-7.26l-.66-5.28-.05-.38-.05-.37-.15-1.22-.17-1.32-.09-.73-.09-.75-7.06-56.11c-.48-.84-1.15-1.47-1.92-1.93-.76-.41-1.61-.65-2.52-.67h-20.31c-.77,0-1.48-.18-2.08-.53-.6-.35-1.12-.85-1.51-1.51l-1.22-2.07c-.5-.82-1.15-1.48-1.92-1.91-.79-.45-1.68-.69-2.63-.69H45.96c-.95,0-1.84.24-2.62.69-.77.43-1.43,1.09-1.93,1.91l-1.22,2.07c-.39.66-.9,1.16-1.51,1.51-.6.35-1.3.53-2.07.53h-20.32c-.91.02-1.76.26-2.52.67-.77.46-1.43,1.09-1.92,1.93l-7.07,56.15-.09.74-.09.73-.33,2.62-.05.37-.05.38-.08.69-.41,3.22-.25,1.99v5.41l.05.38.16,1.34.09.75.09.72,8.03,65.05c.49.82,1.15,1.48,1.92,1.93.79.43,1.68.67,2.63.67h19.87c.76,0,1.46.18,2.06.53.44.25.82.58,1.14.99.14.16.27.33.38.52l.28.47.51.87.77,1.3s.05.09.09.13c.17.28.37.53.59.77.25.29.54.55.85.76.13.1.26.19.4.27.78.43,1.67.67,2.62.67h78.58c.95,0,1.84-.24,2.63-.67.14-.08.27-.17.4-.27.31-.21.6-.48.84-.77.23-.23.42-.49.59-.76.04-.04.06-.09.09-.13l.77-1.3.51-.87.28-.47c.11-.19.24-.36.38-.52.32-.41.7-.74,1.14-.99.6-.35,1.31-.53,2.06-.53h19.87c.95,0,1.84-.24,2.63-.67.77-.45,1.44-1.11,1.92-1.93l8.01-65,.09-.74h0s.09-.74.09-.74l.2-1.6v-5.74l-.07-.56Zm-.98,6.3h.01l-.02.2-.07.55-.2,1.61-.09.73h0s-.09.75-.09.75l-7.85,63.67c-.4.66-.9,1.16-1.52,1.51-.6.35-1.31.54-2.06.54h-19.87c-.95,0-1.84.23-2.63.66-.61.36-1.15.83-1.58,1.42-.13.16-.24.33-.34.51l-.27.44-.52.88-.73,1.21-.06.11c-.15.26-.32.49-.52.7-.24.29-.54.53-.86.73-.04.03-.08.06-.12.08-.6.35-1.31.52-2.06.52H45.96c-.75,0-1.45-.17-2.05-.52-.05-.03-.09-.05-.13-.08-.32-.2-.62-.44-.86-.73-.2-.21-.37-.44-.52-.7l-.06-.11-.72-1.21-.53-.88-.26-.44c-.1-.18-.22-.35-.35-.51-.43-.59-.97-1.06-1.58-1.42-.79-.43-1.67-.66-2.63-.66h-19.87c-.75,0-1.45-.19-2.06-.54-.62-.35-1.12-.85-1.52-1.51l-7.86-63.72-.09-.72-.09-.75-.18-1.39-.09-.78-.04-.31v-5.41h.01l.36-2.84.18-1.46v-.04s.3-2.33.3-2.33l.05-.38.04-.36.33-2.62.09-.73.1-.74L12.82,9.88c.4-.65.9-1.16,1.52-1.51.61-.35,1.31-.53,2.06-.53h20.21c.95,0,1.86-.24,2.63-.67.78-.46,1.43-1.09,1.92-1.93l1.24-2.06c.38-.65.9-1.17,1.51-1.5.6-.36,1.3-.54,2.05-.54h78.58c.75,0,1.46.18,2.06.54.6.33,1.12.85,1.5,1.5l1.24,2.06c.49.84,1.14,1.47,1.93,1.93.77.43,1.67.67,2.63.67h20.2c.75,0,1.46.18,2.06.53.62.35,1.12.86,1.52,1.51l6.88,54.8.1.73.09.72.16,1.34.16,1.21.04.36.05.38.26,2.05.17,1.36.4,3.2v5.74Zm-6.1-13.81l-.07-.61-6.31-54.34h-19.61c-1.88,0-3.65-.47-5.19-1.36-1.56-.87-2.87-2.16-3.82-3.76l-.94-1.58H46.55l-.94,1.58c-.95,1.6-2.26,2.89-3.81,3.76-1.54.89-3.32,1.36-5.19,1.36h-19.62l-6.45,54.23-.07.61-.08.62-.13,1.11-.95,8.01-.16,1.34.21,1.78.13,1.1.13,1.06.07.62.08.6,7.22,60.46,22.51,1.69c1.96.14,3.5.63,4.82,1.52.07.04.13.09.19.13.24.18.48.37.71.58.26.22.51.47.75.73.16.17.31.35.46.53.23.28.46.59.68.91.25.34.48.7.72,1.08.11.18.22.37.33.56l.16.28h73.86l.17-.28c.11-.19.22-.37.32-.55.24-.39.48-.75.72-1.09.22-.32.45-.62.68-.9.15-.19.31-.37.46-.54.25-.26.49-.5.75-.73.23-.21.47-.4.72-.58.06-.04.12-.09.19-.12,1.31-.9,2.86-1.39,4.81-1.53l22.51-1.69,7.06-60.59.07-.59v-.06s.07-.55.07-.55l.17-1.42.28-2.41-1.2-10.36-.07-.61Zm-.31,14.77v.04l-.07.59-6.63,60.1-21.96,1.64c-2.16.16-3.89.74-5.38,1.75-.07.05-.13.09-.2.14-.24.17-.47.36-.7.55-.25.21-.49.44-.72.68-.14.14-.28.29-.42.45-.23.26-.45.53-.67.81-.25.33-.49.68-.73,1.05-.19.29-.38.59-.56.9H48.96c-.18-.31-.37-.61-.56-.9-.24-.37-.48-.72-.73-1.05-.21-.28-.43-.55-.66-.8-.14-.16-.28-.32-.43-.46-.23-.25-.47-.47-.72-.68-.23-.2-.46-.38-.7-.55-.07-.05-.13-.09-.2-.14-1.49-1.01-3.21-1.59-5.37-1.75l-21.97-1.64-6.63-60.07-.07-.6-.07-.62-.11-1.01-.25-2.28.25-2.28.82-7.47.14-1.24,5.92-53.74h18.99c2.07,0,4.03-.54,5.76-1.51,1.7-.97,3.16-2.39,4.21-4.18l.61-1.01h76.13l.6,1.01c1.05,1.79,2.51,3.21,4.22,4.18,1.72.97,3.68,1.51,5.76,1.51h18.98l5.92,53.77.07.61.07.62.03.3,1.01,9.18.03.25-.02.17-.34,3.1-.07.58Zm.38-14.16l-.07-.61-.07-.61-6.31-54.34h-19.61c-1.88,0-3.65-.47-5.19-1.36-1.56-.87-2.87-2.16-3.82-3.76l-.94-1.58H46.55l-.94,1.58c-.95,1.6-2.26,2.89-3.81,3.76-1.54.89-3.32,1.36-5.19,1.36h-19.62l-6.45,54.23-.07.61-.08.62-.13,1.11-.95,8.01-.16,1.34.21,1.78.13,1.1.13,1.06.07.62.08.6,7.22,60.46,22.51,1.69c1.96.14,3.5.63,4.82,1.52.07.04.13.09.19.13.24.18.48.37.71.58.26.22.51.47.75.73.16.17.31.35.46.53.23.28.46.59.68.91.25.34.48.7.72,1.08.11.18.22.37.33.56l.16.28h73.86l.17-.28c.11-.19.22-.37.32-.55.24-.39.48-.75.72-1.09.22-.32.45-.62.68-.9.15-.19.31-.37.46-.54.25-.26.49-.5.75-.73.23-.21.47-.4.72-.58.06-.04.12-.09.19-.12,1.31-.9,2.86-1.39,4.81-1.53l22.51-1.69,7.06-60.59.07-.59v-.06s.07-.55.07-.55l.17-1.42.28-2.41-1.2-10.36Zm-.38,14.16v.04l-.07.59-6.63,60.1-21.96,1.64c-2.16.16-3.89.74-5.38,1.75-.07.05-.13.09-.2.14-.24.17-.47.36-.7.55-.25.21-.49.44-.72.68-.14.14-.28.29-.42.45-.23.26-.45.53-.67.81-.25.33-.49.68-.73,1.05-.19.29-.38.59-.56.9H48.96c-.18-.31-.37-.61-.56-.9-.24-.37-.48-.72-.73-1.05-.21-.28-.43-.55-.66-.8-.14-.16-.28-.32-.43-.46-.23-.25-.47-.47-.72-.68-.23-.2-.46-.38-.7-.55-.07-.05-.13-.09-.2-.14-1.49-1.01-3.21-1.59-5.37-1.75l-21.97-1.64-6.63-60.07-.07-.6-.07-.62-.11-1.01-.25-2.28.25-2.28.82-7.47.14-1.24,5.92-53.74h18.99c2.07,0,4.03-.54,5.76-1.51,1.7-.97,3.16-2.39,4.21-4.18l.61-1.01h76.13l.6,1.01c1.05,1.79,2.51,3.21,4.22,4.18,1.72.97,3.68,1.51,5.76,1.51h18.98l5.92,53.77.07.61.07.62.03.3,1.01,9.18.03.25-.02.17-.34,3.1-.07.58Z"/>
      <path class="cls-9" d="m159.51,83.36l-6.63,60.1-21.96,1.64c-2.16.16-3.89.74-5.38,1.75-1.2-1.5-3.03-2.57-5.34-2.57H50.28c-2.29,0-4.11,1.07-5.32,2.57-1.49-1.01-3.21-1.59-5.37-1.75l-21.97-1.64-6.63-60.07,2-1.13v-13.64l-1.29-.73,5.92-53.74h18.99c2.07,0,4.03-.54,5.76-1.51,1.7-.97,3.16-2.39,4.21-4.18l.61-1.01h76.13l.6,1.01c1.05,1.79,2.51,3.21,4.22,4.18,1.72.97,3.68,1.51,5.76,1.51h18.98l5.92,53.77-1.23.7v13.64l1.94,1.1Z"/>
      <path class="cls-3" d="m138.16,153.97v6.31h-7.09c-1.26,0-2.43-.58-3.5-1.49-.15-.12-.3-.25-.44-.39-.14-.13-.27-.27-.41-.41-.19-.2-.38-.42-.57-.64-.31-.36-.61-.75-.89-1.15-.48-.68-.93-1.4-1.34-2.11-.29-.5-.55-.99-.79-1.47-.17-.31-.32-.6-.46-.89-.1-.21-.2-.41-.29-.6-.1-.21-.19-.41-.28-.6-.07-.14-.13-.28-.19-.41-.22-.45-.65-.74-1.17-.74H49.76c-.51,0-.95.29-1.17.74-.06.13-.12.27-.19.41-.09.19-.18.39-.28.6-.09.19-.19.39-.29.59-.14.29-.29.59-.46.9-.24.48-.5.97-.79,1.47-.41.71-.86,1.43-1.34,2.11-.28.4-.58.79-.89,1.15-.18.22-.37.44-.57.64-.13.14-.26.28-.4.41-.15.14-.29.27-.44.39-1.07.91-2.24,1.49-3.5,1.49h-7.1v-6.31h7.13c.16,0,.35-.08.56-.22.14-.08.29-.2.45-.34.2-.16.4-.37.61-.6.31-.33.62-.71.92-1.11.47-.62.91-1.29,1.26-1.88.26-.45.47-.86.6-1.16.02-.04.03-.08.05-.12.12-.26.25-.52.4-.78.1-.15.2-.31.29-.46.12-.15.23-.3.35-.45,1.21-1.5,3.03-2.57,5.32-2.57h69.92c2.31,0,4.14,1.07,5.34,2.57.12.15.23.3.35.45.1.15.2.31.3.47.14.25.27.51.39.77.02.04.03.08.05.12.13.3.34.7.61,1.15.34.59.78,1.26,1.26,1.88.29.4.6.79.92,1.12.2.23.41.43.6.6.16.13.31.25.45.34.21.13.4.21.56.22h7.13Z"/>
      <path class="cls-5" d="m30.66,156.1v2.06h8.77c3.03,0,6.16-6.61,7.23-8.92.57-1.21,1.76-1.98,3.1-1.98h70.97c1.34,0,2.53.77,3.1,1.98,1.07,2.31,4.2,8.92,7.23,8.92h8.5v-2.06h-8.5c-1.87,0-3.48-2.01-4.49-3.4-.69-.94-1.46-2.13-1.91-3.2-.79-1.84-2.43-3.1-4.47-3.1H50.28c-2.03,0-3.67,1.26-4.45,3.1-.45,1.07-1.22,2.26-1.91,3.2-1,1.39-2.61,3.4-4.49,3.4h-8.77Z"/>
      <path class="cls-6" d="m131.07,159.14c-.93,0-1.83-.43-2.66-1.12-.14-.11-.29-.23-.42-.36-.14-.13-.27-.26-.41-.4-.19-.2-.38-.41-.56-.63-.23-.27-.45-.55-.66-.84-.08-.11-.16-.23-.23-.34-.58-.8-1.09-1.65-1.55-2.49-.28-.5-.53-.99-.76-1.46-.15-.3-.29-.58-.43-.86-.09-.2-.18-.39-.27-.58-.07-.14-.13-.28-.19-.41-.03-.06-.06-.12-.1-.17-.19-.35-.46-.64-.79-.85-.38-.23-.83-.37-1.3-.37H49.76c-.46,0-.92.14-1.3.37-.33.21-.6.5-.79.85-.04.05-.07.11-.1.17-.06.13-.12.26-.19.4-.08.19-.17.39-.27.59-.13.28-.28.57-.42.87-.24.47-.49.95-.77,1.45-.46.84-.97,1.69-1.55,2.49-.07.11-.15.23-.23.34-.21.29-.43.57-.65.84-.19.22-.38.43-.57.63-.13.14-.27.27-.4.4-.14.13-.29.26-.43.37-.84.68-1.73,1.11-2.65,1.11h-7.79v1.14h7.79c1.26,0,2.43-.58,3.5-1.49.15-.12.29-.25.44-.39.14-.13.27-.27.4-.41.2-.2.39-.42.57-.64.31-.36.61-.75.89-1.15.48-.68.93-1.4,1.34-2.11.29-.5.55-.99.79-1.47.17-.31.32-.61.46-.9.1-.2.2-.4.29-.59.1-.21.19-.41.28-.6.07-.14.13-.28.19-.41.22-.45.66-.74,1.17-.74h70.98c.52,0,.95.29,1.17.74.06.13.12.27.19.41.09.19.18.39.28.6.09.19.19.39.29.6.14.29.29.58.46.89.24.48.5.97.79,1.47.41.71.86,1.43,1.34,2.11.28.4.58.79.89,1.15.19.22.38.44.57.64.14.14.27.28.41.41.14.14.29.27.44.39,1.07.91,2.24,1.49,3.5,1.49h8.95v-1.14h-8.95Zm-2.29-5.36c.21.22.42.41.63.58.15.13.31.24.46.33.17.11.33.2.5.27.24.09.47.15.7.15h7.09v-1.14h-7.13c-.16,0-.35-.09-.56-.22-.14-.09-.29-.21-.45-.34-.19-.17-.4-.37-.6-.6-.32-.33-.63-.72-.92-1.12-.26.3-.49.62-.7.97.12.16.25.31.37.46.2.24.4.46.61.66Zm-89.34,1.33c.22,0,.45-.05.69-.15.16-.07.33-.16.5-.27.15-.09.3-.2.46-.33.21-.16.43-.36.64-.58l-.18-.3c-.14-.24-.29-.46-.46-.67-.21.23-.41.44-.61.6-.16.14-.31.26-.45.34-.21.14-.4.21-.56.22h-7.13v1.14h7.1Zm91.59-1.14c-.16,0-.35-.09-.56-.22-.14-.09-.29-.21-.45-.34-.19-.17-.4-.37-.6-.6-.32-.33-.63-.72-.92-1.12-.48-.62-.92-1.29-1.26-1.88-.27-.45-.48-.85-.61-1.15-.02-.04-.03-.08-.05-.12-.12-.26-.25-.52-.39-.77-.1-.16-.2-.32-.3-.47-.12-.15-.23-.3-.35-.45-1.2-1.5-3.03-2.57-5.34-2.57H50.28c-2.29,0-4.11,1.07-5.32,2.57-.12.15-.23.3-.35.45-.09.15-.19.31-.29.46-.15.26-.28.52-.4.78-.02.04-.03.08-.05.12-.13.3-.34.71-.6,1.16-.35.59-.79,1.26-1.26,1.88-.3.4-.61.78-.92,1.11-.21.23-.41.44-.61.6-.16.14-.31.26-.45.34-.21.14-.4.21-.56.22h-7.82v1.14h7.79c.22,0,.45-.05.69-.15.16-.07.33-.16.5-.27.15-.09.3-.2.46-.33.21-.16.43-.36.64-.58.2-.2.4-.42.6-.66.13-.15.25-.31.38-.47.52-.67,1.02-1.42,1.43-2.09.29-.49.53-.93.69-1.29.03-.06.06-.12.08-.17.09-.21.19-.42.31-.63.09-.16.19-.32.29-.47.11-.16.22-.31.35-.46.36-.44.78-.84,1.26-1.17.87-.59,1.94-.95,3.16-.95h69.92c1.24,0,2.31.36,3.18.95.48.33.91.73,1.26,1.17.13.15.24.3.35.46.11.15.2.31.29.47.12.21.22.42.31.63.02.05.05.11.08.17.16.36.4.8.69,1.29.41.68.92,1.42,1.44,2.1.12.16.25.31.37.46.2.24.4.46.61.66.21.22.42.41.63.58.15.13.31.24.46.33.17.11.33.2.5.27.24.09.47.15.7.15h8.95v-1.14h-8.99Z"/>
      <polygon class="cls-2" points="5.99 65.34 12.42 68.95 12.42 81.94 5.99 85.59 .55 81.94 .55 68.95 5.99 65.34"/>
      <polygon class="cls-3" points=".55 68.95 2.09 69.86 2.09 81.12 6.04 83.6 10.86 81.1 12.42 81.94 5.99 85.59 .55 81.94 .55 68.95"/>
      <polygon class="cls-5" points="6.01 65.99 6.04 67.31 10.56 69.74 10.86 81.1 12.42 81.94 12.42 68.95 6.21 65.45 6.01 65.99"/>
      <path class="cls-10" d="m11.7,67.89l-.58-.33-.58-.32-.86-.49-1.43-.81-.36-.2-1.22-.69-.39-.22-.31-.16-.04.03-.57.38-.58.38-4.78,3.19v13.59l3.82,2.56.58.39.56.37.86.58.15.1,1.1-.62.29-.17,1.5-.85.91-.51.61-.35.61-.35,2-1.13v-13.64l-1.29-.73Zm.15,13.72h-.02s-.98.56-.98.56l-.61.35-.62.35-.91.52-1.51.86-.28.15-.91.52-.37-.25-.86-.58-.56-.37-.58-.39-2.52-1.69v-12.39l3.48-2.32,1.14-.76.27-.18.51.29,1.22.69.34.19,1.44.82.87.49.59.33.58.33.29.16v12.32Z"/>
      <polygon class="cls-7" points="6.11 68.65 3.4 70.47 3.4 80.42 6.11 82.26 8.84 80.42 8.84 70.47 6.11 68.65"/>
      <polygon class="cls-1" points="6.11 68.65 6.04 70.84 7.16 71.58 7.21 79.35 8.84 80.42 8.84 70.47 6.21 68.72 6.11 68.65"/>
      <polygon class="cls-4" points="3.4 70.47 5.02 71.71 5.04 79.4 6.04 80.1 7.21 79.35 8.84 80.42 6.11 82.26 3.4 80.42 3.4 70.47"/>
      <path class="cls-6" d="m3.11,70.32l-.37,10.4,3.36,2.28,3.28-2.31-.27-10.36-3.01-2.01-3,2.01Zm3-1.32l2.44,1.62v9.64l-2.44,1.64-2.43-1.64v-9.64l2.43-1.62Z"/>
      <polygon class="cls-8" points="7.11 79.73 6.23 80.57 4.79 79.65 4.85 71.6 5.02 71.71 5.35 79.35 6.18 79.87 7.06 79.45 7.11 79.73"/>
      <polygon class="cls-2" points="164.55 65.34 158.12 68.95 158.12 81.94 164.55 85.59 169.99 81.94 169.99 68.95 164.55 65.34"/>
      <polygon class="cls-5" points="164.53 65.99 164.6 67.26 168.43 69.77 168.53 80.77 169.79 81.79 169.99 68.95 164.55 65.34 164.53 65.99"/>
      <polygon class="cls-3" points="158.12 68.95 159.79 69.94 160.03 80.77 164.28 83.6 168.53 80.77 169.99 81.94 164.68 85.49 158.12 81.94 158.12 68.95"/>
      <path class="cls-10" d="m165.71,65.42l-.56-.37-.57-.38h-.02s-.28.16-.28.16l-.44.25-1.23.69-.34.2-1.44.81-1.01.57-.44.25-.58.32-1.23.7v13.64l1.94,1.1.62.35.44.25,1.07.61,1.51.86.28.16,1.15.65.1-.07.85-.56.58-.39.55-.37,3.9-2.61v-13.59l-4.85-3.23Zm0,18.71l-.85.57-.33.22-.95-.54-.26-.15-1.53-.86-1.08-.61-.44-.26-.62-.35-.96-.54v-12.32l.25-.14.58-.33.44-.25,1.02-.57,1.45-.82.33-.19,1.23-.7.54-.3.22.14.59.4.55.37,3.53,2.35v12.39l-2.58,1.73-.55.37-.58.39Z"/>
      <polygon class="cls-7" points="164.53 68.65 161.8 70.47 161.8 80.42 164.53 82.26 167.24 80.42 167.24 70.47 164.53 68.65"/>
      <polygon class="cls-1" points="164.53 68.65 164.45 70.84 165.58 71.58 165.63 79.35 167.24 80.42 167.24 70.47 164.63 68.72 164.53 68.65"/>
      <polygon class="cls-4" points="161.8 70.47 163.42 71.71 163.44 79.4 164.45 80.1 165.63 79.35 167.24 80.42 164.53 82.26 161.8 80.42 161.8 70.47"/>
      <path class="cls-6" d="m161.52,70.32l-.37,10.4,3.36,2.28,3.28-2.31-.27-10.36-3-2.01-3.01,2.01Zm3.01-1.32l2.44,1.62v9.64l-2.44,1.64-2.44-1.64v-9.64l2.44-1.62Z"/>
      <polygon class="cls-8" points="165.52 79.73 164.63 80.57 163.19 79.65 163.26 71.6 163.42 71.71 163.76 79.35 164.58 79.87 165.48 79.45 165.52 79.73"/>
    </g>
  </g>
</svg>