<svg xmlns="http://www.w3.org/2000/svg" viewBox="0 0 188.3 80.62">
  <path fill="#376b2b" d="M177.34 51.13c-15.56-5.5-31.14-11-47.02-15.55-16.95-4.86-34.21-8.45-51.77-10.22-9.16-.92-18.4-.77-27.53-1.95l3.99.54c-4.75-.65-9.41-1.74-13.84-3.6 1.19.5 2.39 1.01 3.58 1.51a48.256 48.256 0 0 1-10.24-6.01l3.04 2.35a48.332 48.332 0 0 1-8.4-8.39l2.35 3.04a47.81 47.81 0 0 1-3.61-5.43c-1.85-3.25-5.37-5.9-8.96-6.89-3.6-1.01-8.39-.57-11.57 1.49S1.34 7.16.46 10.98s-.53 7.97 1.52 11.56c2.89 5.07 6.61 9.86 10.86 13.87 4.24 4 9.1 7.63 14.34 10.23 5.73 2.85 11.71 4.97 18.03 5.97 6.88 1.09 13.75 1.56 20.7 1.87 6.59.3 13.14.84 19.68 1.71l-3.99-.54c23.54 3.19 46.35 10.09 68.77 17.76 6.35 2.17 12.68 4.41 19.01 6.65 3.51 1.24 8.43.32 11.56-1.51 3.11-1.82 6.08-5.39 6.89-8.96.87-3.84.69-8.15-1.51-11.56l-2.35-3.04c-1.87-1.86-4.08-3.14-6.62-3.86Z" />
</svg>