<svg xmlns="http://www.w3.org/2000/svg" viewBox="0 0 163.86 89.66">
  <path fill="#561253" d="M15.01 30.04c.51.05 1.03.11 1.54.17l-3.99-.54c3.91.53 7.68 1.62 11.32 3.13-1.19-.5-2.39-1.01-3.58-1.51 6.18 2.63 11.79 6.37 17.09 10.45-1.01-.78-2.02-1.56-3.04-2.35 5.75 4.45 11.18 9.31 16.78 13.95C58 59.02 65.15 64.39 72.78 69.02s15.76 8.45 24.08 11.77c7.19 2.86 14.63 5.08 22.24 6.51 9.79 1.84 19.79 2.8 29.75 2.17 3.99-.25 7.72-1.5 10.61-4.39 2.6-2.6 4.56-6.87 4.39-10.61-.17-3.88-1.45-7.9-4.39-10.61-2.83-2.6-6.64-4.64-10.61-4.39-6.73.42-13.48.15-20.16-.73l3.99.54c-10.46-1.43-20.66-4.37-30.38-8.46l3.58 1.51C94.52 47.5 83.87 41.15 74.09 33.62l3.04 2.35c-6.59-5.1-12.73-10.74-19.22-15.94-4.05-3.25-8.17-6.47-12.54-9.3-4.34-2.81-8.9-4.95-13.68-6.92C26.32 1.59 20.78.59 15.01.04 11.4-.31 6.87 1.96 4.4 4.43 1.8 7.03-.16 11.3 0 15.04c.17 3.88 1.45 7.9 4.39 10.61L7.43 28A14.91 14.91 0 0 0 15 30.05Z"/>
</svg>
