<svg xmlns="http://www.w3.org/2000/svg" viewBox="0 0 168.75 53.35">
  <path fill="#8c1948" d="M19 47.34c1.87-.45 3.76-.8 5.66-1.06l-3.99.54c7.47-.98 14.99-.54 22.43.45l-3.99-.54c16.3 2.22 32.45 6.83 49.01 6.62 17.75-.23 34.46-5.97 50.35-13.45 7.8-3.67 15.35-7.83 22.87-12.02 3.25-1.81 5.91-5.41 6.89-8.96s.54-8.37-1.51-11.56c-2.06-3.2-5.14-6.02-8.96-6.89-3.99-.91-7.93-.5-11.56 1.51-9.55 5.31-19.15 10.58-29.22 14.86 1.19-.5 2.39-1.01 3.58-1.51-8.71 3.68-17.76 6.57-27.15 7.87l3.99-.54c-8.02 1.06-16.03.74-24.04-.31l3.99.54c-7.77-1.05-15.45-2.66-23.18-3.98-8.8-1.5-17.78-2.87-26.73-2.62-5.5.15-11.08.86-16.43 2.13-3.59.85-7.13 3.75-8.96 6.89C.17 28.53-.63 33.26.54 36.87 1.71 40.5 3.96 44 7.43 45.83c3.64 1.92 7.5 2.48 11.56 1.51Z"/>
</svg>
