<svg xmlns="http://www.w3.org/2000/svg" viewBox="0 0 171.85 65.1">
  <path fill="#965917" d="M19 32.76c2.98-.52 5.96-.99 8.96-1.39l-3.99.54c14.09-1.88 28.36-2.41 42.54-1.41 4.01.28 8.02.7 12 1.23l-3.99-.54c14.63 1.99 29.02 5.7 42.63 11.44-1.19-.5-2.39-1.01-3.58-1.51 10.87 4.62 21.16 10.51 30.52 17.72l-3.04-2.35a139.5 139.5 0 0 1 5.17 4.21c3.07 2.63 6.45 4.39 10.61 4.39 3.68 0 8.07-1.63 10.61-4.39 2.62-2.86 4.57-6.61 4.39-10.61-.17-3.8-1.4-8.04-4.39-10.61-8.32-7.13-17.31-13.52-26.98-18.68-9.64-5.15-19.89-9.36-30.34-12.56C99.52 5 88.7 3.04 77.73 1.61 67.9.34 57.98-.16 48.07.04 35.65.29 23.25 1.69 11.02 3.83c-3.5.62-7.24 3.94-8.96 6.89C.18 13.94-.62 18.68.55 22.29c1.17 3.63 3.42 7.13 6.89 8.96 1.19.5 2.39 1.01 3.58 1.51 2.66.71 5.32.71 7.98 0Z"/>
</svg>
