<svg xmlns="http://www.w3.org/2000/svg" viewBox="0 0 211.24 91.22">
  <path fill="#8c1948" d="M200.28 9.42c-9.41-2.4-18.86-4.68-28.44-6.34-10.63-1.84-21.48-3.22-32.29-3.07-10.48.15-21.27 1.54-31.22 4.94-10.09 3.45-19.21 8.51-27.64 14.99-9.32 7.16-17.93 15.17-27.21 22.37 1.01-.78 2.02-1.56 3.04-2.35a129.867 129.867 0 0 1-28.4 16.64c1.19-.5 2.39-1.01 3.58-1.51-6.69 2.82-13.6 5.08-20.67 6.74-3.59.84-7.13 3.76-8.96 6.89C.19 71.94-.61 76.67.56 80.28c1.17 3.63 3.42 7.13 6.89 8.96 3.65 1.93 7.5 2.47 11.56 1.51 12.17-2.86 24.04-7.5 35.05-13.43 10.95-5.9 20.72-13.57 30.16-21.62 4.73-4.04 9.42-8.13 14.33-11.95-1.01.78-2.02 1.56-3.04 2.35 6.14-4.75 12.65-8.97 19.82-12-1.19.5-2.39 1.01-3.58 1.51 6.39-2.65 13.1-4.36 19.95-5.29l-3.99.54c10.82-1.42 21.78-.92 32.57.52l-3.99-.54c12.17 1.65 24.14 4.48 36.03 7.51 3.81.97 8.14.49 11.56-1.51 3.11-1.82 6.08-5.39 6.89-8.96.87-3.84.69-8.15-1.51-11.56s-5.13-5.91-8.96-6.89Z"/>
</svg>
