<svg xmlns="http://www.w3.org/2000/svg" viewBox="0 0 184.67 62.18">
  <path fill="#965917" d="M173.7 32.36c-13.72-2.93-27.46-5.65-41.43-7.1-13.64-1.42-27.39-1.06-40.84 1.77-7.03 1.48-13.75 4.33-20.88 5.34l3.99-.54c-3.59.47-7.2.43-10.79-.04l3.99.54c-4.48-.63-8.81-1.89-12.99-3.63l3.58 1.51c-5.71-2.43-10.96-5.72-15.87-9.51 1.01.78 2.02 1.56 3.04 2.35-7.19-5.6-13.55-12.13-19.88-18.65C22.96 1.66 18.8 0 15.01 0S6.94 1.63 4.4 4.39C1.78 7.25-.17 11.01.01 15s1.55 7.68 4.39 10.61c9.79 10.09 19.96 20.33 32.3 27.3 3.74 2.11 7.7 3.83 11.7 5.37a51.63 51.63 0 0 0 9.22 2.63c4.27.78 8.68 1.38 13.03 1.24s9.01-.85 13.35-1.97c3.64-.94 7.2-2.17 10.83-3.14 3.77-1.01 7.61-1.74 11.48-2.27l-3.99.54c11.83-1.54 23.8-.94 35.59.62l-3.99-.54c10.69 1.44 21.25 3.64 31.79 5.89 3.95.84 8 .57 11.56-1.51 3.11-1.82 6.08-5.39 6.89-8.96.87-3.84.69-8.15-1.51-11.56-2.05-3.18-5.15-6.08-8.96-6.89Z"/>
</svg>
