<svg xmlns="http://www.w3.org/2000/svg" viewBox="0 0 202.84 102.1">
  <path fill="#0a4360" d="M195.37 74.14c-13.71-6.05-27.73-11.3-42.17-15.32-14.5-4.04-29.24-6.75-44.16-8.67-3.75-.48-7.52-.89-11.29-1.22-3.88-.34-7.77-.49-11.63-1l3.99.54c-2.54-.36-5.03-.91-7.42-1.86 1.19.5 2.39 1.01 3.58 1.51-2.26-.96-4.33-2.24-6.27-3.73 1.01.78 2.02 1.56 3.04 2.35-3.58-2.81-6.65-6.19-9.86-9.4-3.35-3.35-6.84-6.55-10.47-9.6-8.12-6.81-16.75-13.08-25.93-18.39-4.6-2.66-9.33-5.09-14.16-7.29C20.9.96 19.04.37 17.04.28c-1.99-.45-3.99-.36-5.98.27-3.49.96-7.26 3.65-8.97 6.89C.25 10.92-.68 15.14.57 19c1.13 3.5 3.4 7.38 6.89 8.96a164.081 164.081 0 0 1 32.03 19.28l-3.04-2.35c3.86 2.99 7.59 6.14 11.17 9.46 3.45 3.2 6.64 6.66 10.03 9.93 2.45 2.37 5.11 4.47 7.85 6.49 2.83 2.09 5.94 3.45 9.2 4.75 2.39.95 4.88 1.5 7.42 1.86 3.75.53 7.46.91 11.23 1.18 5.86.42 11.7 1.03 17.52 1.81l-3.99-.54c19.45 2.64 38.61 7.27 57.11 13.82 5.24 1.86 10.43 3.87 15.55 6.03-1.19-.5-2.39-1.01-3.58-1.51 1.42.6 2.84 1.21 4.25 1.84 1.72 1.1 3.58 1.69 5.58 1.78 1.99.45 3.99.36 5.98-.27 3.48-.96 7.25-3.65 8.96-6.89 1.84-3.48 2.76-7.7 1.51-11.56-1.12-3.47-3.4-7.43-6.89-8.96Z"/>
</svg>
