<svg xmlns="http://www.w3.org/2000/svg" viewBox="0 0 138.75 48.87">
  <path fill="#0a4360" d="M15.01 30.02c5.58-.12 11.15.26 16.69 1l-3.99-.54c24.49 3.33 47.51 13.29 71.98 16.74 8 1.13 15.96 1.95 24.05 1.55 3.96-.2 7.75-1.54 10.61-4.39 2.6-2.6 4.56-6.87 4.39-10.61-.17-3.88-1.45-7.9-4.39-10.61s-6.62-4.59-10.61-4.39c-6.42.32-12.85-.05-19.22-.9l3.99.54C84.73 15.17 62.34 5.7 38.66 1.98 30.83.76 22.95-.15 15.01.02 11.11.1 7.18 1.64 4.4 4.41 1.8 7.01-.16 11.28 0 15.02c.17 3.88 1.45 7.9 4.39 10.61 2.9 2.66 6.57 4.48 10.61 4.39Z"/>
</svg>
